<svg width="16" height="16" viewBox="0 0 16 16" fill="none" xmlns="http://www.w3.org/2000/svg">
<path fill-rule="evenodd" clip-rule="evenodd" d="M9.02324 13.3315C12.2763 12.7461 14.4041 9.47302 13.7837 6.00945C13.1629 2.54626 10.0274 0.195959 6.76923 0.751826C5.60461 0.951263 4.53041 1.51171 3.68071 2.36309C4.46424 1.72529 5.39464 1.30187 6.38569 1.13168C9.64499 0.576107 12.7652 2.83299 13.3658 6.18014C13.9668 9.52728 11.822 12.7056 8.56762 13.2896C8.15588 13.3626 7.73722 13.3912 7.31855 13.3748C7.88802 13.4463 8.46188 13.4316 9.02324 13.3315Z" fill="#2E0535"/>
<path fill-rule="evenodd" clip-rule="evenodd" d="M10.1688 13.3323C13.8636 12.6711 16.3206 9.19148 15.6656 5.5482C15.0102 1.90487 11.4891 -0.530765 7.78889 0.0992093C6.46655 0.325151 5.23745 0.953998 4.26253 1.86309C5.15975 1.18006 6.2236 0.697852 7.34928 0.504906C11.0503 -0.124736 14.5554 2.21254 15.1898 5.73366C15.8241 9.25473 13.3492 12.6345 9.65309 13.2943C9.18543 13.3767 8.71068 13.4125 8.23644 13.4009C8.88058 13.4685 9.53121 13.4454 10.1688 13.3323Z" fill="#2E0535"/>
<path fill-rule="evenodd" clip-rule="evenodd" d="M9.65642 13.3195C13.093 12.7025 15.3559 9.33126 14.7184 5.77818C14.0805 2.22523 10.7827 -0.172542 7.3407 0.414241C6.11059 0.624704 4.97385 1.18755 4.0725 2.06594C4.90307 1.40734 5.88707 0.985879 6.93424 0.806291C10.3771 0.21984 13.6593 2.52154 14.2766 5.95536C14.8939 9.3893 12.6136 12.663 9.17589 13.2787C8.74088 13.3556 8.2986 13.3869 7.85667 13.3723C8.45747 13.4429 9.06339 13.4251 9.65642 13.3195Z" fill="#2E0535"/>
<path fill-rule="evenodd" clip-rule="evenodd" d="M12.5669 4.92759C10.4063 2.46107 6.46409 2.31203 3.74816 4.59425C1.03262 6.8766 0.565089 10.7312 2.70268 13.2171C3.46725 14.105 4.50205 14.7337 5.67739 15.024C4.72245 14.6814 3.88064 14.1059 3.2292 13.3502C1.09182 10.8632 1.48507 7.06921 4.10893 4.86259C6.73347 2.65614 10.6011 2.8676 12.7609 5.33574C13.0333 5.64848 13.2707 5.98964 13.4686 6.35356C13.2426 5.83377 12.9391 5.35363 12.5669 4.92759Z" fill="#2E0535"/>
<path fill-rule="evenodd" clip-rule="evenodd" d="M11.9871 3.95416C9.53648 1.15069 5.24669 0.82676 2.39106 3.22957C-0.464431 5.63238 -0.811308 9.85774 1.61492 12.6815C2.48274 13.6904 3.65413 14.4001 4.94349 14.7674C3.89137 14.3515 2.93177 13.708 2.19258 12.8494C-0.233815 10.0245 0.035231 5.86286 2.79436 3.53969C5.55349 1.21652 9.76494 1.60628 12.2151 4.41138C12.5242 4.76685 12.7961 5.15207 13.0262 5.56085C12.7589 4.97948 12.4091 4.43838 11.9871 3.95416Z" fill="#2E0535"/>
<path fill-rule="evenodd" clip-rule="evenodd" d="M12.2357 4.39594C9.95396 1.78945 5.85767 1.57557 3.07231 3.91759C0.286794 6.25961 -0.139938 10.2761 2.11771 12.9026C2.92519 13.8409 3.94002 14.4937 5.16519 14.8142C4.16781 14.4425 3.35424 13.8477 2.6667 13.0494C0.408712 10.4219 0.7596 6.46732 3.45091 4.20299C6.14272 1.93866 10.1627 2.21662 12.4434 4.82489C12.7309 5.15532 12.9825 5.51487 13.1935 5.89781C12.951 5.35184 12.6285 4.84616 12.2357 4.39594Z" fill="#2E0535"/>
<path fill-rule="evenodd" clip-rule="evenodd" d="M3.4471 5.86252C2.24144 8.89647 3.94727 12.4013 7.26333 13.7029C10.579 15.0045 14.2573 13.613 15.4912 10.5903C15.9313 9.50959 16.0126 8.31443 15.725 7.15472C15.8628 8.14687 15.7393 9.14908 15.3647 10.0692C14.1299 13.0926 10.5409 14.5203 7.33571 13.2634C4.13055 12.0062 2.51543 8.53696 3.72295 5.50284C3.8765 5.11941 4.07181 4.75353 4.30623 4.41121C3.94512 4.85073 3.65597 5.33932 3.4471 5.86252Z" fill="#2E0535"/>
<path fill-rule="evenodd" clip-rule="evenodd" d="M2.84387 6.82201C1.47106 10.2659 3.18238 14.1554 6.67179 15.5227C10.1612 16.8898 14.1154 15.2204 15.5179 11.788C16.0186 10.561 16.1265 9.18108 15.8546 7.88613C15.9719 8.99708 15.8248 10.1614 15.3992 11.2062C13.9958 14.6391 10.1348 16.3468 6.76186 15.0265C3.38893 13.706 1.77347 9.85417 3.14805 6.40995C3.32258 5.97471 3.54167 5.55794 3.80096 5.16656C3.40392 5.67075 3.08141 6.22824 2.84387 6.82201Z" fill="#2E0535"/>
<path fill-rule="evenodd" clip-rule="evenodd" d="M3.12464 6.39925C1.84947 9.60384 3.56919 13.2733 6.97135 14.6079C10.3736 15.9424 14.178 14.4399 15.482 11.2468C15.9471 10.1053 16.0595 8.85357 15.7754 7.63647C15.9067 8.67885 15.753 9.72805 15.3574 10.7C14.0524 13.8936 10.3393 15.4335 7.05066 14.1447C3.76201 12.8556 2.1357 9.22286 3.41231 6.01806C3.57498 5.61303 3.78034 5.22618 4.02548 4.86355C3.64871 5.32975 3.34516 5.84675 3.12464 6.39925Z" fill="#2E0535"/>
<path fill-rule="evenodd" clip-rule="evenodd" d="M4.62396 5.23888L4.64606 5.2171H5.53601L5.55812 5.23888V5.28827C5.55812 5.51413 5.42004 5.69878 5.2369 5.8011C5.45703 5.9028 5.58979 6.12102 5.58979 6.33701V6.3864L5.56769 6.40818H4.64606L4.62396 6.3864V5.23888ZM4.66817 5.26066V6.36462H5.54558V6.33701C5.54558 6.12486 5.40617 5.90874 5.17736 5.82357L5.1756 5.78356C5.36744 5.69274 5.51391 5.51092 5.51391 5.28827V5.26066H4.66817ZM4.78692 5.38518L4.80903 5.3634H5.35126L5.37324 5.38753C5.34675 5.62806 5.10965 5.76389 4.91528 5.76389H4.80903L4.78692 5.74211V5.38518ZM4.83113 5.40696V5.72033H4.91528C5.08748 5.72033 5.28967 5.60426 5.32576 5.40696H4.83113ZM4.78692 5.88317L4.80903 5.86139H4.94235C5.16668 5.86139 5.37278 6.02234 5.40626 6.23746L5.38441 6.26254H4.80903L4.78692 6.24076V5.88317ZM4.83113 5.90495V6.21898H5.35772C5.31629 6.03948 5.1379 5.90495 4.94235 5.90495H4.83113Z" fill="#2E0535"/>
<path d="M5.18499 5.80289C5.38292 5.70944 5.536 5.52086 5.536 5.28814V5.23887H4.64588V6.38639H5.56751V6.33713C5.56751 6.11593 5.42287 5.89132 5.18499 5.80289ZM5.35125 5.38484C5.32633 5.61107 5.10167 5.7421 4.91544 5.7421H4.80889V5.38484H5.35125ZM4.80889 5.88316H4.942C5.15661 5.88316 5.35289 6.03724 5.38457 6.24042H4.80889V5.88316Z" fill="#2E0535"/>
<path fill-rule="evenodd" clip-rule="evenodd" d="M6.10097 5.24668L6.1216 5.21709H6.30442L6.32504 5.23103L6.7742 6.37855L6.75357 6.40817H6.5708L6.5502 6.39428L6.49501 6.25431L5.69527 6.4259L5.66856 6.40666C5.66527 6.3723 5.66187 6.33489 5.66187 6.30122C5.66187 5.93375 5.89397 5.63488 6.21996 5.55183L6.10097 5.24668ZM6.15378 5.26065L6.27028 5.5594L6.25442 5.58848C5.93718 5.6576 5.70608 5.94331 5.70608 6.30122C5.70608 6.32517 5.70794 6.35152 5.7103 6.37809L6.50406 6.20778L6.52937 6.22118L6.58593 6.36461H6.72135L6.28925 5.26065H6.15378ZM5.88947 6.18668L6.42428 6.07208L6.29373 5.73771C6.06406 5.78525 5.90943 5.96073 5.88947 6.18668ZM5.84352 6.21327C5.85361 5.94768 6.03396 5.7387 6.30384 5.69141L6.32834 5.70503L6.4748 6.08014L6.45886 6.10925L5.8703 6.23537L5.84352 6.21327Z" fill="#2E0535"/>
<path d="M6.75374 6.38639L6.30454 5.23887H6.1216L6.24964 5.56672C5.92186 5.63887 5.68398 5.93388 5.68398 6.30122C5.68398 6.33388 5.68727 6.37 5.69056 6.40445L6.5091 6.22906L6.5708 6.38639H6.75374ZM5.86527 6.21425C5.87532 5.9586 6.04838 5.7585 6.30788 5.71268L6.45433 6.08796L5.86527 6.21425Z" fill="#2E0535"/>
<path fill-rule="evenodd" clip-rule="evenodd" d="M6.85174 5.23887L6.87384 5.21709H7.82186L7.84397 5.23887V5.3962L7.83831 5.41075L7.11258 6.20728H7.82997L7.85207 6.22906V6.38639L7.82997 6.40817H6.8567L6.83459 6.38639V6.22906L6.84025 6.21451L7.56593 5.41798H6.87384L6.85174 5.3962V5.23887ZM6.89595 5.26065V5.37442H7.61548L7.63193 5.41075L6.8788 6.23741V6.36461H7.80786V6.25084H7.06303L7.04658 6.21451L7.79975 5.38786V5.26065H6.89595Z" fill="#2E0535"/>
<path d="M6.85688 6.3864H7.83011V6.22907H7.06322L7.82187 5.39621V5.23888H6.87352V5.39621H7.6155L6.85688 6.22907V6.3864Z" fill="#2E0535"/>
<path fill-rule="evenodd" clip-rule="evenodd" d="M8.34691 5.24667L8.36755 5.21709H8.55015L8.57078 5.23103L9.02031 6.37855L8.99969 6.40817H8.81692L8.79632 6.39428L8.74112 6.25431L7.94139 6.4259L7.91467 6.40666C7.91139 6.3723 7.90799 6.33489 7.90799 6.30122C7.90799 5.93376 8.14008 5.63489 8.46572 5.55183L8.34691 5.24667ZM8.39971 5.26065L8.51602 5.55941L8.50016 5.58848C8.18331 5.65759 7.9522 5.9433 7.9522 6.30122C7.9522 6.32517 7.95406 6.35152 7.95642 6.37809L8.75018 6.20778L8.77549 6.22118L8.83205 6.36461H8.96746L8.53499 5.26065H8.39971ZM8.13544 6.18668L8.67021 6.07208L8.53948 5.73771C8.31017 5.78526 8.15555 5.96073 8.13544 6.18668ZM8.08947 6.21326C8.09974 5.94768 8.28007 5.73871 8.54957 5.69141L8.57408 5.70502L8.72074 6.08013L8.70481 6.10925L8.11625 6.23537L8.08947 6.21326Z" fill="#2E0535"/>
<path d="M8.9997 6.3864L8.5505 5.23888H8.36756L8.49556 5.56672C8.16782 5.63887 7.92994 5.93389 7.92994 6.30122C7.92994 6.33389 7.93323 6.37 7.93652 6.40446L8.75506 6.22907L8.81676 6.3864H8.9997ZM8.11123 6.21426C8.12128 5.95861 8.29434 5.7585 8.5538 5.71269L8.70029 6.08797L8.11123 6.21426Z" fill="#2E0535"/>
<path fill-rule="evenodd" clip-rule="evenodd" d="M4.49924 7.288L4.52135 7.26621H5.51903L5.54113 7.288V7.44532L5.51903 7.4671H5.12525V8.43552L5.10315 8.4573H4.93706L4.91495 8.43552V7.4671H4.52135L4.49924 7.44532V7.288ZM4.54345 7.30978V7.42354H4.93706L4.95916 7.44532V8.41373H5.08104V7.44532L5.10315 7.42354H5.49692V7.30978H4.54345Z" fill="#2E0535"/>
<path d="M5.51935 7.288H4.52117V7.44532H4.93705V8.43535H5.10331V7.44532H5.51935V7.288Z" fill="#2E0535"/>
<path fill-rule="evenodd" clip-rule="evenodd" d="M5.67193 7.288L5.69404 7.26621H6.59193L6.61403 7.288V7.33743C6.61403 7.5968 6.48327 7.79513 6.28438 7.91074L6.69781 8.42194L6.68052 8.4573H6.4771L6.4597 8.44894L6.09479 7.98963C6.02599 8.00753 5.95436 8.019 5.87915 8.02229V8.43552L5.85704 8.4573H5.69404L5.67193 8.43552V7.288ZM5.71614 7.30978V8.41373H5.83494V8.00123L5.85653 7.97946C5.94101 7.97755 6.02082 7.96482 6.09722 7.94384L6.12056 7.9514L6.48787 8.41373H6.63464L6.23367 7.91794L6.2404 7.88523C6.43878 7.7789 6.56982 7.58962 6.56982 7.33743V7.30978H5.71614ZM5.83494 7.43105L5.85704 7.40927H6.41904L6.44087 7.43447C6.39747 7.70376 6.17196 7.87413 5.85704 7.87413L5.83494 7.85235V7.43105ZM5.87915 7.45283V7.83027C6.15433 7.82287 6.34483 7.6768 6.3925 7.45283H5.87915Z" fill="#2E0535"/>
<path d="M6.47761 8.43535H6.68052L6.2513 7.90436C6.45599 7.79447 6.59243 7.59778 6.59243 7.3371V7.288H5.69404V8.43535H5.85704V8.00107C5.94349 7.99944 6.02512 7.98625 6.10333 7.96499L6.47761 8.43535ZM5.85704 7.85185V7.43055H6.41937C6.37782 7.68799 6.16321 7.85185 5.85704 7.85185Z" fill="#2E0535"/>
<path fill-rule="evenodd" clip-rule="evenodd" d="M7.13067 7.29581L7.1513 7.26621H7.33408L7.3547 7.28015L7.80423 8.42767L7.78361 8.4573H7.60084L7.58024 8.4434L7.52504 8.30343L6.72531 8.47502L6.6986 8.45578C6.69531 8.42146 6.69191 8.38406 6.69191 8.35034C6.69191 7.98289 6.92399 7.68402 7.24979 7.60096L7.13067 7.29581ZM7.18349 7.30978L7.3001 7.60852L7.28425 7.63761C6.96723 7.70672 6.73612 7.99243 6.73612 8.35034C6.73612 8.37432 6.73798 8.40067 6.74034 8.42721L7.5341 8.25691L7.55941 8.2703L7.61597 8.41373H7.75138L7.31891 7.30978H7.18349ZM6.91936 8.23584L7.45399 8.1212L7.32355 7.78683C7.09409 7.83438 6.93947 8.00985 6.91936 8.23584ZM6.87339 8.26242C6.88366 7.9968 7.06399 7.78783 7.33366 7.74053L7.35817 7.75416L7.5045 8.12928L7.48856 8.15837L6.90018 8.28453L6.87339 8.26242Z" fill="#2E0535"/>
<path d="M7.7836 8.43535L7.3344 7.288H7.15129L7.27946 7.61584C6.95172 7.68799 6.71383 7.98301 6.71383 8.35017C6.71383 8.383 6.71713 8.41912 6.72042 8.45341L7.53896 8.27802L7.60049 8.43535H7.7836ZM6.89513 8.26338C6.90518 8.00756 7.07807 7.80762 7.3377 7.76164L7.48402 8.13709L6.89513 8.26338Z" fill="#2E0535"/>
<path fill-rule="evenodd" clip-rule="evenodd" d="M7.93966 7.288L7.96177 7.26621H8.12807L8.15017 7.288V8.43552L8.12807 8.4573H7.96177L7.93966 8.43552V7.288ZM7.98387 7.30978V8.41373H8.10596V7.30978H7.98387Z" fill="#2E0535"/>
<path d="M7.96161 7.288H8.12791V8.43535H7.96161V7.288Z" fill="#2E0535"/>
<path fill-rule="evenodd" clip-rule="evenodd" d="M8.40534 7.288L8.42745 7.26621H8.59375L8.61004 7.27327L9.25391 7.96475V7.288L9.27601 7.26621H9.4421L9.46421 7.288V8.43552L9.4421 8.4573H9.27601L9.25391 8.43552V8.25093L8.61585 7.56687V8.43552L8.59375 8.4573H8.42745L8.40534 8.43552V7.288ZM8.44955 7.30978V8.41373H8.57164V7.51098L8.61002 7.49625L9.29229 8.22771L9.29812 8.24244V8.41373H9.42V7.30978H9.29812V8.02071L9.25972 8.03543L8.58403 7.30978H8.44955Z" fill="#2E0535"/>
<path d="M9.27584 7.288V8.02071L8.59375 7.288H8.42745V8.43535H8.59375V7.51082L9.27584 8.24195V8.43535H9.44227V7.288H9.27584Z" fill="#2E0535"/>
<path fill-rule="evenodd" clip-rule="evenodd" d="M9.71974 7.288L9.74185 7.26621H10.5238L10.5459 7.288V7.44208L10.5238 7.46386H9.93026V7.76295H10.4734L10.4955 7.78474V7.93882L10.4734 7.9606H9.93026V8.25965H10.5238L10.5459 8.28143V8.43552L10.5238 8.4573H9.74185L9.71974 8.43552V7.288ZM9.76396 7.30978V8.41373H10.5017V8.30322H9.90815L9.88604 8.28143V7.93882L9.90815 7.91704H10.4513V7.80652H9.90815L9.88604 7.78474V7.44208L9.90815 7.4203H10.5017V7.30978H9.76396Z" fill="#2E0535"/>
<path d="M10.5236 7.44208V7.288H9.74167V8.43535H10.5236V8.28127H9.90797V7.93882H10.4736V7.78474H9.90797V7.44208H10.5236Z" fill="#2E0535"/>
<path fill-rule="evenodd" clip-rule="evenodd" d="M10.7512 7.288L10.7733 7.26621H11.5552L11.5773 7.288V7.44208L11.5552 7.46386H10.9615V7.76295H11.5051L11.5272 7.78474V7.93882L11.5051 7.9606H10.9615V8.25965H11.5552L11.5773 8.28143V8.43552L11.5552 8.4573H10.7733L10.7512 8.43552V7.288ZM10.7954 7.30978V8.41373H11.5331V8.30322H10.9394L10.9173 8.28143V7.93882L10.9394 7.91704H11.483V7.80652H10.9394L10.9173 7.78474V7.44208L10.9394 7.4203H11.5331V7.30978H10.7954Z" fill="#2E0535"/>
<path d="M11.5551 7.44208V7.288H10.7732V8.43535H11.5551V8.28127H10.9394V7.93882H11.5051V7.78474H10.9394V7.44208H11.5551Z" fill="#2E0535"/>
<path fill-rule="evenodd" clip-rule="evenodd" d="M4.60743 9.33695L4.62954 9.31517H4.79584L4.81795 9.33695V9.73682C4.81795 9.92025 4.87419 10.0615 4.97742 10.157C5.08086 10.2528 5.23445 10.3054 5.43457 10.3054H5.45537V9.33695L5.47747 9.31517H5.64373L5.66584 9.33695V10.4845L5.64373 10.5063H5.43457C5.17529 10.5063 4.96796 10.4373 4.82532 10.305C4.68248 10.1725 4.60743 9.97927 4.60743 9.73682V9.33695ZM4.65164 9.35874V9.73682C4.65164 9.97028 4.72367 10.1509 4.85562 10.2732C4.98776 10.3958 5.18294 10.4627 5.43457 10.4627H5.62162V9.35874H5.49958V10.3271L5.47747 10.3489H5.43457C5.22691 10.3489 5.06114 10.2943 4.94715 10.1888C4.83297 10.0831 4.77373 9.92918 4.77373 9.73682V9.35874H4.65164Z" fill="#2E0535"/>
<path d="M5.47777 9.33695V10.3271H5.4344C5.0268 10.3271 4.79567 10.1124 4.79567 9.73695V9.33695H4.62924V9.73695C4.62924 10.2124 4.92367 10.4845 5.4344 10.4845H5.64407V9.33695H5.47777Z" fill="#2E0535"/>
<path fill-rule="evenodd" clip-rule="evenodd" d="M5.92154 9.33695L5.94365 9.31517H6.10661L6.12872 9.33695V9.81711H6.2333C6.36733 9.81711 6.4761 9.77533 6.55148 9.69615C6.62702 9.61681 6.67159 9.49725 6.67159 9.33695L6.69369 9.31517H6.86016L6.88227 9.33695C6.88227 9.57713 6.78711 9.80324 6.58747 9.90215C6.8006 10.0024 6.90537 10.2337 6.90537 10.4845L6.88326 10.5063H6.71679L6.69468 10.4845C6.69468 10.3425 6.65394 10.2228 6.57709 10.139C6.50054 10.0554 6.38601 10.005 6.2333 10.005H6.12872V10.4845L6.10661 10.5063H5.94365L5.92154 10.4845V9.33695ZM5.96575 9.35874V10.4627H6.08451V9.9832L6.10661 9.96142H6.2333C6.39647 9.96142 6.52369 10.0157 6.60991 10.1098C6.69165 10.199 6.7346 10.3219 6.73859 10.4627H6.86088C6.85456 10.2134 6.73953 9.99868 6.5235 9.92313L6.52327 9.88215C6.72583 9.80881 6.83177 9.59913 6.83778 9.35874H6.71553C6.71164 9.51638 6.66526 9.64031 6.58373 9.72596C6.49832 9.81566 6.37689 9.86068 6.2333 9.86068H6.10661L6.08451 9.83889V9.35874H5.96575Z" fill="#2E0535"/>
<path d="M6.53073 9.90259C6.7521 9.82229 6.86017 9.59118 6.86017 9.33695H6.69387C6.69387 9.66479 6.51076 9.83855 6.23297 9.83855H6.10662V9.33695H5.94349V10.4845H6.10662V9.9829H6.23297C6.54906 9.9829 6.71714 10.1927 6.71714 10.4845H6.88356C6.88356 10.2205 6.76532 9.98452 6.53073 9.90259Z" fill="#2E0535"/>
<path fill-rule="evenodd" clip-rule="evenodd" d="M7.08614 9.33695L7.10825 9.31517H8.0061L8.0282 9.33695V9.38638C8.0282 9.64575 7.89764 9.84409 7.6984 9.9597L8.11181 10.4709L8.09453 10.5062H7.89148L7.87408 10.4979L7.50881 10.0386C7.44024 10.0565 7.3685 10.068 7.29315 10.0712V10.4845L7.27105 10.5062H7.10825L7.08614 10.4845V9.33695ZM7.13035 9.35873V10.4627H7.24894V10.0502L7.27054 10.0284C7.35519 10.0265 7.43516 10.0138 7.5112 9.9928L7.53456 10.0003L7.90225 10.4627H8.04865L7.64768 9.96689L7.65442 9.93417C7.85316 9.82785 7.98399 9.63858 7.98399 9.38638V9.35873H7.13035ZM7.24894 9.48L7.27105 9.45822H7.83342L7.85525 9.48345C7.81145 9.75275 7.58597 9.92308 7.27105 9.92308L7.24894 9.9013V9.48ZM7.29315 9.50178V9.87922C7.56832 9.87182 7.75884 9.7258 7.80684 9.50178H7.29315Z" fill="#2E0535"/>
<path d="M7.89167 10.4845H8.09471L7.66548 9.95332C7.87004 9.8436 8.00645 9.64678 8.00645 9.38622V9.33695H7.10809V10.4845H7.27106V10.05C7.35767 10.0484 7.43917 10.0354 7.51734 10.0141L7.89167 10.4845ZM7.27106 9.90098V9.47968H7.83343C7.79183 9.73695 7.57722 9.90098 7.27106 9.90098Z" fill="#2E0535"/>
<path fill-rule="evenodd" clip-rule="evenodd" d="M8.54489 9.34476L8.56553 9.31517H8.7483L8.76892 9.32912L9.21808 10.4766L9.19745 10.5063H9.01468L8.99407 10.4923L8.93904 10.3524L8.13932 10.524L8.11262 10.5048C8.10916 10.4704 8.10575 10.433 8.10575 10.3993C8.10575 10.0318 8.33785 9.733 8.66385 9.64992L8.54489 9.34476ZM8.5977 9.35874L8.71416 9.65749L8.6983 9.68656C8.38106 9.75572 8.14996 10.0414 8.14996 10.3993C8.14996 10.4233 8.15183 10.4497 8.15426 10.4762L8.94811 10.3059L8.97343 10.3193L9.02983 10.4627H9.16524L8.73313 9.35874H8.5977ZM8.33337 10.2848L8.8682 10.1702L8.73761 9.83579C8.50796 9.88337 8.35347 10.0588 8.33337 10.2848ZM8.2874 10.3114C8.29767 10.0458 8.47783 9.83683 8.74772 9.78949L8.77222 9.80311L8.91872 10.1782L8.90279 10.2073L8.31419 10.3335L8.2874 10.3114Z" fill="#2E0535"/>
<path d="M9.19762 10.4845L8.74847 9.33695H8.56553L8.69353 9.6648C8.36574 9.73695 8.12786 10.032 8.12786 10.3993C8.12786 10.432 8.13115 10.4681 8.13461 10.5025L8.95316 10.3271L9.01468 10.4845H9.19762ZM8.30932 10.3124C8.31924 10.0567 8.49226 9.85658 8.75176 9.81077L8.89821 10.186L8.30932 10.3124Z" fill="#2E0535"/>
<path fill-rule="evenodd" clip-rule="evenodd" d="M9.35368 9.33695L9.37579 9.31517H9.54209L9.5642 9.33695V10.4845L9.54209 10.5063H9.37579L9.35368 10.4845V9.33695ZM9.3979 9.35874V10.4627H9.51999V9.35874H9.3979Z" fill="#2E0535"/>
<path d="M9.37564 9.33695H9.54206V10.4845H9.37564V9.33695Z" fill="#2E0535"/>
<path fill-rule="evenodd" clip-rule="evenodd" d="M9.81934 9.33695L9.84144 9.31517H10.0079L10.0242 9.32222L10.6681 10.0137V9.33695L10.6902 9.31517H10.8565L10.8786 9.33695V10.4845L10.8565 10.5062H10.6902L10.6681 10.4845V10.2999L10.03 9.61586V10.4845L10.0079 10.5062H9.84144L9.81934 10.4845V9.33695ZM9.86355 9.35873V10.4627H9.98581V9.55998L10.0242 9.54524L10.7065 10.2767L10.7123 10.2914V10.4627H10.8344V9.35873H10.7123V10.0697L10.6739 10.0844L9.99819 9.35873H9.86355Z" fill="#2E0535"/>
<path d="M10.69 9.33695V10.0697L10.0079 9.33695H9.84144V10.4845H10.0079V9.55997L10.69 10.2911V10.4845H10.8563V9.33695H10.69Z" fill="#2E0535"/>
<path fill-rule="evenodd" clip-rule="evenodd" d="M11.1337 9.33695L11.1558 9.31517H11.9378L11.9599 9.33695V9.49103L11.9378 9.51281H11.3443V9.8119H11.8876L11.9098 9.83369V9.98777L11.8876 10.0095H11.3443V10.3086H11.9378L11.9599 10.3304V10.4845L11.9378 10.5062H11.1558L11.1337 10.4845V9.33695ZM11.178 9.35873V10.4627H11.9157V10.3522H11.3221L11.3 10.3304V9.98777L11.3221 9.96599H11.8655V9.85547H11.3221L11.3 9.83369V9.49103L11.3221 9.46925H11.9157V9.35873H11.178Z" fill="#2E0535"/>
<path d="M11.9376 9.49104V9.33695H11.1557V10.4845H11.9376V10.3304H11.3222V9.98777H11.8878V9.83369H11.3222V9.49104H11.9376Z" fill="#2E0535"/>
</svg>
