<svg width="60" height="60" viewBox="0 0 60 60" fill="none" xmlns="http://www.w3.org/2000/svg">
<path fill-rule="evenodd" clip-rule="evenodd" d="M33.8372 49.9932C46.0361 47.7977 54.0153 35.5238 51.6888 22.5354C49.361 9.54846 37.6027 0.734846 25.3846 2.81935C21.0173 3.56724 16.989 5.6689 13.8026 8.86158C16.7409 6.46984 20.2299 4.88201 23.9464 4.24381C36.1687 2.1604 47.8696 10.6237 50.1218 23.1755C52.3755 35.7273 44.3324 47.6459 32.1286 49.8359C30.5846 50.1096 29.0146 50.2169 27.4446 50.1553C29.5801 50.4235 31.7321 50.3686 33.8372 49.9932Z" fill="#C0A4B7"/>
<path fill-rule="evenodd" clip-rule="evenodd" d="M38.1328 49.9963C51.9884 47.5167 61.2023 34.4681 58.7458 20.8057C56.2882 7.14327 43.0842 -1.99037 29.2083 0.372035C24.2496 1.21932 19.6404 3.57749 15.9845 6.9866C19.349 4.42524 23.3385 2.61694 27.5598 1.8934C41.4386 -0.467758 54.5827 8.29701 56.9619 21.5012C59.3403 34.7052 50.0595 47.3795 36.1991 49.8537C34.4454 50.1626 32.6651 50.2968 30.8867 50.2534C33.3022 50.507 35.742 50.4204 38.1328 49.9963Z" fill="#C0A4B7"/>
<path fill-rule="evenodd" clip-rule="evenodd" d="M36.2116 49.9481C49.0987 47.6344 57.5847 34.9922 55.1939 21.6682C52.8017 8.34462 40.4352 -0.647034 27.5276 1.5534C22.9147 2.34264 18.6519 4.45333 15.2719 7.74728C18.3865 5.27752 22.0765 3.69705 26.0034 3.02359C38.9142 0.8244 51.2225 9.45576 53.5373 22.3326C55.8521 35.2099 47.3012 47.4863 34.4096 49.7952C32.7783 50.0834 31.1198 50.201 29.4625 50.1463C31.7155 50.4107 33.9877 50.3443 36.2116 49.9481Z" fill="#C0A4B7"/>
<path fill-rule="evenodd" clip-rule="evenodd" d="M47.126 18.4785C39.0236 9.22902 24.2403 8.6701 14.0556 17.2284C3.87231 25.7872 2.11908 40.2421 10.135 49.5641C13.0022 52.8939 16.8827 55.2515 21.2902 56.3401C17.7092 55.0553 14.5524 52.897 12.1095 50.0632C4.09433 40.737 5.569 26.5095 15.4085 18.2347C25.2505 9.96053 39.7542 10.7535 47.8535 20.009C48.8748 21.1818 49.7651 22.4611 50.5073 23.8258C49.6598 21.8766 48.5216 20.0761 47.126 18.4785Z" fill="#C0A4B7"/>
<path fill-rule="evenodd" clip-rule="evenodd" d="M44.9517 14.8281C35.7618 4.3151 19.6751 3.10035 8.96649 12.1109C-1.74162 21.1214 -3.0424 36.9665 6.05596 47.5557C9.31029 51.339 13.703 54.0002 18.5381 55.3777C14.5926 53.8179 10.9942 51.4048 8.22219 48.1853C-0.876806 37.5919 0.132116 21.9857 10.4788 13.2738C20.8256 4.56195 36.6185 6.02355 45.8065 16.5427C46.9659 17.8757 47.9853 19.3203 48.8482 20.8532C47.8461 18.673 46.534 16.6439 44.9517 14.8281Z" fill="#C0A4B7"/>
<path fill-rule="evenodd" clip-rule="evenodd" d="M45.8839 16.4848C37.3273 6.71043 21.9662 5.9084 11.5212 14.691C1.07548 23.4735 -0.524766 38.5355 7.94141 48.3847C10.9694 51.9034 14.7751 54.3513 19.3695 55.5532C15.6293 54.1594 12.5784 51.929 10.0001 48.9351C1.53267 39.0821 2.8485 24.2525 12.9409 15.7612C23.0352 7.26998 38.11 8.31231 46.6628 18.0934C47.7409 19.3324 48.6843 20.6808 49.4754 22.1168C48.5661 20.0694 47.3567 18.1731 45.8839 16.4848Z" fill="#C0A4B7"/>
<path fill-rule="evenodd" clip-rule="evenodd" d="M12.9266 21.9845C8.40541 33.3618 14.8023 46.5049 27.2375 51.386C39.6713 56.267 53.4649 51.0489 58.0921 39.7136C59.7423 35.661 60.0474 31.1791 58.9686 26.8302C59.4856 30.5507 59.0224 34.3091 57.6175 37.7595C52.9873 49.0972 39.5284 54.4513 27.5089 49.7377C15.4896 45.0232 9.43287 32.0136 13.9611 20.6357C14.5369 19.1978 15.2693 17.8257 16.1484 16.542C14.7942 18.1903 13.7099 20.0224 12.9266 21.9845Z" fill="#C0A4B7"/>
<path fill-rule="evenodd" clip-rule="evenodd" d="M10.6645 25.5825C5.51647 38.497 11.9339 53.0829 25.0192 58.2101C38.1045 63.3369 52.9328 57.0765 58.1922 44.2051C60.0697 39.6039 60.4743 34.429 59.4548 29.573C59.8946 33.739 59.3429 38.1052 57.7469 42.0231C52.4844 54.8968 38.0055 61.3004 25.357 56.3494C12.7085 51.3975 6.6505 36.9531 11.8052 24.0373C12.4597 22.4052 13.2813 20.8423 14.2536 19.3746C12.7647 21.2653 11.5553 23.3559 10.6645 25.5825Z" fill="#C0A4B7"/>
<path fill-rule="evenodd" clip-rule="evenodd" d="M11.7174 23.9972C6.9355 36.0144 13.3845 49.775 26.1426 54.7798C38.9011 59.7839 53.1673 54.1495 58.0574 42.1755C59.8017 37.8948 60.223 33.2009 59.1579 28.6368C59.6502 32.5457 59.0737 36.4802 57.5904 40.125C52.6965 52.1009 38.7724 57.8755 26.44 53.0426C14.1075 48.2086 8.00888 34.5857 12.7962 22.5677C13.4062 21.0489 14.1763 19.5982 15.0956 18.2383C13.6827 19.9866 12.5444 21.9253 11.7174 23.9972Z" fill="#C0A4B7"/>
<path fill-rule="evenodd" clip-rule="evenodd" d="M17.3398 19.6458L17.4227 19.5641H20.7601L20.8429 19.6458V19.831C20.8429 20.678 20.3251 21.3704 19.6384 21.7541C20.4639 22.1355 20.9617 22.9538 20.9617 23.7638V23.949L20.8788 24.0307H17.4227L17.3398 23.949V19.6458ZM17.5056 19.7275V23.8673H20.7959V23.7638C20.7959 22.9682 20.2731 22.1578 19.4151 21.8384L19.4085 21.6883C20.1279 21.3478 20.6772 20.6659 20.6772 19.831V19.7275H17.5056ZM17.951 20.1944L18.0339 20.1127H20.0672L20.1496 20.2032C20.0503 21.1052 19.1612 21.6146 18.4323 21.6146H18.0339L17.951 21.5329V20.1944ZM18.1167 20.2761V21.4512H18.4323C19.0781 21.4512 19.8363 21.016 19.9716 20.2761H18.1167ZM17.951 22.0619L18.0339 21.9802H18.5338C19.375 21.9802 20.1479 22.5838 20.2735 23.3905L20.1915 23.4845H18.0339L17.951 23.4029V22.0619ZM18.1167 22.1436V23.3212H20.0914C19.9361 22.648 19.2671 22.1436 18.5338 22.1436H18.1167Z" fill="#C0A4B7"/>
<path d="M19.4437 21.7609C20.1859 21.4104 20.76 20.7032 20.76 19.8305V19.6458H17.4221V23.949H20.8781V23.7642C20.8781 22.9347 20.3358 22.0924 19.4437 21.7609ZM20.0672 20.1931C19.9737 21.0415 19.1313 21.5329 18.4329 21.5329H18.0333V20.1931H20.0672ZM18.0333 22.0618H18.5325C19.3373 22.0618 20.0734 22.6397 20.1921 23.4016H18.0333V22.0618Z" fill="#C0A4B7"/>
<path fill-rule="evenodd" clip-rule="evenodd" d="M22.8786 19.6751L22.956 19.5641H23.6416L23.7189 19.6164L25.4032 23.9196L25.3259 24.0306H24.6405L24.5632 23.9785L24.3563 23.4537L21.3572 24.0971L21.2571 24.025C21.2448 23.8961 21.232 23.7558 21.232 23.6296C21.232 22.2516 22.1024 21.1308 23.3249 20.8194L22.8786 19.6751ZM23.0767 19.7274L23.5135 20.8478L23.4541 20.9568C22.2644 21.216 21.3978 22.2874 21.3978 23.6296C21.3978 23.7194 21.4048 23.8182 21.4136 23.9178L24.3902 23.2792L24.4851 23.3294L24.6972 23.8673H25.2051L23.5847 19.7274H23.0767ZM22.0855 23.2L24.091 22.7703L23.6015 21.5164C22.7402 21.6947 22.1604 22.3527 22.0855 23.2ZM21.9132 23.2998C21.951 22.3038 22.6273 21.5201 23.6394 21.3428L23.7313 21.3939L24.2805 22.8005L24.2207 22.9097L22.0136 23.3826L21.9132 23.2998Z" fill="#C0A4B7"/>
<path d="M25.3265 23.949L23.642 19.6458H22.956L23.4362 20.8752C22.207 21.1458 21.3149 22.2521 21.3149 23.6296C21.3149 23.752 21.3273 23.8875 21.3396 24.0167L24.4091 23.359L24.6405 23.949H25.3265ZM21.9948 23.3034C22.0324 22.3447 22.6814 21.5944 23.6545 21.4226L24.2037 22.8299L21.9948 23.3034Z" fill="#C0A4B7"/>
<path fill-rule="evenodd" clip-rule="evenodd" d="M25.694 19.6458L25.7769 19.5641H29.332L29.4149 19.6458V20.2357L29.3937 20.2903L26.6722 23.2773H29.3624L29.4453 23.359V23.949L29.3624 24.0306H25.7126L25.6297 23.949V23.359L25.6509 23.3044L28.3723 20.3174H25.7769L25.694 20.2357V19.6458ZM25.8598 19.7274V20.1541H28.5581L28.6197 20.2903L25.7955 23.3903V23.8673H29.2795V23.4407H26.4864L26.4247 23.3044L29.2491 20.2045V19.7274H25.8598Z" fill="#C0A4B7"/>
<path d="M25.7133 23.949H29.3629V23.359H26.4871L29.332 20.2358V19.6458H25.7757V20.2358H28.5581L25.7133 23.359V23.949Z" fill="#C0A4B7"/>
<path fill-rule="evenodd" clip-rule="evenodd" d="M31.3009 19.675L31.3783 19.5641H32.0631L32.1404 19.6164L33.8262 23.9196L33.7488 24.0306H33.0634L32.9862 23.9785L32.7792 23.4537L29.7802 24.0971L29.68 24.025C29.6677 23.8961 29.655 23.7558 29.655 23.6296C29.655 22.2516 30.5253 21.1308 31.7464 20.8194L31.3009 19.675ZM31.4989 19.7274L31.9351 20.8478L31.8756 20.9568C30.6874 21.216 29.8207 22.2874 29.8207 23.6296C29.8207 23.7194 29.8277 23.8182 29.8366 23.9178L32.8132 23.2792L32.9081 23.3294L33.1202 23.8673H33.628L32.0062 19.7274H31.4989ZM30.5079 23.2L32.5133 22.7703L32.023 21.5164C31.1631 21.6947 30.5833 22.3527 30.5079 23.2ZM30.3355 23.2997C30.374 22.3038 31.0502 21.5202 32.0609 21.3428L32.1528 21.3938L32.7028 22.8005L32.643 22.9097L30.4359 23.3826L30.3355 23.2997Z" fill="#C0A4B7"/>
<path d="M33.7489 23.949L32.0644 19.6458H31.3784L31.8584 20.8752C30.6293 21.1458 29.7373 22.2521 29.7373 23.6296C29.7373 23.7521 29.7496 23.8875 29.762 24.0167L32.8315 23.359L33.0629 23.949H33.7489ZM30.4171 23.3035C30.4548 22.3448 31.1038 21.5944 32.0767 21.4226L32.6261 22.8299L30.4171 23.3035Z" fill="#C0A4B7"/>
<path fill-rule="evenodd" clip-rule="evenodd" d="M16.8722 27.33L16.955 27.2483H20.6963L20.7792 27.33V27.92L20.6963 28.0016H19.2197V31.6332L19.1368 31.7149H18.514L18.4311 31.6332V28.0016H16.955L16.8722 27.92V27.33ZM17.0379 27.4117V27.8383H18.514L18.5969 27.92V31.5515H19.0539V27.92L19.1368 27.8383H20.6135V27.4117H17.0379Z" fill="#C0A4B7"/>
<path d="M20.6976 27.33H16.9544V27.92H18.5139V31.6326H19.1374V27.92H20.6976V27.33Z" fill="#C0A4B7"/>
<path fill-rule="evenodd" clip-rule="evenodd" d="M21.2697 27.33L21.3526 27.2483H24.7197L24.8026 27.33V27.5154C24.8026 28.488 24.3123 29.2317 23.5664 29.6653L25.1168 31.5823L25.052 31.7149H24.2891L24.2239 31.6835L22.8555 29.9611C22.5975 30.0282 22.3289 30.0712 22.0468 30.0836V31.6332L21.9639 31.7149H21.3526L21.2697 31.6332V27.33ZM21.4355 27.4117V31.5515H21.881V30.0046L21.962 29.923C22.2788 29.9158 22.5781 29.8681 22.8646 29.7894L22.9521 29.8177L24.3295 31.5515H24.8799L23.3763 29.6923L23.4015 29.5696C24.1454 29.1709 24.6368 28.4611 24.6368 27.5154V27.4117H21.4355ZM21.881 27.8664L21.9639 27.7848H24.0714L24.1533 27.8792C23.9905 28.8891 23.1448 29.528 21.9639 29.528L21.881 29.4463V27.8664ZM22.0468 27.9481V29.3635C23.0787 29.3357 23.7931 28.788 23.9719 27.9481H22.0468Z" fill="#C0A4B7"/>
<path d="M24.291 31.6326H25.052L23.4424 29.6414C24.21 29.2293 24.7216 28.4917 24.7216 27.5141V27.33H21.3526V31.6326H21.9639V30.004C22.2881 29.9979 22.5942 29.9484 22.8875 29.8687L24.291 31.6326ZM21.9639 29.4444V27.8646H24.0727C23.9168 28.83 23.112 29.4444 21.9639 29.4444Z" fill="#C0A4B7"/>
<path fill-rule="evenodd" clip-rule="evenodd" d="M26.74 27.3593L26.8174 27.2483H27.5028L27.5801 27.3006L29.2659 31.6038L29.1885 31.7149H28.5032L28.4259 31.6628L28.2189 31.1379L25.2199 31.7813L25.1197 31.7092C25.1074 31.5805 25.0947 31.4402 25.0947 31.3138C25.0947 29.9358 25.965 28.8151 27.1867 28.5036L26.74 27.3593ZM26.9381 27.4117L27.3754 28.532L27.3159 28.641C26.1271 28.9002 25.2604 29.9716 25.2604 31.3138C25.2604 31.4037 25.2674 31.5025 25.2763 31.6021L28.2529 30.9634L28.3478 31.0136L28.5599 31.5515H29.0677L27.4459 27.4117H26.9381ZM25.9476 30.8844L27.9524 30.4545L27.4633 29.2006C26.6028 29.3789 26.023 30.0369 25.9476 30.8844ZM25.7752 30.9841C25.8137 29.988 26.49 29.2044 27.5012 29.027L27.5931 29.0781L28.1419 30.4848L28.0821 30.5939L25.8757 31.067L25.7752 30.9841Z" fill="#C0A4B7"/>
<path d="M29.1885 31.6326L27.504 27.33H26.8173L27.298 28.5594C26.0689 28.83 25.1769 29.9363 25.1769 31.3132C25.1769 31.4363 25.1892 31.5717 25.2016 31.7003L28.2711 31.0426L28.5018 31.6326H29.1885ZM25.8567 30.9877C25.8944 30.0283 26.5427 29.2786 27.5164 29.1062L28.0651 30.5141L25.8567 30.9877Z" fill="#C0A4B7"/>
<path fill-rule="evenodd" clip-rule="evenodd" d="M29.7737 27.33L29.8566 27.2483H30.4803L30.5632 27.33V31.6332L30.4803 31.7149H29.8566L29.7737 31.6332V27.33ZM29.9395 27.4117V31.5515H30.3974V27.4117H29.9395Z" fill="#C0A4B7"/>
<path d="M29.856 27.33H30.4797V31.6326H29.856V27.33Z" fill="#C0A4B7"/>
<path fill-rule="evenodd" clip-rule="evenodd" d="M31.52 27.33L31.6029 27.2483H32.2266L32.2876 27.2748L34.7021 29.8678V27.33L34.785 27.2483H35.4079L35.4908 27.33V31.6332L35.4079 31.7149H34.785L34.7021 31.6332V30.941L32.3094 28.3758V31.6332L32.2266 31.7149H31.6029L31.52 31.6332V27.33ZM31.6858 27.4117V31.5515H32.1437V28.1662L32.2876 28.1109L34.8461 30.8539L34.8679 30.9092V31.5515H35.325V27.4117H34.8679V30.0776L34.724 30.1329L32.1901 27.4117H31.6858Z" fill="#C0A4B7"/>
<path d="M34.7844 27.33V30.0776L32.2265 27.33H31.6029V31.6326H32.2265V28.1656L34.7844 30.9073V31.6326H35.4085V27.33H34.7844Z" fill="#C0A4B7"/>
<path fill-rule="evenodd" clip-rule="evenodd" d="M36.449 27.33L36.5319 27.2483H39.4642L39.5471 27.33V27.9078L39.4642 27.9895H37.2385V29.1111H39.2754L39.3583 29.1928V29.7706L39.2754 29.8522H37.2385V30.9737H39.4642L39.5471 31.0554V31.6332L39.4642 31.7149H36.5319L36.449 31.6332V27.33ZM36.6148 27.4117V31.5515H39.3813V31.1371H37.1556L37.0727 31.0554V29.7706L37.1556 29.6889H39.1925V29.2744H37.1556L37.0727 29.1928V27.9078L37.1556 27.8261H39.3813V27.4117H36.6148Z" fill="#C0A4B7"/>
<path d="M39.4635 27.9078V27.33H36.5313V31.6326H39.4635V31.0548H37.1549V29.7706H39.276V29.1928H37.1549V27.9078H39.4635Z" fill="#C0A4B7"/>
<path fill-rule="evenodd" clip-rule="evenodd" d="M40.3171 27.33L40.4 27.2483H43.3321L43.415 27.33V27.9078L43.3321 27.9895H41.1057V29.1111H43.1441L43.227 29.1928V29.7706L43.1441 29.8522H41.1057V30.9737H43.3321L43.415 31.0554V31.6332L43.3321 31.7149H40.4L40.3171 31.6332V27.33ZM40.4829 27.4117V31.5515H43.2492V31.1371H41.0228L40.9399 31.0554V29.7706L41.0228 29.6889H43.0612V29.2744H41.0228L40.9399 29.1928V27.9078L41.0228 27.8261H43.2492V27.4117H40.4829Z" fill="#C0A4B7"/>
<path d="M43.3316 27.9078V27.33H40.3994V31.6326H43.3316V31.0548H41.0229V29.7706H43.1441V29.1928H41.0229V27.9078H43.3316Z" fill="#C0A4B7"/>
<path fill-rule="evenodd" clip-rule="evenodd" d="M17.2779 35.0136L17.3608 34.9319H17.9844L18.0673 35.0136V36.5131C18.0673 37.2009 18.2782 37.7306 18.6653 38.0888C19.0532 38.4478 19.6292 38.6451 20.3796 38.6451H20.4576V35.0136L20.5405 34.9319H21.164L21.2469 35.0136V39.3168L21.164 39.3984H20.3796C19.4074 39.3984 18.6299 39.1397 18.0949 38.6436C17.5593 38.1469 17.2779 37.4222 17.2779 36.5131V35.0136ZM17.4437 35.0953V36.5131C17.4437 37.3885 17.7137 38.0658 18.2086 38.5247C18.7041 38.9843 19.436 39.2351 20.3796 39.2351H21.0811V35.0953H20.6234V38.7268L20.5405 38.8085H20.3796C19.6009 38.8085 18.9793 38.6035 18.5518 38.2079C18.1236 37.8116 17.9015 37.2344 17.9015 36.5131V35.0953H17.4437Z" fill="#C0A4B7"/>
<path d="M20.5416 35.0136V38.7268H20.379C18.8505 38.7268 17.9838 37.9216 17.9838 36.5136V35.0136H17.3597V36.5136C17.3597 38.2964 18.4638 39.3168 20.379 39.3168H21.1653V35.0136H20.5416Z" fill="#C0A4B7"/>
<path fill-rule="evenodd" clip-rule="evenodd" d="M22.2058 35.0136L22.2887 34.9319H22.8998L22.9827 35.0136V36.8142H23.3749C23.8775 36.8142 24.2854 36.6575 24.5681 36.3606C24.8513 36.063 25.0184 35.6147 25.0184 35.0136L25.1013 34.9319H25.7256L25.8085 35.0136C25.8085 35.9143 25.4517 36.7621 24.703 37.1331C25.5022 37.5089 25.8951 38.3763 25.8951 39.3168L25.8122 39.3984H25.188L25.1051 39.3168C25.1051 38.7843 24.9523 38.3357 24.6641 38.0211C24.377 37.7078 23.9475 37.5187 23.3749 37.5187H22.9827V39.3168L22.8998 39.3984H22.2887L22.2058 39.3168V35.0136ZM22.3716 35.0953V39.2351H22.8169V37.437L22.8998 37.3553H23.3749C23.9868 37.3553 24.4638 37.5588 24.7872 37.9117C25.0937 38.2462 25.2547 38.7071 25.2697 39.2351H25.7283C25.7046 38.3003 25.2732 37.4951 24.4631 37.2117L24.4623 37.0581C25.2219 36.783 25.6191 35.9967 25.6417 35.0953H25.1832C25.1686 35.6864 24.9947 36.1512 24.689 36.4723C24.3687 36.8087 23.9133 36.9775 23.3749 36.9775H22.8998L22.8169 36.8959V35.0953H22.3716Z" fill="#C0A4B7"/>
<path d="M24.4902 37.1347C25.3204 36.8336 25.7256 35.9669 25.7256 35.0135H25.102C25.102 36.243 24.4153 36.8946 23.3736 36.8946H22.8998V35.0135H22.2881V39.3167H22.8998V37.4359H23.3736C24.559 37.4359 25.1893 38.2228 25.1893 39.3167H25.8134C25.8134 38.327 25.3699 37.442 24.4902 37.1347Z" fill="#C0A4B7"/>
<path fill-rule="evenodd" clip-rule="evenodd" d="M26.573 35.0135L26.6559 34.9319H30.0229L30.1058 35.0135V35.1989C30.1058 36.1716 29.6161 36.9154 28.869 37.3489L30.4193 39.2658L30.3545 39.3984H29.5931L29.5278 39.3671L28.158 37.6447C27.9009 37.7118 27.6319 37.7548 27.3493 37.7672V39.3167L27.2664 39.3984H26.6559L26.573 39.3167V35.0135ZM26.7388 35.0952V39.2351H27.1835V37.6882L27.2645 37.6065C27.582 37.5994 27.8819 37.5516 28.167 37.473L28.2546 37.5013L29.6334 39.2351H30.1824L28.6788 37.3758L28.7041 37.2531C29.4494 36.8544 29.94 36.1447 29.94 35.1989V35.0952H26.7388ZM27.1835 35.55L27.2664 35.4683H29.3753L29.4572 35.5629C29.2929 36.5728 28.4474 37.2116 27.2664 37.2116L27.1835 37.1299V35.55ZM27.3493 35.6317V37.0471C28.3812 37.0193 29.0957 36.4717 29.2757 35.6317H27.3493Z" fill="#C0A4B7"/>
<path d="M29.5937 39.3168H30.3552L28.7456 37.325C29.5127 36.9135 30.0242 36.1754 30.0242 35.1983V35.0136H26.6553V39.3168H27.2665V37.6876C27.5913 37.6815 27.8969 37.6327 28.19 37.5529L29.5937 39.3168ZM27.2665 37.1287V35.5488H29.3754C29.2194 36.5136 28.4146 37.1287 27.2665 37.1287Z" fill="#C0A4B7"/>
<path fill-rule="evenodd" clip-rule="evenodd" d="M32.0433 35.0429L32.1207 34.9319H32.8061L32.8835 34.9842L34.5678 39.2874L34.4905 39.3984H33.8051L33.7278 39.3463L33.5214 38.8215L30.5224 39.4649L30.4223 39.3932C30.4093 39.2641 30.3966 39.1239 30.3966 38.9974C30.3966 37.6194 31.267 36.4987 32.4894 36.1872L32.0433 35.0429ZM32.2414 35.0953L32.6781 36.2156L32.6186 36.3246C31.429 36.5839 30.5624 37.6552 30.5624 38.9974C30.5624 39.0873 30.5694 39.1862 30.5785 39.2857L33.5554 38.647L33.6504 38.6973L33.8618 39.2351H34.3696L32.7492 35.0953H32.2414ZM31.2502 38.568L33.2557 38.1381L32.766 36.8842C31.9048 37.0626 31.3255 37.7205 31.2502 38.568ZM31.0777 38.6677C31.1163 37.6716 31.7919 36.8881 32.8039 36.7106L32.8958 36.7617L33.4452 38.1683L33.3854 38.2775L31.1782 38.7506L31.0777 38.6677Z" fill="#C0A4B7"/>
<path d="M34.4911 39.3168L32.8067 35.0136H32.1207L32.6007 36.243C31.3715 36.5136 30.4795 37.6199 30.4795 38.9974C30.4795 39.12 30.4918 39.2553 30.5048 39.3845L33.5743 38.7268L33.8051 39.3168H34.4911ZM31.1599 38.6714C31.1972 37.7126 31.846 36.9622 32.8191 36.7904L33.3683 38.1977L31.1599 38.6714Z" fill="#C0A4B7"/>
<path fill-rule="evenodd" clip-rule="evenodd" d="M35.0763 35.0136L35.1592 34.9319H35.7828L35.8657 35.0136V39.3168L35.7828 39.3984H35.1592L35.0763 39.3168V35.0136ZM35.2421 35.0953V39.2351H35.6999V35.0953H35.2421Z" fill="#C0A4B7"/>
<path d="M35.1586 35.0135H35.7827V39.3167H35.1586V35.0135Z" fill="#C0A4B7"/>
<path fill-rule="evenodd" clip-rule="evenodd" d="M36.8225 35.0135L36.9054 34.9319H37.5297L37.5908 34.9583L40.0053 37.5515V35.0135L40.0882 34.9319H40.7118L40.7947 35.0135V39.3167L40.7118 39.3984H40.0882L40.0053 39.3167V38.6246L37.6126 36.0595V39.3167L37.5297 39.3984H36.9054L36.8225 39.3167V35.0135ZM36.9883 35.0952V39.2351H37.4468V35.8499L37.5907 35.7946L40.1492 38.5375L40.1711 38.5927V39.2351H40.6289V35.0952H40.1711V37.7614L40.0271 37.8166L37.4932 35.0952H36.9883Z" fill="#C0A4B7"/>
<path d="M40.0875 35.0135V37.7614L37.5297 35.0135H36.9054V39.3167H37.5297V35.8499L40.0875 38.5915V39.3167H40.7112V35.0135H40.0875Z" fill="#C0A4B7"/>
<path fill-rule="evenodd" clip-rule="evenodd" d="M41.7515 35.0135L41.8344 34.9319H44.7666L44.8495 35.0135V35.5914L44.7666 35.673H42.5409V36.7946H44.5787L44.6616 36.8763V37.4541L44.5787 37.5358H42.5409V38.6573H44.7666L44.8495 38.7389V39.3167L44.7666 39.3984H41.8344L41.7515 39.3167V35.0135ZM41.9173 35.0952V39.2351H44.6838V38.8206H42.4581L42.3752 38.7389V37.4541L42.4581 37.3724H44.4958V36.958H42.4581L42.3752 36.8763V35.5914L42.4581 35.5097H44.6838V35.0952H41.9173Z" fill="#C0A4B7"/>
<path d="M44.7661 35.5914V35.0136H41.8339V39.3168H44.7661V38.739H42.4581V37.4542H44.5792V36.8763H42.4581V35.5914H44.7661Z" fill="#C0A4B7"/>
</svg>
