<svg width="120" height="121" viewBox="0 0 120 121" fill="none" xmlns="http://www.w3.org/2000/svg">
<path fill-rule="evenodd" clip-rule="evenodd" d="M67.6743 100.486C92.0722 96.0955 108.031 71.5477 103.378 45.5709C98.7221 19.5969 75.2054 1.96969 50.7692 6.1387C42.0346 7.63447 33.9781 11.8378 27.6053 18.2232C33.4818 13.4397 40.4598 10.264 47.8927 8.98763C72.3374 4.82081 95.7392 21.7474 100.244 46.851C104.751 71.9546 88.6648 95.7918 64.2572 100.172C61.1691 100.719 58.0291 100.934 54.8891 100.811C59.1601 101.347 63.4641 101.237 67.6743 100.486Z" fill="#FCFCFC"/>
<path fill-rule="evenodd" clip-rule="evenodd" d="M76.2657 100.493C103.977 95.5334 122.405 69.4361 117.492 42.1115C112.576 14.7865 86.1683 -3.48074 58.4167 1.24407C48.4991 2.93864 39.2809 7.65498 31.969 14.4732C38.6981 9.35048 46.677 5.73389 55.1196 4.2868C82.8773 -0.435516 109.165 17.094 113.924 43.5024C118.681 69.9105 100.119 95.2591 72.3981 100.207C68.8908 100.825 65.3301 101.094 61.7733 101.007C66.6043 101.514 71.4841 101.341 76.2657 100.493Z" fill="#FCFCFC"/>
<path fill-rule="evenodd" clip-rule="evenodd" d="M72.4231 100.396C98.1975 95.7687 115.169 70.4844 110.388 43.8364C105.603 17.1892 80.8705 -0.794068 55.0553 3.60681C45.8294 5.18528 37.3039 9.40666 30.5437 15.9946C36.773 11.055 44.153 7.8941 52.0068 6.54718C77.8283 2.1488 102.445 19.4115 107.075 45.1652C111.704 70.9198 94.6023 95.4726 68.8191 100.09C65.5566 100.667 62.2395 100.902 58.925 100.793C63.431 101.321 67.9754 101.189 72.4231 100.396Z" fill="#FCFCFC"/>
<path fill-rule="evenodd" clip-rule="evenodd" d="M94.252 37.4569C78.0471 18.958 48.4807 17.8402 28.1112 34.9569C7.74462 52.0745 4.23817 80.9841 20.2701 99.6281C26.0044 106.288 33.7654 111.003 42.5804 113.18C35.4183 110.611 29.1048 106.294 24.219 100.626C8.18866 81.974 11.138 53.5191 30.817 36.9694C50.501 20.4211 79.5085 22.007 95.707 40.518C97.7495 42.8636 99.5302 45.4223 101.015 48.1517C99.3195 44.2533 97.0433 40.6522 94.252 37.4569Z" fill="#FCFCFC"/>
<path fill-rule="evenodd" clip-rule="evenodd" d="M89.9034 30.1562C71.5236 9.1302 39.3501 6.7007 17.933 24.7218C-3.48323 42.7428 -6.08481 74.4331 12.1119 95.6114C18.6206 103.178 27.4059 108.5 37.0761 111.255C29.1853 108.136 21.9883 103.31 16.4444 96.8706C-1.75361 75.6839 0.264232 44.4714 20.9577 27.0477C41.6511 9.6239 73.237 12.5471 91.613 33.5853C93.9318 36.2514 95.9705 39.1406 97.6963 42.2064C95.6921 37.8461 93.0681 33.7878 89.9034 30.1562Z" fill="#FCFCFC"/>
<path fill-rule="evenodd" clip-rule="evenodd" d="M91.7679 33.4695C74.6547 13.9209 43.9325 12.3168 23.0424 29.8819C2.15096 47.447 -1.04953 77.571 15.8828 97.2694C21.9389 104.307 29.5501 109.203 38.7389 111.606C31.2585 108.819 25.1568 104.358 20.0002 98.3701C3.06534 78.6642 5.697 49.0049 25.8818 32.0224C46.0704 15.04 76.2199 17.1246 93.3255 36.6867C95.4818 39.1649 97.3685 41.8615 98.9509 44.7336C97.1322 40.6388 94.7134 36.8462 91.7679 33.4695Z" fill="#FCFCFC"/>
<path fill-rule="evenodd" clip-rule="evenodd" d="M25.8533 44.4689C16.8108 67.2235 29.6046 93.5099 54.475 103.272C79.3425 113.034 106.93 102.598 116.184 79.9271C119.485 71.8219 120.095 62.8582 117.937 54.1604C118.971 61.6015 118.045 69.1181 115.235 76.019C105.975 98.6944 79.0568 109.403 55.0178 99.9754C30.9791 90.5464 18.8657 64.5272 27.9221 41.7713C29.0737 38.8956 30.5386 36.1515 32.2967 33.5841C29.5884 36.8805 27.4198 40.5449 25.8533 44.4689Z" fill="#FCFCFC"/>
<path fill-rule="evenodd" clip-rule="evenodd" d="M21.329 51.6651C11.0329 77.4939 23.8679 106.666 50.0384 116.92C76.209 127.174 105.866 114.653 116.384 88.9103C120.139 79.7078 120.949 69.3581 118.91 59.646C119.789 67.9781 118.686 76.7103 115.494 84.5462C104.969 110.294 76.011 123.101 50.714 113.199C25.4169 103.295 13.301 74.4063 23.6104 48.5746C24.9194 45.3103 26.5625 42.1846 28.5072 39.2492C25.5294 43.0306 23.1106 47.2118 21.329 51.6651Z" fill="#FCFCFC"/>
<path fill-rule="evenodd" clip-rule="evenodd" d="M23.4348 48.4944C13.871 72.5288 26.7689 100.05 52.2851 110.06C77.8023 120.068 106.335 108.799 116.115 84.8511C119.603 76.2896 120.446 66.9017 118.316 57.7736C119.3 65.5913 118.147 73.4603 115.181 80.7501C105.393 104.702 77.5448 116.251 52.8799 106.585C28.2151 96.9171 16.0178 69.6714 25.5923 45.6355C26.8123 42.5977 28.3525 39.6964 30.1911 36.9766C27.3653 40.4731 25.0887 44.3506 23.4348 48.4944Z" fill="#FCFCFC"/>
<path fill-rule="evenodd" clip-rule="evenodd" d="M34.6797 39.7916L34.8455 39.6282H41.5201L41.6859 39.7916V40.162C41.6859 41.8559 40.6503 43.2409 39.2768 44.0083C40.9277 44.771 41.9234 46.4076 41.9234 48.0275V48.398L41.7576 48.5613H34.8455L34.6797 48.398V39.7916ZM35.0113 39.9549V48.2346H41.5919V48.0275C41.5919 46.4364 40.5463 44.8155 38.8302 44.1768L38.817 43.8767C40.2558 43.1956 41.3543 41.8319 41.3543 40.162V39.9549H35.0113ZM35.9019 40.8888L36.0677 40.7255H40.1344L40.2993 40.9065C40.1006 42.7105 38.3223 43.7292 36.8646 43.7292H36.0677L35.9019 43.5658V40.8888ZM36.2335 41.0522V43.4025H36.8646C38.1561 43.4025 39.6726 42.5319 39.9432 41.0522H36.2335ZM35.9019 44.6237L36.0677 44.4604H37.0676C38.7501 44.4604 40.2959 45.6676 40.5469 47.281L40.3831 47.4691H36.0677L35.9019 47.3057V44.6237ZM36.2335 44.7871V47.1424H40.1829C39.8722 45.7961 38.5342 44.7871 37.0676 44.7871H36.2335Z" fill="#FCFCFC"/>
<path d="M38.8874 44.0217C40.3719 43.3208 41.52 41.9065 41.52 40.161V39.7915H34.8441V48.3979H41.7563V48.0284C41.7563 46.3694 40.6715 44.6849 38.8874 44.0217ZM40.1344 40.8863C39.9475 42.583 38.2625 43.5658 36.8658 43.5658H36.0667V40.8863H40.1344ZM36.0667 44.6237H37.065C38.6746 44.6237 40.1467 45.7793 40.3843 47.3032H36.0667V44.6237Z" fill="#FCFCFC"/>
<path fill-rule="evenodd" clip-rule="evenodd" d="M45.7573 39.8501L45.912 39.6282H47.2831L47.4378 39.7327L50.8065 48.3391L50.6518 48.5613H49.281L49.1265 48.4571L48.7125 47.4073L42.7145 48.6942L42.5142 48.5499C42.4896 48.2922 42.464 48.0117 42.464 47.7591C42.464 45.0031 44.2048 42.7616 46.6497 42.1387L45.7573 39.8501ZM46.1533 39.9549L47.0271 42.1955L46.9081 42.4136C44.5289 42.932 42.7956 45.0748 42.7956 47.7591C42.7956 47.9388 42.8096 48.1364 42.8273 48.3357L48.7805 47.0584L48.9703 47.1588L49.3945 48.2346H50.4102L47.1694 39.9549H46.1533ZM44.1711 46.9001L48.1821 46.0406L47.203 43.5328C45.4804 43.8894 44.3207 45.2055 44.1711 46.9001ZM43.8264 47.0995C43.9021 45.1076 45.2547 43.5403 47.2788 43.1855L47.4626 43.2877L48.561 46.1011L48.4415 46.3194L44.0273 47.2653L43.8264 47.0995Z" fill="#FCFCFC"/>
<path d="M50.6531 48.3979L47.2841 39.7915H45.912L46.8723 42.2504C44.4139 42.7915 42.6298 45.0041 42.6298 47.7591C42.6298 48.0041 42.6545 48.275 42.6792 48.5334L48.8183 47.218L49.281 48.3979H50.6531ZM43.9895 47.1069C44.0649 45.1895 45.3628 43.6887 47.3091 43.3451L48.4075 46.1597L43.9895 47.1069Z" fill="#FCFCFC"/>
<path fill-rule="evenodd" clip-rule="evenodd" d="M51.388 39.7915L51.5538 39.6282H58.6639L58.8297 39.7915V40.9715L58.7873 41.0806L53.3444 47.0546H58.7248L58.8905 47.218V48.3979L58.7248 48.5613H51.4252L51.2594 48.3979V47.218L51.3019 47.1088L56.7445 41.1348H51.5538L51.388 40.9715V39.7915ZM51.7196 39.9549V40.8081H57.1161L57.2395 41.0806L51.591 47.2805V48.2346H58.559V47.3813H52.9727L52.8494 47.1088L58.4982 40.9089V39.9549H51.7196Z" fill="#FCFCFC"/>
<path d="M51.4266 48.398H58.7258V47.218H52.9741L58.6641 40.9715V39.7916H51.5514V40.9715H57.1162L51.4266 47.218V48.398Z" fill="#FCFCFC"/>
<path fill-rule="evenodd" clip-rule="evenodd" d="M62.6019 39.85L62.7566 39.6282H64.1262L64.2808 39.7327L67.6524 48.3391L67.4977 48.5613H66.1269L65.9724 48.4571L65.5584 47.4073L59.5604 48.6942L59.3601 48.5499C59.3354 48.2922 59.3099 48.0117 59.3099 47.7591C59.3099 45.0032 61.0506 42.7616 63.4929 42.1388L62.6019 39.85ZM62.9978 39.9549L63.8702 42.1956L63.7512 42.4136C61.3748 42.9319 59.6415 45.0747 59.6415 47.7591C59.6415 47.9388 59.6555 48.1364 59.6731 48.3357L65.6264 47.0584L65.8162 47.1588L66.2403 48.2346H67.256L64.0124 39.9549H62.9978ZM61.0158 46.9001L65.0266 46.0406L64.0461 43.5328C62.3263 43.8894 61.1666 45.2054 61.0158 46.9001ZM60.671 47.0994C60.748 45.1076 62.1005 43.5403 64.1218 43.1855L64.3056 43.2876L65.4056 46.101L65.2861 46.3194L60.8719 47.2653L60.671 47.0994Z" fill="#FCFCFC"/>
<path d="M67.4978 48.398L64.1288 39.7916H62.7567L63.7167 42.2504C61.2586 42.7916 59.4745 45.0042 59.4745 47.7592C59.4745 48.0041 59.4992 48.275 59.5239 48.5334L65.663 47.218L66.1257 48.398H67.4978ZM60.8342 47.1069C60.9096 45.1895 62.2075 43.6888 64.1535 43.3452L65.2522 46.1598L60.8342 47.1069Z" fill="#FCFCFC"/>
<path fill-rule="evenodd" clip-rule="evenodd" d="M33.7443 55.16L33.9101 54.9966H41.3927L41.5585 55.16V56.3399L41.3927 56.5033H38.4394V63.7664L38.2736 63.9297H37.0279L36.8621 63.7664V56.5033H33.9101L33.7443 56.3399V55.16ZM34.0759 55.3233V56.1766H37.0279L37.1937 56.3399V63.603H38.1078V56.3399L38.2736 56.1766H41.2269V55.3233H34.0759Z" fill="#FCFCFC"/>
<path d="M41.3951 55.16H33.9088V56.3399H37.0279V63.7651H38.2748V56.3399H41.3951V55.16Z" fill="#FCFCFC"/>
<path fill-rule="evenodd" clip-rule="evenodd" d="M42.5395 55.16L42.7053 54.9966H49.4394L49.6052 55.16V55.5307C49.6052 57.476 48.6245 58.9635 47.1329 59.8305L50.2336 63.6646L50.1039 63.9297H48.5783L48.4477 63.8671L45.7109 60.4222C45.195 60.5565 44.6577 60.6425 44.0936 60.6672V63.7664L43.9278 63.9297H42.7053L42.5395 63.7664V55.16ZM42.871 55.3233V63.603H43.762V60.5092L43.924 60.3459C44.5576 60.3316 45.1561 60.2362 45.7292 60.0788L45.9042 60.1355L48.659 63.603H49.7598L46.7525 59.8845L46.803 59.6392C48.2909 58.8417 49.2736 57.4221 49.2736 55.5307V55.3233H42.871ZM43.762 56.2329L43.9278 56.0695H48.1428L48.3065 56.2585C47.981 58.2782 46.2897 59.556 43.9278 59.556L43.762 59.3926V56.2329ZM44.0936 56.3962V59.2271C46.1574 59.1715 47.5862 58.076 47.9437 56.3962H44.0936Z" fill="#FCFCFC"/>
<path d="M48.5821 63.7651H50.1039L46.8847 59.7827C48.4199 58.9585 49.4432 57.4834 49.4432 55.5282V55.16H42.7053V63.7651H43.9278V60.508C44.5761 60.4958 45.1884 60.3969 45.7749 60.2374L48.5821 63.7651ZM43.9278 59.3889V56.2291H48.1453C47.8336 58.1599 46.2241 59.3889 43.9278 59.3889Z" fill="#FCFCFC"/>
<path fill-rule="evenodd" clip-rule="evenodd" d="M53.48 55.2186L53.6348 54.9966H55.0056L55.1602 55.1011L58.5317 63.7075L58.3771 63.9297H57.0063L56.8518 63.8255L56.4378 62.7757L50.4398 64.0627L50.2395 63.9184C50.2148 63.661 50.1893 63.3805 50.1893 63.1276C50.1893 60.3717 51.93 58.1301 54.3734 57.5072L53.48 55.2186ZM53.8762 55.3233L54.7508 57.5639L54.6319 57.7821C52.2542 58.3004 50.5209 60.4432 50.5209 63.1276C50.5209 63.3074 50.5349 63.5051 50.5525 63.7041L56.5058 62.4268L56.6956 62.5272L57.1198 63.603H58.1354L54.8918 55.3233H53.8762ZM51.8952 62.2688L55.9049 61.409L54.9266 58.9012C53.2057 59.2579 52.046 60.5739 51.8952 62.2688ZM51.5504 62.4682C51.6274 60.476 52.9799 58.9087 55.0025 58.554L55.1863 58.6562L56.2837 61.4696L56.1642 61.6878L51.7513 62.634L51.5504 62.4682Z" fill="#FCFCFC"/>
<path d="M58.377 63.7651L55.008 55.16H53.6347L54.596 57.6188C52.1379 58.1599 50.3538 60.3726 50.3538 63.1263C50.3538 63.3725 50.3785 63.6434 50.4032 63.9006L56.5422 62.5852L57.0037 63.7651H58.377ZM51.7135 62.4753C51.7888 60.5567 53.0855 59.0572 55.0327 58.7123L56.1302 61.5282L51.7135 62.4753Z" fill="#FCFCFC"/>
<path fill-rule="evenodd" clip-rule="evenodd" d="M59.5475 55.16L59.7132 54.9966H60.9605L61.1263 55.16V63.7664L60.9605 63.9297H59.7132L59.5475 63.7664V55.16ZM59.879 55.3233V63.603H60.7947V55.3233H59.879Z" fill="#FCFCFC"/>
<path d="M59.7121 55.16H60.9593V63.7651H59.7121V55.16Z" fill="#FCFCFC"/>
<path fill-rule="evenodd" clip-rule="evenodd" d="M63.0401 55.16L63.2058 54.9966H64.4531L64.5753 55.0495L69.4043 60.2356V55.16L69.5701 54.9966H70.8158L70.9816 55.16V63.7664L70.8158 63.9297H69.5701L69.4043 63.7664V62.382L64.6189 57.2515V63.7664L64.4531 63.9297H63.2058L63.0401 63.7664V55.16ZM63.3716 55.3233V63.603H64.2873V56.8324L64.5752 56.7218L69.6922 62.2078L69.7359 62.3183V63.603H70.65V55.3233H69.7359V60.6553L69.4479 60.7657L64.3802 55.3233H63.3716Z" fill="#FCFCFC"/>
<path d="M69.5688 55.16V60.6553L64.4531 55.16H63.2058V63.7651H64.4531V56.8311L69.5688 62.3146V63.7651H70.817V55.16H69.5688Z" fill="#FCFCFC"/>
<path fill-rule="evenodd" clip-rule="evenodd" d="M72.8981 55.16L73.0639 54.9966H78.9283L79.0941 55.16V56.3156L78.9283 56.4789H74.4769V58.7221H78.5508L78.7166 58.8855V60.0411L78.5508 60.2045H74.4769V62.4474H78.9283L79.0941 62.6108V63.7664L78.9283 63.9297H73.0639L72.8981 63.7664V55.16ZM73.2297 55.3233V63.603H78.7625V62.7741H74.3111L74.1453 62.6108V60.0411L74.3111 59.8778H78.385V59.0489H74.3111L74.1453 58.8855V56.3156L74.3111 56.1522H78.7625V55.3233H73.2297Z" fill="#FCFCFC"/>
<path d="M78.927 56.3156V55.16H73.0625V63.7651H78.927V62.6095H74.3098V60.0411H78.552V58.8855H74.3098V56.3156H78.927Z" fill="#FCFCFC"/>
<path fill-rule="evenodd" clip-rule="evenodd" d="M80.6342 55.16L80.8 54.9966H86.6642L86.8299 55.16V56.3156L86.6642 56.4789H82.2115V58.7221H86.2882L86.454 58.8855V60.0411L86.2882 60.2045H82.2115V62.4474H86.6642L86.8299 62.6108V63.7664L86.6642 63.9297H80.8L80.6342 63.7664V55.16ZM80.9658 55.3233V63.603H86.4984V62.7741H82.0457L81.8799 62.6108V60.0411L82.0457 59.8778H86.1224V59.0489H82.0457L81.8799 58.8855V56.3156L82.0457 56.1522H86.4984V55.3233H80.9658Z" fill="#FCFCFC"/>
<path d="M86.6633 56.3156V55.16H80.7988V63.7651H86.6633V62.6095H82.0458V60.0411H86.2883V58.8855H82.0458V56.3156H86.6633Z" fill="#FCFCFC"/>
<path fill-rule="evenodd" clip-rule="evenodd" d="M34.5557 70.5271L34.7215 70.3638H35.9688L36.1346 70.5271V73.5262C36.1346 74.9019 36.5564 75.9612 37.3307 76.6777C38.1064 77.3956 39.2583 77.7902 40.7592 77.7902H40.9152V70.5271L41.081 70.3638H42.328L42.4938 70.5271V79.1335L42.328 79.2969H40.7592C38.8147 79.2969 37.2597 78.7795 36.1899 77.7873C35.1186 76.7937 34.5557 75.3445 34.5557 73.5262V70.5271ZM34.8873 70.6905V73.5262C34.8873 75.2771 35.4275 76.6315 36.4171 77.5494C37.4082 78.4685 38.8721 78.9702 40.7592 78.9702H42.1622V70.6905H41.2468V77.9536L41.081 78.1169H40.7592C39.2019 78.1169 37.9586 77.707 37.1037 76.9158C36.2472 76.1232 35.803 74.9688 35.803 73.5262V70.6905H34.8873Z" fill="#FCFCFC"/>
<path d="M41.0833 70.5271V77.9536H40.758C37.701 77.9536 35.9675 76.3433 35.9675 73.5271V70.5271H34.7193V73.5271C34.7193 77.0929 36.9275 79.1335 40.758 79.1335H42.3305V70.5271H41.0833Z" fill="#FCFCFC"/>
<path fill-rule="evenodd" clip-rule="evenodd" d="M44.4116 70.5271L44.5774 70.3638H45.7996L45.9654 70.5271V74.1283H46.7498C47.755 74.1283 48.5707 73.815 49.1361 73.2211C49.7026 72.6261 50.0369 71.7294 50.0369 70.5271L50.2027 70.3638H51.4512L51.617 70.5271C51.617 72.3285 50.9034 74.0243 49.4061 74.7662C51.0045 75.5178 51.7902 77.2526 51.7902 79.1335L51.6245 79.2969H50.3759L50.2101 79.1335C50.2101 78.0686 49.9046 77.1714 49.3282 76.5423C48.754 75.9156 47.8951 75.5373 46.7498 75.5373H45.9654V79.1335L45.7996 79.2969H44.5774L44.4116 79.1335V70.5271ZM44.7431 70.6905V78.9702H45.6338V75.374L45.7996 75.2106H46.7498C47.9736 75.2106 48.9277 75.6176 49.5743 76.3233C50.1873 76.9925 50.5095 77.9141 50.5394 78.9702H51.4566C51.4092 77.1006 50.5465 75.4901 48.9262 74.9234L48.9245 74.6162C50.4437 74.066 51.2383 72.4935 51.2834 70.6905H50.3665C50.3373 71.8729 49.9895 72.8023 49.3779 73.4447C48.7374 74.1174 47.8266 74.4551 46.7498 74.4551H45.7996L45.6338 74.2917V70.6905H44.7431Z" fill="#FCFCFC"/>
<path d="M48.9805 74.7694C50.6408 74.1671 51.4513 72.4339 51.4513 70.5271H50.204C50.204 72.9859 48.8307 74.2892 46.7473 74.2892H45.7996V70.5271H44.5761V79.1335H45.7996V75.3717H46.7473C49.118 75.3717 50.3785 76.9455 50.3785 79.1335H51.6267C51.6267 77.154 50.7399 75.3839 48.9805 74.7694Z" fill="#FCFCFC"/>
<path fill-rule="evenodd" clip-rule="evenodd" d="M53.1461 70.5271L53.3119 70.3637H60.0457L60.2115 70.5271V70.8978C60.2115 72.8431 59.2323 74.3307 57.738 75.1978L60.8386 79.0317L60.7089 79.2969H59.1861L59.0556 79.2343L56.3161 75.7894C55.8018 75.9237 55.2637 76.0097 54.6986 76.0343V79.1335L54.5328 79.2969H53.3119L53.1461 79.1335V70.5271ZM53.4777 70.6905V78.9701H54.367V75.8764L54.529 75.7131C55.164 75.6987 55.7637 75.6033 56.334 75.446L56.5092 75.5025L59.2669 78.9701H60.3648L57.3576 75.2517L57.4081 75.0063C58.8987 74.2088 59.8799 72.7893 59.8799 70.8978V70.6905H53.4777ZM54.367 71.6L54.5328 71.4366H58.7506L58.9143 71.6259C58.5859 73.6456 56.8947 74.9231 54.5328 74.9231L54.367 74.7598V71.6ZM54.6986 71.7634V74.5942C56.7624 74.5386 58.1913 73.4435 58.5513 71.7634H54.6986Z" fill="#FCFCFC"/>
<path d="M59.1875 79.1335H60.7103L57.4911 75.1499C59.0253 74.327 60.0483 72.8508 60.0483 70.8966V70.5271H53.3107V79.1335H54.5329V75.8752C55.1825 75.863 55.7938 75.7653 56.3801 75.6058L59.1875 79.1335ZM54.5329 74.7573V71.5976H58.7507C58.4388 73.5271 56.8292 74.7573 54.5329 74.7573Z" fill="#FCFCFC"/>
<path fill-rule="evenodd" clip-rule="evenodd" d="M64.0867 70.5857L64.2414 70.3638H65.6122L65.7669 70.4684L69.1356 79.0748L68.9809 79.2969H67.6101L67.4555 79.1926L67.0428 78.1429L61.0449 79.4298L60.8446 79.2863C60.8187 79.0282 60.7931 78.7478 60.7931 78.4947C60.7931 75.7387 62.5339 73.4975 64.9789 72.8744L64.0867 70.5857ZM64.4827 70.6905L65.3562 72.9311L65.2373 73.1492C62.858 73.6679 61.1247 75.8104 61.1247 78.4947C61.1247 78.6746 61.1387 78.8725 61.1569 79.0714L67.1109 77.794L67.3007 77.8946L67.7237 78.9702H68.7393L65.4985 70.6905H64.4827ZM62.5003 77.636L66.5115 76.7762L65.5321 74.2684C63.8097 74.6253 62.651 75.941 62.5003 77.636ZM62.1555 77.8353C62.2325 75.8432 63.5837 74.2762 65.6079 73.9212L65.7917 74.0233L66.8904 76.8367L66.7709 77.055L62.3564 78.0012L62.1555 77.8353Z" fill="#FCFCFC"/>
<path d="M68.9822 79.1335L65.6135 70.5271H64.2414L65.2014 72.986C62.743 73.5271 60.9589 75.7397 60.9589 78.4947C60.9589 78.74 60.9836 79.0106 61.0096 79.269L67.1487 77.9536L67.6101 79.1335H68.9822ZM62.3199 77.8428C62.3943 75.9251 63.6919 74.4243 65.6382 74.0807L66.7366 76.8953L62.3199 77.8428Z" fill="#FCFCFC"/>
<path fill-rule="evenodd" clip-rule="evenodd" d="M70.1526 70.5271L70.3184 70.3638H71.5657L71.7315 70.5271V79.1335L71.5657 79.2969H70.3184L70.1526 79.1335V70.5271ZM70.4842 70.6905V78.9702H71.3999V70.6905H70.4842Z" fill="#FCFCFC"/>
<path d="M70.3173 70.5271H71.5655V79.1335H70.3173V70.5271Z" fill="#FCFCFC"/>
<path fill-rule="evenodd" clip-rule="evenodd" d="M73.645 70.5271L73.8108 70.3637H75.0593L75.1815 70.4167L80.0105 75.603V70.5271L80.1763 70.3637H81.4236L81.5894 70.5271V79.1335L81.4236 79.2969H80.1763L80.0105 79.1335V77.7491L75.2251 72.619V79.1335L75.0593 79.2969H73.8108L73.645 79.1335V70.5271ZM73.9766 70.6905V78.9701H74.8936V72.1998L75.1814 72.0893L80.2984 77.5749L80.3421 77.6855V78.9701H81.2578V70.6905H80.3421V76.0227L80.0542 76.1332L74.9865 70.6905H73.9766Z" fill="#FCFCFC"/>
<path d="M80.1751 70.5271V76.0227L75.0593 70.5271H73.8108V79.1335H75.0593V72.1998L80.1751 77.683V79.1335H81.4223V70.5271H80.1751Z" fill="#FCFCFC"/>
<path fill-rule="evenodd" clip-rule="evenodd" d="M83.5031 70.5271L83.6688 70.3637H89.5333L89.6991 70.5271V71.6827L89.5333 71.8461H85.0819V74.0893H89.1573L89.3231 74.2526V75.4083L89.1573 75.5716H85.0819V77.8145H89.5333L89.6991 77.9779V79.1335L89.5333 79.2969H83.6688L83.5031 79.1335V70.5271ZM83.8346 70.6905V78.9701H89.3675V78.1412H84.9161L84.7503 77.9779V75.4083L84.9161 75.2449H88.9916V74.416H84.9161L84.7503 74.2526V71.6827L84.9161 71.5194H89.3675V70.6905H83.8346Z" fill="#FCFCFC"/>
<path d="M89.5322 71.6828V70.5271H83.6677V79.1335H89.5322V77.9779H84.9162V75.4083H89.1584V74.2527H84.9162V71.6828H89.5322Z" fill="#FCFCFC"/>
</svg>
