<svg width="421" height="350" viewBox="0 0 421 350" fill="none" xmlns="http://www.w3.org/2000/svg">
<g filter="url(#filter0_f_2069_9140)">
<ellipse cx="210.5" cy="175" rx="130.5" ry="95" fill="#E2B9D5"/>
</g>
<path fill-rule="evenodd" clip-rule="evenodd" d="M217.674 214.986C242.072 210.595 258.031 186.048 253.378 160.071C248.722 134.097 225.205 116.47 200.769 120.639C192.035 122.134 183.978 126.338 177.605 132.723C183.482 127.94 190.46 124.764 197.893 123.488C222.337 119.321 245.739 136.247 250.244 161.351C254.751 186.455 238.665 210.292 214.257 214.672C211.169 215.219 208.029 215.434 204.889 215.311C209.16 215.847 213.464 215.737 217.674 214.986Z" fill="#2E0535"/>
<path fill-rule="evenodd" clip-rule="evenodd" d="M226.266 214.993C253.977 210.033 272.405 183.936 267.492 156.611C262.576 129.287 236.168 111.019 208.417 115.744C198.499 117.439 189.281 122.155 181.969 128.973C188.698 123.85 196.677 120.234 205.12 118.787C232.877 114.064 259.165 131.594 263.924 158.002C268.681 184.41 250.119 209.759 222.398 214.707C218.891 215.325 215.33 215.594 211.773 215.507C216.604 216.014 221.484 215.841 226.266 214.993Z" fill="#2E0535"/>
<path fill-rule="evenodd" clip-rule="evenodd" d="M222.423 214.896C248.197 210.269 265.169 184.984 260.388 158.336C255.603 131.689 230.87 113.706 205.055 118.107C195.829 119.685 187.304 123.907 180.544 130.495C186.773 125.555 194.153 122.394 202.007 121.047C227.828 116.649 252.445 133.912 257.075 159.665C261.704 185.42 244.602 209.973 218.819 214.59C215.557 215.167 212.24 215.402 208.925 215.293C213.431 215.821 217.975 215.689 222.423 214.896Z" fill="#2E0535"/>
<path fill-rule="evenodd" clip-rule="evenodd" d="M244.252 151.957C228.047 133.458 198.481 132.34 178.111 149.457C157.745 166.574 154.238 195.484 170.27 214.128C176.004 220.788 183.765 225.503 192.58 227.68C185.418 225.111 179.105 220.794 174.219 215.126C158.189 196.474 161.138 168.019 180.817 151.469C200.501 134.921 229.508 136.507 245.707 155.018C247.75 157.364 249.53 159.922 251.015 162.652C249.32 158.753 247.043 155.152 244.252 151.957Z" fill="#2E0535"/>
<path fill-rule="evenodd" clip-rule="evenodd" d="M239.903 144.656C221.524 123.63 189.35 121.201 167.933 139.222C146.517 157.243 143.915 188.933 162.112 210.111C168.621 217.678 177.406 223 187.076 225.755C179.185 222.636 171.988 217.81 166.444 211.371C148.246 190.184 150.264 158.971 170.958 141.548C191.651 124.124 223.237 127.047 241.613 148.085C243.932 150.751 245.971 153.641 247.696 156.706C245.692 152.346 243.068 148.288 239.903 144.656Z" fill="#2E0535"/>
<path fill-rule="evenodd" clip-rule="evenodd" d="M241.768 147.97C224.655 128.421 193.932 126.817 173.042 144.382C152.151 161.947 148.95 192.071 165.883 211.769C171.939 218.807 179.55 223.703 188.739 226.106C181.259 223.319 175.157 218.858 170 212.87C153.065 193.164 155.697 163.505 175.882 146.522C196.07 129.54 226.22 131.625 243.326 151.187C245.482 153.665 247.369 156.362 248.951 159.234C247.132 155.139 244.713 151.346 241.768 147.97Z" fill="#2E0535"/>
<path fill-rule="evenodd" clip-rule="evenodd" d="M175.853 158.969C166.811 181.724 179.605 208.01 204.475 217.772C229.343 227.534 256.93 217.098 266.184 194.427C269.485 186.322 270.095 177.358 267.937 168.66C268.971 176.101 268.045 183.618 265.235 190.519C255.975 213.194 229.057 223.903 205.018 214.475C180.979 205.046 168.866 179.027 177.922 156.271C179.074 153.396 180.539 150.651 182.297 148.084C179.588 151.381 177.42 155.045 175.853 158.969Z" fill="#2E0535"/>
<path fill-rule="evenodd" clip-rule="evenodd" d="M171.329 166.165C161.033 191.994 173.868 221.166 200.038 231.42C226.209 241.674 255.866 229.153 266.384 203.41C270.139 194.208 270.949 183.858 268.91 174.146C269.789 182.478 268.686 191.21 265.494 199.046C254.969 224.794 226.011 237.601 200.714 227.699C175.417 217.795 163.301 188.906 173.61 163.075C174.919 159.81 176.563 156.685 178.507 153.749C175.529 157.531 173.111 161.712 171.329 166.165Z" fill="#2E0535"/>
<path fill-rule="evenodd" clip-rule="evenodd" d="M173.435 162.994C163.871 187.029 176.769 214.55 202.285 224.56C227.802 234.568 256.335 223.299 266.115 199.351C269.603 190.79 270.446 181.402 268.316 172.274C269.301 180.091 268.147 187.96 265.181 195.25C255.393 219.202 227.545 230.751 202.88 221.085C178.215 211.417 166.018 184.171 175.592 160.135C176.812 157.098 178.353 154.196 180.191 151.477C177.365 154.973 175.089 158.851 173.435 162.994Z" fill="#2E0535"/>
<path fill-rule="evenodd" clip-rule="evenodd" d="M184.68 154.292L184.845 154.128H191.52L191.686 154.292V154.662C191.686 156.356 190.65 157.741 189.277 158.508C190.928 159.271 191.923 160.908 191.923 162.528V162.898L191.758 163.061H184.845L184.68 162.898V154.292ZM185.011 154.455V162.735H191.592V162.528C191.592 160.936 190.546 159.316 188.83 158.677L188.817 158.377C190.256 157.696 191.354 156.332 191.354 154.662V154.455H185.011ZM185.902 155.389L186.068 155.225H190.134L190.299 155.406C190.101 157.21 188.322 158.229 186.865 158.229H186.068L185.902 158.066V155.389ZM186.233 155.552V157.902H186.865C188.156 157.902 189.673 157.032 189.943 155.552H186.233ZM185.902 159.124L186.068 158.96H187.068C188.75 158.96 190.296 160.168 190.547 161.781L190.383 161.969H186.068L185.902 161.806V159.124ZM186.233 159.287V161.642H190.183C189.872 160.296 188.534 159.287 187.068 159.287H186.233Z" fill="#2E0535"/>
<path d="M188.887 158.522C190.372 157.821 191.52 156.406 191.52 154.661V154.292H184.844V162.898H191.756V162.528C191.756 160.869 190.672 159.185 188.887 158.522ZM190.134 155.386C189.947 157.083 188.263 158.066 186.866 158.066H186.067V155.386H190.134ZM186.067 159.124H187.065C188.675 159.124 190.147 160.279 190.384 161.803H186.067V159.124Z" fill="#2E0535"/>
<path fill-rule="evenodd" clip-rule="evenodd" d="M195.757 154.35L195.912 154.128H197.283L197.438 154.233L200.806 162.839L200.652 163.061H199.281L199.126 162.957L198.713 161.907L192.715 163.194L192.514 163.05C192.49 162.792 192.464 162.512 192.464 162.259C192.464 159.503 194.205 157.262 196.65 156.639L195.757 154.35ZM196.153 154.455L197.027 156.696L196.908 156.914C194.529 157.432 192.796 159.575 192.796 162.259C192.796 162.439 192.81 162.636 192.827 162.836L198.78 161.558L198.97 161.659L199.394 162.735H200.41L197.169 154.455H196.153ZM194.171 161.4L198.182 160.541L197.203 158.033C195.48 158.389 194.321 159.705 194.171 161.4ZM193.826 161.6C193.902 159.608 195.255 158.04 197.279 157.686L197.463 157.788L198.561 160.601L198.441 160.819L194.027 161.765L193.826 161.6Z" fill="#2E0535"/>
<path d="M200.653 162.898L197.284 154.292H195.912L196.872 156.75C194.414 157.292 192.63 159.504 192.63 162.259C192.63 162.504 192.655 162.775 192.679 163.033L198.818 161.718L199.281 162.898H200.653ZM193.99 161.607C194.065 159.689 195.363 158.189 197.309 157.845L198.408 160.66L193.99 161.607Z" fill="#2E0535"/>
<path fill-rule="evenodd" clip-rule="evenodd" d="M201.388 154.292L201.554 154.128H208.664L208.83 154.292V155.471L208.787 155.581L203.344 161.555H208.725L208.891 161.718V162.898L208.725 163.061H201.425L201.259 162.898V161.718L201.302 161.609L206.745 155.635H201.554L201.388 155.471V154.292ZM201.72 154.455V155.308H207.116L207.24 155.581L201.591 161.781V162.735H208.559V161.881H202.973L202.849 161.609L208.498 155.409V154.455H201.72Z" fill="#2E0535"/>
<path d="M201.427 162.898H208.726V161.718H202.974L208.664 155.472V154.292H201.551V155.472H207.116L201.427 161.718V162.898Z" fill="#2E0535"/>
<path fill-rule="evenodd" clip-rule="evenodd" d="M212.602 154.35L212.757 154.128H214.126L214.281 154.233L217.652 162.839L217.498 163.061H216.127L215.972 162.957L215.558 161.907L209.56 163.194L209.36 163.05C209.335 162.792 209.31 162.512 209.31 162.259C209.31 159.503 211.051 157.262 213.493 156.639L212.602 154.35ZM212.998 154.455L213.87 156.696L213.751 156.914C211.375 157.432 209.642 159.575 209.642 162.259C209.642 162.439 209.655 162.636 209.673 162.836L215.626 161.558L215.816 161.659L216.24 162.735H217.256L214.012 154.455H212.998ZM211.016 161.4L215.027 160.541L214.046 158.033C212.326 158.389 211.167 159.705 211.016 161.4ZM210.671 161.599C210.748 159.608 212.1 158.04 214.122 157.686L214.306 157.788L215.406 160.601L215.286 160.819L210.872 161.765L210.671 161.599Z" fill="#2E0535"/>
<path d="M217.498 162.898L214.129 154.292H212.757L213.717 156.75C211.259 157.292 209.475 159.504 209.475 162.259C209.475 162.504 209.499 162.775 209.524 163.033L215.663 161.718L216.126 162.898H217.498ZM210.834 161.607C210.91 159.69 212.208 158.189 214.153 157.845L215.252 160.66L210.834 161.607Z" fill="#2E0535"/>
<path fill-rule="evenodd" clip-rule="evenodd" d="M183.744 169.66L183.91 169.497H191.393L191.558 169.66V170.84L191.393 171.003H188.439V178.266L188.274 178.43H187.028L186.862 178.266V171.003H183.91L183.744 170.84V169.66ZM184.076 169.823V170.677H187.028L187.194 170.84V178.103H188.108V170.84L188.274 170.677H191.227V169.823H184.076Z" fill="#2E0535"/>
<path d="M191.395 169.66H183.909V170.84H187.028V178.265H188.275V170.84H191.395V169.66Z" fill="#2E0535"/>
<path fill-rule="evenodd" clip-rule="evenodd" d="M192.539 169.66L192.705 169.497H199.439L199.605 169.66V170.031C199.605 171.976 198.625 173.463 197.133 174.331L200.234 178.165L200.104 178.43H198.578L198.448 178.367L195.711 174.922C195.195 175.056 194.658 175.142 194.094 175.167V178.266L193.928 178.43H192.705L192.539 178.266V169.66ZM192.871 169.823V178.103H193.762V175.009L193.924 174.846C194.558 174.832 195.156 174.736 195.729 174.579L195.904 174.635L198.659 178.103H199.76L196.753 174.385L196.803 174.139C198.291 173.342 199.274 171.922 199.274 170.031V169.823H192.871ZM193.762 170.733L193.928 170.57H198.143L198.307 170.758C197.981 172.778 196.29 174.056 193.928 174.056L193.762 173.893V170.733ZM194.094 170.896V173.727C196.157 173.671 197.586 172.576 197.944 170.896H194.094Z" fill="#2E0535"/>
<path d="M198.582 178.265H200.104L196.885 174.283C198.42 173.459 199.443 171.983 199.443 170.028V169.66H192.705V178.265H193.928V175.008C194.576 174.996 195.188 174.897 195.775 174.737L198.582 178.265ZM193.928 173.889V170.729H198.145C197.834 172.66 196.224 173.889 193.928 173.889Z" fill="#2E0535"/>
<path fill-rule="evenodd" clip-rule="evenodd" d="M203.48 169.719L203.635 169.497H205.006L205.16 169.601L208.532 178.208L208.377 178.43H207.006L206.852 178.326L206.438 177.276L200.44 178.563L200.239 178.418C200.215 178.161 200.189 177.88 200.189 177.628C200.189 174.872 201.93 172.63 204.373 172.007L203.48 169.719ZM203.876 169.823L204.751 172.064L204.632 172.282C202.254 172.8 200.521 174.943 200.521 177.628C200.521 177.807 200.535 178.005 200.553 178.204L206.506 176.927L206.696 177.027L207.12 178.103H208.135L204.892 169.823H203.876ZM201.895 176.769L205.905 175.909L204.927 173.401C203.206 173.758 202.046 175.074 201.895 176.769ZM201.55 176.968C201.627 174.976 202.98 173.409 205.002 173.054L205.186 173.156L206.284 175.97L206.164 176.188L201.751 177.134L201.55 176.968Z" fill="#2E0535"/>
<path d="M208.377 178.265L205.008 169.66H203.635L204.596 172.119C202.138 172.66 200.354 174.873 200.354 177.626C200.354 177.873 200.378 178.143 200.403 178.401L206.542 177.085L207.004 178.265H208.377ZM201.713 176.975C201.789 175.057 203.086 173.557 205.033 173.212L206.13 176.028L201.713 176.975Z" fill="#2E0535"/>
<path fill-rule="evenodd" clip-rule="evenodd" d="M209.547 169.66L209.713 169.497H210.961L211.126 169.66V178.266L210.961 178.43H209.713L209.547 178.266V169.66ZM209.879 169.823V178.103H210.795V169.823H209.879Z" fill="#2E0535"/>
<path d="M209.712 169.66H210.959V178.265H209.712V169.66Z" fill="#2E0535"/>
<path fill-rule="evenodd" clip-rule="evenodd" d="M213.04 169.66L213.206 169.497H214.453L214.575 169.55L219.404 174.736V169.66L219.57 169.497H220.816L220.982 169.66V178.266L220.816 178.43H219.57L219.404 178.266V176.882L214.619 171.752V178.266L214.453 178.43H213.206L213.04 178.266V169.66ZM213.372 169.823V178.103H214.287V171.332L214.575 171.222L219.692 176.708L219.736 176.818V178.103H220.65V169.823H219.736V175.155L219.448 175.266L214.38 169.823H213.372Z" fill="#2E0535"/>
<path d="M219.569 169.66V175.155L214.453 169.66H213.206V178.265H214.453V171.331L219.569 176.815V178.265H220.817V169.66H219.569Z" fill="#2E0535"/>
<path fill-rule="evenodd" clip-rule="evenodd" d="M222.898 169.66L223.064 169.497H228.928L229.094 169.66V170.816L228.928 170.979H224.477V173.222H228.551L228.717 173.386V174.541L228.551 174.704H224.477V176.947H228.928L229.094 177.111V178.266L228.928 178.43H223.064L222.898 178.266V169.66ZM223.23 169.823V178.103H228.763V177.274H224.311L224.145 177.111V174.541L224.311 174.378H228.385V173.549H224.311L224.145 173.386V170.816L224.311 170.652H228.763V169.823H223.23Z" fill="#2E0535"/>
<path d="M228.927 170.816V169.66H223.063V178.265H228.927V177.11H224.31V174.541H228.552V173.386H224.31V170.816H228.927Z" fill="#2E0535"/>
<path fill-rule="evenodd" clip-rule="evenodd" d="M230.634 169.66L230.8 169.497H236.664L236.83 169.66V170.816L236.664 170.979H232.211V173.222H236.288L236.454 173.386V174.541L236.288 174.704H232.211V176.947H236.664L236.83 177.111V178.266L236.664 178.43H230.8L230.634 178.266V169.66ZM230.966 169.823V178.103H236.498V177.274H232.046L231.88 177.111V174.541L232.046 174.378H236.122V173.549H232.046L231.88 173.386V170.816L232.046 170.652H236.498V169.823H230.966Z" fill="#2E0535"/>
<path d="M236.663 170.816V169.66H230.799V178.265H236.663V177.11H232.046V174.541H236.288V173.386H232.046V170.816H236.663Z" fill="#2E0535"/>
<path fill-rule="evenodd" clip-rule="evenodd" d="M184.556 185.027L184.722 184.864H185.969L186.135 185.027V188.026C186.135 189.402 186.556 190.461 187.331 191.178C188.106 191.896 189.258 192.29 190.759 192.29H190.915V185.027L191.081 184.864H192.328L192.494 185.027V193.634L192.328 193.797H190.759C188.815 193.797 187.26 193.279 186.19 192.287C185.119 191.294 184.556 189.844 184.556 188.026V185.027ZM184.887 185.191V188.026C184.887 189.777 185.427 191.132 186.417 192.049C187.408 192.969 188.872 193.47 190.759 193.47H192.162V185.191H191.247V192.454L191.081 192.617H190.759C189.202 192.617 187.959 192.207 187.104 191.416C186.247 190.623 185.803 189.469 185.803 188.026V185.191H184.887Z" fill="#2E0535"/>
<path d="M191.083 185.027V192.454H190.758C187.701 192.454 185.968 190.843 185.968 188.027V185.027H184.719V188.027C184.719 191.593 186.928 193.634 190.758 193.634H192.331V185.027H191.083Z" fill="#2E0535"/>
<path fill-rule="evenodd" clip-rule="evenodd" d="M194.412 185.027L194.577 184.864H195.8L195.965 185.027V188.628H196.75C197.755 188.628 198.571 188.315 199.136 187.721C199.703 187.126 200.037 186.229 200.037 185.027L200.203 184.864H201.451L201.617 185.027C201.617 186.829 200.903 188.524 199.406 189.266C201.004 190.018 201.79 191.753 201.79 193.634L201.624 193.797H200.376L200.21 193.634C200.21 192.569 199.905 191.671 199.328 191.042C198.754 190.416 197.895 190.037 196.75 190.037H195.965V193.634L195.8 193.797H194.577L194.412 193.634V185.027ZM194.743 185.191V193.47H195.634V189.874L195.8 189.711H196.75C197.974 189.711 198.928 190.118 199.574 190.823C200.187 191.492 200.509 192.414 200.539 193.47H201.457C201.409 191.601 200.546 189.99 198.926 189.423L198.925 189.116C200.444 188.566 201.238 186.993 201.283 185.191H200.366C200.337 186.373 199.989 187.302 199.378 187.945C198.737 188.617 197.827 188.955 196.75 188.955H195.8L195.634 188.792V185.191H194.743Z" fill="#2E0535"/>
<path d="M198.981 189.269C200.641 188.667 201.451 186.934 201.451 185.027H200.204C200.204 187.486 198.831 188.789 196.747 188.789H195.8V185.027H194.576V193.633H195.8V189.872H196.747C199.118 189.872 200.379 191.446 200.379 193.633H201.627C201.627 191.654 200.74 189.884 198.981 189.269Z" fill="#2E0535"/>
<path fill-rule="evenodd" clip-rule="evenodd" d="M203.146 185.027L203.312 184.864H210.046L210.212 185.027V185.398C210.212 187.343 209.232 188.831 207.738 189.698L210.839 193.532L210.709 193.797H209.186L209.056 193.734L206.316 190.289C205.802 190.424 205.264 190.51 204.699 190.534V193.633L204.533 193.797H203.312L203.146 193.633V185.027ZM203.478 185.19V193.47H204.367V190.376L204.529 190.213C205.164 190.199 205.764 190.103 206.334 189.946L206.509 190.003L209.267 193.47H210.365L207.358 189.752L207.408 189.506C208.899 188.709 209.88 187.289 209.88 185.398V185.19H203.478ZM204.367 186.1L204.533 185.937H208.751L208.914 186.126C208.586 188.146 206.895 189.423 204.533 189.423L204.367 189.26V186.1ZM204.699 186.263V189.094C206.762 189.039 208.191 187.943 208.551 186.263H204.699Z" fill="#2E0535"/>
<path d="M209.187 193.634H210.71L207.491 189.65C209.025 188.827 210.048 187.351 210.048 185.397V185.027H203.311V193.634H204.533V190.375C205.183 190.363 205.794 190.265 206.38 190.106L209.187 193.634ZM204.533 189.257V186.098H208.751C208.439 188.027 206.829 189.257 204.533 189.257Z" fill="#2E0535"/>
<path fill-rule="evenodd" clip-rule="evenodd" d="M214.087 185.086L214.241 184.864H215.612L215.767 184.968L219.136 193.575L218.981 193.797H217.61L217.456 193.693L217.043 192.643L211.045 193.93L210.845 193.786C210.819 193.528 210.793 193.248 210.793 192.995C210.793 190.239 212.534 187.997 214.979 187.374L214.087 185.086ZM214.483 185.191L215.356 187.431L215.237 187.649C212.858 188.168 211.125 190.31 211.125 192.995C211.125 193.175 211.139 193.372 211.157 193.571L217.111 192.294L217.301 192.395L217.724 193.47H218.739L215.498 185.191H214.483ZM212.5 192.136L216.511 191.276L215.532 188.768C213.81 189.125 212.651 190.441 212.5 192.136ZM212.155 192.335C212.233 190.343 213.584 188.776 215.608 188.421L215.792 188.523L216.89 191.337L216.771 191.555L212.356 192.501L212.155 192.335Z" fill="#2E0535"/>
<path d="M218.982 193.634L215.614 185.027H214.241L215.201 187.486C212.743 188.027 210.959 190.24 210.959 192.995C210.959 193.24 210.984 193.511 211.01 193.769L217.149 192.454L217.61 193.634H218.982ZM212.32 192.343C212.394 190.425 213.692 188.924 215.638 188.581L216.737 191.395L212.32 192.343Z" fill="#2E0535"/>
<path fill-rule="evenodd" clip-rule="evenodd" d="M220.153 185.027L220.318 184.864H221.566L221.731 185.027V193.634L221.566 193.797H220.318L220.153 193.634V185.027ZM220.484 185.191V193.47H221.4V185.191H220.484Z" fill="#2E0535"/>
<path d="M220.317 185.027H221.565V193.633H220.317V185.027Z" fill="#2E0535"/>
<path fill-rule="evenodd" clip-rule="evenodd" d="M223.645 185.027L223.811 184.864H225.059L225.182 184.917L230.011 190.103V185.027L230.176 184.864H231.424L231.589 185.027V193.633L231.424 193.797H230.176L230.011 193.633V192.249L225.225 187.119V193.633L225.059 193.797H223.811L223.645 193.633V185.027ZM223.977 185.19V193.47H224.894V186.7L225.181 186.589L230.298 192.075L230.342 192.185V193.47H231.258V185.19H230.342V190.523L230.054 190.633L224.986 185.19H223.977Z" fill="#2E0535"/>
<path d="M230.175 185.027V190.523L225.059 185.027H223.811V193.633H225.059V186.7L230.175 192.183V193.633H231.422V185.027H230.175Z" fill="#2E0535"/>
<path fill-rule="evenodd" clip-rule="evenodd" d="M233.503 185.027L233.669 184.864H239.533L239.699 185.027V186.183L239.533 186.346H235.082V188.589H239.157L239.323 188.753V189.908L239.157 190.072H235.082V192.315H239.533L239.699 192.478V193.633L239.533 193.797H233.669L233.503 193.633V185.027ZM233.835 185.19V193.47H239.368V192.641H234.916L234.75 192.478V189.908L234.916 189.745H238.992V188.916H234.916L234.75 188.753V186.183L234.916 186.019H239.368V185.19H233.835Z" fill="#2E0535"/>
<path d="M239.532 186.183V185.027H233.668V193.634H239.532V192.478H234.916V189.908H239.158V188.753H234.916V186.183H239.532Z" fill="#2E0535"/>
<defs>
<filter id="filter0_f_2069_9140" x="0" y="0" width="421" height="350" filterUnits="userSpaceOnUse" color-interpolation-filters="sRGB">
<feFlood flood-opacity="0" result="BackgroundImageFix"/>
<feBlend mode="normal" in="SourceGraphic" in2="BackgroundImageFix" result="shape"/>
<feGaussianBlur stdDeviation="40" result="effect1_foregroundBlur_2069_9140"/>
</filter>
</defs>
</svg>
