<svg width="120" height="120" viewBox="0 0 120 120" fill="none" xmlns="http://www.w3.org/2000/svg">
<path fill-rule="evenodd" clip-rule="evenodd" d="M67.6743 99.9864C92.0722 95.5955 108.031 71.0477 103.378 45.0709C98.7221 19.0969 75.2054 1.46969 50.7692 5.6387C42.0346 7.13447 33.9781 11.3378 27.6053 17.7232C33.4818 12.9397 40.4598 9.76401 47.8927 8.48763C72.3374 4.32081 95.7392 21.2474 100.244 46.351C104.751 71.4546 88.6648 95.2918 64.2572 99.6718C61.1691 100.219 58.0291 100.434 54.8891 100.311C59.1601 100.847 63.4641 100.737 67.6743 99.9864Z" fill="#2E0535"/>
<path fill-rule="evenodd" clip-rule="evenodd" d="M76.2657 99.9926C103.977 95.0334 122.405 68.9361 117.492 41.6115C112.576 14.2865 86.1683 -3.98074 58.4167 0.74407C48.4991 2.43864 39.2809 7.15498 31.969 13.9732C38.6981 8.85048 46.677 5.23389 55.1196 3.7868C82.8773 -0.935516 109.165 16.594 113.924 43.0024C118.681 69.4105 100.119 94.7591 72.3982 99.7073C68.8908 100.325 65.3301 100.594 61.7733 100.507C66.6043 101.014 71.4841 100.841 76.2657 99.9926Z" fill="#2E0535"/>
<path fill-rule="evenodd" clip-rule="evenodd" d="M72.4231 99.8962C98.1975 95.2687 115.169 69.9844 110.388 43.3364C105.603 16.6892 80.8705 -1.29407 55.0553 3.10681C45.8294 4.68528 37.3039 8.90666 30.5437 15.4946C36.773 10.555 44.153 7.3941 52.0068 6.04718C77.8283 1.6488 102.445 18.9115 107.075 44.6652C111.704 70.4198 94.6023 94.9726 68.8191 99.5903C65.5566 100.167 62.2395 100.402 58.925 100.293C63.431 100.821 67.9754 100.689 72.4231 99.8962Z" fill="#2E0535"/>
<path fill-rule="evenodd" clip-rule="evenodd" d="M94.252 36.9569C78.0471 18.458 48.4807 17.3402 28.1112 34.4569C7.74462 51.5745 4.23817 80.4841 20.2701 99.1281C26.0044 105.788 33.7654 110.503 42.5804 112.68C35.4183 110.111 29.1048 105.794 24.219 100.126C8.18866 81.474 11.138 53.0191 30.817 36.4694C50.501 19.9211 79.5085 21.507 95.707 40.018C97.7496 42.3636 99.5302 44.9223 101.015 47.6517C99.3196 43.7533 97.0433 40.1522 94.252 36.9569Z" fill="#2E0535"/>
<path fill-rule="evenodd" clip-rule="evenodd" d="M89.9034 29.6562C71.5236 8.6302 39.3502 6.2007 17.933 24.2218C-3.48324 42.2428 -6.08481 73.9331 12.1119 95.1114C18.6206 102.678 27.4059 108 37.0761 110.755C29.1853 107.636 21.9883 102.81 16.4444 96.3706C-1.75361 75.1839 0.264233 43.9714 20.9577 26.5477C41.6511 9.1239 73.2371 12.0471 91.613 33.0853C93.9318 35.7514 95.9705 38.6405 97.6964 41.7064C95.6921 37.3461 93.0681 33.2878 89.9034 29.6562Z" fill="#2E0535"/>
<path fill-rule="evenodd" clip-rule="evenodd" d="M91.7679 32.9695C74.6547 13.4209 43.9325 11.8168 23.0424 29.3819C2.15096 46.947 -1.04953 77.071 15.8828 96.7694C21.9389 103.807 29.5501 108.703 38.7389 111.106C31.2586 108.319 25.1568 103.858 20.0002 97.8701C3.06534 78.1642 5.697 48.5049 25.8818 31.5224C46.0704 14.54 76.2199 16.6246 93.3256 36.1867C95.4818 38.6649 97.3685 41.3615 98.9509 44.2336C97.1323 40.1388 94.7134 36.3462 91.7679 32.9695Z" fill="#2E0535"/>
<path fill-rule="evenodd" clip-rule="evenodd" d="M25.8533 43.9689C16.8108 66.7235 29.6046 93.0099 54.475 102.772C79.3425 112.534 106.93 102.098 116.184 79.4271C119.485 71.3219 120.095 62.3582 117.937 53.6604C118.971 61.1015 118.045 68.6181 115.235 75.519C105.975 98.1944 79.0568 108.903 55.0178 99.4754C30.9791 90.0464 18.8657 64.0272 27.9221 41.2713C29.0737 38.3956 30.5386 35.6515 32.2967 33.0841C29.5884 36.3805 27.4198 40.0449 25.8533 43.9689Z" fill="#2E0535"/>
<path fill-rule="evenodd" clip-rule="evenodd" d="M21.329 51.1651C11.0329 76.9939 23.8679 106.166 50.0384 116.42C76.209 126.674 105.866 114.153 116.384 88.4103C120.139 79.2078 120.949 68.8581 118.91 59.146C119.789 67.4781 118.686 76.2103 115.494 84.0462C104.969 109.794 76.011 122.601 50.714 112.699C25.417 102.795 13.301 73.9063 23.6104 48.0746C24.9194 44.8103 26.5625 41.6846 28.5072 38.7492C25.5294 42.5306 23.1106 46.7118 21.329 51.1651Z" fill="#2E0535"/>
<path fill-rule="evenodd" clip-rule="evenodd" d="M23.4348 47.9944C13.871 72.0288 26.7689 99.55 52.2851 109.56C77.8023 119.568 106.335 108.299 116.115 84.3511C119.603 75.7896 120.446 66.4017 118.316 57.2736C119.301 65.0913 118.147 72.9604 115.181 80.2501C105.393 104.202 77.5448 115.751 52.8799 106.085C28.2151 96.4171 16.0178 69.1714 25.5923 45.1355C26.8123 42.0977 28.3526 39.1964 30.1911 36.4766C27.3653 39.9731 25.0887 43.8506 23.4348 47.9944Z" fill="#2E0535"/>
<path fill-rule="evenodd" clip-rule="evenodd" d="M34.6797 39.2916L34.8455 39.1282H41.5201L41.6859 39.2916V39.662C41.6859 41.3559 40.6503 42.7409 39.2768 43.5083C40.9277 44.271 41.9234 45.9076 41.9234 47.5275V47.898L41.7576 48.0613H34.8455L34.6797 47.898V39.2916ZM35.0113 39.4549V47.7346H41.5919V47.5275C41.5919 45.9364 40.5463 44.3155 38.8302 43.6768L38.817 43.3767C40.2558 42.6956 41.3543 41.3319 41.3543 39.662V39.4549H35.0113ZM35.9019 40.3888L36.0677 40.2255H40.1344L40.2993 40.4065C40.1006 42.2105 38.3223 43.2292 36.8646 43.2292H36.0677L35.9019 43.0658V40.3888ZM36.2335 40.5522V42.9025H36.8646C38.1561 42.9025 39.6726 42.0319 39.9432 40.5522H36.2335ZM35.9019 44.1237L36.0677 43.9604H37.0676C38.7501 43.9604 40.2959 45.1676 40.5469 46.781L40.3831 46.9691H36.0677L35.9019 46.8057V44.1237ZM36.2335 44.2871V46.6424H40.1829C39.8722 45.2961 38.5342 44.2871 37.0676 44.2871H36.2335Z" fill="#2E0535"/>
<path d="M38.8874 43.5217C40.3719 42.8208 41.52 41.4065 41.52 39.661V39.2915H34.8441V47.8979H41.7563V47.5284C41.7563 45.8694 40.6715 44.1849 38.8874 43.5217ZM40.1344 40.3863C39.9475 42.083 38.2625 43.0658 36.8658 43.0658H36.0667V40.3863H40.1344ZM36.0667 44.1237H37.065C38.6746 44.1237 40.1467 45.2793 40.3843 46.8032H36.0667V44.1237Z" fill="#2E0535"/>
<path fill-rule="evenodd" clip-rule="evenodd" d="M45.7573 39.3501L45.912 39.1282H47.2831L47.4378 39.2327L50.8065 47.8391L50.6518 48.0613H49.281L49.1265 47.9571L48.7125 46.9073L42.7145 48.1942L42.5142 48.0499C42.4896 47.7922 42.464 47.5117 42.464 47.2591C42.464 44.5031 44.2048 42.2616 46.6497 41.6387L45.7573 39.3501ZM46.1533 39.4549L47.0271 41.6955L46.9081 41.9136C44.5289 42.432 42.7956 44.5748 42.7956 47.2591C42.7956 47.4388 42.8096 47.6364 42.8273 47.8357L48.7805 46.5584L48.9703 46.6588L49.3945 47.7346H50.4102L47.1694 39.4549H46.1533ZM44.1711 46.4001L48.1821 45.5406L47.203 43.0328C45.4804 43.3894 44.3207 44.7055 44.1711 46.4001ZM43.8264 46.5995C43.9021 44.6076 45.2547 43.0403 47.2788 42.6855L47.4626 42.7877L48.561 45.6011L48.4415 45.8194L44.0273 46.7653L43.8264 46.5995Z" fill="#2E0535"/>
<path d="M50.6531 47.8979L47.2841 39.2915H45.912L46.8723 41.7504C44.4139 42.2915 42.6298 44.5041 42.6298 47.2591C42.6298 47.5041 42.6545 47.775 42.6792 48.0334L48.8183 46.718L49.281 47.8979H50.6531ZM43.9895 46.6069C44.0649 44.6895 45.3628 43.1887 47.3091 42.8451L48.4075 45.6597L43.9895 46.6069Z" fill="#2E0535"/>
<path fill-rule="evenodd" clip-rule="evenodd" d="M51.388 39.2915L51.5538 39.1282H58.664L58.8298 39.2915V40.4715L58.7873 40.5806L53.3444 46.5546H58.7248L58.8906 46.718V47.8979L58.7248 48.0613H51.4252L51.2594 47.8979V46.718L51.3019 46.6088L56.7445 40.6348H51.5538L51.388 40.4715V39.2915ZM51.7196 39.4549V40.3081H57.1161L57.2395 40.5806L51.591 46.7805V47.7346H58.559V46.8813H52.9727L52.8494 46.6088L58.4982 40.4089V39.4549H51.7196Z" fill="#2E0535"/>
<path d="M51.4266 47.898H58.7258V46.718H52.9741L58.6641 40.4715V39.2916H51.5514V40.4715H57.1162L51.4266 46.718V47.898Z" fill="#2E0535"/>
<path fill-rule="evenodd" clip-rule="evenodd" d="M62.6019 39.35L62.7567 39.1282H64.1262L64.2808 39.2327L67.6524 47.8391L67.4977 48.0613H66.1269L65.9724 47.9571L65.5584 46.9073L59.5604 48.1942L59.3601 48.0499C59.3354 47.7922 59.3099 47.5117 59.3099 47.2591C59.3099 44.5032 61.0506 42.2616 63.4929 41.6388L62.6019 39.35ZM62.9978 39.4549L63.8702 41.6956L63.7512 41.9136C61.3748 42.4319 59.6415 44.5747 59.6415 47.2591C59.6415 47.4388 59.6555 47.6364 59.6731 47.8357L65.6264 46.5584L65.8162 46.6588L66.2404 47.7346H67.256L64.0125 39.4549H62.9978ZM61.0158 46.4001L65.0266 45.5406L64.0461 43.0328C62.3263 43.3894 61.1666 44.7054 61.0158 46.4001ZM60.671 46.5994C60.748 44.6076 62.1005 43.0403 64.1218 42.6855L64.3056 42.7876L65.4056 45.601L65.2861 45.8194L60.8719 46.7653L60.671 46.5994Z" fill="#2E0535"/>
<path d="M67.4978 47.898L64.1288 39.2916H62.7567L63.7167 41.7504C61.2586 42.2916 59.4745 44.5042 59.4745 47.2592C59.4745 47.5041 59.4992 47.775 59.5239 48.0334L65.663 46.718L66.1257 47.898H67.4978ZM60.8342 46.6069C60.9096 44.6895 62.2075 43.1888 64.1535 42.8452L65.2522 45.6598L60.8342 46.6069Z" fill="#2E0535"/>
<path fill-rule="evenodd" clip-rule="evenodd" d="M33.7443 54.66L33.9101 54.4966H41.3927L41.5585 54.66V55.8399L41.3927 56.0033H38.4394V63.2664L38.2736 63.4297H37.0279L36.8621 63.2664V56.0033H33.9101L33.7443 55.8399V54.66ZM34.0759 54.8233V55.6766H37.0279L37.1937 55.8399V63.103H38.1078V55.8399L38.2736 55.6766H41.2269V54.8233H34.0759Z" fill="#2E0535"/>
<path d="M41.3952 54.66H33.9088V55.8399H37.0279V63.2651H38.2748V55.8399H41.3952V54.66Z" fill="#2E0535"/>
<path fill-rule="evenodd" clip-rule="evenodd" d="M42.5395 54.66L42.7053 54.4966H49.4394L49.6052 54.66V55.0307C49.6052 56.976 48.6245 58.4635 47.1329 59.3305L50.2336 63.1646L50.1039 63.4297H48.5783L48.4477 63.3671L45.7109 59.9222C45.195 60.0565 44.6577 60.1425 44.0936 60.1672V63.2664L43.9278 63.4297H42.7053L42.5395 63.2664V54.66ZM42.8711 54.8233V63.103H43.762V60.0092L43.924 59.8459C44.5576 59.8316 45.1561 59.7362 45.7292 59.5788L45.9042 59.6355L48.659 63.103H49.7598L46.7526 59.3845L46.803 59.1392C48.2909 58.3417 49.2737 56.9221 49.2737 55.0307V54.8233H42.8711ZM43.762 55.7329L43.9278 55.5695H48.1428L48.3065 55.7585C47.981 57.7782 46.2897 59.056 43.9278 59.056L43.762 58.8926V55.7329ZM44.0936 55.8962V58.7271C46.1575 58.6715 47.5862 57.576 47.9437 55.8962H44.0936Z" fill="#2E0535"/>
<path d="M48.5821 63.2651H50.1039L46.8847 59.2827C48.4199 58.4585 49.4432 56.9834 49.4432 55.0282V54.66H42.7053V63.2651H43.9278V60.008C44.5761 59.9958 45.1884 59.8969 45.7749 59.7374L48.5821 63.2651ZM43.9278 58.8889V55.7291H48.1453C47.8337 57.6599 46.2241 58.8889 43.9278 58.8889Z" fill="#2E0535"/>
<path fill-rule="evenodd" clip-rule="evenodd" d="M53.48 54.7186L53.6348 54.4966H55.0056L55.1602 54.6011L58.5318 63.2075L58.3771 63.4297H57.0063L56.8518 63.3255L56.4378 62.2757L50.4398 63.5627L50.2395 63.4184C50.2149 63.161 50.1893 62.8805 50.1893 62.6276C50.1893 59.8717 51.93 57.6301 54.3734 57.0072L53.48 54.7186ZM53.8762 54.8233L54.7508 57.0639L54.6319 57.2821C52.2542 57.8004 50.5209 59.9432 50.5209 62.6276C50.5209 62.8074 50.5349 63.0051 50.5525 63.2041L56.5058 61.9268L56.6956 62.0272L57.1198 63.103H58.1354L54.8918 54.8233H53.8762ZM51.8952 61.7688L55.9049 60.909L54.9267 58.4012C53.2057 58.7579 52.046 60.0739 51.8952 61.7688ZM51.5504 61.9682C51.6274 59.976 52.9799 58.4087 55.0025 58.054L55.1863 58.1562L56.2837 60.9696L56.1642 61.1878L51.7513 62.134L51.5504 61.9682Z" fill="#2E0535"/>
<path d="M58.377 63.2651L55.008 54.66H53.6347L54.596 57.1188C52.1379 57.6599 50.3538 59.8726 50.3538 62.6263C50.3538 62.8725 50.3785 63.1434 50.4032 63.4006L56.5422 62.0852L57.0037 63.2651H58.377ZM51.7135 61.9753C51.7888 60.0567 53.0855 58.5572 55.0327 58.2123L56.1302 61.0282L51.7135 61.9753Z" fill="#2E0535"/>
<path fill-rule="evenodd" clip-rule="evenodd" d="M59.5475 54.66L59.7133 54.4966H60.9605L61.1263 54.66V63.2664L60.9605 63.4297H59.7133L59.5475 63.2664V54.66ZM59.879 54.8233V63.103H60.7947V54.8233H59.879Z" fill="#2E0535"/>
<path d="M59.7121 54.66H60.9593V63.2651H59.7121V54.66Z" fill="#2E0535"/>
<path fill-rule="evenodd" clip-rule="evenodd" d="M63.0401 54.66L63.2058 54.4966H64.4531L64.5753 54.5495L69.4043 59.7356V54.66L69.5701 54.4966H70.8158L70.9816 54.66V63.2664L70.8158 63.4297H69.5701L69.4043 63.2664V61.882L64.6189 56.7515V63.2664L64.4531 63.4297H63.2058L63.0401 63.2664V54.66ZM63.3716 54.8233V63.103H64.2873V56.3324L64.5752 56.2218L69.6922 61.7078L69.7359 61.8183V63.103H70.65V54.8233H69.7359V60.1553L69.4479 60.2657L64.3802 54.8233H63.3716Z" fill="#2E0535"/>
<path d="M69.5688 54.66V60.1553L64.4531 54.66H63.2058V63.2651H64.4531V56.3311L69.5688 61.8146V63.2651H70.817V54.66H69.5688Z" fill="#2E0535"/>
<path fill-rule="evenodd" clip-rule="evenodd" d="M72.8981 54.66L73.0639 54.4966H78.9283L79.0941 54.66V55.8156L78.9283 55.9789H74.4769V58.2221H78.5508L78.7166 58.3855V59.5411L78.5508 59.7045H74.4769V61.9474H78.9283L79.0941 62.1108V63.2664L78.9283 63.4297H73.0639L72.8981 63.2664V54.66ZM73.2297 54.8233V63.103H78.7625V62.2741H74.3111L74.1453 62.1108V59.5411L74.3111 59.3778H78.385V58.5489H74.3111L74.1453 58.3855V55.8156L74.3111 55.6522H78.7625V54.8233H73.2297Z" fill="#2E0535"/>
<path d="M78.927 55.8156V54.66H73.0625V63.2651H78.927V62.1095H74.3098V59.5411H78.552V58.3855H74.3098V55.8156H78.927Z" fill="#2E0535"/>
<path fill-rule="evenodd" clip-rule="evenodd" d="M80.6342 54.66L80.8 54.4966H86.6642L86.8299 54.66V55.8156L86.6642 55.9789H82.2115V58.2221H86.2882L86.454 58.3855V59.5411L86.2882 59.7045H82.2115V61.9474H86.6642L86.8299 62.1108V63.2664L86.6642 63.4297H80.8L80.6342 63.2664V54.66ZM80.9658 54.8233V63.103H86.4984V62.2741H82.0457L81.8799 62.1108V59.5411L82.0457 59.3778H86.1224V58.5489H82.0457L81.8799 58.3855V55.8156L82.0457 55.6522H86.4984V54.8233H80.9658Z" fill="#2E0535"/>
<path d="M86.6633 55.8156V54.66H80.7988V63.2651H86.6633V62.1095H82.0458V59.5411H86.2883V58.3855H82.0458V55.8156H86.6633Z" fill="#2E0535"/>
<path fill-rule="evenodd" clip-rule="evenodd" d="M34.5558 70.0271L34.7215 69.8638H35.9688L36.1346 70.0271V73.0262C36.1346 74.4019 36.5564 75.4612 37.3307 76.1777C38.1064 76.8956 39.2583 77.2902 40.7592 77.2902H40.9152V70.0271L41.081 69.8638H42.328L42.4938 70.0271V78.6335L42.328 78.7969H40.7592C38.8147 78.7969 37.2597 78.2795 36.1899 77.2873C35.1186 76.2937 34.5558 74.8445 34.5558 73.0262V70.0271ZM34.8873 70.1905V73.0262C34.8873 74.7771 35.4275 76.1315 36.4171 77.0494C37.4082 77.9685 38.8721 78.4702 40.7592 78.4702H42.1622V70.1905H41.2468V77.4536L41.081 77.6169H40.7592C39.2019 77.6169 37.9586 77.207 37.1037 76.4158C36.2472 75.6232 35.803 74.4688 35.803 73.0262V70.1905H34.8873Z" fill="#2E0535"/>
<path d="M41.0833 70.0271V77.4536H40.758C37.701 77.4536 35.9675 75.8433 35.9675 73.0271V70.0271H34.7193V73.0271C34.7193 76.5929 36.9275 78.6335 40.758 78.6335H42.3305V70.0271H41.0833Z" fill="#2E0535"/>
<path fill-rule="evenodd" clip-rule="evenodd" d="M44.4116 70.0271L44.5774 69.8638H45.7996L45.9654 70.0271V73.6283H46.7498C47.755 73.6283 48.5707 73.315 49.1361 72.7211C49.7026 72.1261 50.0369 71.2294 50.0369 70.0271L50.2027 69.8638H51.4512L51.617 70.0271C51.617 71.8285 50.9034 73.5243 49.4061 74.2662C51.0045 75.0178 51.7902 76.7526 51.7902 78.6335L51.6245 78.7969H50.3759L50.2101 78.6335C50.2101 77.5686 49.9046 76.6714 49.3282 76.0423C48.754 75.4156 47.8951 75.0373 46.7498 75.0373H45.9654V78.6335L45.7996 78.7969H44.5774L44.4116 78.6335V70.0271ZM44.7431 70.1905V78.4702H45.6338V74.874L45.7996 74.7106H46.7498C47.9736 74.7106 48.9277 75.1176 49.5743 75.8233C50.1874 76.4925 50.5095 77.4141 50.5394 78.4702H51.4566C51.4092 76.6006 50.5465 74.9901 48.9263 74.4234L48.9245 74.1162C50.4437 73.566 51.2383 71.9935 51.2834 70.1905H50.3665C50.3373 71.3729 49.9895 72.3023 49.3779 72.9447C48.7374 73.6174 47.8267 73.9551 46.7498 73.9551H45.7996L45.6338 73.7917V70.1905H44.7431Z" fill="#2E0535"/>
<path d="M48.9805 74.2694C50.6408 73.6671 51.4513 71.9339 51.4513 70.0271H50.204C50.204 72.4859 48.8307 73.7892 46.7473 73.7892H45.7996V70.0271H44.5761V78.6335H45.7996V74.8717H46.7473C49.118 74.8717 50.3785 76.4455 50.3785 78.6335H51.6267C51.6267 76.654 50.7399 74.8839 48.9805 74.2694Z" fill="#2E0535"/>
<path fill-rule="evenodd" clip-rule="evenodd" d="M53.1461 70.0271L53.3119 69.8637H60.0457L60.2115 70.0271V70.3978C60.2115 72.3431 59.2323 73.8307 57.738 74.6978L60.8386 78.5317L60.709 78.7969H59.1861L59.0556 78.7343L56.3161 75.2894C55.8018 75.4237 55.2637 75.5097 54.6986 75.5343V78.6335L54.5328 78.7969H53.3119L53.1461 78.6335V70.0271ZM53.4777 70.1905V78.4701H54.3671V75.3764L54.529 75.2131C55.164 75.1987 55.7637 75.1033 56.334 74.946L56.5092 75.0025L59.2669 78.4701H60.3648L57.3576 74.7517L57.4081 74.5063C58.8987 73.7088 59.8799 72.2893 59.8799 70.3978V70.1905H53.4777ZM54.3671 71.1L54.5328 70.9366H58.7506L58.9143 71.1259C58.5859 73.1456 56.8947 74.4231 54.5328 74.4231L54.3671 74.2598V71.1ZM54.6986 71.2634V74.0942C56.7624 74.0386 58.1913 72.9435 58.5513 71.2634H54.6986Z" fill="#2E0535"/>
<path d="M59.1875 78.6335H60.7103L57.4911 74.6499C59.0253 73.827 60.0484 72.3508 60.0484 70.3966V70.0271H53.3107V78.6335H54.5329V75.3752C55.1825 75.363 55.7938 75.2653 56.3801 75.1058L59.1875 78.6335ZM54.5329 74.2573V71.0976H58.7507C58.4388 73.0271 56.8292 74.2573 54.5329 74.2573Z" fill="#2E0535"/>
<path fill-rule="evenodd" clip-rule="evenodd" d="M64.0867 70.0857L64.2414 69.8638H65.6122L65.7669 69.9684L69.1356 78.5748L68.9809 78.7969H67.6101L67.4555 78.6926L67.0428 77.6429L61.0449 78.9298L60.8446 78.7863C60.8187 78.5282 60.7931 78.2478 60.7931 77.9947C60.7931 75.2387 62.5339 72.9975 64.9789 72.3744L64.0867 70.0857ZM64.4827 70.1905L65.3562 72.4311L65.2373 72.6492C62.858 73.1679 61.1247 75.3104 61.1247 77.9947C61.1247 78.1746 61.1387 78.3725 61.1569 78.5714L67.1109 77.294L67.3007 77.3946L67.7237 78.4702H68.7393L65.4985 70.1905H64.4827ZM62.5003 77.136L66.5115 76.2762L65.5321 73.7684C63.8097 74.1253 62.651 75.441 62.5003 77.136ZM62.1555 77.3353C62.2325 75.3432 63.5837 73.7762 65.6079 73.4212L65.7917 73.5233L66.8904 76.3367L66.7709 76.555L62.3564 77.5012L62.1555 77.3353Z" fill="#2E0535"/>
<path d="M68.9822 78.6335L65.6135 70.0271H64.2414L65.2014 72.486C62.743 73.0271 60.9589 75.2397 60.9589 77.9947C60.9589 78.24 60.9837 78.5106 61.0096 78.769L67.1487 77.4536L67.6101 78.6335H68.9822ZM62.3199 77.3428C62.3943 75.4251 63.6919 73.9243 65.6382 73.5807L66.7366 76.3953L62.3199 77.3428Z" fill="#2E0535"/>
<path fill-rule="evenodd" clip-rule="evenodd" d="M70.1526 70.0271L70.3184 69.8638H71.5657L71.7315 70.0271V78.6335L71.5657 78.7969H70.3184L70.1526 78.6335V70.0271ZM70.4842 70.1905V78.4702H71.3999V70.1905H70.4842Z" fill="#2E0535"/>
<path d="M70.3173 70.0271H71.5655V78.6335H70.3173V70.0271Z" fill="#2E0535"/>
<path fill-rule="evenodd" clip-rule="evenodd" d="M73.645 70.0271L73.8108 69.8637H75.0594L75.1815 69.9167L80.0106 75.103V70.0271L80.1763 69.8637H81.4236L81.5894 70.0271V78.6335L81.4236 78.7969H80.1763L80.0106 78.6335V77.2491L75.2252 72.119V78.6335L75.0594 78.7969H73.8108L73.645 78.6335V70.0271ZM73.9766 70.1905V78.4701H74.8936V71.6998L75.1814 71.5893L80.2984 77.0749L80.3421 77.1855V78.4701H81.2578V70.1905H80.3421V75.5227L80.0542 75.6332L74.9865 70.1905H73.9766Z" fill="#2E0535"/>
<path d="M80.1751 70.0271V75.5227L75.0594 70.0271H73.8108V78.6335H75.0594V71.6998L80.1751 77.183V78.6335H81.4223V70.0271H80.1751Z" fill="#2E0535"/>
<path fill-rule="evenodd" clip-rule="evenodd" d="M83.5031 70.0271L83.6689 69.8637H89.5333L89.6991 70.0271V71.1827L89.5333 71.3461H85.0819V73.5893H89.1574L89.3231 73.7526V74.9083L89.1574 75.0716H85.0819V77.3145H89.5333L89.6991 77.4779V78.6335L89.5333 78.7969H83.6689L83.5031 78.6335V70.0271ZM83.8346 70.1905V78.4701H89.3675V77.6412H84.9161L84.7503 77.4779V74.9083L84.9161 74.7449H88.9916V73.916H84.9161L84.7503 73.7526V71.1827L84.9161 71.0194H89.3675V70.1905H83.8346Z" fill="#2E0535"/>
<path d="M89.5322 71.1828V70.0271H83.6677V78.6335H89.5322V77.4779H84.9162V74.9083H89.1584V73.7527H84.9162V71.1828H89.5322Z" fill="#2E0535"/>
</svg>
