<svg width="140" height="28" viewBox="0 0 140 28" fill="none" xmlns="http://www.w3.org/2000/svg">
<g clip-path="url(#clip0_58947_80516)">
<path d="M28.9771 3.92366L32.2299 3.12305V11.1559C32.8164 10.4887 33.483 9.98167 34.2562 9.60805C35.0294 9.23443 35.856 9.07431 36.7625 9.07431C37.669 9.07431 38.4956 9.23443 39.2421 9.58136C39.9887 9.9283 40.6285 10.382 41.1351 10.9958C41.6684 11.6096 42.0683 12.3302 42.3616 13.2108C42.6549 14.0915 42.7882 15.0256 42.7882 16.0664C42.7882 17.1072 42.6282 18.0679 42.2816 18.9486C41.935 19.8293 41.4551 20.5765 40.8419 21.217C40.202 21.8575 39.4287 22.3379 38.5222 22.7115C37.6157 23.0584 36.5492 23.2452 35.4027 23.2452C34.1762 23.2452 33.0031 23.0851 31.8566 22.7649C30.7101 22.4446 29.7503 21.9909 28.9771 21.3504V3.92366ZM39.4554 16.7335C39.4554 15.8796 39.3487 15.0789 39.1355 14.3851C38.9222 13.6912 38.6289 13.0774 38.2556 12.5703C37.8823 12.0633 37.4291 11.663 36.9225 11.3961C36.4159 11.1292 35.856 10.9691 35.2694 10.9691C34.6028 10.9691 34.0163 11.1292 33.483 11.4495C32.9498 11.7697 32.5498 12.1967 32.2032 12.7571V20.2296C32.5765 20.7366 33.0564 21.0836 33.643 21.2971C34.2562 21.5106 34.8961 21.6173 35.616 21.6173C36.8691 21.6173 37.8023 21.1636 38.4422 20.283C39.1355 19.429 39.4554 18.228 39.4554 16.7335Z" fill="#1D1D1D"/>
<path d="M57.4526 20.469C57.266 20.8426 56.9994 21.1896 56.6261 21.5365C56.2528 21.8568 55.8262 22.1503 55.3463 22.3905C54.8664 22.6307 54.3331 22.8175 53.7465 22.9776C53.16 23.1111 52.5467 23.1911 51.9335 23.1911C50.9203 23.1911 50.0138 23.0043 49.1873 22.6574C48.3607 22.3104 47.6408 21.8301 47.0809 21.1896C46.4943 20.5758 46.0411 19.8285 45.7211 18.9478C45.4012 18.0939 45.2412 17.1331 45.2412 16.119C45.2412 15.1049 45.4278 14.1441 45.7745 13.2901C46.1211 12.4362 46.6277 11.6889 47.2942 11.0484C47.9341 10.4346 48.7073 9.92755 49.6139 9.58062C50.5204 9.23369 51.5069 9.04688 52.6001 9.04688C53.5066 9.04688 54.2798 9.15362 54.9464 9.39381C55.6129 9.63399 56.1462 9.92755 56.5728 10.3012C56.9994 10.6748 57.3193 11.1018 57.506 11.5822C57.7193 12.0625 57.8259 12.5162 57.8259 12.9699C57.8259 13.6104 57.6393 14.1975 57.2927 14.6779C56.9194 15.1583 56.4661 15.5586 55.8795 15.8788C55.293 16.1991 54.6531 16.4392 53.9332 16.5994C53.2133 16.7595 52.4934 16.8396 51.7469 16.8396C51.2136 16.8396 50.6804 16.7595 50.0938 16.6261C49.5072 16.4926 49.0273 16.3058 48.574 16.0923C48.6807 17.5067 49.1339 18.6543 49.9338 19.5083C50.7337 20.3623 51.8002 20.7893 53.1333 20.7893C54.0132 20.7893 54.7597 20.6558 55.3996 20.3623C56.0395 20.0687 56.4928 19.7485 56.8394 19.3215L57.4526 20.469ZM48.494 15.4518C49.2939 15.4785 50.0405 15.4785 50.7603 15.4518C51.4802 15.4251 52.0935 15.3184 52.6534 15.1316C53.2133 14.9714 53.6399 14.7046 53.9865 14.3576C54.3065 14.0107 54.4664 13.557 54.4664 12.9432C54.4664 12.6763 54.4131 12.4095 54.3331 12.1159C54.2531 11.849 54.0932 11.5822 53.9065 11.3687C53.7199 11.1552 53.4533 10.9684 53.1333 10.8349C52.8134 10.7015 52.4401 10.6214 52.0135 10.6214C51.4802 10.6214 50.9736 10.7549 50.547 11.0217C50.0938 11.2886 49.7472 11.6622 49.4272 12.1159C49.1339 12.5696 48.894 13.0766 48.734 13.6638C48.6007 14.2509 48.494 14.8647 48.494 15.4518Z" fill="#1D1D1D"/>
<path d="M72.144 20.469C71.9574 20.8426 71.6908 21.1896 71.3175 21.5365C70.9442 21.8568 70.5176 22.1503 70.0377 22.3905C69.5578 22.6307 69.0245 22.8175 68.4379 22.9776C67.8514 23.1111 67.2381 23.1911 66.6249 23.1911C65.6117 23.1911 64.7052 23.0043 63.8787 22.6574C63.0521 22.3104 62.3322 21.8301 61.7723 21.1896C61.1858 20.5758 60.7325 19.8285 60.4125 18.9478C60.0926 18.0939 59.9326 17.1331 59.9326 16.119C59.9326 15.1049 60.1193 14.1441 60.4659 13.2901C60.8391 12.4362 61.3191 11.6889 61.9856 11.0484C62.6255 10.4346 63.3987 9.92755 64.3053 9.58062C65.2118 9.23369 66.1983 9.04688 67.2915 9.04688C68.198 9.04688 68.9712 9.15362 69.6378 9.39381C70.3043 9.63399 70.8376 9.92755 71.2642 10.3012C71.6908 10.6748 72.0107 11.1018 72.1974 11.5822C72.4107 12.0625 72.5173 12.5162 72.5173 12.9699C72.5173 13.6104 72.3307 14.1975 71.9841 14.6779C71.6108 15.1583 71.1575 15.5586 70.5709 15.8788C69.9844 16.1991 69.3445 16.4392 68.6246 16.5994C67.9047 16.7595 67.1848 16.8396 66.4383 16.8396C65.905 16.8396 65.3718 16.7595 64.7852 16.6261C64.1986 16.4926 63.7187 16.3058 63.2654 16.0923C63.3721 17.5067 63.8253 18.6543 64.6252 19.5083C65.4251 20.3623 66.4916 20.7893 67.8247 20.7893C68.7046 20.7893 69.4511 20.6558 70.091 20.3623C70.7043 20.0954 71.1842 19.7485 71.5308 19.3215L72.144 20.469ZM63.2121 15.4518C64.012 15.4785 64.7585 15.4785 65.4784 15.4518C66.1983 15.4251 66.8115 15.3184 67.3714 15.1316C67.9314 14.9714 68.358 14.7046 68.7046 14.3576C69.0245 14.0107 69.1845 13.557 69.1845 12.9432C69.1845 12.6763 69.1312 12.4095 69.0512 12.1159C68.9712 11.849 68.8112 11.5822 68.6246 11.3687C68.4379 11.1552 68.1713 10.9684 67.8514 10.8349C67.5314 10.7015 67.1581 10.6214 66.7315 10.6214C66.1983 10.6214 65.6917 10.7549 65.2651 11.0217C64.8119 11.2886 64.4652 11.6622 64.1453 12.1159C63.852 12.5696 63.612 13.0766 63.4521 13.6638C63.2921 14.2509 63.2121 14.8647 63.2121 15.4518Z" fill="#1D1D1D"/>
<path d="M74.1968 9.39549H76.4098L77.7162 5.15221L79.9559 4.51172L79.4759 9.39549H83.4753V10.7832H79.396V18.5492C79.396 19.6167 79.5559 20.3373 79.8759 20.7109C80.1958 21.0845 80.6491 21.2446 81.2623 21.2446C81.6889 21.2446 82.0889 21.1646 82.4888 20.9778C82.8887 20.7909 83.2354 20.5774 83.4753 20.3106L83.8219 21.4048C83.4753 21.9652 82.9421 22.3922 82.2222 22.7391C81.5023 23.0594 80.7557 23.2195 80.0092 23.2195C78.6494 23.2195 77.6629 22.7925 77.0497 21.9385C76.4364 21.0845 76.1165 19.8569 76.1165 18.229V10.8099H74.1968V9.39549V9.39549Z" fill="#1D1D1D"/>
<path d="M93.2603 9.23438C93.9802 9.23438 94.5667 9.44787 95.02 9.90156C95.4733 10.3552 95.7132 10.889 95.7132 11.5562C95.7132 12.0099 95.5799 12.3568 95.3133 12.5703C95.0467 12.8105 94.7001 12.9172 94.2735 12.9172C93.8735 12.9172 93.5802 12.8372 93.3669 12.677C93.1536 12.5169 92.9937 12.3034 92.8603 12.0098C92.7804 11.7964 92.647 11.6095 92.4604 11.4227C92.2738 11.2626 92.0338 11.1559 91.7405 11.1559C91.2606 11.1559 90.834 11.316 90.4341 11.6629C90.0608 11.9832 89.7408 12.4368 89.5009 13.024V22.8449H86.248V9.34112H88.9676L89.3676 11.2893C89.8741 10.6488 90.4607 10.1417 91.1273 9.76812C91.7938 9.42119 92.4871 9.23438 93.2603 9.23438Z" fill="#1D1D1D"/>
<path d="M104.325 9.07422C105.392 9.07422 106.405 9.23434 107.312 9.58128C108.218 9.92821 108.991 10.4086 109.658 11.0224C110.325 11.6362 110.831 12.3834 111.204 13.2374C111.578 14.0914 111.764 15.0522 111.764 16.093C111.764 17.1338 111.578 18.0945 111.231 18.9485C110.858 19.8025 110.351 20.5497 109.711 21.1902C109.045 21.804 108.271 22.2844 107.365 22.6313C106.458 22.9783 105.472 23.1384 104.379 23.1384C103.286 23.1384 102.299 22.9783 101.393 22.6313C100.486 22.2844 99.7128 21.804 99.0463 21.1902C98.3797 20.5764 97.8731 19.8292 97.4999 18.9485C97.1266 18.0945 96.9399 17.1338 96.9399 16.093C96.9399 15.0522 97.1266 14.0914 97.4732 13.2374C97.8465 12.3834 98.3531 11.6362 98.993 11.0224C99.6595 10.4086 100.433 9.92821 101.339 9.58128C102.246 9.23434 103.232 9.07422 104.325 9.07422ZM104.592 21.5639C105.819 21.5639 106.725 21.1369 107.365 20.2562C107.978 19.3755 108.298 18.2013 108.298 16.7335C108.298 15.8261 108.191 14.9988 107.952 14.2515C107.712 13.5043 107.418 12.8638 107.018 12.3301C106.618 11.7963 106.165 11.396 105.632 11.0758C105.099 10.7822 104.539 10.6221 103.952 10.6221C102.726 10.6221 101.819 11.0491 101.179 11.9298C100.566 12.8104 100.246 13.9847 100.246 15.4525C100.246 16.3598 100.353 17.1871 100.593 17.9344C100.833 18.6816 101.126 19.3221 101.526 19.8559C101.899 20.3896 102.379 20.7899 102.912 21.1102C103.446 21.4304 104.005 21.5639 104.592 21.5639Z" fill="#1D1D1D"/>
<path d="M121.443 9.07422C122.509 9.07422 123.522 9.23434 124.429 9.58128C125.335 9.92821 126.109 10.4086 126.775 11.0224C127.442 11.6362 127.948 12.3834 128.322 13.2374C128.695 14.0914 128.881 15.0522 128.881 16.093C128.881 17.1338 128.695 18.0945 128.348 18.9485C127.975 19.8025 127.468 20.5497 126.828 21.1902C126.162 21.804 125.389 22.2844 124.482 22.6313C123.576 22.9783 122.589 23.1384 121.496 23.1384C120.403 23.1384 119.416 22.9783 118.51 22.6313C117.603 22.2844 116.83 21.804 116.163 21.1902C115.497 20.5764 114.99 19.8292 114.617 18.9485C114.244 18.0945 114.057 17.1338 114.057 16.093C114.057 15.0522 114.244 14.0914 114.59 13.2374C114.964 12.3834 115.47 11.6362 116.11 11.0224C116.777 10.4086 117.55 9.92821 118.456 9.58128C119.363 9.23434 120.349 9.07422 121.443 9.07422ZM121.709 21.5639C122.936 21.5639 123.842 21.1369 124.482 20.2562C125.095 19.3755 125.415 18.2013 125.415 16.7335C125.415 15.8261 125.309 14.9988 125.069 14.2515C124.829 13.5043 124.535 12.8638 124.136 12.3301C123.736 11.7963 123.282 11.396 122.749 11.0758C122.216 10.7822 121.656 10.6221 121.069 10.6221C119.843 10.6221 118.936 11.0491 118.296 11.9298C117.683 12.8104 117.363 13.9847 117.363 15.4525C117.363 16.3598 117.47 17.1871 117.71 17.9344C117.95 18.6816 118.243 19.3221 118.643 19.8559C119.016 20.3896 119.496 20.7899 120.03 21.1102C120.536 21.4304 121.096 21.5639 121.709 21.5639Z" fill="#1D1D1D"/>
<path d="M130.375 9.39549H132.588L133.894 5.15221L136.134 4.51172L135.654 9.39549H139.654V10.7832H135.574V18.5492C135.574 19.6167 135.734 20.3373 136.054 20.7109C136.374 21.0845 136.827 21.2446 137.441 21.2446C137.867 21.2446 138.267 21.1646 138.667 20.9778C139.067 20.7909 139.414 20.5774 139.654 20.3106L140 21.4048C139.654 21.9652 139.12 22.3922 138.4 22.7391C137.681 23.0594 136.934 23.2195 136.187 23.2195C134.828 23.2195 133.841 22.7925 133.228 21.9385C132.615 21.0845 132.295 19.8569 132.295 18.229V10.8099H130.375V9.39549Z" fill="#1D1D1D"/>
<path d="M20.8986 10.9951C20.7653 10.835 20.472 10.4881 19.9387 10.1145C19.7788 10.0077 19.6188 9.90097 19.4588 9.82091C18.9789 9.55404 18.4723 9.36723 17.9924 9.26048C17.5924 9.18042 17.2192 9.12704 16.8192 9.10035C15.0595 8.9936 13.4597 9.52735 12.9532 9.71416C13.2464 8.91354 13.7264 7.76599 14.6596 6.61844C15.966 4.96383 17.4858 4.08315 18.3656 3.65615C18.339 3.36259 18.259 2.90891 18.019 2.40185C17.7791 1.92148 17.5124 1.57455 17.2991 1.36105C15.6727 2.10829 14.2063 3.22916 13.0332 4.59021C13.4331 3.41597 14.0197 2.53529 14.4729 1.92148C14.3129 1.6813 14.0197 1.33436 13.6197 1.01412C13.1665 0.667182 12.7399 0.480371 12.4466 0.373622C11.6467 1.44111 11.0335 2.58866 10.6069 3.84297C10.5535 4.02978 10.5002 4.1899 10.4469 4.37671C10.5002 3.84297 10.5802 3.33591 10.7135 2.80216C10.9002 2.08161 11.1401 1.49449 11.3534 1.06749C11.1401 0.853992 10.8202 0.613807 10.3669 0.400309C9.86032 0.133436 9.38039 0.0533745 9.06044 0C8.71383 0.747243 8.4472 1.49449 8.26057 2.26842C7.91395 3.65615 7.88729 4.77702 7.88729 5.28408C7.91395 7.44575 8.55385 9.2071 9.06044 10.2746C8.8738 10.1412 8.36722 9.8476 7.70065 9.6341C6.84746 9.34054 5.64764 9.12704 4.36785 9.50066C2.52813 10.0077 1.51496 11.3421 1.19501 11.7958C1.00837 12.0626 -0.431401 14.1176 0.128511 16.7329C0.208498 17.0532 0.661761 18.948 2.36816 20.3357C4.79445 22.2839 6.9541 21.0562 9.00711 22.5774C9.86031 23.2179 10.8468 24.4455 11.1934 27.0342C11.2468 27.3544 11.6734 27.3811 11.7534 27.0609C12.1 25.7799 12.3399 24.4188 12.4199 23.0311C12.6065 23.0845 13.2998 23.2179 14.233 23.2179C14.4463 23.2179 14.6596 23.2179 14.8995 23.1912C16.3926 23.1112 18.259 22.6575 19.8054 21.2164C19.9921 21.0562 20.152 20.8694 20.312 20.6826C20.3653 20.6292 20.4187 20.5759 20.472 20.4958C20.9252 19.9354 21.2985 19.2949 21.5651 18.6544C21.5918 18.5743 21.6185 18.521 21.6451 18.4409C22.6583 15.7989 22.3117 12.7298 20.8986 10.9951Z" fill="#A60A3D"/>
</g>
<defs>
<clipPath id="clip0_58947_80516">
<rect width="140" height="28" fill="white"/>
</clipPath>
</defs>
</svg>
