<?xml version="1.0" encoding="UTF-8" standalone="no"?>
<!-- Created with Inkscape (http://www.inkscape.org/) -->

<svg
   xmlns:dc="http://purl.org/dc/elements/1.1/"
   xmlns:cc="http://creativecommons.org/ns#"
   xmlns:rdf="http://www.w3.org/1999/02/22-rdf-syntax-ns#"
   xmlns:svg="http://www.w3.org/2000/svg"
   xmlns="http://www.w3.org/2000/svg"
   xmlns:sodipodi="http://sodipodi.sourceforge.net/DTD/sodipodi-0.dtd"
   xmlns:inkscape="http://www.inkscape.org/namespaces/inkscape"
   version="1.1"
   id="svg850"
   xml:space="preserve"
   width="170"
   height="45"
   viewBox="0 0 170 45"
   sodipodi:docname="logo.svg"
   inkscape:version="0.92.5 (2060ec1f9f, 2020-04-08)"><metadata
     id="metadata856"><rdf:RDF><cc:Work
         rdf:about=""><dc:format>image/svg+xml</dc:format><dc:type
           rdf:resource="http://purl.org/dc/dcmitype/StillImage" /><dc:title /></cc:Work></rdf:RDF></metadata><defs
     id="defs854"><clipPath
       clipPathUnits="userSpaceOnUse"
       id="clipPath866"><path
         d="M 0,198 H 647.276 V 0 H 0 Z"
         id="path864"
         inkscape:connector-curvature="0" /></clipPath><clipPath
       clipPathUnits="userSpaceOnUse"
       id="clipPath878"><path
         d="m 274.846,70.082 h 11.335 l 21.982,38.482 15.506,-27.145 h -18.202 l -6.498,-11.337 h 31.174 11.337 l -33.317,58.132 z"
         id="path876"
         inkscape:connector-curvature="0" /></clipPath><linearGradient
       x1="0"
       y1="0"
       x2="1"
       y2="0"
       gradientUnits="userSpaceOnUse"
       gradientTransform="matrix(66.63369,0,0,-66.63369,274.84567,99.14814)"
       spreadMethod="pad"
       id="linearGradient892"><stop
         style="stop-opacity:1;stop-color:#fdc801"
         offset="0"
         id="stop884" /><stop
         style="stop-opacity:1;stop-color:#ed7724"
         offset="0.70121594"
         id="stop886" /><stop
         style="stop-opacity:1;stop-color:#ed7724"
         offset="0.995937"
         id="stop888" /><stop
         style="stop-opacity:1;stop-color:#ed7724"
         offset="1"
         id="stop890" /></linearGradient><clipPath
       clipPathUnits="userSpaceOnUse"
       id="clipPath902"><path
         d="M 0,198 H 647.276 V 0 H 0 Z"
         id="path900"
         inkscape:connector-curvature="0" /></clipPath></defs><sodipodi:namedview
     pagecolor="#ffffff"
     bordercolor="#666666"
     borderopacity="1"
     objecttolerance="10"
     gridtolerance="10"
     guidetolerance="10"
     inkscape:pageopacity="0"
     inkscape:pageshadow="2"
     inkscape:window-width="1920"
     inkscape:window-height="997"
     id="namedview852"
     showgrid="false"
     inkscape:zoom="5.6683704"
     inkscape:cx="72.607369"
     inkscape:cy="33.814128"
     inkscape:window-x="0"
     inkscape:window-y="28"
     inkscape:window-maximized="1"
     inkscape:current-layer="g858" /><g
     id="g858"
     inkscape:groupmode="layer"
     inkscape:label="deltahost_logo"
     transform="matrix(1.3333333,0,0,-1.3333333,0,45)"><polygon
       transform="matrix(0.81162849,0,0,-0.81162849,-9.6391801,518.6775)"
       class="fil3"
       points="95.383,636.359 85.324,618.808 75.265,636.359 78.688,636.359 85.324,624.74 90.006,632.936 84.51,632.936 82.549,636.359 91.961,636.359 "
       id="polygon1886"
       style="clip-rule:evenodd;fill:#f39314;fill-rule:nonzero;image-rendering:optimizeQuality;shape-rendering:geometricPrecision;text-rendering:geometricPrecision" /><path
       class="fil4"
       d="m 108.28556,10.616726 h -3.47539 c -1.02671,0 -1.43739,0.569763 -1.43739,1.254778 0,0.685014 0.41068,1.253965 1.43739,1.253965 h 5.58075 v 2.902384 h -5.79339 c -2.14839,0 -3.89582,-1.759611 -3.89582,-4.156349 0,-2.396739 1.38788,-4.144988 4.10846,-4.144988 h 3.47539 c 1.02751,0 1.43739,-0.569762 1.43739,-1.254778 0,-0.684201 -0.40988,-1.253965 -1.43739,-1.253965 h -6.5823 V 2.324317 h 6.8753 c 2.14756,0 3.81546,1.750683 3.81546,4.147421 0,2.39674 -1.36921,4.144988 -4.10846,4.144988 z M 51.638767,16.13093 h -4.764259 -2.671881 -4.764259 v -2.894268 h 4.764259 V 2.427395 h 2.671881 v 10.809267 h 4.764259 z M 27.104049,13.132775 v 2.895078 H 19.078667 16.406786 V 15.544934 10.632147 10.052644 2.324317 h 10.697263 v 2.895079 h -8.025382 v 2.517672 h 5.019111 v 2.895079 h -5.019111 v 2.500628 z M 33.316255,5.322474 V 16.13093 H 30.643561 V 2.427395 h 8.693353 V 5.322474 Z M 6.8295753,5.167452 H 3.8492708 v 8.067587 h 2.9803045 c 2.912118,0 4.1539087,-1.798568 4.1539087,-4.025677 0,-2.226297 -1.2417907,-4.04191 -4.1539087,-4.04191 z m 0.342506,10.962666 H 1.1765827 V 2.272374 h 5.9954986 c 2.9121187,0 6.7064827,1.456061 6.7064827,6.936988 0,5.481738 -3.794364,6.920756 -6.7064827,6.920756 z M 91.667471,4.888252 c -2.423523,0 -4.388471,1.964952 -4.388471,4.388475 0,2.423523 1.964948,4.388475 4.388471,4.388475 2.423521,0 4.388478,-1.964952 4.388478,-4.388475 0,-2.423523 -1.964957,-4.388475 -4.388478,-4.388475 z m 0,11.58275 c -3.972917,0 -7.194273,-3.221354 -7.194273,-7.194275 0,-3.973732 3.221356,-7.194275 7.194273,-7.194275 3.973735,0 7.19509,3.220543 7.19509,7.194275 0,3.972921 -3.221355,7.194275 -7.19509,7.194275 z M 79.001199,16.027853 v -5.395706 h -6.356674 v 5.395706 H 69.972644 V 2.324317 h 2.671881 v 5.412751 h 6.356674 V 2.324317 h 2.671881 v 13.703536 z m 46.631301,0 h -4.76427 -2.67187 -4.76426 v -2.895078 h 4.76426 V 2.323506 l 2.67187,8.03e-4 v 10.808466 h 4.76427 z"
       id="path1888"
       inkscape:connector-curvature="0"
       style="clip-rule:evenodd;fill:#333333;fill-rule:nonzero;stroke-width:0.81162846;image-rendering:optimizeQuality;shape-rendering:geometricPrecision;text-rendering:geometricPrecision" /></g></svg>