<svg width="152" height="56" viewBox="0 0 152 56" fill="#5D447C" xmlns="http://www.w3.org/2000/svg">
<g id="Logo">
<g id="text">
<path id="Logo" fill-rule="#5D447C" clip-rule="evenodd" d="M150.764 22.3333H148.986L148.215 20.703C147.278 19.9575 146.092 19.5483 144.865 19.5479C144.066 19.515 143.272 19.6974 142.578 20.0739C142.307 20.2173 142.082 20.4271 141.926 20.6812C141.771 20.9353 141.691 21.2242 141.696 21.5175C141.699 21.7914 141.768 22.0611 141.9 22.3055C142.031 22.55 142.22 22.7627 142.452 22.9271C143.012 23.3516 143.654 23.6693 144.342 23.8623C145.099 24.0885 145.921 24.3546 146.81 24.6606C147.699 24.9667 148.521 25.2894 149.277 25.6288C150.032 25.9673 150.682 26.4818 151.167 27.1235C151.671 27.7801 151.998 29.1092 151.998 29.992C152.023 30.7654 151.86 31.5341 151.519 32.2381C151.179 32.9422 150.671 33.5628 150.035 34.0516C147.46 36.0785 136.732 35.5045 133.03 35.686L132.41 33.3482C131.065 34.6163 129.06 35.2503 126.395 35.2503C124.353 35.2503 122.763 34.7067 121.623 33.6197C120.483 32.5326 119.912 31.0267 119.912 29.1019V20.5423L110.943 20.5762V29.2044C110.943 30.2685 111.117 31.0441 111.465 31.5311C111.648 31.7928 111.906 32.0003 112.209 32.1295C112.511 32.2588 112.847 32.3046 113.176 32.2617L115.805 32.0238V34.4356C114.845 34.8205 113.56 35.013 111.951 35.013C110.246 35.013 108.997 34.6337 108.205 33.8751C107.413 33.1165 107.016 31.8427 107.016 30.0536V20.5762H104.855V17.8936L107.016 17.7577L107.521 12.6283H110.943V17.7235H123.838V28.3897C123.838 29.5446 124.174 30.4618 124.847 31.1413C125.519 31.8208 126.492 32.1605 127.764 32.1603C128.597 32.1688 129.425 32.0425 130.212 31.7868C130.781 31.6232 131.317 31.3706 131.797 31.0396L132.265 30.6659V20.5432L130.251 20.4067L130.431 17.7232H136.195V31.7398C139.439 32.3757 145.894 32.8532 147.061 32.1951C147.348 31.9821 147.58 31.7092 147.737 31.3978C147.894 31.0863 147.973 30.7448 147.967 30.3999C147.967 29.7433 147.55 28.6515 146.866 28.2445C146.087 27.7986 145.244 27.4611 144.363 27.2424C143.378 26.9822 142.388 26.682 141.391 26.3421C140.418 26.0174 139.549 25.4618 138.87 24.7287C138.168 23.9483 137.802 22.9486 137.843 21.9263C137.822 21.2313 137.977 20.5417 138.297 19.9152C138.616 19.2887 139.091 18.7435 139.68 18.3255C140.904 17.4198 142.441 16.9668 144.29 16.9666C145.855 16.9968 147.373 17.4702 148.649 18.3255L149.117 17.3065H151.098L150.766 22.3328L150.764 22.3333ZM73.6378 20.6384H71.8753L70.2878 16.2288C69.2304 15.3565 67.8744 14.8739 66.4696 14.8699C65.0768 14.8699 64.0026 15.1643 63.2469 15.753C62.8679 16.0559 62.5683 16.4373 62.3715 16.8674C62.1746 17.2975 62.0859 17.7647 62.1122 18.2326C62.1155 18.6735 62.2359 19.1066 62.4625 19.4923C62.689 19.878 63.0144 20.2041 63.409 20.4406C64.3724 21.0754 65.4361 21.5626 66.5607 21.8842C67.7964 22.2571 69.0391 22.6647 70.2887 23.1072C71.4938 23.5215 72.5793 24.1961 73.4584 25.0771C74.3295 25.9672 74.7945 27.1446 74.7533 28.3552C74.7533 30.484 73.9849 32.1655 72.4479 33.3996C70.911 34.6338 68.7501 35.2512 65.9654 35.2517C64.5168 35.2584 63.0705 35.1447 61.6431 34.9119C60.6613 34.7747 59.6961 34.5472 58.7613 34.2328L57.8964 33.892L57.8242 28.4566L60.7779 28.2866L61.1383 31.7854C62.5582 32.2162 64.041 32.434 65.5325 32.4309C67.2858 32.4309 68.5886 32.0969 69.4409 31.4289C69.8548 31.1127 70.1856 30.7106 70.4074 30.2539C70.6292 29.7972 70.736 29.2983 70.7195 28.7962C70.719 28.4487 70.6344 28.1058 70.4721 27.7938C70.3099 27.4818 70.0742 27.2089 69.783 26.9958C69.0936 26.4653 68.297 26.0724 67.4416 25.8409C66.505 25.5682 65.4964 25.2397 64.4158 24.8555C63.3352 24.4714 62.3265 24.0637 61.3899 23.6326C60.4388 23.1901 59.6305 22.5157 59.0488 21.6793C58.4092 20.7571 58.0825 19.6729 58.1124 18.5712C58.0824 17.6976 58.2555 16.8283 58.6195 16.0244C58.9835 15.2204 59.5296 14.5014 60.2195 13.9176C61.6243 12.7179 63.4912 12.1177 65.8204 12.1172C67.3813 12.1172 68.9903 12.6267 70.6473 13.6458L71.2233 12.4228H73.6378V20.637V20.6384ZM86.9932 20.5765V17.7232H81.8416V12.6277H78.4197L77.914 17.7571L75.753 17.893V20.5765H77.914V30.0539C77.914 31.8431 78.3102 33.1169 79.1027 33.8754C79.8951 34.6338 81.1438 35.0131 82.8487 35.0133C84.4575 35.0133 87.4967 33.5665 88.4573 33.1816C88.6771 33.4571 88.9307 33.7072 89.2128 33.9265C90.3411 34.8094 91.914 35.2511 93.9315 35.2515C95.0019 35.2716 96.0645 35.0747 97.0472 34.674C97.9477 34.2889 98.548 33.9382 98.8482 33.622C99.1031 33.3632 99.3266 33.0784 99.5144 32.7728L100.055 34.7091H105.17L105.35 32.1959L103.26 32.0601V23.5654C103.26 19.3086 101.111 17.18 96.813 17.1794C95.1159 17.1843 93.4641 17.6958 92.0943 18.6405L91.7339 17.5198H89.3206L89.179 23.1244H92.1327L92.3127 20.9844C93.2723 20.2062 94.5055 19.7942 95.7706 19.8293C97.0673 19.8293 97.9917 20.118 98.5439 20.6954C99.0961 21.2729 99.3723 22.2523 99.3725 23.6337V24.483C99.2284 24.5058 99.0006 24.5245 98.688 24.551C97.4147 24.6598 96.5865 24.7436 96.2025 24.7889C95.8186 24.8342 95.0318 24.9473 93.8432 25.1285C92.9674 25.2259 92.1114 25.4434 91.3022 25.774C90.7984 26.023 90.1861 26.3457 89.4653 26.7422C88.8106 27.0741 88.2822 27.5905 87.9538 28.2193C87.6659 28.8076 87.5364 30.7538 87.5658 30.9882L84.0745 32.2614C83.3355 32.5308 82.7111 32.018 82.3637 31.5308C82.0164 31.0437 81.8413 30.2678 81.8413 29.2041V20.5762L86.9932 20.5765ZM95.1592 32.7038C92.7579 32.7038 91.5573 31.7753 91.5573 29.9183C91.5474 29.5312 91.6338 29.1473 91.8095 28.7974C92.0088 28.4515 92.3172 28.1726 92.692 27.9993C93.076 27.8004 93.473 27.6247 93.8807 27.4733C94.4178 27.3021 94.9735 27.1882 95.5375 27.1337C96.2695 27.0433 96.8638 26.9811 97.3205 26.947L99.3737 26.7939V30.4967C99.3256 30.5874 99.2655 30.6894 99.1934 30.8026C99.0538 30.9959 98.8972 31.1777 98.7252 31.3462C98.4901 31.5912 98.224 31.808 97.9328 31.9917C97.5683 32.2055 97.1744 32.3713 96.7621 32.4844C96.2426 32.6347 95.7017 32.7086 95.1583 32.7032L95.1592 32.7038Z" fill="#5D447C"/>
<path id="Path 130" fill-rule="#5D447C" clip-rule="evenodd" d="M59.3116 43.08H57.8552L57.8242 42.6125L58.2946 42.5888L59.6428 39.2352H60.5793L61.9275 42.625L62.3923 42.6428L62.3613 43.0812H60.8247V42.7013L61.2074 42.6835L60.9065 41.95H59.2258L58.9249 42.6656L59.3451 42.6835L59.3141 43.0797L59.3116 43.08ZM60.0705 39.756L59.3869 41.5245H60.7416L60.0705 39.756ZM62.9631 43.08L62.9321 42.6125L63.4214 42.5888V39.6958L62.9256 39.6721L62.9566 39.2338H64.9509C65.5339 39.1963 66.1111 39.3627 66.5722 39.7013C66.7687 39.8822 66.9209 40.1016 67.0178 40.3439C67.1148 40.5863 67.1542 40.8457 67.1333 41.104C67.1508 41.3703 67.11 41.6372 67.0134 41.888C66.9169 42.1388 66.7667 42.3682 66.5722 42.5619C66.3526 42.7445 66.0968 42.8843 65.8196 42.9731C65.5423 43.0619 65.2492 43.0981 64.9571 43.0794L62.9631 43.08ZM64.9512 39.7679H64.136V42.5479H64.9639C65.1594 42.5615 65.3558 42.5359 65.5401 42.4728C65.7243 42.4097 65.8923 42.3105 66.033 42.1817C66.2944 41.8794 66.4234 41.4943 66.3937 41.1052C66.4111 40.9215 66.3884 40.7365 66.3269 40.5615C66.2653 40.3866 66.1664 40.2254 66.0361 40.0879C65.7316 39.8539 65.3432 39.7395 64.9515 39.7685L64.9512 39.7679ZM69.1608 39.6733L68.7781 39.6969L69.8627 42.5774H69.8689L70.9413 39.7136L70.5273 39.6958L70.5583 39.2343H72.0572V39.6727L71.6308 39.6963L70.3011 43.0794H69.3715L68.044 39.6978L67.5926 39.6741L67.6235 39.2358H69.1602V39.6741L69.1608 39.6733ZM76.7002 41.0987C76.7265 41.6491 76.5253 42.1877 76.1391 42.6011C75.9411 42.7952 75.7011 42.9469 75.4354 43.0459C75.1697 43.1449 74.8846 43.1888 74.5993 43.1747C74.3167 43.1891 74.0341 43.1455 73.771 43.047C73.5079 42.9484 73.2706 42.7973 73.0754 42.604C72.6936 42.1875 72.4961 41.6486 72.5235 41.0987C72.4969 40.8356 72.5324 40.5703 72.6274 40.3217C72.7225 40.073 72.8747 39.8473 73.0731 39.6608C73.2716 39.4742 73.5114 39.3314 73.7753 39.2425C74.0393 39.1537 74.3208 39.1211 74.5996 39.147C74.8812 39.1312 75.1632 39.1691 75.4289 39.2586C75.6945 39.348 75.9383 39.4871 76.1456 39.6674C76.3364 39.858 76.484 40.0833 76.5795 40.3295C76.6749 40.5756 76.7161 40.8376 76.7006 41.0993L76.7002 41.0987ZM75.9603 41.0987C75.9863 40.7192 75.8597 40.3444 75.6058 40.0491C75.4764 39.9224 75.3194 39.8237 75.1457 39.7599C74.9719 39.696 74.7855 39.6686 74.5993 39.6794C74.415 39.6685 74.2305 39.696 74.0587 39.7599C73.8869 39.8238 73.7321 39.9225 73.6053 40.0491C73.3553 40.3462 73.2313 40.7203 73.2573 41.0987C73.2362 41.4995 73.3613 41.895 73.6118 42.2194C73.729 42.3588 73.8798 42.4699 74.0515 42.5434C74.2233 42.6169 74.4112 42.6508 74.5996 42.6423C74.7904 42.6514 74.9808 42.6179 75.1551 42.5444C75.3295 42.4709 75.483 42.3596 75.603 42.2194C75.8554 41.8958 75.9814 41.5 75.9603 41.0987ZM81.1106 40.6136H80.5587L80.5024 39.91C80.2929 39.752 80.0304 39.6702 79.7624 39.6794C79.5777 39.6734 79.3938 39.7042 79.2225 39.7696C79.0512 39.8351 78.8965 39.9338 78.7683 40.0593C78.4962 40.3501 78.3575 40.7309 78.3825 41.118C78.3609 41.5196 78.4996 41.9143 78.7714 42.2241C78.9047 42.3626 79.0689 42.4716 79.2521 42.5432C79.4353 42.6147 79.6331 42.6472 79.8312 42.6382C79.9848 42.6385 80.1378 42.6188 80.2858 42.5797C80.416 42.5468 80.5411 42.4977 80.6576 42.4336C80.7512 42.3805 80.8413 42.322 80.9272 42.2583C80.9898 42.2135 81.0486 42.164 81.1029 42.1104L81.1593 42.052L81.4289 42.4719C81.4109 42.4987 81.391 42.5244 81.3694 42.5488C81.31 42.6092 81.2461 42.6656 81.1782 42.7174C81.0774 42.7985 80.9682 42.8699 80.8522 42.9304C80.7027 43.0033 80.5449 43.0599 80.3818 43.099C80.1799 43.1509 79.9714 43.1767 79.7621 43.1759C79.473 43.1942 79.1832 43.1538 78.9121 43.0573C78.6411 42.9609 78.3952 42.8107 78.191 42.6168C77.8128 42.2013 77.6185 41.6644 77.6485 41.1174C77.6354 40.8547 77.6792 40.5922 77.7774 40.346C77.8755 40.0998 78.0259 39.8751 78.2192 39.6855C78.408 39.5077 78.6333 39.3683 78.8814 39.2757C79.1295 39.1831 79.395 39.1394 79.6617 39.1473C79.9884 39.1523 80.3066 39.2468 80.5773 39.4193L80.6901 39.2004H81.1103V40.6139L81.1106 40.6136ZM83.307 43.08H81.8506L81.8196 42.6125L82.29 42.5888L83.6382 39.2352H84.5725L85.9207 42.625L86.3855 42.6428L86.3546 43.0812H84.8179V42.7013L85.2006 42.6835L84.8997 41.95H83.2184L82.9175 42.6656L83.338 42.6835L83.307 43.08ZM84.0655 39.756L83.3823 41.5245H84.7367L84.0655 39.756ZM86.8076 40.2647L86.8696 39.7443H87.7161V42.5891L87.2333 42.6127L87.2643 43.0803H88.8949L88.9259 42.6127L88.4366 42.5891V39.7443H89.3042L89.3482 40.2647H89.8688V39.206L89.2605 39.2352H86.9337L86.3254 39.206L86.2944 40.2647H86.8076ZM93.6325 40.1771H93.0806L93.0555 39.7454H91.6505V40.8989L93.4128 40.893V41.3839H91.6505V42.5727H93.1999L93.2563 42.0876L93.7769 42.1168L93.7394 43.0812H90.4774L90.4464 42.6136L90.9357 42.59V39.6969L90.4399 39.6733L90.4709 39.2349H93.0226L93.6309 39.2057V40.1756L93.6325 40.1771ZM100.434 40.6154H99.8822L99.8258 39.9117C99.6163 39.7537 99.3536 39.6719 99.0856 39.6812C98.9009 39.6752 98.717 39.7059 98.5458 39.7714C98.3746 39.8368 98.2199 39.9355 98.0918 40.061C97.8197 40.3519 97.681 40.7326 97.706 41.1198C97.6844 41.5214 97.8231 41.916 98.0949 42.2258C98.2282 42.3643 98.3923 42.4733 98.5756 42.5449C98.7588 42.6165 98.9566 42.649 99.1547 42.6399C99.3083 42.6403 99.4613 42.6206 99.6092 42.5815C99.7395 42.5486 99.8646 42.4994 99.9811 42.4354C100.075 42.3823 100.165 42.3237 100.25 42.26C100.313 42.2153 100.372 42.1658 100.426 42.1122L100.483 42.0537L100.752 42.4737C100.734 42.5004 100.714 42.5261 100.693 42.5505C100.633 42.611 100.57 42.6673 100.502 42.7191C100.401 42.8003 100.291 42.8717 100.175 42.9322C100.026 43.0051 99.8681 43.0617 99.705 43.1008C99.503 43.1526 99.2946 43.1785 99.0852 43.1776C98.7963 43.1959 98.5065 43.1555 98.2355 43.0591C97.9645 42.9626 97.7186 42.8124 97.5145 42.6186C97.1363 42.203 96.942 41.6661 96.9719 41.1192C96.9589 40.8565 97.0027 40.594 97.1009 40.3478C97.199 40.1016 97.3493 39.8768 97.5427 39.6873C97.7315 39.5095 97.9568 39.37 98.2049 39.2774C98.453 39.1849 98.7185 39.1412 98.9852 39.149C99.3119 39.154 99.63 39.2485 99.9008 39.4211L100.014 39.2022H100.434V40.6157L100.434 40.6154ZM105.671 41.1005C105.697 41.6509 105.496 42.1894 105.11 42.6028C104.912 42.797 104.672 42.9487 104.406 43.0477C104.14 43.1466 103.855 43.1906 103.57 43.1765C103.287 43.1908 103.005 43.1472 102.742 43.0487C102.479 42.9502 102.241 42.7991 102.046 42.6057C101.664 42.1893 101.467 41.6504 101.494 41.1005C101.468 40.8374 101.503 40.572 101.598 40.3234C101.693 40.0748 101.845 39.8491 102.044 39.6625C102.242 39.4759 102.482 39.3331 102.746 39.2443C103.01 39.1554 103.291 39.1228 103.57 39.1487C103.852 39.1329 104.134 39.1709 104.4 39.2603C104.665 39.3498 104.909 39.4888 105.116 39.6692C105.307 39.8597 105.455 40.085 105.55 40.3312C105.646 40.5774 105.687 40.8394 105.671 41.1011L105.671 41.1005ZM104.931 41.1005C104.957 40.721 104.83 40.3462 104.576 40.0508C104.447 39.9241 104.29 39.8254 104.116 39.7616C103.943 39.6978 103.756 39.6703 103.57 39.6812C103.386 39.6703 103.201 39.6978 103.029 39.7616C102.858 39.8255 102.703 39.9242 102.576 40.0508C102.326 40.3479 102.202 40.722 102.228 41.1005C102.207 41.5013 102.332 41.8968 102.582 42.2212C102.7 42.3606 102.85 42.4716 103.022 42.5451C103.194 42.6187 103.382 42.6526 103.57 42.644C103.761 42.6532 103.951 42.6197 104.126 42.5462C104.3 42.4727 104.454 42.3613 104.574 42.2212C104.826 41.8975 104.952 41.5017 104.931 41.1005H104.931ZM108.106 43.0818H106.595L106.564 42.6142L107.053 42.5905L107.059 39.6975L106.564 39.6738L106.595 39.2355H107.981L109.524 42.3819H109.536L111.06 39.2355H112.44V39.7031L111.975 39.7267V42.5905L112.471 42.6142L112.44 43.0818H110.897L110.866 42.6727L111.292 42.649L111.286 40.1531H111.274L109.831 43.0806H109.16L107.718 40.1531H107.705L107.699 42.661L108.138 42.6846L108.107 43.0809L108.106 43.0818ZM115.018 43.0818H113.337L113.306 42.6142L113.795 42.5905V39.6975L113.3 39.6738L113.331 39.2355H115.023C116.077 39.2355 116.604 39.6318 116.604 40.4243C116.617 40.6182 116.581 40.8123 116.499 40.9907C116.417 41.1691 116.292 41.3267 116.133 41.4506C115.822 41.684 115.434 41.808 115.036 41.8012H114.459V42.6528L115.048 42.6706L115.017 43.0797L115.018 43.0818ZM114.905 39.7165H114.46V41.343H114.905C115.156 41.3523 115.402 41.2768 115.598 41.13C115.694 41.0464 115.768 40.9433 115.816 40.8285C115.863 40.7137 115.882 40.5902 115.871 40.4675C115.871 39.9668 115.549 39.7165 114.905 39.7165ZM118.218 43.0818H116.761L116.73 42.6142L117.201 42.5905L118.549 39.237H119.486L120.834 42.6268L121.299 42.6446L121.268 43.0829H119.731V42.7031L120.114 42.6852L119.813 41.9517H118.132L117.831 42.6674L118.251 42.6852L118.22 43.0815L118.218 43.0818ZM118.977 39.7577L118.293 41.5263H119.648L118.977 39.7577ZM125.933 43.1113H125.2L122.961 40.1955H122.948L122.973 40.4497V42.6025L123.475 42.6203L123.444 43.0818H121.87L121.839 42.6142L122.328 42.5905V39.6975L121.832 39.6738L121.863 39.2355H123.068L125.294 42.2045L125.275 42.0093V39.7145L124.773 39.6966L124.804 39.2352H126.391V39.7028L125.934 39.7264V43.1095L125.933 43.1113ZM129.829 43.0821H128.199L128.161 42.6145L128.651 42.5908V41.5388L127.365 39.6934L126.769 39.6756L126.807 39.2373H128.431V39.6756L128.155 39.6934L129.039 40.9649L129.892 39.7051L129.635 39.6993V39.2378H131.178V39.7054L130.6 39.7232L129.365 41.533V42.5917L129.861 42.6154L129.829 43.0821Z" fill="#5D447C"/>
</g>
</g>
</svg>
