<svg id="logo" xmlns="http://www.w3.org/2000/svg" viewBox="0 0 1399.99998 500">
  <defs>
    <style>
      .cls-1 {
        fill: #7d67ab;
      }

      .cls-1, .cls-2, .cls-3, .cls-4, .cls-5, .cls-6, .cls-7, .cls-8 {
        fill-rule: evenodd;
      }

      .cls-1, .cls-2, .cls-3, .cls-4, .cls-5, .cls-6, .cls-7 {
        opacity: 0.8;
      }

      .cls-2 {
        fill: #4bbbeb;
      }

      .cls-3 {
        fill: #149bd8;
      }

      .cls-4 {
        fill: #e50004;
      }

      .cls-5 {
        fill: #ed7d04;
      }

      .cls-6 {
        fill: #009736;
      }

      .cls-7 {
        fill: #7b6eaf;
      }

      .cls-8 {
        fill: #fcd367;
        opacity: 0.9;
      }

      .cls-9 {
        fill: #1d1e1c;
      }

      .cls-10 {
        fill: #e10814;
      }
    </style>
  </defs>
  <g>
    <path class="cls-1" d="M491.0972,112.27616c92.71731,3.13114,90.38272,139.70853-2.33784,139.73937C396.08231,248.885,398.39224,112.317,491.0972,112.27616Z"/>
    <path class="cls-2" d="M348.6598,335.8487c68.73784,58.7338-18.74032,158.314-87.79479,103.188C192.12168,380.28432,279.6024,280.70909,348.6598,335.8487Z"/>
    <path class="cls-3" d="M167.59882,110.65322c136.51177,4.64,133.15108,205.72781-3.43555,205.78182C27.68976,311.8201,31.03721,110.70556,167.59882,110.65322Z"/>
    <path class="cls-4" d="M328.09229,47.75541c170.78665,5.74544,166.56961,257.40178-4.28318,257.45175C153.03918,299.44593,157.24684,47.78992,328.09229,47.75541Z"/>
    <path class="cls-5" d="M499.88261,193.94908c119.99482,4.05329,117.05683,180.88051-3.02075,180.91994C376.86978,370.81772,379.81358,193.96273,499.88261,193.94908Z"/>
    <path class="cls-6" d="M383.1503,223.74411c111.9878,3.81441,109.25038,168.81541-2.814,168.868C268.34986,388.80506,271.12712,223.80587,383.1503,223.74411Z"/>
    <path class="cls-7" d="M210.334,266.2715c60.30472,51.58261-16.45292,138.91551-77.05788,90.56811C72.95159,305.29228,149.72823,217.884,210.334,266.2715Z"/>
    <path class="cls-8" d="M262.22867,237.77205c108.70922-8.48554,118.98512,150.89773,13.14977,162.85273C166.7074,409.1283,156.36861,249.70225,262.22867,237.77205Z"/>
  </g>
  <g>
    <g>
      <path class="cls-9" d="M858.27609,178.1159h-38.1865v88.5108c0,16.2627-11.1026,26.8535-23.4883,26.8535-15.7403,0-21.9405-13.666-21.9405-35.3926V178.1159h-38.2094v85.6944c0,43.1045,18.5991,60.9297,45.94681,60.9297,22.18649,0,35.36709-12.6963,41.291-21.9473h.78019l1.8204,19.0928h33.2885c-.5219-12.1407-1.3022-26.8555-1.3022-43.8916Z"/>
      <path class="cls-9" d="M688.6833,138.1218h-37.668v39.9941H632.1438v28.1328h18.8715v66.3184c0,16.0049.7574,51.915,42.0479,51.915a92.99067,92.99067,0,0,0,25.5439-3.3837l-.5156-29.1436a55.30689,55.30689,0,0,1-12.3818,1.2549c-11.6084,0-17.0264-7.2324-17.0264-24.5039V206.2487h31.7451V178.1159H688.6833Z"/>
      <path class="cls-9" d="M1076.69109,175.029a46.83251,46.83251,0,0,0-38.4482,20.3819h-.5225V134.426h-38.1846V321.8855h38.1846V234.654c0-21.418,14.7061-28.1347,24.2647-28.1347,16.5263,0,22.2046,14.1835,22.2046,32.5273v82.8389h38.20939V235.9206C1122.39908,193.6276,1102.237,175.029,1076.69109,175.029Z"/>
      <path class="cls-9" d="M1256.62858,287.7976V235.1472c0-31.4932-12.1411-59.8604-56.7729-59.8604h-1.4136c-21.79388.2578-39.0591,6.5674-48.4204,12.1045l7.228,24.7617a70.54425,70.54425,0,0,1,35.3672-9.7529,48.31577,48.31577,0,0,1,5.8252.293c16.0039,1.9316,19.97712,11.958,19.97712,24.7285a163.79581,163.79581,0,0,0-19.97712,1.1807c-34.9561,4.5752-58.4824,21.7607-58.4824,52.9951,0,23.2363,16.5263,43.1426,43.1113,43.1426a54.33926,54.33926,0,0,0,15.3711-2.1543,42.97841,42.97841,0,0,0,22.8193-15.6709h.7803l2.3198,14.9707h34.3286C1257.1442,313.113,1256.62858,300.4568,1256.62858,287.7976Zm-37.15038-15.2305c0,16.4111-12.05032,23.3252-21.03612,24.542a21.43579,21.43579,0,0,1-2.9893.2217c-9.55858,0-18.06-5.8916-18.06-19.5967,0-13.5566,9.0366-20.4199,21.0493-23.5459a85.68062,85.68062,0,0,1,21.03612-2.2627Z"/>
      <path class="cls-9" d="M954.58569,205.2165c10.5673,0,17.5224,2.2988,22.4433,4.6377l6.2007-29.1435c-6.2007-2.5948-17.542-5.4239-29.9429-5.4239-47.4912,0-75.34859,33.041-75.34859,76.1221,0,45.6641,27.33589,73.0732,69.42529,73.0732,15.2241,0,28.36771-3.125,34.82571-6.2002L978.07,289.6189a54.99726,54.99726,0,0,1-23.2456,4.6367c-21.9214,0-38.1841-16.2617-38.1841-44.4092C916.64029,224.5544,930.56029,205.2165,954.58569,205.2165Z"/>
    </g>
    <rect class="cls-10" x="651.0153" y="77.2653" width="37.668" height="36.6768"/>
  </g>
  <g>
    <path class="cls-9" d="M684.727,409.1552l-7.7397-13.4091c-3.1499-5.1299-5.1299-8.46-7.0196-11.9698h-.1801c-1.71,3.5098-3.42,6.75-6.5699,12.0596l-7.2895,13.3193h-8.9995l18.539-30.6884L647.6484,348.498h9.0898l8.0098,14.2188c2.25,3.9599,3.9595,7.0205,5.5796,10.2597h.27c1.71-3.5996,3.2398-6.3896,5.4898-10.2597l8.2798-14.2188h8.9995l-18.4493,29.5186,18.8995,31.1386Z"/>
    <path class="cls-9" d="M702.998,365.5966h9.7197l7.92,21.96c1.0796,3.2393,2.9697,8.5488,3.9594,11.9687h.1802c.9898-3.2392,3.4199-10.1689,5.1299-14.9394l7.01949-18.9893h9.8096l3.0601,43.5586h-7.5596l-.9903-20.789c-.27-4.6797-.6298-10.2598-.81-15.5694h-.27c-1.17,3.96-2.3399,7.4698-4.7696,14.1289l-8.3696,21.96H721.2675l-7.7397-21.5098c-1.3501-4.1396-3.2397-10.4394-4.3198-14.4892h-.3599c-.1802,5.1299-.4502,10.8896-.7202,15.6592l-1.0801,20.6093h-7.2895Z"/>
    <path class="cls-9" d="M784.08689,409.1552l-.6304-5.4902h-.27a16.22341,16.22341,0,0,1-13.31929,6.4805c-8.81941,0-13.31941-6.21-13.31941-12.5098,0-10.5293,9.35941-16.2891,26.189-16.1992v-.9004c0-3.5996-.9903-10.0791-9.8999-10.0791a21.707,21.707,0,0,0-11.3394,3.2392l-1.7998-5.2197a27.034,27.034,0,0,1,14.3096-3.8691c13.3193,0,16.5591,9.0888,16.5591,17.8193v16.2891a61.31679,61.31679,0,0,0,.7202,10.4394Zm-1.1699-22.2295c-8.6397-.1796-18.4497,1.3506-18.4497,9.8096,0,5.1299,3.41991,7.5606,7.4697,7.5606a10.83808,10.83808,0,0,0,10.5298-7.2901,8.26827,8.26827,0,0,0,.4502-2.5195Z"/>
    <path class="cls-9" d="M803.25729,379.8164c0-5.5801-.1802-10.0791-.3599-14.2198h7.1094l.36041,7.4698h.17959c3.2398-5.3096,8.3697-8.459,15.4795-8.459,10.5293,0,18.4493,8.9092,18.4493,22.1387,0,15.6591-9.5396,23.3994-19.79939,23.3994-5.75971,0-10.79931-2.5205-13.40911-6.8399h-.1802v23.669h-7.8296Zm7.8296,11.6093a17.87719,17.87719,0,0,0,.3598,3.2403,12.22091,12.22091,0,0,0,11.8794,9.2695c8.3702,0,13.2295-6.8398,13.2295-16.8291,0-8.7295-4.5898-16.1992-12.95939-16.1992a12.63639,12.63639,0,0,0-11.96931,9.8096,12.83144,12.83144,0,0,0-.54,3.2392Z"/>
    <path class="cls-9" d="M862.02539,365.5966v17.5498h20.6992V365.5966h7.82961v43.5586h-7.82961v-19.709h-20.6992v19.709h-7.8296V365.5966Z"/>
    <path class="cls-9" d="M912.24409,353.3574c.0903,2.7002-1.8896,4.8603-5.0395,4.8603a4.70947,4.70947,0,0,1-4.7701-4.8603,4.8254,4.8254,0,0,1,4.9502-4.9492A4.7,4.7,0,0,1,912.24409,353.3574Zm-8.8193,55.7978V365.5966h7.91941v43.5586Z"/>
    <path class="cls-9" d="M943.38279,379.8164c0-5.5801-.1797-10.0791-.3594-14.2198h7.1094l.3603,7.4698h.1797c3.2403-5.3096,8.3701-8.459,15.4795-8.459,10.5293,0,18.4492,8.9092,18.4492,22.1387,0,15.6591-9.54,23.3994-19.7988,23.3994-5.7598,0-10.7998-2.5205-13.4102-6.8399h-.1796v23.669h-7.8301Zm7.8301,11.6093a17.77718,17.77718,0,0,0,.36031,3.2403,12.21948,12.21948,0,0,0,11.87889,9.2695c8.37011,0,13.2295-6.8398,13.2295-16.8291,0-8.7295-4.5898-16.1992-12.959-16.1992a12.63649,12.63649,0,0,0-11.9697,9.8096,12.80917,12.80917,0,0,0-.54,3.2392Z"/>
    <path class="cls-9" d="M1003.3222,353.3574c.08989,2.7002-1.89061,4.8603-5.04,4.8603a4.709,4.709,0,0,1-4.76951-4.8603,4.82458,4.82458,0,0,1,4.9492-4.9492A4.70073,4.70073,0,0,1,1003.3222,353.3574Zm-8.82031,55.7978V365.5966h7.9199v43.5586Z"/>
    <path class="cls-9" d="M1023.0312,365.5966v37.3487h15.209V365.5966h7.73929v37.3487h15.2099V365.5966h7.8291v43.5586H1015.291V365.5966Z"/>
    <path class="cls-9" d="M1086.21089,388.8164c.1797,10.7089,7.0195,15.1191,14.9395,15.1191a28.63981,28.63981,0,0,0,12.0595-2.25l1.3496,5.6699a35.2811,35.2811,0,0,1-14.4892,2.7002c-13.4092,0-21.419-8.8203-21.419-21.9599,0-13.1387,7.7393-23.4883,20.4287-23.4883,14.2198,0,18,12.5088,18,20.5185a29.88711,29.88711,0,0,1-.2705,3.6905Zm23.2188-5.67c.0908-5.04-2.0694-12.8691-10.97949-12.8691-8.00981,0-11.51961,7.3789-12.14951,12.8691Z"/>
    <path class="cls-9" d="M1134.4502,365.5966v17.5498h20.69918V365.5966h7.8291v43.5586h-7.8291v-19.709H1134.4502v19.709h-7.83012V365.5966Z"/>
    <path class="cls-9" d="M1183.499,365.5966v17.5498h20.69922V365.5966h7.82908v43.5586h-7.82908v-19.709H1183.499v19.709h-7.8301V365.5966Z"/>
    <path class="cls-9" d="M1257.02728,409.1552h-7.83008V390.8857h-5.84962a10.29141,10.29141,0,0,0-7.29,2.4307c-3.2393,2.6093-4.4092,8.0088-6.1192,12.2392a26.87473,26.87473,0,0,1-1.8007,3.5996h-8.459a28.4123,28.4123,0,0,0,2.6992-4.9502c1.8906-4.2295,2.9707-9.8994,6.8398-13.1386a10.39322,10.39322,0,0,1,4.9502-2.5205v-.2696c-5.6699-.6299-11.5195-4.1396-11.5195-10.7998a10.493,10.493,0,0,1,5.75982-9.4492c3.59958-2.0703,8.90908-2.9707,14.57908-2.9707a121.28138,121.28138,0,0,1,14.04.9004Zm-7.83008-38.3388a44.279,44.279,0,0,0-6.56932-.4493c-5.4004,0-11.79,1.5293-11.79,7.5596,0,5.5791,6.9296,7.5596,11.60932,7.5596h6.75Z"/>
  </g>
</svg>
