<svg width="0" height="0"><symbol xmlns="http://www.w3.org/2000/svg" id="arrow-back" fill="none" viewBox="0 0 24 17"><path stroke="#FCFCFC" stroke-linecap="round" stroke-linejoin="round" stroke-width="2.4" d="M8.152 2 2 8.5 8.154 15M22 8.502H2"/></symbol><symbol xmlns="http://www.w3.org/2000/svg" id="baza-skill-logo" fill="none" viewBox="0 0 296 75"><path fill="url(#a)" d="M15.857 36.8c2.297 1.217 3.653 3.43 3.653 6.197 0 4.132-3.728 7.452-8.324 7.452H0V24.625h10.885c4.558 0 7.947 2.84 7.947 6.64 0 2.214-1.13 4.28-2.975 5.534Zm-2.561-4.686c0-1.623-1.168-2.73-2.938-2.73H5.574v5.497h4.784c1.77 0 2.938-1.144 2.938-2.767ZM10.659 45.32c1.883 0 3.126-1.217 3.126-2.914 0-1.66-1.243-2.878-3.126-2.878H5.574v5.792h5.085Z"/><path fill="url(#b)" d="m41.054 50.412-1.846-4.87h-10.47l-1.808 4.87h-6.065l10.358-25.824h5.386l10.66 25.824h-6.215Zm-7.081-19-3.465 9.26h6.93l-3.465-9.26Z"/><path fill="url(#c)" d="M57.166 45.247h11.337v5.165H48.578V49.6l10.998-19.81H49.181v-5.202h18.87v1.033L57.166 45.247Z"/><path fill="url(#d)" d="m90.047 50.412-1.845-4.87h-10.47l-1.809 4.87H69.86l10.358-25.824h5.386l10.66 25.824h-6.216Zm-7.08-19-3.466 9.26h6.93l-3.465-9.26Z"/><path fill="url(#e)" d="M148.886.628c-5.264.49-10.13 2.122-14.45 4.864-1.372.867-3.613 2.527-3.79 2.815-.059.101-.619.578-1.224 1.069-1.681 1.328-1.71 1.487-.074.418 2.876-1.876 6.164-3.219 9.644-3.94 1.696-.362 2.153-.39 5.249-.405 3.008 0 3.584.043 5.088.347 10.705 2.15 19.11 9.873 22.177 20.383.722 2.497.648 2.54-.649.274-2.182-3.753-2.787-4.706-3.672-5.89-6.93-9.152-18.638-13.916-30.08-12.227-10.794 1.588-20.039 8.445-24.419 18.131-1.666 3.696-2.536 7.391-2.684 11.534-.398 10.914 4.852 20.889 14.23 27.038 2.462 1.631 6.724 3.436 10.646 4.533.118.029-.575-.347-1.548-.852-2.065-1.068-2.699-1.458-4.203-2.57-4.187-3.132-7.446-7.593-9.127-12.515-3.2-9.412-1.003-19.719 5.869-27.514.752-.852 1.43-1.588 1.518-1.631.207-.13.192-.116-1.106 1.819-2.241 3.32-3.996 7.564-4.762 11.534-.531 2.713-.649 6.64-.281 9.397 1.46 11.274 9.098 20.99 19.686 25.031 3.716 1.415 6.915 2.079 10.69 2.209 11.103.39 21.602-4.908 27.663-13.96 2.565-3.825 4.276-8.314 4.925-12.92.383-2.713.265-6.943-.295-10.104l-.443-2.454-.088 2.815c-.089 2.584-.28 4.143-.723 5.803-2.757 10.48-11.383 18.102-22.634 19.979-2.168.36-6.001.433-8.287.144-1.917-.245-4.704-.823-5.19-1.083-.148-.086 1.356-.13 3.966-.115 4.542.029 5.427-.043 8.479-.765 6.09-1.43 11.044-4.2 15.409-8.604 2.566-2.584 4.188-4.864 5.839-8.214 1.165-2.352 2.035-4.893 2.507-7.42.206-1.082.427-2.165.501-2.396.221-.693.074-6.452-.206-8.084-1.357-8.271-5.5-15.186-12.062-20.137-6.193-4.692-14.421-7.059-22.089-6.337Zm11.443 3.464c7.785 2.599 14.229 8.113 17.768 15.215 4.084 8.2 4.055 17.655-.089 25.84-2.492 4.937-6.104 8.964-10.837 12.04-1.269.836-3.126 1.89-3.318 1.89-.059 0 .678-.52 1.637-1.14 8.729-5.673 13.831-15.648 13.433-26.215-.192-4.793-1.15-8.56-3.274-12.848-1.637-3.305-3.2-5.47-5.795-8.07-2.964-2.959-6.296-5.182-9.982-6.654-1.254-.505-1.549-.65-1.372-.65.044 0 .87.26 1.829.592Zm-8.538.072c-.044.044-.177.058-.28.015-.118-.043-.074-.087.088-.087.163-.014.251.03.192.072Zm1.961.347c10.794 2.512 19.331 10.653 22.118 21.09.797 3.003.944 4.244.944 7.709 0 3.363-.133 4.388-.885 7.362-2.094 8.127-8.095 15.33-15.763 18.896-1.828.852-2.315.967-.884.188 5.515-2.945 9.54-7.088 12.253-12.588 2.094-4.273 3.038-8.373 3.023-13.28 0-7.247-2.182-13.585-6.635-19.344-1.106-1.43-3.982-4.216-5.5-5.356-3.023-2.223-6.901-4.07-10.219-4.865l-.295-.072.295-.014c.162 0 .855.115 1.548.274Zm-8.243 5.485c2.212.231 4.955.794 6.99 1.458 1.74.563 6.134 2.599 6.856 3.162.207.159-.457-.101-1.474-.563-4.689-2.18-8.818-3.017-14.141-2.859-3.745.116-6.827.722-10.292 2.05-6.518 2.498-12.21 7.175-15.837 13.021-2.359 3.811-3.952 8.445-4.409 12.877-.25 2.44-.191 4.23.221 7.593.059.534.059.548-.073.144-.782-2.324-1.121-7.766-.679-11.144 1.475-11.36 9.113-20.614 20.01-24.28 4.084-1.358 8.567-1.877 12.828-1.459Zm3.923 3.104c4.527.577 8.803 2.15 12.445 4.547 2.094 1.372 2.934 2.122 1.062.939-2.832-1.79-5.987-3.032-9.482-3.754-2.256-.462-6.576-.65-8.935-.375-8.921 1.025-16.958 5.659-22.355 12.862-5.323 7.117-7.166 16.312-4.91 24.54.369 1.386.103.939-.427-.693-5.323-16.47 4.969-33.836 22.324-37.633 3.008-.664 7.137-.823 10.278-.433Zm1.784 2.96c8.302.865 15.409 4.95 19.951 11.432 1.164 1.675 1.297 2.194 1.415 5.818.059 2.122.03 3.176-.162 4.648-.973 7.449-4.748 14.118-10.573 18.723-3.671 2.887-8.463 4.88-13.197 5.5-2.934.39-3.362.317-6.414-1.112-7.963-3.71-13.875-10.668-15.969-18.81-.679-2.627-.87-4.489-.782-7.361.118-3.927.796-6.886 2.315-10.105.605-1.3 1.18-1.877 3.436-3.436 5.824-4.042 13.197-6.005 19.98-5.298Zm-26.704 16.918c-.044.115-.088.072-.088-.087-.015-.159.029-.245.073-.188.044.044.059.174.015.275Zm-.221 3.262c-.074 3.306.133 5.038.914 7.853 3.097 11.058 12.976 19.517 25.274 21.653 2.477.419 7.667.462 9.982.073 5.913-1.01 11.207-3.465 14.937-6.944.502-.462.915-.794.915-.707 0 .202-2.994 3.031-4.055 3.81-4.276 3.191-9.423 5.24-14.819 5.905-1.799.216-5.471.173-7.403-.072-6.679-.867-12.813-3.84-17.547-8.546-2.551-2.512-4.084-4.634-5.662-7.767-2.168-4.316-3.126-8.704-2.964-13.569.059-1.833.325-4.547.457-4.547.015 0 0 1.285-.029 2.858Zm-1.696 2.151c-.044.144-.074.058-.074-.173 0-.246.03-.347.074-.26.03.101.03.303 0 .433Zm.044 3.97c.723 8.935 5.589 17.092 13.345 22.375 3.377 2.295 7.815 4.143 11.899 4.937 2.773.548 4.749.707 7.491.62 6.09-.216 11.369-1.89 16.441-5.24 1.578-1.053 1.608-1.053.811-.346-1.061.953-3.052 2.339-4.748 3.291-3.568 2.036-7.771 3.422-11.914 3.912-1.799.231-5.471.188-7.417-.057-11.413-1.458-20.938-9.268-24.581-20.11-1.223-3.651-1.636-6.293-1.592-10.205.015-1.357.044-2.165.074-1.804.014.36.103 1.544.191 2.627Z"/><path fill="url(#f)" d="M209.47 50.928c-6.064 0-10.245-3.32-10.245-8.853h5.763c0 2.471 2.109 3.689 4.444 3.689 2.147 0 4.256-1.107 4.256-3.025 0-2.03-2.41-2.583-5.273-3.21-3.992-.96-8.813-2.103-8.813-7.673 0-4.944 3.728-7.748 9.566-7.748 6.064 0 9.492 3.173 9.492 8.338h-5.612c0-2.25-1.883-3.283-4.03-3.283-1.846 0-3.691.774-3.691 2.471 0 1.808 2.259 2.361 5.084 3.025 3.993.996 9.04 2.214 9.04 8.006 0 5.57-4.52 8.264-9.981 8.264Z"/><path fill="url(#g)" d="M246.01 50.412h-6.968l-9.303-12.58v12.58h-5.688V24.588h5.688v11.953l8.663-11.953h6.629l-8.965 12.395 9.944 13.429Z"/><path fill="url(#h)" d="M248.769 50.412V24.588h5.687v25.824h-5.687Z"/><path fill="url(#i)" d="M266.19 45.247h10.132v5.165h-15.82V24.588h5.688v20.66Z"/><path fill="url(#j)" d="M285.868 45.247H296v5.165h-15.819V24.588h5.687v20.66Z"/><defs><linearGradient id="a" x1="0" x2="295.968" y1="25.475" y2="50.826" gradientUnits="userSpaceOnUse"><stop stop-color="#5BFF75"/><stop offset=".988" stop-color="#FFF854"/></linearGradient><linearGradient id="b" x1="0" x2="295.968" y1="25.475" y2="50.826" gradientUnits="userSpaceOnUse"><stop stop-color="#5BFF75"/><stop offset=".988" stop-color="#FFF854"/></linearGradient><linearGradient id="c" x1="0" x2="295.968" y1="25.475" y2="50.826" gradientUnits="userSpaceOnUse"><stop stop-color="#5BFF75"/><stop offset=".988" stop-color="#FFF854"/></linearGradient><linearGradient id="d" x1="0" x2="295.968" y1="25.475" y2="50.826" gradientUnits="userSpaceOnUse"><stop stop-color="#5BFF75"/><stop offset=".988" stop-color="#FFF854"/></linearGradient><linearGradient id="e" x1="0" x2="295.968" y1="25.475" y2="50.826" gradientUnits="userSpaceOnUse"><stop stop-color="#5BFF75"/><stop offset=".988" stop-color="#FFF854"/></linearGradient><linearGradient id="f" x1="0" x2="295.968" y1="25.475" y2="50.826" gradientUnits="userSpaceOnUse"><stop stop-color="#5BFF75"/><stop offset=".988" stop-color="#FFF854"/></linearGradient><linearGradient id="g" x1="0" x2="295.968" y1="25.475" y2="50.826" gradientUnits="userSpaceOnUse"><stop stop-color="#5BFF75"/><stop offset=".988" stop-color="#FFF854"/></linearGradient><linearGradient id="h" x1="0" x2="295.968" y1="25.475" y2="50.826" gradientUnits="userSpaceOnUse"><stop stop-color="#5BFF75"/><stop offset=".988" stop-color="#FFF854"/></linearGradient><linearGradient id="i" x1="0" x2="295.968" y1="25.475" y2="50.826" gradientUnits="userSpaceOnUse"><stop stop-color="#5BFF75"/><stop offset=".988" stop-color="#FFF854"/></linearGradient><linearGradient id="j" x1="0" x2="295.968" y1="25.475" y2="50.826" gradientUnits="userSpaceOnUse"><stop stop-color="#5BFF75"/><stop offset=".988" stop-color="#FFF854"/></linearGradient></defs></symbol><symbol xmlns="http://www.w3.org/2000/svg" id="blog" fill="none" viewBox="0 0 18 21"><path fill="#FCFCFC" d="M3.414 14.89 13.556 4.748l-1.414-1.414L2 13.476v1.414h1.414Zm.829 2H0v-4.243L11.435 1.212a1 1 0 0 1 1.414 0l2.829 2.829a1 1 0 0 1 0 1.414L4.243 16.89ZM0 18.89h18v2H0v-2Z"/></symbol><symbol xmlns="http://www.w3.org/2000/svg" id="calendar_dark" fill="none" viewBox="0 0 24 24"><path fill="#121212" d="M9 1v2h6V1h2v2h4a1 1 0 0 1 1 1v16a1 1 0 0 1-1 1H3a1 1 0 0 1-1-1V4a1 1 0 0 1 1-1h4V1h2Zm11 10H4v8h16v-8ZM7 5H4v4h16V5h-3v2h-2V5H9v2H7V5Z"/></symbol><symbol xmlns="http://www.w3.org/2000/svg" id="calendar" fill="none" viewBox="0 0 20 23"><path stroke="#FCFCFC" stroke-linecap="round" stroke-linejoin="round" stroke-width="2" d="M6 1.832v4m8-4v4m3-2H3a2 2 0 0 0-2 2v14a2 2 0 0 0 2 2h14a2 2 0 0 0 2-2v-14a2 2 0 0 0-2-2Zm-16 6h18"/></symbol><symbol xmlns="http://www.w3.org/2000/svg" id="carousel-arrow" fill="inherit" viewBox="0 0 19 30"><path d="M19 15c0 1.13-.534 2.227-1.463 3.01L3.997 29.421c-.96.808-2.463.763-3.358-.1-.89-.864-.843-2.223.114-3.028L14.148 15 .753 3.707C-.207 2.902-.254 1.541.639.68c.895-.863 2.399-.91 3.358-.102l13.54 11.413C18.466 12.774 19 13.87 19 15Z"/></symbol><symbol xmlns="http://www.w3.org/2000/svg" id="check" fill="none" viewBox="0 0 24 25"><g clip-path="url(#a)"><rect width="24" height="24" y=".5" fill="#1BA161" rx="2"/><path stroke="#030110" stroke-linecap="round" stroke-linejoin="round" stroke-width="2" d="m20 6.5-11 11-5-5"/></g></symbol><symbol xmlns="http://www.w3.org/2000/svg" id="clock" fill="none" viewBox="0 0 20 21"><path fill="#FCFCFC" d="M10 18.832a8 8 0 1 0 0-16 8 8 0 0 0 0 16Zm0-18a10 10 0 1 1 0 20c-5.53 0-10-4.5-10-10a10 10 0 0 1 10-10Zm.5 5v5.25l4.5 2.67-.75 1.23L9 11.832v-6h1.5Z"/></symbol><symbol xmlns="http://www.w3.org/2000/svg" id="close_dark" fill="none" viewBox="0 0 32 32"><path fill="#030110" d="M28 6.1 25.9 4 16 13.9 6.1 4 4 6.1l9.9 9.9L4 25.9 6.1 28l9.9-9.9 9.9 9.9 2.1-2.1-9.9-9.9L28 6.1Z"/></symbol><symbol xmlns="http://www.w3.org/2000/svg" id="close" fill="none" viewBox="0 0 32 32"><path fill="#FCFCFC" d="M28 6.1 25.9 4 16 13.9 6.1 4 4 6.1l9.9 9.9L4 25.9 6.1 28l9.9-9.9 9.9 9.9 2.1-2.1-9.9-9.9L28 6.1Z"/></symbol><symbol xmlns="http://www.w3.org/2000/svg" id="closed_eye" fill="none" viewBox="0 0 24 25"><path fill="#030110" d="M17.88 19.797a10.949 10.949 0 0 1-5.882 1.703c-5.392 0-9.878-3.88-10.818-9a10.982 10.982 0 0 1 3.339-6.065L1.392 3.308l1.414-1.414 19.799 19.798-1.414 1.415-3.31-3.31ZM5.935 7.85A8.965 8.965 0 0 0 3.22 12.5a9.005 9.005 0 0 0 13.201 5.838l-2.028-2.028a4.5 4.5 0 0 1-6.206-6.206L5.934 7.85Zm6.978 6.978L9.67 11.587a2.5 2.5 0 0 0 3.241 3.241Zm7.893 2.265-1.431-1.431a8.935 8.935 0 0 0 1.402-3.162A9.005 9.005 0 0 0 9.55 5.838L7.973 4.26c1.246-.49 2.604-.76 4.025-.76 5.392 0 9.878 3.88 10.819 9a10.947 10.947 0 0 1-2.012 4.593ZM11.72 8.009a4.5 4.5 0 0 1 4.769 4.769l-4.77-4.77Z"/></symbol><symbol xmlns="http://www.w3.org/2000/svg" id="complexity" fill="none" viewBox="0 0 15 19"><path fill="#FCFCFC" fill-rule="evenodd" d="M2.882 17.372a1.4 1.4 0 1 1-2.8.013L.02 4.78a1.4 1.4 0 1 1 2.801-.014l.061 12.606Zm2.802-.014-.048-9.804a1.4 1.4 0 0 1 2.801-.013l.048 9.804a1.4 1.4 0 0 1-2.801.013Zm5.528-15.433a1.4 1.4 0 1 1 2.8-.014l.075 15.407a1.4 1.4 0 0 1-2.801.013l-.074-15.406Z" clip-rule="evenodd"/></symbol><symbol xmlns="http://www.w3.org/2000/svg" id="contacts" fill="none" viewBox="0 0 18 20"><path fill="#FCFCFC" stroke="#FCFCFC" d="M12.5 2v-.5h-11v17h15v-13h-4V2ZM.5.992C.5.724.72.5.999.5h11.794L17.5 5.207v13.785a.5.5 0 0 1-.493.508H.993a.5.5 0 0 1-.493-.492V.992ZM9 9a2 2 0 1 1 0-4 2 2 0 0 1 0 4Zm3.874 5.5H5.126a4.002 4.002 0 0 1 7.748 0Z"/></symbol><symbol xmlns="http://www.w3.org/2000/svg" id="cookies" fill="none" viewBox="0 0 24 24"><path fill="#F6B059" d="M12.002 0C5.372 0 0 5.373 0 11.998 0 18.628 5.373 24 12.002 24 18.627 24 24 18.627 24 11.998 24 5.373 18.627 0 12.002 0Z"/><path fill="#6D420D" d="M10.618 9.229a2.308 2.308 0 1 0-.001 4.616 2.308 2.308 0 0 0 0-4.617Zm1.845-5.54a1.384 1.384 0 1 0 0 2.77 1.384 1.384 0 0 0 0-2.77Zm3.23 11.078a1.848 1.848 0 1 0 .004 3.695 1.848 1.848 0 0 0-.004-3.695Zm-10.614-2.77a1.384 1.384 0 1 0 0 2.77 1.384 1.384 0 0 0 0-2.77ZM18.002 9.23A1.384 1.384 0 1 0 18 11.997a1.384 1.384 0 0 0 0-2.768Zm-8.769 8.308a.924.924 0 1 0 0 1.848.923.923 0 0 0 0-1.848Z"/></symbol><symbol xmlns="http://www.w3.org/2000/svg" id="counter" fill="none" viewBox="0 0 19 20"><path fill="#FCFCFC" stroke="#FCFCFC" d="M4 14.5h.5v-5h-2v5H4Zm6 0h.5v-9h-2v9H10Zm6 0h.5v-13h-2v13H16Zm-14.5 1v-7h4v7h-4Zm6 0v-11h4v11h-4Zm6 0V.5h4v15h-4Zm-13 4v-1h18v1H.5Z"/></symbol><symbol xmlns="http://www.w3.org/2000/svg" id="documents" fill="none" viewBox="0 0 18 20"><path fill="#FCFCFC" stroke="#FCFCFC" d="M16.5 7v-.5h-5v-5h-10v17h15V7Zm1-.793v12.786a.5.5 0 0 1-.493.507H.993a.493.493 0 0 1-.493-.492V.992C.5.732.724.5 1.002.5H11.79l5.71 5.707ZM5.5 5.5h2v1h-2v-1Zm0 4h7v1h-7v-1Zm0 4h7v1h-7v-1Z"/></symbol><symbol xmlns="http://www.w3.org/2000/svg" id="donate-modal-icon" fill="none" viewBox="0 0 24 24"><path fill="#F9A825" d="M19.5 6h-8c-.3 0-.5.2-.5.5s.2.5.5.5h8c.3 0 .5-.2.5-.5s-.2-.5-.5-.5Z"/><path fill="#24592F" d="M11.1 4.7c0 .2.2.3.4.3h8c.2 0 .4-.1.4-.3l2-4c.1-.1.1-.4 0-.5-.1-.1-.4-.2-.6-.1l-3.7 1.8L15.9.2c-.2-.2-.5-.2-.7 0l-1.7 1.7L9.7.1c-.2-.1-.4-.1-.6.1-.2.2-.1.4 0 .5l2 4Zm3.9 8.2v-1.8c-.6.1-1 .5-1 .9s.3.7 1 .9Z"/><path fill="#5574C5" d="M5.8 12.2C5 11.3 1.6 11.1.5 11c-.1 0-.3 0-.4.1 0 .1-.1.3-.1.4v10c0 .3.2.5.5.5h3c.2 0 .4-.1.5-.3.1-.2 1.8-6.5 2-9.1 0-.2 0-.3-.2-.4Z"/><path fill="#24592F" d="M9.1 13c.8.1 1.7.4 2.4.6.6.2 1.2.4 1.5.4 0 0 .9 0 2 .2v-.3c-1.3-.3-2-1-2-1.9 0-1 .9-1.8 2-2v-.5c0-.3.2-.5.5-.5s.5.2.5.5v.5c1.1.2 1.9.9 2 1.8 0 .3-.2.5-.5.5s-.5-.2-.5-.5c0-.4-.5-.8-1-.9v2c1.3.3 2 1 2 1.9v.2c.6.4 1 1 1 1.8l.4.1 1.2-.5c.5-.2 1-.3 1.4-.3.8 0 1.4.3 2 .7v-.5c0-2.9-3.9-8.1-4.1-8.3-.1.1-.2 0-.4 0h-8c-.2 0-.3.1-.4.2-.1.1-1.8 2.4-2.9 4.7.2 0 .5 0 .7.1h.2Z"/><path fill="#000" d="m16 14.4.9.3c-.1-.2-.4-.4-.9-.5v.2Z"/><path fill="#D1AB73" d="M21 17.5 17.5 19H14c-.5 0-3.1-.8-2.7-1h.7c2.3.2 6 .7 6-1s-4-2-5-2-2.6-.9-4-1c-.6 0-1.3-.1-2.1-.2-.3 2.2-1.2 5.3-1.7 6.8l5.3 2.4c2 .8 3.3 1.7 7.5 0 0 0 6-2.5 6-4 0-1.2-1.4-2-3-1.5Z"/></symbol><symbol xmlns="http://www.w3.org/2000/svg" id="download" fill="none" viewBox="0 0 24 24"><path fill="#030110" stroke="#030110" d="M13.354 5.475 12.5 4.62V16.5h-1V4.621l-.854.854-5.717 5.717-.707-.707L12 2.707l7.778 7.778-.707.707-5.717-5.717ZM20.5 19.5v1h-17v-1h17Z"/></symbol><symbol xmlns="http://www.w3.org/2000/svg" id="edit_black" fill="none" viewBox="0 0 24 24"><path fill="#030110" d="M6.414 15.89 16.556 5.748l-1.414-1.414L5 14.476v1.414h1.414Zm.829 2H3v-4.242L14.435 2.213a1 1 0 0 1 1.414 0l2.829 2.828a1 1 0 0 1 0 1.414L7.243 17.89ZM3 19.89h18v2H3v-2Z"/></symbol><symbol xmlns="http://www.w3.org/2000/svg" id="edit" fill="none" viewBox="0 0 24 24"><path fill="#FCFCFC" d="M6.414 15.89 16.556 5.748l-1.414-1.414L5 14.476v1.414h1.414Zm.829 2H3v-4.242L14.435 2.213a1 1 0 0 1 1.414 0l2.829 2.828a1 1 0 0 1 0 1.414L7.243 17.89ZM3 19.89h18v2H3v-2Z"/></symbol><symbol xmlns="http://www.w3.org/2000/svg" id="facebook" viewBox="0 0 48 49"><g clip-path="url(#a)"><path d="M24 48.5c13.255 0 24-10.745 24-24S37.255.5 24 .5 0 11.245 0 24.5s10.745 24 24 24Z"/><path fill="#240529" d="m32.69 25.665 1.036-3.592h-6.484v-2.33c0-.983.904-1.942 3.808-1.942H34v-3.058s-2.676-.243-5.233-.243c-5.342 0-8.83 1.72-8.83 4.835v2.738H14v3.592h5.936v8.684c1.192.1 2.411.151 3.653.151s2.461-.05 3.653-.15v-8.685h5.448Z"/></g></symbol><symbol xmlns="http://www.w3.org/2000/svg" id="full_screen" fill="none" viewBox="0 0 24 24"><g clip-path="url(#a)"><path fill="#FCFCFC" d="M21 3a1 1 0 0 1 1 1v7h-2V5H4v14h6v2H3a1 1 0 0 1-1-1V4a1 1 0 0 1 1-1h18Zm0 10a1 1 0 0 1 1 1v6a1 1 0 0 1-1 1h-8a1 1 0 0 1-1-1v-6a1 1 0 0 1 1-1h8Zm-1 2h-6v4h6v-4Zm-8.5-8L9.457 9.043l2.25 2.25-1.414 1.414-2.25-2.25L6 12.5V7h5.5Z"/></g></symbol><symbol xmlns="http://www.w3.org/2000/svg" id="go_out" fill="none" viewBox="0 0 25 25"><path fill="#FCFCFC" stroke="#FCFCFC" d="M6 4.5V6H5V3.5a.5.5 0 0 1 .5-.5h14a.5.5 0 0 1 .5.5v18a.5.5 0 0 1-.5.5h-14a.5.5 0 0 1-.5-.5V19h1v2h13V4H6v.5Zm0 7v.5h7v1H6v2.46L2.3 12.5 6 9.54v1.96Z"/></symbol><symbol xmlns="http://www.w3.org/2000/svg" id="internship-benefits-1" fill="none" viewBox="0 0 181 180"><path fill="url(#a)" d="M35.983 161.609A90.001 90.001 0 0 1 92.37.019a89.997 89.997 0 0 1 84.264 63.885 90 90 0 0 1-34.639 99.908l-8.938-12.811a74.382 74.382 0 0 0 28.627-82.568 74.385 74.385 0 0 0-69.638-52.796A74.38 74.38 0 0 0 45.445 149.18l-9.462 12.429Z"/><g clip-path="url(#b)"><path fill="#fff" d="M83.606 37.11a11.076 11.076 0 0 1 14.952-.642l.71.647 10.521 10.517h14.875a11.077 11.077 0 0 1 11.042 10.245l.033.83v14.875l10.522 10.522a11.077 11.077 0 0 1 .643 14.957l-.648.704-10.522 10.522v14.874a11.078 11.078 0 0 1-10.245 11.048l-.825.028h-14.869l-10.522 10.522a11.077 11.077 0 0 1-14.958.642l-.703-.642-10.522-10.522H58.21a11.076 11.076 0 0 1-11.048-10.245l-.028-.831v-14.874L36.612 99.765a11.076 11.076 0 0 1-.642-14.958l.642-.703 10.522-10.522V58.707A11.076 11.076 0 0 1 57.38 47.665l.83-.033h14.875L83.606 37.11Zm7.83 7.841-10.52 10.522a11.075 11.075 0 0 1-6.856 3.196l-.975.038H58.21v14.875c0 2.602-.915 5.121-2.586 7.116l-.66.72-10.52 10.522 10.522 10.516a11.077 11.077 0 0 1 3.2 6.856l.045.975v14.874h14.874a11.075 11.075 0 0 1 7.117 2.586l.72.659 10.516 10.522 10.522-10.522a11.08 11.08 0 0 1 6.855-3.201l.975-.044h14.875v-14.874a11.077 11.077 0 0 1 2.586-7.117l.659-.719 10.522-10.517-10.522-10.522a11.074 11.074 0 0 1-3.201-6.855l-.044-.975V58.707H109.79a11.076 11.076 0 0 1-7.116-2.586l-.72-.659L91.431 44.94l.006.011Zm17.057 30.281a5.539 5.539 0 0 1 8.29 7.31l-.465.52-27.024 27.025a6.09 6.09 0 0 1-8.086.476l-.531-.47L67.364 96.78a5.538 5.538 0 0 1 7.31-8.296l.52.46 9.791 9.79 23.508-23.502Z"/></g></symbol><symbol xmlns="http://www.w3.org/2000/svg" id="internship-benefits-2" fill="none" viewBox="0 0 181 180"><path fill="url(#a)" d="M35.983 161.609A90.001 90.001 0 0 1 92.37.019a89.997 89.997 0 0 1 84.264 63.885 90 90 0 0 1-34.639 99.908l-8.938-12.811a74.382 74.382 0 0 0 28.627-82.568 74.385 74.385 0 0 0-69.638-52.796A74.38 74.38 0 0 0 45.445 149.18l-9.462 12.429Z"/><g fill="#FCFCFC" clip-path="url(#b)"><path d="M46.85 78.536c3.766 0 6.818-3.102 6.818-6.929 0-3.826-3.052-6.928-6.818-6.928-3.765 0-6.817 3.102-6.817 6.928 0 3.827 3.052 6.929 6.817 6.929Zm7.614 2.77H39.24c-5.376.006-9.732 4.432-9.739 9.895v19.406c-.045 1.987 1.504 3.636 3.46 3.681 1.955.046 3.577-1.528 3.622-3.516a2.27 2.27 0 0 0 0-.165V93.204h2.126v53.113c-.045 1.988 1.504 3.636 3.46 3.682 1.955.045 3.578-1.529 3.622-3.516a2.418 2.418 0 0 0 0-.166v-29.511h2.123v29.512c-.045 1.987 1.504 3.635 3.46 3.681 1.955.046 3.577-1.528 3.622-3.516.002-.055.002-.11 0-.166V93.2h2.126v17.403c-.045 1.988 1.504 3.636 3.46 3.682 1.955.045 3.577-1.529 3.622-3.516a2.418 2.418 0 0 0 0-.166V91.201c-.005-5.463-4.363-9.889-9.74-9.895Zm77.687-2.77c3.765 0 6.817-3.102 6.817-6.929 0-3.826-3.052-6.928-6.817-6.928s-6.818 3.102-6.818 6.928c0 3.827 3.053 6.929 6.818 6.929Zm7.603 2.77h-15.226c-5.375.006-9.733 4.434-9.739 9.897v19.404c-.045 1.987 1.504 3.636 3.46 3.681 1.956.046 3.578-1.528 3.622-3.516a2.27 2.27 0 0 0 0-.165V93.204h2.132v53.113c-.045 1.988 1.504 3.636 3.46 3.682 1.956.045 3.578-1.529 3.622-3.516a2.297 2.297 0 0 0 0-.166v-29.511h2.123v29.512c-.045 1.987 1.504 3.635 3.46 3.681 1.955.046 3.577-1.528 3.622-3.516.002-.055.002-.11 0-.166V93.2h2.126v17.403c-.045 1.988 1.504 3.636 3.46 3.682 1.955.045 3.578-1.529 3.622-3.516a2.297 2.297 0 0 0 0-.166V91.201c-.005-5.464-4.367-9.89-9.744-9.895ZM88.813 43.857c3.765 0 6.817-3.102 6.817-6.929 0-3.826-3.052-6.928-6.817-6.928-3.766 0-6.818 3.102-6.818 6.928 0 3.827 3.052 6.929 6.818 6.929Zm8.14 3.431H81.728c-5.376.006-9.733 4.434-9.739 9.897V76.59c-.045 1.987 1.504 3.635 3.46 3.68 1.955.047 3.577-1.527 3.622-3.515.002-.055.002-.11 0-.166V59.186h2.132v53.113c-.045 1.987 1.504 3.636 3.46 3.681 1.955.046 3.577-1.528 3.622-3.515a2.418 2.418 0 0 0 0-.166V82.787h2.123V112.3c-.045 1.987 1.504 3.635 3.46 3.681 1.955.046 3.577-1.528 3.622-3.516.002-.055.002-.11 0-.166V59.182h2.126v17.403c-.045 1.987 1.504 3.636 3.459 3.681 1.956.046 3.578-1.528 3.623-3.515.002-.056.002-.11 0-.166V57.183c-.006-5.465-4.367-9.891-9.745-9.895Z"/></g></symbol><symbol xmlns="http://www.w3.org/2000/svg" id="internship-benefits-3" fill="none" viewBox="0 0 181 180"><path fill="url(#a)" d="M35.983 161.609A90.001 90.001 0 0 1 92.37.019a89.997 89.997 0 0 1 84.264 63.885 90 90 0 0 1-34.639 99.908l-8.938-12.811a74.382 74.382 0 0 0 28.627-82.568 74.385 74.385 0 0 0-69.638-52.796A74.38 74.38 0 0 0 45.445 149.18l-9.462 12.429Z"/><path fill="#FCFCFC" d="M134.767 38v40.624h4.4V38h-4.4Zm-4.4 3.198-22.831 8.62 22.831 9.649V41.198Zm-2.934 41.858v23.636h-23.466v23.636H80.5v19.229c25.007.049 41.018.271 66 .443V83.056h-19.067ZM72.784 66.85C71.206 74.286 65.517 79.5 59 79.5c-6.516 0-12.205-5.214-13.783-12.65l-1.375-6.407c-.657-3.14-3.376-5.049-6.064-4.26-2.688.79-4.297 3.966-3.625 7.124l1.36 6.407C37.23 77.793 41.793 84.33 47.748 88v56.125c0 3.25 2.234 5.875 5 5.875 2.767 0 5.001-2.625 5.001-5.875v-23.5h2.5v23.5c0 3.25 2.236 5.875 5.002 5.875 2.766 0 5-2.625 5-5.875V88c5.956-3.67 10.519-10.207 12.239-18.285l1.36-6.408c.671-3.14-.954-6.334-3.642-7.123-2.688-.79-5.391 1.12-6.048 4.259L72.8 66.85h-.015ZM59 73.625c1.99 0 3.898-.928 5.305-2.581 1.406-1.653 2.197-3.894 2.197-6.231 0-2.338-.79-4.58-2.197-6.232C62.898 56.928 60.99 56 59 56c-1.989 0-3.897.928-5.304 2.581-1.407 1.653-2.197 3.894-2.197 6.231 0 2.338.79 4.58 2.197 6.232 1.407 1.653 3.315 2.581 5.305 2.581Z"/></symbol><symbol xmlns="http://www.w3.org/2000/svg" id="internship-benefits-4" fill="none" viewBox="0 0 181 180"><path fill="url(#a)" d="M35.983 161.609A90.001 90.001 0 0 1 92.37.019a89.997 89.997 0 0 1 84.264 63.885 90 90 0 0 1-34.639 99.908l-8.938-12.811a74.382 74.382 0 0 0 28.627-82.568 74.385 74.385 0 0 0-69.638-52.796A74.38 74.38 0 0 0 45.445 149.18l-9.462 12.429Z"/><g clip-path="url(#b)"><path fill="#FCFCFC" d="M47.38 79.727a6.813 6.813 0 1 0 0-13.626 6.813 6.813 0 0 0 0 13.626Zm7.608 2.724H39.775a9.742 9.742 0 0 0-9.732 9.73v19.082a3.54 3.54 0 1 0 7.077 0V94.15h2.125v52.229a3.54 3.54 0 1 0 7.077-.001v-29.019h2.12v29.02a3.54 3.54 0 1 0 7.078 0V94.147h2.125v17.113a3.54 3.54 0 1 0 7.077 0V92.181c-.006-5.372-4.36-9.724-9.734-9.73Zm77.632-2.724a6.813 6.813 0 1 0 0-13.626 6.813 6.813 0 0 0 0 13.626Zm7.598 2.724h-15.215c-5.371.006-9.726 4.36-9.732 9.732v19.08a3.539 3.539 0 0 0 3.458 3.62 3.538 3.538 0 0 0 3.619-3.62V94.15h2.131v52.229a3.54 3.54 0 1 0 7.077-.001v-29.019h2.121v29.02a3.54 3.54 0 1 0 7.077 0V94.147h2.125v17.113a3.54 3.54 0 1 0 7.077 0V92.181c-.006-5.373-4.364-9.726-9.738-9.73Z"/><path fill="#000" d="M96.328 80.454H83.651a1.445 1.445 0 0 1 0-2.89h12.677a1.445 1.445 0 0 1 0 2.89Zm0 4.145H83.651a1.445 1.445 0 0 1 0-2.89h12.677a1.445 1.445 0 0 1 0 2.89Z"/><path fill="#FCFCFC" d="M82.986 86.337a7.576 7.576 0 0 0 7.004 3.622 7.577 7.577 0 0 0 7.004-3.622H82.986Zm7.006-44.354c-12.386.01-18.604 12.615-12.91 21.146 5.405 8.099 4.958 12.69 4.958 12.69h15.907s-.45-4.597 4.954-12.69c5.695-8.532-.531-21.137-12.91-21.146Z"/><path fill="#FCFCFC" d="M90.002 41.979h-.005v.005h.005v-.005Zm.001-2.352a1.444 1.444 0 0 1-1.444-1.444v-6.738a1.445 1.445 0 0 1 2.889 0v6.747a1.442 1.442 0 0 1-1.445 1.435ZM70.749 61.769h-6.746a1.444 1.444 0 1 1 0-2.89h6.748a1.444 1.444 0 1 1-.002 2.89c.002 0 .002 0 0 0Zm45.247 0h-6.746a1.444 1.444 0 1 1 0-2.89h6.748a1.444 1.444 0 1 1-.002 2.89c.002 0 .002 0 0 0Zm-41.65-15.655a1.44 1.44 0 0 1-1.021-.423l-4.765-4.767a1.445 1.445 0 0 1 2.042-2.042l4.765 4.764a1.444 1.444 0 0 1-1.02 2.468Zm31.314 0a1.445 1.445 0 0 1-1.022-2.466l4.765-4.767a1.446 1.446 0 1 1 2.043 2.043l-4.767 4.765a1.432 1.432 0 0 1-1.019.425Z"/></g></symbol><symbol xmlns="http://www.w3.org/2000/svg" id="internship-benefits-5" fill="none" viewBox="0 0 181 180"><path fill="url(#a)" d="M35.983 161.609A90.001 90.001 0 0 1 92.37.019a89.997 89.997 0 0 1 84.264 63.885 90 90 0 0 1-34.639 99.908l-8.938-12.811a74.382 74.382 0 0 0 28.627-82.568 74.385 74.385 0 0 0-69.638-52.796A74.38 74.38 0 0 0 45.445 149.18l-9.462 12.429Z"/><g fill="#FCFCFC" clip-path="url(#b)"><path d="M142 132.119H38V54h104v78.119Zm-97.906-6.226h91.812V60.226H44.094v65.667Z"/><path d="m75.997 152.913-4.628-4.053c4.47-5.331 4.47-12.497 0-17.828l4.628-4.051c6.404 7.632 6.404 18.297 0 25.932Zm28.006 0c-6.404-7.635-6.404-18.3 0-25.94l4.628 4.05c-4.469 5.332-4.469 12.497 0 17.828l-4.628 4.062Z"/><path d="M117.538 147.774H62.464V154h55.074v-6.226Zm-18.371-40.661H50.238v-40.61h48.929v40.61Zm-42.835-6.226h36.741V72.729H56.332v28.158Zm73.444 12.503h-79.55v6.226h79.55v-6.226Z"/><path d="m75.227 105.727-9.704-14.871-9.703 14.871-5.07-3.454 14.773-22.64 14.774 22.64-5.07 3.454Z"/><path d="m93.715 105.913-12.533-16.44-5.85 8.712-5.025-3.521L80.87 78.93l17.653 23.156-4.808 3.826Zm36.046-11.303h-24.45V66.502h24.45v28.106Zm-18.357-6.226h12.263V72.728h-12.263v15.656Zm18.37 12.503h-24.477v6.226h24.477v-6.226Z"/></g></symbol><symbol xmlns="http://www.w3.org/2000/svg" id="internship-benefits-6" fill="none" viewBox="0 0 181 180"><path fill="url(#a)" d="M35.983 161.609A90.001 90.001 0 0 1 92.37.019a89.997 89.997 0 0 1 84.264 63.885 90 90 0 0 1-34.639 99.908l-8.938-12.811a74.382 74.382 0 0 0 28.627-82.568 74.385 74.385 0 0 0-69.638-52.796A74.38 74.38 0 0 0 45.445 149.18l-9.462 12.429Z"/><g fill="#FCFCFC" clip-path="url(#b)"><path d="M100.872 104.836c-3.213-.808-5.827-2.597-5.827-2.597l-2.042 6.32-.374 1.2v-.024l-.324 1.004-1.07-2.988c2.714-3.723-.722-3.577-.722-3.577s-3.437-.146-.723 3.577l-1.07 3.013-.324-1.029-2.416-7.52s-2.614 1.813-5.827 2.596c-1.593.392-2.191 1.74-2.365 2.989 2.888 3.895 7.52 6.32 12.675 6.32 1.17 0 2.365-.123 3.536-.392 3.76-.858 6.997-2.964 9.213-6.002-.174-1.2-.771-2.498-2.34-2.89ZM90.513 78.674c.632 0 1.145-.504 1.145-1.126 0-.623-.513-1.127-1.145-1.127-.633 0-1.146.504-1.146 1.127 0 .622.513 1.126 1.146 1.126Zm0 3.283c.632 0 1.145-.505 1.145-1.127s-.513-1.127-1.145-1.127c-.633 0-1.146.505-1.146 1.127s.513 1.127 1.146 1.127Zm0-16.412c.622 0 1.145-.515 1.145-1.127s-.523-1.127-1.145-1.127c-.623 0-1.146.515-1.146 1.127s.523 1.127 1.146 1.127Zm0 3.282c.632 0 1.145-.504 1.145-1.127 0-.622-.513-1.126-1.145-1.126-.633 0-1.146.504-1.146 1.126 0 .623.513 1.127 1.146 1.127Zm0 3.283c.632 0 1.145-.505 1.145-1.127s-.513-1.127-1.145-1.127c-.633 0-1.146.505-1.146 1.127s.513 1.127 1.146 1.127Zm0 3.282c.1 0 .199-.024.274-.049.498-.122.871-.563.871-1.078 0-.612-.523-1.127-1.145-1.127-.623 0-1.146.515-1.146 1.127 0 .613.523 1.127 1.146 1.127Zm0 57.565c.632 0 1.145-.505 1.145-1.127s-.513-1.127-1.145-1.127c-.633 0-1.146.505-1.146 1.127s.513 1.127 1.146 1.127Zm0 3.282c.632 0 1.145-.504 1.145-1.127 0-.622-.513-1.127-1.145-1.127-.633 0-1.146.505-1.146 1.127 0 .623.513 1.127 1.146 1.127Zm0-16.437c.622 0 1.145-.514 1.145-1.126 0-.613-.523-1.127-1.145-1.127-.623 0-1.146.514-1.146 1.127 0 .636.498 1.126 1.146 1.126Zm0 3.308c.632 0 1.145-.505 1.145-1.127 0-.623-.513-1.127-1.145-1.127-.633 0-1.146.504-1.146 1.127 0 .622.513 1.127 1.146 1.127Zm0 3.282c.632 0 1.145-.505 1.145-1.127s-.513-1.127-1.145-1.127c-.633 0-1.146.505-1.146 1.127s.513 1.127 1.146 1.127Zm-.224 3.258c.074.024.149.024.224.024.074 0 .15 0 .224-.024.523-.098.921-.564.921-1.102 0-.613-.523-1.127-1.145-1.127-.623 0-1.146.514-1.146 1.127 0 .538.399.979.922 1.102Zm26.245-16.829a1.141 1.141 0 0 0-1.544.49c-.298.564-.074 1.225.498 1.519a1.194 1.194 0 0 0 1.42-.294.534.534 0 0 0 .124-.196c.025-.074.075-.147.075-.221.149-.489-.1-1.028-.573-1.298Zm2.441 3.626c.633 0 1.146-.505 1.146-1.127s-.513-1.127-1.146-1.127c-.633 0-1.145.505-1.145 1.127s.512 1.127 1.145 1.127Zm2.988 1.494c.633 0 1.146-.504 1.146-1.127 0-.622-.513-1.126-1.146-1.126-.632 0-1.145.504-1.145 1.126 0 .623.513 1.127 1.145 1.127Zm-14.368-9.578a1.185 1.185 0 0 0-1.544.49 1.125 1.125 0 0 0 .498 1.519 1.141 1.141 0 0 0 1.544-.49c.298-.564.074-1.225-.498-1.519Zm2.465 3.625c.633 0 1.146-.504 1.146-1.126 0-.623-.513-1.127-1.146-1.127-.633 0-1.145.504-1.145 1.127 0 .622.512 1.126 1.145 1.126Zm2.963 1.495c.633 0 1.146-.505 1.146-1.127 0-.623-.513-1.127-1.146-1.127-.632 0-1.145.504-1.145 1.127 0 .622.513 1.127 1.145 1.127Zm-48.533-.661c-.573.293-.797.955-.499 1.518.025.074.075.123.125.196.324.417.921.539 1.42.294.572-.269.796-.955.497-1.519a1.193 1.193 0 0 0-1.544-.489Zm-2.466 3.625c.633 0 1.146-.505 1.146-1.127s-.513-1.127-1.146-1.127c-.632 0-1.145.505-1.145 1.127s.513 1.127 1.145 1.127Zm-2.963 1.494c.633 0 1.145-.504 1.145-1.127 0-.622-.512-1.126-1.145-1.126s-1.145.504-1.145 1.126c0 .623.512 1.127 1.145 1.127Zm14.343-9.578c-.572.294-.796.955-.498 1.519.274.563.972.784 1.544.49.573-.27.797-.956.498-1.519a1.185 1.185 0 0 0-1.544-.49Zm-2.44 3.625c.633 0 1.145-.504 1.145-1.126 0-.623-.512-1.127-1.145-1.127s-1.146.504-1.146 1.127c0 .622.513 1.126 1.146 1.126Zm-2.988 1.495c.633 0 1.145-.505 1.145-1.127 0-.623-.512-1.127-1.145-1.127s-1.145.504-1.145 1.127c0 .622.512 1.127 1.145 1.127ZM65.536 84.7a1.194 1.194 0 0 0-1.42.294.532.532 0 0 0-.124.196c-.025.074-.075.147-.075.22-.15.515.1 1.054.573 1.3a1.186 1.186 0 0 0 1.544-.49 1.147 1.147 0 0 0-.498-1.52Zm-3.487.637c.632 0 1.145-.504 1.145-1.127 0-.622-.513-1.126-1.145-1.126-.633 0-1.146.504-1.146 1.126 0 .623.513 1.127 1.146 1.127Zm-2.988-1.47c.633 0 1.145-.504 1.145-1.126 0-.623-.512-1.127-1.145-1.127s-1.145.504-1.145 1.127c0 .622.512 1.126 1.145 1.126Zm15.389 5.316a1.14 1.14 0 0 0-1.543.49 1.125 1.125 0 0 0 .498 1.519c.572.27 1.245.049 1.544-.49a1.105 1.105 0 0 0-.498-1.519Zm-3.486.637c.633 0 1.145-.505 1.145-1.127s-.512-1.127-1.145-1.127-1.146.505-1.146 1.127.513 1.127 1.146 1.127Zm-2.988-1.494c.633 0 1.145-.505 1.145-1.127s-.512-1.127-1.145-1.127-1.145.505-1.145 1.127.512 1.127 1.145 1.127Zm48.932-3.307c-.324-.416-.922-.539-1.42-.294a1.1 1.1 0 0 0-.498 1.519c.274.563.972.784 1.544.49a1.1 1.1 0 0 0 .498-1.52.53.53 0 0 0-.124-.195Zm2.067.318c.633 0 1.146-.504 1.146-1.127 0-.622-.513-1.126-1.146-1.126-.633 0-1.145.504-1.145 1.126 0 .623.512 1.127 1.145 1.127Zm2.988-1.47c.633 0 1.146-.504 1.146-1.126 0-.623-.513-1.127-1.146-1.127-.632 0-1.145.504-1.145 1.127 0 .622.513 1.126 1.145 1.126Zm-15.389 5.316c-.573.27-.797.955-.498 1.519.274.563.971.784 1.544.49.572-.294.797-.956.498-1.52a1.14 1.14 0 0 0-1.544-.489Zm3.486.637c.633 0 1.146-.505 1.146-1.127s-.513-1.127-1.146-1.127c-.633 0-1.145.505-1.145 1.127s.512 1.127 1.145 1.127Zm2.988-1.494c.633 0 1.146-.505 1.146-1.127s-.513-1.127-1.146-1.127c-.632 0-1.145.505-1.145 1.127s.513 1.127 1.145 1.127ZM99.601 57.07a2.712 2.712 0 0 0-.547-.515 30.998 30.998 0 0 0-5.205-3.184c-.05-.025-.1-.099-.1-.148v-1.42c.499-.662.797-1.396.897-2.058.224-.024.548-.343.871-1.494.449-1.568-.024-1.788-.423-1.764.075-.22.125-.44.175-.637.697-4.066-1.345-4.188-1.345-4.188s-.349-.637-1.22-1.127c-.598-.343-1.42-.613-2.515-.515-.35.025-.698.074-.997.196a3.565 3.565 0 0 0-1.095.564 5.764 5.764 0 0 0-1.146.93c-.548.54-1.02 1.25-1.22 2.107-.174.662-.124 1.323 0 2.058.05.22.1.416.174.637-.398-.05-.896.196-.423 1.763.324 1.152.647 1.47.872 1.495.1.661.423 1.42.896 2.082v1.347c0 .074-.025.123-.1.147-.498.245-2.863 1.42-5.204 3.184-.2.147-.374.319-.548.515a14.228 14.228 0 0 0 9.09 3.258 14.09 14.09 0 0 0 9.113-3.234Zm-.548 99.133a31.007 31.007 0 0 0-5.204-3.184c-.05-.025-.1-.098-.1-.147v-1.421c.498-.661.797-1.396.897-2.057.224-.025.548-.343.871-1.495.449-1.567-.024-1.788-.423-1.763.075-.221.125-.441.174-.637.698-4.067-1.344-4.189-1.344-4.189s-.349-.637-1.22-1.127c-.598-.343-1.42-.612-2.516-.514-.348.024-.697.073-.996.196a3.55 3.55 0 0 0-1.095.563 5.78 5.78 0 0 0-1.146.931c-.548.539-1.02 1.249-1.22 2.107-.174.661-.125 1.322 0 2.057.05.221.1.417.174.637-.398-.049-.896.196-.423 1.764.324 1.151.647 1.47.871 1.494.1.661.424 1.421.897 2.082v1.396c0 .074-.025.123-.1.147-.498.245-2.863 1.421-5.204 3.185-.2.147-.374.318-.548.514a14.23 14.23 0 0 0 9.09 3.258 14.23 14.23 0 0 0 9.088-3.258c-.124-.22-.323-.392-.523-.539Zm44.924-33.338a30.98 30.98 0 0 0-5.204-3.185c-.05-.024-.1-.098-.1-.147v-1.421c.498-.661.797-1.396.897-2.057.224-.025.547-.343.871-1.494.448-1.568-.025-1.789-.423-1.764.075-.221.124-.441.174-.637.697-4.066-1.345-4.189-1.345-4.189s-.348-.637-1.22-1.127c-.597-.342-1.419-.612-2.515-.514-.348.025-.697.074-.996.196a3.56 3.56 0 0 0-1.096.563 5.802 5.802 0 0 0-1.145.931c-.548.539-1.021 1.25-1.22 2.107-.175.661-.125 1.323 0 2.058.05.22.099.416.174.636-.398-.049-.896.196-.423 1.764.323 1.151.647 1.47.871 1.494.1.662.424 1.421.897 2.082v1.397c0 .073-.025.122-.1.147-.498.245-2.864 1.42-5.204 3.184-.2.147-.374.319-.548.515a14.228 14.228 0 0 0 9.089 3.257c3.461 0 6.624-1.224 9.089-3.257a2.167 2.167 0 0 0-.523-.539Zm.523-38.067a2.682 2.682 0 0 0-.548-.514 30.969 30.969 0 0 0-5.204-3.184c-.05-.025-.1-.099-.1-.147v-1.421c.498-.662.797-1.397.897-2.058.224-.024.548-.343.871-1.494.449-1.568-.025-1.788-.423-1.764.075-.22.124-.44.174-.637.698-4.066-1.344-4.188-1.344-4.188s-.349-.637-1.221-1.127c-.597-.343-1.419-.613-2.515-.515-.348.025-.697.074-.996.196a3.558 3.558 0 0 0-1.095.564 5.76 5.76 0 0 0-1.146.93c-.548.54-1.021 1.25-1.22 2.107-.174.662-.125 1.323 0 2.058.05.22.099.416.174.637-.398-.05-.896.196-.423 1.763.324 1.152.647 1.47.871 1.495.1.661.424 1.42.897 2.082v1.396c0 .073-.025.123-.1.147-.498.245-2.863 1.42-5.204 3.184a3.578 3.578 0 0 0-.548.515 14.228 14.228 0 0 0 9.089 3.258c3.486-.025 6.674-1.25 9.114-3.283Zm-90.344 38.067a30.972 30.972 0 0 0-5.205-3.185c-.05-.024-.1-.098-.1-.147v-1.421c.498-.661.797-1.396.897-2.057.224-.025.548-.343.871-1.494.449-1.568-.025-1.789-.423-1.764.075-.221.125-.441.174-.637.698-4.066-1.344-4.189-1.344-4.189s-.349-.637-1.22-1.127c-.598-.342-1.42-.612-2.516-.514-.348.025-.697.074-.996.196a3.55 3.55 0 0 0-1.095.563 5.785 5.785 0 0 0-1.146.931c-.548.539-1.02 1.25-1.22 2.107-.174.661-.125 1.323 0 2.058.05.22.1.416.174.636-.398-.049-.896.196-.423 1.764.324 1.151.647 1.47.871 1.494.1.662.424 1.421.897 2.082v1.397c0 .073-.025.122-.1.147-.498.245-2.863 1.42-5.204 3.184a3.58 3.58 0 0 0-.548.515 14.228 14.228 0 0 0 9.09 3.257c3.46 0 6.623-1.224 9.088-3.257a2.17 2.17 0 0 0-.522-.539Zm0-38.581A31.017 31.017 0 0 0 48.95 81.1c-.05-.025-.1-.098-.1-.147v-1.421c.498-.661.797-1.396.897-2.058.224-.024.548-.343.871-1.494.449-1.568-.025-1.788-.423-1.764.075-.22.125-.44.174-.637.698-4.066-1.344-4.188-1.344-4.188s-.349-.637-1.22-1.127c-.598-.343-1.42-.612-2.516-.514-.348.024-.697.073-.996.195a3.565 3.565 0 0 0-1.095.564 5.767 5.767 0 0 0-1.146.93c-.548.54-1.02 1.25-1.22 2.107-.174.662-.125 1.323 0 2.058.05.22.1.416.174.637-.398-.05-.896.196-.423 1.763.324 1.152.647 1.47.871 1.495.1.661.424 1.42.897 2.082v1.396c0 .074-.025.123-.1.147-.498.245-2.863 1.42-5.204 3.184-.2.147-.374.319-.548.515a14.228 14.228 0 0 0 9.09 3.258c3.46 0 6.623-1.225 9.088-3.258a2.18 2.18 0 0 0-.522-.539Z"/><path d="M83.963 96.066c.423 1.495.821 1.911 1.12 1.936.274 1.763 1.668 4.017 3.96 4.825a4.479 4.479 0 0 0 2.888 0c2.241-.808 3.686-3.037 3.96-4.825.298-.025.697-.441 1.12-1.936.598-2.033-.025-2.351-.573-2.302.1-.27.175-.564.224-.833.897-5.291-1.743-5.462-1.743-5.462s-.448-.833-1.593-1.446c-.772-.44-1.843-.808-3.263-.686a4.49 4.49 0 0 0-1.294.245 6.072 6.072 0 0 0-1.445.71 8.47 8.47 0 0 0-1.469 1.2c-.697.711-1.32 1.618-1.594 2.745-.224.857-.174 1.739 0 2.694.05.27.125.563.224.833-.473-.025-1.095.27-.522 2.302Z"/></g></symbol><symbol xmlns="http://www.w3.org/2000/svg" id="intl-select-arrow" fill="none" viewBox="0 0 15 9"><path stroke="#FCFCFC" stroke-linecap="round" stroke-linejoin="round" stroke-width="1.5" d="M.75 1 7.5 7.75 14.25 1"/></symbol><symbol xmlns="http://www.w3.org/2000/svg" id="linkedin" viewBox="0 0 48 49"><g clip-path="url(#a)"><path d="M48 24.5c0-13.255-10.745-24-24-24S0 11.245 0 24.5s10.745 24 24 24 24-10.745 24-24Z"/><path fill="#240529" d="M18.928 15.038c0 1.402-1.215 2.538-2.714 2.538-1.499 0-2.714-1.136-2.714-2.538s1.215-2.538 2.714-2.538c1.499 0 2.714 1.136 2.714 2.538Zm-5.057 4.404h4.64V33.5h-4.64V19.442Zm12.108 0h-4.64V33.5h4.64v-7.193c0-1.66.567-3.329 2.83-3.329 2.557 0 2.542 2.174 2.53 3.858-.016 2.2.021 4.447.021 6.664H36v-7.42c-.04-4.737-1.274-6.92-5.335-6.92-2.412 0-3.907 1.095-4.686 2.086v-1.804Z"/></g></symbol><symbol xmlns="http://www.w3.org/2000/svg" id="logo" viewBox="0 0 121 121"><path fill-rule="evenodd" d="M68.174 100.486c24.398-4.39 40.357-28.938 35.704-54.915C99.222 19.597 75.705 1.97 51.269 6.139c-8.734 1.495-16.79 5.699-23.164 12.084a43.887 43.887 0 0 1 20.288-9.235c24.444-4.167 47.846 12.76 52.351 37.863 4.507 25.104-11.58 48.94-35.987 53.321a43.862 43.862 0 0 1-9.368.639c4.271.536 8.575.426 12.785-.325Z" clip-rule="evenodd"/><path fill-rule="evenodd" d="M76.766 100.493c27.711-4.96 46.139-31.057 41.226-58.381-4.916-27.326-31.324-45.593-59.075-40.868-9.918 1.695-19.136 6.411-26.448 13.23 6.73-5.124 14.708-8.74 23.15-10.187 27.758-4.723 54.046 12.807 58.805 39.215 4.757 26.408-13.805 51.757-41.526 56.705a53.678 53.678 0 0 1-10.625.8c4.831.507 9.711.334 14.493-.514Z" clip-rule="evenodd"/><path fill-rule="evenodd" d="M72.923 100.396c25.775-4.627 42.746-29.912 37.965-56.56-4.785-26.647-29.517-44.63-55.333-40.23-9.226 1.58-17.751 5.8-24.511 12.389 6.229-4.94 13.609-8.1 21.463-9.448 25.821-4.398 50.438 12.864 55.068 38.618 4.629 25.755-12.473 50.308-38.256 54.925a47.8 47.8 0 0 1-9.894.703c4.506.528 9.05.396 13.498-.397Z" clip-rule="evenodd"/><path fill-rule="evenodd" d="M94.752 37.457c-16.205-18.499-45.771-19.617-66.14-2.5C8.244 52.074 4.737 80.984 20.77 99.628c5.734 6.66 13.495 11.375 22.31 13.552-7.162-2.569-13.475-6.886-18.361-12.554-16.03-18.652-13.081-47.107 6.598-63.657 19.684-16.548 48.691-14.962 64.89 3.549a42.702 42.702 0 0 1 5.308 7.634 41.238 41.238 0 0 0-6.763-10.695Z" clip-rule="evenodd"/><path fill-rule="evenodd" d="M90.403 30.156C72.023 9.13 39.85 6.701 18.433 24.722c-21.416 18.02-24.018 49.711-5.821 70.89 6.509 7.566 15.294 12.888 24.964 15.643-7.89-3.119-15.088-7.945-20.632-14.384-18.198-21.187-16.18-52.4 4.514-69.823 20.693-17.424 52.279-14.5 70.655 6.537a52.039 52.039 0 0 1 6.083 8.621 50.356 50.356 0 0 0-7.793-12.05Z" clip-rule="evenodd"/><path fill-rule="evenodd" d="M92.268 33.47c-17.113-19.55-47.836-21.153-68.726-3.588C2.651 47.447-.55 77.57 16.382 97.269c6.057 7.038 13.668 11.934 22.857 14.337-7.48-2.787-13.582-7.248-18.739-13.236C3.565 78.664 6.197 49.005 26.382 32.022 46.57 15.04 76.72 17.125 93.826 36.687a46.295 46.295 0 0 1 5.625 8.047 44.775 44.775 0 0 0-7.183-11.265Z" clip-rule="evenodd"/><path fill-rule="evenodd" d="M26.353 44.469c-9.042 22.755 3.752 49.04 28.622 58.803 24.867 9.762 52.455-.674 61.709-23.345 3.301-8.105 3.911-17.069 1.753-25.767 1.034 7.442.108 14.958-2.702 21.859-9.26 22.675-36.178 33.384-60.217 23.956-24.039-9.429-36.152-35.448-27.096-58.204a42.353 42.353 0 0 1 4.375-8.187 41.198 41.198 0 0 0-6.444 10.885Z" clip-rule="evenodd"/><path fill-rule="evenodd" d="M21.829 51.665c-10.296 25.829 2.539 55.001 28.71 65.255 26.17 10.254 55.827-2.267 66.345-28.01 3.755-9.202 4.565-19.552 2.526-29.264.879 8.332-.224 17.064-3.416 24.9-10.525 25.748-39.483 38.555-64.78 28.653-25.297-9.904-37.413-38.793-27.104-64.624a51.802 51.802 0 0 1 4.897-9.326 50.233 50.233 0 0 0-7.178 12.416Z" clip-rule="evenodd"/><path fill-rule="evenodd" d="M23.935 48.494c-9.564 24.035 3.334 51.556 28.85 61.566 25.517 10.008 54.05-1.261 63.83-25.209 3.488-8.561 4.331-17.95 2.201-27.077.984 7.817-.169 15.686-3.135 22.976-9.788 23.952-37.636 35.501-62.301 25.835-24.665-9.668-36.862-36.914-27.288-60.95a46.201 46.201 0 0 1 4.6-8.658 44.66 44.66 0 0 0-6.757 11.517Z" clip-rule="evenodd"/><path fill-rule="evenodd" d="m35.18 39.792.166-.164h6.674l.166.164v.37c0 1.694-1.036 3.079-2.41 3.846 1.652.763 2.647 2.4 2.647 4.02v.37l-.165.163h-6.913l-.165-.163v-8.606Zm.331.163v8.28h6.58v-.207c0-1.592-1.045-3.212-2.76-3.851l-.014-.3c1.439-.681 2.537-2.045 2.537-3.715v-.207h-6.343Zm.89.934.167-.164h4.066l.165.181c-.198 1.805-1.977 2.823-3.434 2.823h-.797l-.166-.163v-2.677Zm.332.163v2.35h.632c1.291 0 2.808-.87 3.078-2.35h-3.71Zm-.331 3.572.166-.164h1c1.682 0 3.228 1.208 3.479 2.821l-.164.188h-4.315l-.166-.163v-2.682Zm.331.163v2.355h3.95c-.31-1.346-1.649-2.355-3.115-2.355h-.834Z" clip-rule="evenodd"/><path d="M39.387 44.022c1.485-.701 2.633-2.115 2.633-3.861v-.37h-6.676v8.607h6.912v-.37c0-1.659-1.084-3.343-2.869-4.006Zm1.247-3.136c-.187 1.697-1.871 2.68-3.268 2.68h-.8v-2.68h4.068Zm-4.067 3.738h.998c1.61 0 3.082 1.155 3.32 2.68h-4.318v-2.68Z"/><path fill-rule="evenodd" d="m46.257 39.85.155-.222h1.371l.155.105 3.368 8.606-.154.222H49.78l-.154-.104-.415-1.05-5.998 1.287-.2-.144a8.643 8.643 0 0 1-.05-.79c0-2.757 1.74-4.998 4.186-5.621l-.893-2.289Zm.396.105.874 2.24-.119.219c-2.38.518-4.112 2.66-4.112 5.345 0 .18.014.377.031.577l5.954-1.278.19.1.424 1.077h1.015l-3.24-8.28h-1.017ZM44.671 46.9l4.011-.86-.979-2.507c-1.723.356-2.882 1.672-3.032 3.367Zm-.345.2c.076-1.992 1.429-3.56 3.453-3.915l.184.103L49.06 46.1l-.12.218-4.414.946-.2-.166Z" clip-rule="evenodd"/><path d="m51.153 48.398-3.369-8.607h-1.372l.96 2.46c-2.458.54-4.242 2.753-4.242 5.508 0 .245.024.516.05.774l6.138-1.315.463 1.18h1.372Zm-6.663-1.291c.075-1.917 1.373-3.418 3.32-3.762l1.097 2.815-4.417.947Z"/><path fill-rule="evenodd" d="m51.888 39.791.166-.163h7.11l.166.163v1.18l-.043.11-5.443 5.974h5.38l.167.163v1.18l-.166.163h-7.3l-.166-.163v-1.18l.043-.11 5.443-5.973h-5.191l-.166-.163v-1.18Zm.332.164v.853h5.396l.123.273-5.648 6.2v.954h6.968v-.854h-5.586l-.124-.272 5.65-6.2v-.954h-6.78Z" clip-rule="evenodd"/><path d="M51.927 48.398h7.299v-1.18h-5.752l5.69-6.247v-1.18h-7.113v1.18h5.565l-5.69 6.247v1.18Z"/><path fill-rule="evenodd" d="m63.102 39.85.155-.222h1.37l.154.105 3.371 8.606-.154.222h-1.371l-.155-.104-.414-1.05-5.998 1.287-.2-.144a8.608 8.608 0 0 1-.05-.79c0-2.757 1.74-4.998 4.183-5.621l-.891-2.289Zm.396.105.872 2.24-.119.219c-2.376.518-4.11 2.66-4.11 5.345 0 .18.015.377.032.577l5.953-1.278.19.1.424 1.077h1.016l-3.244-8.28h-1.014ZM61.516 46.9l4.01-.86-.98-2.507c-1.72.356-2.88 1.672-3.03 3.367Zm-.345.2c.077-1.992 1.43-3.56 3.45-3.915l.185.103 1.1 2.813-.12.218-4.414.946-.201-.166Z" clip-rule="evenodd"/><path d="m67.998 48.398-3.37-8.606h-1.371l.96 2.458c-2.458.542-4.242 2.754-4.242 5.51 0 .244.024.515.049.773l6.139-1.315.463 1.18h1.372Zm-6.664-1.291c.076-1.917 1.373-3.418 3.32-3.762l1.098 2.815-4.418.947Z"/><path fill-rule="evenodd" d="m34.244 55.16.166-.163h7.483l.166.163v1.18l-.166.163h-2.954v7.263l-.165.164h-1.246l-.166-.164v-7.263H34.41l-.166-.163v-1.18Zm.332.163v.854h2.952l.166.163v7.263h.914V56.34l.166-.163h2.953v-.854h-7.151Z" clip-rule="evenodd"/><path d="M41.895 55.16H34.41v1.18h3.119v7.425h1.247V56.34h3.12v-1.18Z"/><path fill-rule="evenodd" d="m43.04 55.16.165-.163h6.734l.166.163v.37c0 1.946-.98 3.434-2.472 4.3l3.1 3.835-.13.265h-1.525l-.13-.063-2.737-3.445a7.737 7.737 0 0 1-1.617.245v3.1l-.166.163h-1.223l-.166-.164V55.16Zm.331.163v8.28h.891v-3.094l.162-.163a7.406 7.406 0 0 0 1.805-.267l.175.056 2.755 3.468h1.1l-3.007-3.718.051-.246c1.488-.797 2.47-2.217 2.47-4.108v-.208h-6.402Zm.891.91.166-.163h4.215l.163.188c-.325 2.02-2.016 3.298-4.378 3.298l-.166-.163v-3.16Zm.332.163v2.831c2.063-.055 3.492-1.151 3.85-2.83h-3.85Z" clip-rule="evenodd"/><path d="M49.082 63.765h1.522l-3.22-3.982c1.536-.825 2.56-2.3 2.56-4.255v-.368h-6.739v8.605h1.223v-3.257a7.536 7.536 0 0 0 1.847-.27l2.807 3.527Zm-4.654-4.376v-3.16h4.217c-.311 1.93-1.92 3.16-4.217 3.16Z"/><path fill-rule="evenodd" d="m53.98 55.219.155-.222h1.37l.155.104 3.372 8.607-.155.222h-1.37l-.155-.105-.414-1.05-5.998 1.288-.2-.145a8.594 8.594 0 0 1-.05-.79c0-2.756 1.74-4.998 4.183-5.62l-.893-2.29Zm.396.104.875 2.24-.12.22c-2.377.517-4.11 2.66-4.11 5.345 0 .18.014.377.032.576l5.953-1.277.19.1.424 1.076h1.015l-3.243-8.28h-1.016Zm-1.98 6.946 4.009-.86-.978-2.508c-1.721.357-2.881 1.673-3.032 3.368Zm-.346.2c.077-1.993 1.43-3.56 3.453-3.915l.183.102 1.098 2.814-.12.218-4.413.946-.2-.166Z" clip-rule="evenodd"/><path d="m58.877 63.765-3.369-8.605h-1.373l.961 2.459c-2.458.54-4.242 2.754-4.242 5.507 0 .247.025.517.05.775l6.138-1.316.462 1.18h1.373Zm-6.663-1.29c.075-1.918 1.372-3.418 3.319-3.763l1.097 2.816-4.416.947Z"/><path fill-rule="evenodd" d="m60.047 55.16.166-.163h1.248l.165.163v8.606l-.165.164h-1.248l-.166-.164V55.16Zm.332.163v8.28h.916v-8.28h-.916Z" clip-rule="evenodd"/><path d="M60.212 55.16h1.247v8.605h-1.247V55.16Z"/><path fill-rule="evenodd" d="m63.54 55.16.166-.163h1.247l.122.053 4.83 5.186V55.16l.165-.163h1.246l.166.163v8.606l-.166.164H70.07l-.166-.164v-1.384l-4.785-5.13v6.514l-.166.164h-1.247l-.166-.164V55.16Zm.332.163v8.28h.915v-6.77l.288-.111 5.117 5.486.044.11v1.285h.914v-8.28h-.914v5.332l-.288.11-5.068-5.442h-1.008Z" clip-rule="evenodd"/><path d="M70.069 55.16v5.495l-5.116-5.495h-1.247v8.605h1.247v-6.934l5.116 5.484v1.45h1.248V55.16h-1.248Z"/><path fill-rule="evenodd" d="m73.398 55.16.166-.163h5.864l.166.163v1.156l-.166.163h-4.451v2.243h4.074l.166.163v1.156l-.166.164h-4.074v2.242h4.451l.166.164v1.155l-.166.164h-5.864l-.166-.164V55.16Zm.332.163v8.28h5.532v-.829h-4.45l-.167-.163v-2.57l.166-.163h4.074v-.83h-4.074l-.166-.163v-2.57l.166-.163h4.451v-.829H73.73Z" clip-rule="evenodd"/><path d="M79.427 56.316V55.16h-5.865v8.605h5.865V62.61H74.81v-2.568h4.242v-1.155H74.81v-2.57h4.617Z"/><path fill-rule="evenodd" d="m81.134 55.16.166-.163h5.864l.166.163v1.156l-.166.163h-4.453v2.243h4.077l.166.163v1.156l-.166.164h-4.076v2.242h4.452l.166.164v1.155l-.166.164H81.3l-.166-.164V55.16Zm.332.163v8.28h5.532v-.829h-4.452l-.166-.163v-2.57l.166-.163h4.076v-.83h-4.076l-.166-.163v-2.57l.166-.163h4.452v-.829h-5.532Z" clip-rule="evenodd"/><path d="M87.163 56.316V55.16H81.3v8.605h5.864V62.61h-4.617v-2.568h4.242v-1.155h-4.242v-2.57h4.617Z"/><path fill-rule="evenodd" d="m35.056 70.527.166-.163h1.247l.166.163v3c0 1.375.421 2.434 1.196 3.15.775.719 1.927 1.113 3.428 1.113h.156v-7.263l.166-.163h1.247l.166.163v8.606l-.166.164h-1.569c-1.944 0-3.5-.517-4.57-1.51-1.07-.993-1.633-2.443-1.633-4.26v-3Zm.331.163v2.836c0 1.751.54 3.106 1.53 4.023.991.92 2.455 1.421 4.342 1.421h1.403v-8.28h-.915v7.264l-.166.163h-.322c-1.557 0-2.8-.41-3.655-1.201-.857-.793-1.301-1.947-1.301-3.39v-2.835h-.916Z" clip-rule="evenodd"/><path d="M41.583 70.527v7.427h-.325c-3.057 0-4.79-1.61-4.79-4.427v-3h-1.249v3c0 3.566 2.209 5.606 6.039 5.606h1.572v-8.606h-1.247Z"/><path fill-rule="evenodd" d="m44.912 70.527.165-.163H46.3l.165.163v3.601h.785c1.005 0 1.82-.313 2.386-.907.567-.595.9-1.492.9-2.694l.167-.163h1.248l.166.163c0 1.802-.714 3.497-2.21 4.24 1.598.75 2.383 2.486 2.383 4.367l-.166.163h-1.248l-.166-.163c0-1.065-.305-1.963-.882-2.592-.574-.626-1.433-1.005-2.578-1.005h-.785v3.596l-.165.164h-1.223l-.165-.163v-8.607Zm.331.163v8.28h.89v-3.596l.167-.163h.95c1.224 0 2.178.407 2.824 1.112.613.67.936 1.591.965 2.647h.918c-.048-1.87-.91-3.48-2.53-4.047l-.002-.307c1.519-.55 2.313-2.123 2.358-3.925h-.916c-.03 1.182-.377 2.111-.99 2.754-.64.672-1.55 1.01-2.627 1.01h-.95l-.166-.163V70.69h-.89Z" clip-rule="evenodd"/><path d="M49.48 74.77c1.66-.603 2.471-2.336 2.471-4.243h-1.247c0 2.459-1.373 3.762-3.457 3.762H46.3v-3.762h-1.224v8.606H46.3v-3.761h.947c2.371 0 3.632 1.573 3.632 3.761h1.248c0-1.979-.887-3.75-2.647-4.364Z"/><path fill-rule="evenodd" d="m53.646 70.527.166-.163h6.734l.166.163v.37c0 1.946-.98 3.434-2.474 4.3l3.1 3.835-.13.265h-1.522l-.13-.063-2.74-3.445a7.706 7.706 0 0 1-1.617.245v3.1l-.166.163h-1.221l-.166-.163v-8.607Zm.332.163v8.28h.889v-3.094l.162-.163a7.384 7.384 0 0 0 1.805-.267l.175.056 2.758 3.468h1.098l-3.007-3.718.05-.246c1.49-.797 2.472-2.217 2.472-4.108v-.207h-6.402Zm.889.91.166-.163h4.218l.163.189c-.328 2.02-2.02 3.297-4.381 3.297l-.166-.163V71.6Zm.332.163v2.831c2.063-.055 3.492-1.15 3.852-2.83H55.2Z" clip-rule="evenodd"/><path d="M59.688 79.133h1.522l-3.219-3.983c1.534-.823 2.557-2.3 2.557-4.253v-.37h-6.737v8.606h1.222v-3.258c.65-.012 1.26-.11 1.847-.27l2.807 3.528Zm-4.655-4.376v-3.16h4.218c-.312 1.93-1.922 3.16-4.218 3.16Z"/><path fill-rule="evenodd" d="m64.587 70.586.154-.222h1.371l.155.104 3.369 8.607-.155.222h-1.37l-.156-.104-.412-1.05-5.998 1.287-.2-.144a8.224 8.224 0 0 1-.052-.791c0-2.756 1.74-4.998 4.186-5.62l-.892-2.29Zm.396.105.873 2.24-.119.218c-2.379.519-4.112 2.661-4.112 5.346 0 .18.014.377.032.576l5.954-1.277.19.1.423 1.076h1.015L66 70.69h-1.016ZM63 77.636l4.011-.86-.979-2.508c-1.722.357-2.881 1.673-3.032 3.368Zm-.344.2c.077-1.993 1.428-3.56 3.452-3.915l.184.102 1.098 2.814-.12.218-4.414.946-.2-.166Z" clip-rule="evenodd"/><path d="m69.482 79.133-3.368-8.606H64.74l.96 2.459c-2.458.541-4.242 2.754-4.242 5.509 0 .245.025.516.05.774l6.14-1.315.461 1.18h1.372Zm-6.662-1.29c.074-1.918 1.372-3.419 3.318-3.762l1.099 2.814-4.417.948Z"/><path fill-rule="evenodd" d="m70.653 70.527.165-.163h1.248l.165.163v8.606l-.165.164h-1.248l-.165-.163v-8.607Zm.331.163v8.28h.916v-8.28h-.916Z" clip-rule="evenodd"/><path d="M70.817 70.527h1.249v8.606h-1.249v-8.606Z"/><path fill-rule="evenodd" d="m74.145 70.527.166-.163h1.248l.123.053 4.828 5.186v-5.076l.166-.163h1.248l.165.163v8.606l-.165.164h-1.248l-.166-.163v-1.385l-4.785-5.13v6.514l-.166.164h-1.248l-.166-.163v-8.607Zm.332.163v8.28h.917V72.2l.287-.11 5.117 5.485.044.11v1.285h.916v-8.28h-.916v5.333l-.288.11-5.067-5.442h-1.01Z" clip-rule="evenodd"/><path d="M80.675 70.527v5.496l-5.116-5.496h-1.248v8.606h1.248V72.2l5.116 5.483v1.45h1.247v-8.606h-1.247Z"/><path fill-rule="evenodd" d="m84.003 70.527.166-.163h5.864l.166.163v1.156l-.166.163h-4.451v2.243h4.075l.166.164v1.155l-.166.164h-4.075v2.242h4.451l.166.164v1.156l-.166.163H84.17l-.166-.163v-8.607Zm.332.163v8.28h5.533v-.829h-4.452l-.166-.163v-2.57l.166-.163h4.076v-.829h-4.076l-.166-.163v-2.57l.166-.164h4.452v-.829h-5.533Z" clip-rule="evenodd"/><path d="M90.032 71.683v-1.156h-5.864v8.606h5.864v-1.155h-4.616v-2.57h4.242v-1.155h-4.242v-2.57h4.616Z"/></symbol><symbol xmlns="http://www.w3.org/2000/svg" id="mail" fill="none" viewBox="0 0 24 25"><path d="M4 4.762h16c1.1 0 2 .9 2 2v12c0 1.1-.9 2-2 2H4c-1.1 0-2-.9-2-2v-12c0-1.1.9-2 2-2Z"/><path d="m22 6.762-10 7-10-7"/></symbol><symbol xmlns="http://www.w3.org/2000/svg" id="normal_screen" fill="none" viewBox="0 0 24 24"><g clip-path="url(#a)"><path fill="#FCFCFC" d="M21 3a1 1 0 0 1 1 1v7h-2V5H4v14h6v2H3a1 1 0 0 1-1-1V4a1 1 0 0 1 1-1h18Zm0 10a1 1 0 0 1 1 1v6a1 1 0 0 1-1 1h-8a1 1 0 0 1-1-1v-6a1 1 0 0 1 1-1h8Zm-1 2h-6v4h6v-4ZM6.707 6.293l2.25 2.25L11 6.5V12H5.5l2.043-2.043-2.25-2.25 1.414-1.414Z"/></g></symbol><symbol xmlns="http://www.w3.org/2000/svg" id="onboarding" fill="none" viewBox="0 0 33 32"><g clip-path="url(#a)"><path fill="url(#b)" d="M7.833 9.333a4.672 4.672 0 0 1-4.666-4.666A4.672 4.672 0 0 1 7.833 0 4.672 4.672 0 0 1 12.5 4.667a4.672 4.672 0 0 1-4.667 4.666Zm12 0a4.672 4.672 0 0 1-4.666-4.666A4.672 4.672 0 0 1 19.833 0 4.672 4.672 0 0 1 24.5 4.667a4.672 4.672 0 0 1-4.667 4.666Zm10 13.334c0-.735-.148-1.428-.368-2.09l2.455-1.413-1.33-2.31-2.454 1.413c-.941-1.062-2.195-1.838-3.635-2.131v-2.801h-2.666v2.801c-1.44.293-2.695 1.07-3.635 2.13l-2.453-1.413-1.331 2.311 2.455 1.413c-.22.662-.368 1.355-.368 2.09 0 .734.148 1.428.368 2.089l-2.455 1.413 1.33 2.311 2.454-1.413c.941 1.061 2.195 1.837 3.635 2.13V32H24.5v-2.802c1.44-.293 2.695-1.069 3.635-2.13l2.453 1.413 1.331-2.31-2.455-1.414c.22-.661.368-1.355.368-2.09Zm-6.666 2c-1.103 0-2-.898-2-2 0-1.103.897-2 2-2 1.102 0 2 .897 2 2 0 1.102-.898 2-2 2Zm-11.543-5.251c.247-.875.579-1.713 1.007-2.495.594-1.16 1.322-2.097 2.47-3.121a12.067 12.067 0 0 1 2.182-1.585 4.636 4.636 0 0 0-3.45-1.548 4.672 4.672 0 0 0-4.666 4.666c0 1.771.998 3.299 2.457 4.083ZM6.5 15.333c0-1.77.632-3.397 1.681-4.666H4.5c-2.205 0-4 1.794-4 4v4h6.828a7.248 7.248 0 0 1-.828-3.334Zm4.273 9.858 3.094-1.783a8.12 8.12 0 0 1 0-1.483l-1.028-.592H9.833c-2.205 0-4 1.795-4 4v4h7.326l-2.386-4.142Z"/></g></symbol><symbol xmlns="http://www.w3.org/2000/svg" id="open_eye" fill="none" viewBox="0 0 24 24"><path fill="#030110" d="M11.998 3c5.392 0 9.878 3.88 10.819 9-.94 5.12-5.427 9-10.819 9-5.392 0-9.878-3.88-10.818-9 .94-5.12 5.426-9 10.818-9Zm0 16a9.005 9.005 0 0 0 8.778-7A9.005 9.005 0 0 0 3.22 12a9.005 9.005 0 0 0 8.777 7Zm0-2.5a4.5 4.5 0 1 1 0-9 4.5 4.5 0 0 1 0 9Zm0-2a2.5 2.5 0 1 0 0-5 2.5 2.5 0 0 0 0 5Z"/></symbol><symbol xmlns="http://www.w3.org/2000/svg" id="partners" fill="none" viewBox="0 0 20 20"><path fill="#FCFCFC" stroke="#FCFCFC" d="M5 4.5h.5V1A.5.5 0 0 1 6 .5h8a.5.5 0 0 1 .5.5v3.5H19a.5.5 0 0 1 .5.5v14a.5.5 0 0 1-.5.5H1a.5.5 0 0 1-.5-.5V5a.5.5 0 0 1 .5-.5h4Zm-3 10h-.5v4h17v-4H2ZM1.5 13v.5h17v-8h-17V13ZM7 1.5h-.5v3h7v-3H7Zm2.5 9h1v1h-1v-1Z"/></symbol><symbol xmlns="http://www.w3.org/2000/svg" id="phone" fill="none" viewBox="0 0 22 22"><path stroke="#FCFCFC" stroke-linecap="round" stroke-linejoin="round" stroke-width="1.5" d="M21 15.92v3a2 2 0 0 1-2.18 2 19.791 19.791 0 0 1-8.63-3.07 19.5 19.5 0 0 1-6-6 19.79 19.79 0 0 1-3.07-8.67A2 2 0 0 1 3.11 1h3a2 2 0 0 1 2 1.72c.126.96.36 1.903.7 2.81a2 2 0 0 1-.45 2.11L7.09 8.91a16 16 0 0 0 6 6l1.27-1.27a2 2 0 0 1 2.11-.45c.907.339 1.85.574 2.81.7A2 2 0 0 1 21 15.92Z"/></symbol><symbol xmlns="http://www.w3.org/2000/svg" id="plus_black" fill="none" viewBox="0 0 24 24"><path fill="#030110" d="M11 11.5v-6h2v6h6v2h-6v6h-2v-6H5v-2h6Z"/></symbol><symbol xmlns="http://www.w3.org/2000/svg" id="plus_icon" fill="none" viewBox="0 0 24 25"><path fill="#FCFCFC" d="M11 11.5v-6h2v6h6v2h-6v6h-2v-6H5v-2h6Z"/></symbol><symbol xmlns="http://www.w3.org/2000/svg" id="press_about" fill="none" viewBox="0 0 18 20"><path fill="#FCFCFC" stroke="#FCFCFC" d="M16.5 7v-.5h-5v-5h-10v17h15V7Zm1-.793v12.786a.5.5 0 0 1-.493.507H.993a.493.493 0 0 1-.493-.492V.992C.5.732.724.5 1.002.5H11.79l5.71 5.707Z"/></symbol><symbol xmlns="http://www.w3.org/2000/svg" id="projects" fill="none" viewBox="0 0 18 20"><path fill="#FCFCFC" stroke="#FCFCFC" d="M2 5.5h-.5v13h15v-13H2ZM1.5 4v.5h15v-3h-15V4ZM17 19.5H1a.5.5 0 0 1-.5-.5V1A.5.5 0 0 1 1 .5h16a.5.5 0 0 1 .5.5v18a.5.5 0 0 1-.5.5ZM4.5 8.5h3v3h-3v-3Zm0 6h9v1h-9v-1Zm6-5h3v1h-3v-1Z"/></symbol><symbol xmlns="http://www.w3.org/2000/svg" id="remove" fill="none" viewBox="0 0 24 24"><path fill="#FCFCFC" stroke="#FCFCFC" d="M7 4.5h.5v-2h9v2h5v1h-2V21a.5.5 0 0 1-.5.5H5a.5.5 0 0 1-.5-.5V5.5h-2v-1H7Zm-1 1h-.5v15h13v-15H6Zm3.5 4h1v7h-1v-7Zm4 0h1v7h-1v-7Z"/></symbol><symbol xmlns="http://www.w3.org/2000/svg" id="reviews" fill="none" viewBox="0 0 20 20"><path fill="#FCFCFC" stroke="#FCFCFC" stroke-linecap="round" stroke-linejoin="round" stroke-width="2" d="M19 13a2 2 0 0 1-2 2H5l-4 4V3a2 2 0 0 1 2-2h14a2 2 0 0 1 2 2v10Z"/></symbol><symbol xmlns="http://www.w3.org/2000/svg" id="scroll-top-arrow" fill="none" viewBox="0 0 25 29"><path fill="url(#a)" fill-rule="evenodd" d="M.036 12.5 11.703.401l.362-.375.36.377 11.612 12.15-.723.69L12.56 1.995l-.059 26.035-1-.003.06-26.035L.755 13.194l-.72-.695Z" clip-rule="evenodd"/></symbol><symbol xmlns="http://www.w3.org/2000/svg" id="search" fill="none" viewBox="0 0 32 32"><path stroke="#4D4D4D" stroke-linecap="round" stroke-width="1.5" d="M14.1 5.334a8.667 8.667 0 1 0-.201 17.332A8.667 8.667 0 0 0 14.1 5.334ZM20 20l6.667 6.667"/></symbol><symbol xmlns="http://www.w3.org/2000/svg" id="settings" fill="#FCFCFC" viewBox="0 0 54 54"><path d="M51.22 21h-5.052c-.812 0-1.481-.447-1.792-1.197s-.153-1.54.42-2.114l3.572-3.571a2.763 2.763 0 0 0 .814-1.966c0-.743-.289-1.441-.814-1.967l-4.553-4.553c-1.05-1.05-2.881-1.052-3.933 0l-3.571 3.571c-.574.573-1.366.733-2.114.421A1.885 1.885 0 0 1 33 7.832V2.78A2.783 2.783 0 0 0 30.22 0h-6.44A2.783 2.783 0 0 0 21 2.78v5.052c0 .812-.447 1.481-1.197 1.792-.748.313-1.54.152-2.114-.421l-3.571-3.571c-1.052-1.052-2.883-1.05-3.933 0l-4.553 4.553a2.764 2.764 0 0 0-.814 1.967c0 .742.289 1.44.814 1.966l3.572 3.571c.573.574.73 1.364.42 2.114S8.644 21 7.832 21H2.78A2.783 2.783 0 0 0 0 23.78v6.439A2.783 2.783 0 0 0 2.78 33h5.052c.812 0 1.481.447 1.792 1.197s.153 1.54-.42 2.114l-3.572 3.571a2.763 2.763 0 0 0-.814 1.966c0 .743.289 1.441.814 1.967l4.553 4.553c1.051 1.051 2.881 1.053 3.933 0l3.571-3.572a1.887 1.887 0 0 1 2.114-.42c.75.311 1.197.98 1.197 1.792v5.052A2.783 2.783 0 0 0 23.78 54h6.439a2.783 2.783 0 0 0 2.78-2.78v-5.052c0-.812.447-1.481 1.197-1.792a1.885 1.885 0 0 1 2.114.42l3.571 3.572c1.052 1.052 2.883 1.05 3.933 0l4.553-4.553a2.764 2.764 0 0 0 .814-1.967c0-.742-.289-1.44-.814-1.966l-3.572-3.571c-.573-.574-.73-1.364-.42-2.114S45.356 33 46.168 33h5.052A2.783 2.783 0 0 0 54 30.22v-6.44A2.783 2.783 0 0 0 51.22 21zm.78 9.22c0 .43-.35.78-.78.78h-5.052a3.879 3.879 0 0 0-3.64 2.432 3.877 3.877 0 0 0 .854 4.294l3.572 3.571a.78.78 0 0 1 0 1.104l-4.553 4.553a.78.78 0 0 1-1.104 0l-3.571-3.572c-1.149-1.149-2.794-1.474-4.294-.854A3.879 3.879 0 0 0 31 46.168v5.052c0 .43-.35.78-.78.78h-6.44c-.43 0-.78-.35-.78-.78v-5.052a3.879 3.879 0 0 0-2.432-3.64 3.985 3.985 0 0 0-1.533-.311c-1.014 0-1.997.4-2.761 1.164l-3.571 3.572a.78.78 0 0 1-1.104 0L7.046 42.4a.78.78 0 0 1 0-1.104l3.572-3.571a3.879 3.879 0 0 0 .854-4.294A3.88 3.88 0 0 0 7.832 31H2.78c-.43 0-.78-.35-.78-.78v-6.44c0-.43.35-.78.78-.78h5.052a3.879 3.879 0 0 0 3.64-2.432 3.877 3.877 0 0 0-.854-4.294l-3.572-3.571a.78.78 0 0 1 0-1.104l4.553-4.553a.78.78 0 0 1 1.104 0l3.571 3.571a3.88 3.88 0 0 0 4.294.854A3.876 3.876 0 0 0 23 7.832V2.78c0-.43.35-.78.78-.78h6.439c.431 0 .781.35.781.78v5.052c0 1.624.932 3.019 2.432 3.64a3.878 3.878 0 0 0 4.294-.854l3.571-3.571a.78.78 0 0 1 1.104 0l4.553 4.553a.78.78 0 0 1 0 1.104l-3.572 3.571a3.879 3.879 0 0 0-.854 4.294 3.879 3.879 0 0 0 3.64 2.432h5.052a.78.78 0 0 1 .78.779v6.44z"/><path d="M27 18c-4.963 0-9 4.037-9 9s4.037 9 9 9 9-4.037 9-9-4.037-9-9-9zm0 16c-3.859 0-7-3.141-7-7s3.141-7 7-7 7 3.141 7 7-3.141 7-7 7z"/></symbol><symbol xmlns="http://www.w3.org/2000/svg" id="slider" fill="none" viewBox="0 0 20 20"><path fill="#FCFCFC" stroke="#FCFCFC" d="M6.17 2.5h.354l.118-.333A2.501 2.501 0 0 1 9 .5h2c1.088 0 2.014.695 2.358 1.667l.118.333H19a.5.5 0 0 1 .5.5v16a.5.5 0 0 1-.5.5H1a.5.5 0 0 1-.5-.5V3a.5.5 0 0 1 .5-.5h5.17ZM2 3.5h-.5v15h17v-15h-5.024l-.118.333A2.501 2.501 0 0 1 11 5.5H9a2.501 2.501 0 0 1-2.358-1.667L6.524 3.5H2Zm7-2a1.5 1.5 0 1 0 0 3h2a1.5 1.5 0 0 0 0-3H9Zm-.5 11.617V8.883L12.028 11 8.5 13.117Z"/></symbol><symbol xmlns="http://www.w3.org/2000/svg" id="team" fill="none" viewBox="0 0 24 15"><path fill="#FCFCFC" d="M12 .5a3.5 3.5 0 1 1 0 7 3.5 3.5 0 0 1 0-7ZM5 3c.56 0 1.08.15 1.53.42-.15 1.43.27 2.85 1.13 3.96A2.997 2.997 0 0 1 2 6a3 3 0 0 1 3-3Zm14 0a3 3 0 0 1 0 6c-1.16 0-2.16-.66-2.66-1.62a5.54 5.54 0 0 0 1.13-3.96c.45-.27.97-.42 1.53-.42ZM5.5 13.25c0-2.07 2.91-3.75 6.5-3.75s6.5 1.68 6.5 3.75V15h-13v-1.75ZM0 15v-1.5c0-1.39 1.89-2.56 4.45-2.9-.59.68-.95 1.62-.95 2.65V15H0Zm24 0h-3.5v-1.75c0-1.03-.36-1.97-.95-2.65 2.56.34 4.45 1.51 4.45 2.9V15Z"/></symbol><symbol xmlns="http://www.w3.org/2000/svg" id="telegram" viewBox="0 0 48 49"><g clip-path="url(#a)"><path d="M24 48.5c13.255 0 24-10.745 24-24S37.255.5 24 .5 0 11.245 0 24.5s10.745 24 24 24Z"/><path fill="#240529" d="M34.48 15.813c.187-1.208-.962-2.162-2.036-1.69l-21.397 9.394c-.77.338-.714 1.505.085 1.76l4.413 1.405c.842.268 1.754.13 2.49-.379l9.948-6.873c.3-.207.627.22.37.484l-7.16 7.383c-.696.716-.558 1.93.278 2.454l8.017 5.027c.9.564 2.056-.002 2.225-1.089l2.767-17.876Z"/></g></symbol></svg>