<svg width="20" height="21" viewBox="0 0 20 21" fill="none" xmlns="http://www.w3.org/2000/svg">
<path d="M10 18.832C12.1217 18.832 14.1566 17.9892 15.6569 16.4889C17.1571 14.9886 18 12.9538 18 10.832C18 8.7103 17.1571 6.67547 15.6569 5.17518C14.1566 3.67489 12.1217 2.83203 10 2.83203C7.87827 2.83203 5.84344 3.67489 4.34315 5.17518C2.84285 6.67547 2 8.7103 2 10.832C2 12.9538 2.84285 14.9886 4.34315 16.4889C5.84344 17.9892 7.87827 18.832 10 18.832ZM10 0.832031C11.3132 0.832031 12.6136 1.09069 13.8268 1.59324C15.0401 2.09578 16.1425 2.83238 17.0711 3.76096C17.9997 4.68955 18.7362 5.79194 19.2388 7.0052C19.7413 8.21845 20 9.51881 20 10.832C20 13.4842 18.9464 16.0277 17.0711 17.9031C15.1957 19.7785 12.6522 20.832 10 20.832C4.47 20.832 0 16.332 0 10.832C0 8.17987 1.05357 5.63633 2.92893 3.76096C4.8043 1.8856 7.34784 0.832031 10 0.832031ZM10.5 5.83203V11.082L15 13.752L14.25 14.982L9 11.832V5.83203H10.5Z" fill="#FCFCFC"/>
</svg>
