<svg width="24" height="25" viewBox="0 0 24 25" fill="none" xmlns="http://www.w3.org/2000/svg">
<path d="M17.8807 19.7968C16.1794 20.8755 14.1618 21.5002 11.9983 21.5002C6.60617 21.5002 2.1202 17.6204 1.17969 12.5002C1.61637 10.1228 2.81737 8.0129 4.51852 6.43457L1.39171 3.30777L2.80593 1.89355L22.6049 21.6925L21.1907 23.1068L17.8807 19.7968ZM5.93365 7.8497C4.60478 9.06015 3.63585 10.6672 3.22083 12.5002C4.13827 16.5521 7.76265 19.5002 11.9983 19.5002C13.5977 19.5002 15.11 19.0798 16.4223 18.3384L14.394 16.3101C13.7003 16.7472 12.8788 17.0002 11.9983 17.0002C9.51303 17.0002 7.49831 14.9854 7.49831 12.5002C7.49831 11.6196 7.75122 10.7981 8.18836 10.1044L5.93365 7.8497ZM12.9119 14.828L9.67051 11.5866C9.55935 11.8696 9.49831 12.1777 9.49831 12.5002C9.49831 13.8809 10.6176 15.0002 11.9983 15.0002C12.3207 15.0002 12.6289 14.9391 12.9119 14.828ZM20.8048 17.0925L19.374 15.6617C20.0299 14.7268 20.5134 13.6586 20.7757 12.5002C19.8583 8.44818 16.2339 5.50016 11.9983 5.50016C11.1524 5.50016 10.3309 5.61773 9.55054 5.83818L7.97251 4.26015C9.21932 3.76959 10.5773 3.50016 11.9983 3.50016C17.3904 3.50016 21.8764 7.37993 22.8169 12.5002C22.5047 14.1998 21.8018 15.7628 20.8048 17.0925ZM11.7209 8.00857C11.8126 8.003 11.9051 8.00016 11.9983 8.00016C14.4835 8.00016 16.4983 10.0149 16.4983 12.5002C16.4983 12.5933 16.4954 12.6858 16.4899 12.7775L11.7209 8.00857Z" fill="#030110"/>
</svg>
