<svg width="15" height="19" viewBox="0 0 15 19" fill="none" xmlns="http://www.w3.org/2000/svg">
<path fill-rule="evenodd" clip-rule="evenodd" d="M2.88235 17.3718C2.88414 17.7433 2.7383 18.1003 2.4769 18.3642C2.21551 18.6281 1.85997 18.7774 1.48851 18.7792C1.11705 18.781 0.760086 18.6352 0.496154 18.3738C0.232221 18.1124 0.0829378 17.7568 0.0811444 17.3854L0.0202861 4.77994C0.0184927 4.40847 0.164336 4.05151 0.425732 3.78758C0.687128 3.52365 1.04266 3.37436 1.41413 3.37257C1.78559 3.37078 2.14255 3.51662 2.40648 3.77802C2.67041 4.03941 2.8197 4.39495 2.82149 4.76641L2.88235 17.3718ZM5.68356 17.3583L5.63622 7.5541C5.63443 7.18263 5.78027 6.82567 6.04167 6.56174C6.30307 6.29781 6.6586 6.14852 7.03007 6.14673C7.40153 6.14494 7.75849 6.29078 8.02242 6.55218C8.28636 6.81357 8.43564 7.16911 8.43743 7.54057L8.48477 17.3448C8.48656 17.7163 8.34072 18.0732 8.07932 18.3372C7.81792 18.6011 7.46239 18.7504 7.09092 18.7522C6.71946 18.754 6.3625 18.6081 6.09857 18.3467C5.83464 18.0853 5.68535 17.7298 5.68356 17.3583ZM11.2116 1.92463C11.2098 1.55317 11.3556 1.19621 11.617 0.932276C11.8784 0.668343 12.234 0.51906 12.6054 0.517267C12.9769 0.515473 13.3339 0.661317 13.5978 0.922713C13.8617 1.18411 14.011 1.53965 14.0128 1.91111L14.0872 17.3178C14.089 17.6892 13.9431 18.0462 13.6817 18.3101C13.4203 18.574 13.0648 18.7233 12.6933 18.7251C12.3219 18.7269 11.9649 18.5811 11.701 18.3197C11.4371 18.0583 11.2878 17.7027 11.286 17.3313L11.2116 1.92463Z" fill="#FCFCFC"/>
</svg>
