<svg width="18" height="20" viewBox="0 0 18 20" fill="none" xmlns="http://www.w3.org/2000/svg">
  <path d="M12.5 2V1.5H12H2H1.5V2V18V18.5H2H16H16.5V18V6V5.5H16H12.5V2ZM0.5 0.9918C0.5 0.723504 0.720309 0.5 0.9985 0.5H12.7929L17.4997 5.2071L17.5 18.9925C17.5 19.2794 17.2724 19.5 17.0066 19.5H0.9934C0.723819 19.5 0.5 19.2715 0.5 19.0082V0.9918ZM9 9C7.89544 9 7 8.10456 7 7C7 5.89543 7.89544 5 9 5C10.1046 5 11 5.89543 11 7C11 8.10456 10.1046 9 9 9ZM12.8741 14.5H5.12591C5.5698 12.7749 7.13629 11.5 9 11.5C10.8637 11.5 12.4302 12.7749 12.8741 14.5Z" fill="#FCFCFC" stroke="#FCFCFC" />
</svg>
