<svg width="24" height="24" viewBox="0 0 24 24" fill="none" xmlns="http://www.w3.org/2000/svg">
  <path d="M15.5 4V3.5H15H5H4.5V4V20V20.5H5H19H19.5V20V8V7.5H19H15.5V4ZM3.5 2.9918C3.5 2.7235 3.72031 2.5 3.9985 2.5H15.7929L20.4997 7.2071L20.5 20.9925C20.5 21.2794 20.2724 21.5 20.0066 21.5H3.9934C3.72382 21.5 3.5 21.2715 3.5 21.0082V2.9918ZM12 11C10.8954 11 10 10.1046 10 9C10 7.89543 10.8954 7 12 7C13.1046 7 14 7.89543 14 9C14 10.1046 13.1046 11 12 11ZM15.8741 16.5H8.12591C8.5698 14.7749 10.1363 13.5 12 13.5C13.8637 13.5 15.4302 14.7749 15.8741 16.5Z" fill="#FCFCFC" stroke="#FCFCFC" />
</svg>
