<svg width="24" height="24" viewBox="0 0 24 24" fill="none" xmlns="http://www.w3.org/2000/svg">
<path d="M12.0017 0C5.37257 0 0 5.37257 0 11.9983C0 18.6274 5.37257 24 12.0017 24C18.6274 24 24 18.6274 24 11.9983C24 5.37257 18.6274 0 12.0017 0Z" fill="#F6B059"/>
<path d="M10.6177 9.2285C9.34038 9.2285 8.30879 10.2636 8.30879 11.5375C8.30879 12.8114 9.34038 13.8464 10.6177 13.8464C11.8917 13.8464 12.9232 12.8114 12.9232 11.5375C12.9232 10.2636 11.8917 9.2285 10.6177 9.2285ZM12.4628 3.68977C11.6978 3.68977 11.0782 4.30942 11.0782 5.07446C11.0782 5.83949 11.6978 6.45914 12.4628 6.45914C13.2279 6.45914 13.8475 5.83949 13.8475 5.07446C13.8475 4.30942 13.2279 3.68977 12.4628 3.68977ZM15.6926 14.7672C14.6749 14.7672 13.8475 15.5946 13.8475 16.6158C13.8475 17.6335 14.6749 18.4609 15.6926 18.4609C16.7138 18.4609 17.5412 17.6335 17.5412 16.6158C17.5412 15.5946 16.7138 14.7672 15.6926 14.7672ZM5.07902 11.9979C4.31398 11.9979 3.69434 12.6175 3.69434 13.3825C3.69434 14.1476 4.31398 14.7672 5.07902 14.7672C5.84405 14.7672 6.4637 14.1476 6.4637 13.3825C6.4637 12.6175 5.84405 11.9979 5.07902 11.9979ZM18.0016 9.2285C17.2365 9.2285 16.6169 9.84815 16.6169 10.6132C16.6169 11.3782 17.2365 11.9979 18.0016 11.9979C18.7666 11.9979 19.3862 11.3782 19.3862 10.6132C19.3862 9.84815 18.7666 9.2285 18.0016 9.2285ZM9.23306 17.5366C8.72073 17.5366 8.30879 17.952 8.30879 18.4609C8.30879 18.9697 8.72073 19.3851 9.23306 19.3851C9.74193 19.3851 10.1539 18.9697 10.1539 18.4609C10.1539 17.952 9.74193 17.5366 9.23306 17.5366Z" fill="#6D420D"/>
</svg>
