<svg width="32" height="38" viewBox="0 0 32 38" fill="none" xmlns="http://www.w3.org/2000/svg">
<path d="M22.9067 16.8889H32V12.6667H27.52C28.64 11.2733 29.3333 9.88 29.3333 8.44444C29.3333 2.89222 22.6667 0 16 0C9.73333 0 4.08 4.34889 3.44 4.83444L7.22667 7.83222C8.50667 6.81889 12.56 4.22222 16 4.22222C18.7733 4.22222 24 5.10889 24 8.44444C24 9.5 22.6667 11.0622 20.6933 12.6667H0V16.8889H15.0133C13.8933 17.6489 10 20.4144 9.09333 21.1111H0V25.3333H4.48C3.36 26.7267 2.66667 28.12 2.66667 29.5556C2.66667 35.1078 9.33333 38 16 38C22.2667 38 27.92 33.6511 28.56 33.1656L24.7733 30.1678C23.52 31.1811 19.44 33.7778 16 33.7778C13.2267 33.7778 8 32.8911 8 29.5556C8 28.5 9.33333 26.9378 11.3067 25.3333H32V21.1111H17.0133L22.9067 16.8889Z" fill="#FCFCFC"/>
</svg>
