<svg width="24" height="24" viewBox="0 0 24 24" fill="none" xmlns="http://www.w3.org/2000/svg">
<path d="M19.5 6H11.5C11.2 6 11 6.2 11 6.5C11 6.8 11.2 7 11.5 7H19.5C19.8 7 20 6.8 20 6.5C20 6.2 19.8 6 19.5 6Z" fill="#F9A825"/>
<path d="M11.1001 4.7C11.1001 4.9 11.3001 5 11.5001 5H19.5001C19.7001 5 19.9001 4.9 19.9001 4.7L21.9001 0.700002C22.0001 0.600002 22.0001 0.300002 21.9001 0.200002C21.8001 0.100002 21.5001 2.44379e-06 21.3001 0.100002L17.6001 1.9L15.9001 0.200002C15.7001 2.44379e-06 15.4001 2.44379e-06 15.2001 0.200002L13.5001 1.9L9.70009 0.100002C9.50009 2.44379e-06 9.30009 2.44379e-06 9.10009 0.200002C8.90009 0.400002 9.00009 0.600002 9.10009 0.700002L11.1001 4.7Z" fill="#24592F"/>
<path d="M15 12.9V11.1C14.4 11.2 14 11.6 14 12C14 12.4 14.3 12.7 15 12.9Z" fill="#24592F"/>
<path d="M5.8 12.2C5 11.3 1.6 11.1 0.5 11C0.4 11 0.2 11 0.1 11.1C0.1 11.2 0 11.4 0 11.5V21.5C0 21.8 0.2 22 0.5 22H3.5C3.7 22 3.9 21.9 4 21.7C4.1 21.5 5.8 15.2 6 12.6C6 12.4 6 12.3 5.8 12.2Z" fill="#5574C5"/>
<path d="M9.09995 13C9.89995 13.1 10.8 13.4 11.5 13.6C12.1 13.8 12.7 14 13 14C13 14 13.9 14 15 14.2V13.9C13.7 13.6 13 12.9 13 12C13 11 13.9 10.2 15 10V9.5C15 9.2 15.2 9 15.5 9C15.8 9 16 9.2 16 9.5V10C17.1 10.2 17.9 10.9 18 11.8C18 12.1 17.8 12.3 17.5 12.3C17.2 12.3 17 12.1 17 11.8C17 11.4 16.5 11 16 10.9V12.9C17.3 13.2 18 13.9 18 14.8C18 14.9 18 14.9 18 15C18.6 15.4 19 16 19 16.8L19.4 16.9L20.6 16.4C21.1 16.2 21.6 16.1 22 16.1C22.8 16.1 23.4 16.4 24 16.8C24 16.6 24 16.5 24 16.3C24 13.4 20.1 8.2 19.9 8C19.8 8.1 19.7 8 19.5 8H11.5C11.3 8 11.2 8.1 11.1 8.2C11 8.3 9.29995 10.6 8.19995 12.9C8.39995 12.9 8.69995 12.9 8.89995 13H9.09995Z" fill="#24592F"/>
<path d="M16 14.4C16.3 14.5 16.6 14.6 16.9 14.7C16.8 14.5 16.5 14.3 16 14.2V14.4Z" fill="black"/>
<path d="M21 17.5L17.5 19C16.5 19 14.5 19 14 19C13.5 19 10.9 18.2 11.3 18C11.4 18 11.6 18 12 18C14.3 18.2 18 18.7 18 17C18 15.3 14 15 13 15C12 15 10.4 14.1 8.99995 14C8.39995 14 7.69995 13.9 6.89995 13.8C6.59995 16 5.69995 19.1 5.19995 20.6L10.5 23C12.5 23.8 13.8 24.7 18 23C18 23 24 20.5 24 19C24 17.8 22.6 17 21 17.5Z" fill="#D1AB73"/>
</svg>
