<svg width="48" height="49" viewBox="0 0 48 49" xmlns="http://www.w3.org/2000/svg">
<g clip-path="url(#clip0_2137_6156)">
<path d="M24 48.5C37.2548 48.5 48 37.7548 48 24.5C48 11.2452 37.2548 0.5 24 0.5C10.7452 0.5 0 11.2452 0 24.5C0 37.7548 10.7452 48.5 24 48.5Z"/>
<path d="M32.6895 25.6651L33.726 22.0728H27.242V19.7427C27.242 18.7597 28.1462 17.801 31.0503 17.801H34V14.7427C34 14.7427 31.3242 14.5 28.7672 14.5C23.4247 14.5 19.9362 16.2209 19.9362 19.3349V22.0728H14V25.6651H19.9362V34.3495C21.1278 34.4491 22.347 34.5 23.589 34.5C24.831 34.5 26.0503 34.4491 27.242 34.3495V25.6651H32.6895Z" fill="#240529"/>
</g>
<defs>
<clipPath id="clip0_2137_6156">
<rect width="48" height="48" fill="white" transform="translate(0 0.5)"/>
</clipPath>
</defs>
</svg>
