<svg width="181" height="180" viewBox="0 0 181 180" fill="none" xmlns="http://www.w3.org/2000/svg">
<path d="M35.9825 161.609C20.87 150.103 9.78497 134.112 4.31415 115.923C-1.15668 97.7341 -0.732788 78.2808 5.52512 60.3475C11.783 42.4143 23.5541 26.9206 39.1534 16.0843C54.7527 5.24805 73.3804 -0.37523 92.3701 0.0194306C111.36 0.414091 129.738 6.80646 144.873 18.2815C160.009 29.7565 171.126 45.7259 176.634 63.9037C182.141 82.0814 181.756 101.536 175.534 119.481C169.313 137.427 157.573 152.945 141.995 163.812L133.057 151.001C145.931 142.019 155.633 129.195 160.775 114.364C165.917 99.5334 166.235 83.4558 161.684 68.4331C157.132 53.4104 147.944 40.2128 135.436 30.7295C122.927 21.2461 107.739 15.9633 92.0455 15.6371C76.3518 15.311 60.9573 19.9582 48.0655 28.9137C35.1737 37.8691 25.4457 50.6736 20.274 65.4942C15.1022 80.3149 14.7519 96.3918 19.2732 111.424C23.7945 126.455 32.9555 139.671 45.4449 149.18L35.9825 161.609Z" fill="url(#paint0_linear_1782_1101)"/>
<g clip-path="url(#clip0_1782_1101)">
<path d="M46.8503 78.5358C50.6156 78.5358 53.6679 75.4338 53.6679 71.6074C53.6679 67.781 50.6156 64.6791 46.8503 64.6791C43.085 64.6791 40.0326 67.781 40.0326 71.6074C40.0326 75.4338 43.085 78.5358 46.8503 78.5358Z" fill="#FCFCFC"/>
<path d="M54.4635 81.3063H39.2399C33.8641 81.312 29.5085 85.7384 29.501 91.2013V110.607C29.4559 112.594 31.0048 114.243 32.9605 114.288C34.9161 114.334 36.5382 112.76 36.583 110.772C36.5848 110.717 36.5848 110.662 36.583 110.607V93.2037H38.7093V146.317C38.6643 148.305 40.2132 149.953 42.1688 149.999C44.1244 150.044 45.7465 148.47 45.7913 146.483C45.7932 146.428 45.7932 146.372 45.7913 146.317V116.806H47.9139V146.318C47.8689 148.305 49.4178 149.953 51.3734 149.999C53.329 150.045 54.9511 148.471 54.9959 146.483C54.9978 146.428 54.9978 146.373 54.9959 146.317V93.2004H57.1223V110.603C57.0773 112.591 58.6262 114.239 60.5818 114.285C62.5374 114.33 64.1595 112.756 64.2043 110.769C64.2062 110.714 64.2062 110.658 64.2043 110.603V91.2013C64.1987 85.7384 59.8411 81.312 54.4635 81.3063Z" fill="#FCFCFC"/>
<path d="M132.151 78.5358C135.916 78.5358 138.968 75.4338 138.968 71.6074C138.968 67.781 135.916 64.6791 132.151 64.6791C128.386 64.6791 125.333 67.781 125.333 71.6074C125.333 75.4338 128.386 78.5358 132.151 78.5358Z" fill="#FCFCFC"/>
<path d="M139.754 81.3063H124.528C119.153 81.312 114.795 85.7403 114.789 91.2032V110.607C114.744 112.594 116.293 114.243 118.249 114.288C120.205 114.334 121.827 112.76 121.871 110.772C121.873 110.717 121.873 110.662 121.871 110.607V93.2037H124.003V146.317C123.958 148.305 125.507 149.953 127.463 149.999C129.419 150.044 131.041 148.47 131.085 146.483C131.087 146.428 131.087 146.372 131.085 146.317V116.806H133.208V146.318C133.163 148.305 134.712 149.953 136.668 149.999C138.623 150.045 140.245 148.471 140.29 146.483C140.292 146.428 140.292 146.373 140.29 146.317V93.2004H142.416V110.603C142.371 112.591 143.92 114.239 145.876 114.285C147.831 114.33 149.454 112.756 149.498 110.769C149.5 110.714 149.5 110.658 149.498 110.603V91.2013C149.493 85.7365 145.131 81.3101 139.754 81.3063Z" fill="#FCFCFC"/>
<path d="M88.8128 43.8567C92.5781 43.8567 95.6305 40.7548 95.6305 36.9283C95.6305 33.1019 92.5781 30 88.8128 30C85.0475 30 81.9951 33.1019 81.9951 36.9283C81.9951 40.7548 85.0475 43.8567 88.8128 43.8567Z" fill="#FCFCFC"/>
<path d="M96.9532 47.2881H81.7279C76.3522 47.2938 71.9946 51.7221 71.989 57.1851V76.5886C71.944 78.576 73.4929 80.2244 75.4485 80.2699C77.4041 80.3157 79.0262 78.7416 79.071 76.7542C79.0729 76.6989 79.0729 76.6437 79.071 76.5884V59.1855H81.203V112.299C81.158 114.286 82.7069 115.935 84.6625 115.98C86.6181 116.026 88.2402 114.452 88.285 112.465C88.2869 112.409 88.2869 112.354 88.285 112.299V82.7873H90.4076V112.3C90.3626 114.287 91.9115 115.935 93.8671 115.981C95.8227 116.027 97.4448 114.453 97.4896 112.465C97.4915 112.41 97.4915 112.355 97.4896 112.299V59.1822H99.6159V76.585C99.5709 78.5724 101.12 80.2208 103.075 80.2663C105.031 80.3121 106.653 78.738 106.698 76.7507C106.7 76.6954 106.7 76.6401 106.698 76.5848V57.1832C106.692 51.7183 102.331 47.2919 96.9532 47.2881Z" fill="#FCFCFC"/>
</g>
<defs>
<linearGradient id="paint0_linear_1782_1101" x1="90.5" y1="0" x2="90.5" y2="147" gradientUnits="userSpaceOnUse">
<stop stop-color="#E231A8"/>
<stop offset="0.159288" stop-color="#9F337E"/>
<stop offset="0.410772" stop-color="#882974"/>
<stop offset="0.658558" stop-color="#712C7C"/>
<stop offset="0.873059" stop-color="#281538"/>
<stop offset="1" stop-color="#09030E"/>
</linearGradient>
<clipPath id="clip0_1782_1101">
<rect width="120" height="120" fill="white" transform="translate(30 30)"/>
</clipPath>
</defs>
</svg>
