<svg width="181" height="180" viewBox="0 0 181 180" fill="none" xmlns="http://www.w3.org/2000/svg">
<path d="M35.9825 161.609C20.87 150.103 9.78497 134.112 4.31415 115.923C-1.15668 97.7341 -0.732788 78.2808 5.52512 60.3475C11.783 42.4143 23.5541 26.9206 39.1534 16.0843C54.7527 5.24805 73.3804 -0.37523 92.3701 0.0194306C111.36 0.414091 129.738 6.80646 144.873 18.2815C160.009 29.7565 171.126 45.7259 176.634 63.9037C182.141 82.0814 181.756 101.536 175.534 119.481C169.313 137.427 157.573 152.945 141.995 163.812L133.057 151.001C145.931 142.019 155.633 129.195 160.775 114.364C165.917 99.5334 166.235 83.4558 161.684 68.4331C157.132 53.4104 147.944 40.2128 135.436 30.7295C122.927 21.2461 107.739 15.9633 92.0455 15.6371C76.3518 15.311 60.9573 19.9582 48.0655 28.9137C35.1737 37.8691 25.4457 50.6736 20.274 65.4942C15.1022 80.3149 14.7519 96.3918 19.2732 111.424C23.7945 126.455 32.9555 139.671 45.4449 149.18L35.9825 161.609Z" fill="url(#paint0_linear_1310_6290)"/>
<g clip-path="url(#clip0_1310_6290)">
<path d="M47.3802 79.7268C51.1429 79.7268 54.1931 76.6766 54.1931 72.9139C54.1931 69.1513 51.1429 66.1011 47.3802 66.1011C43.6176 66.1011 40.5674 69.1513 40.5674 72.9139C40.5674 76.6766 43.6176 79.7268 47.3802 79.7268Z" fill="#FCFCFC"/>
<path d="M54.9879 82.4512H39.775C34.4031 82.4568 30.0504 86.8094 30.0429 92.1813V111.263C29.9979 113.218 31.5458 114.839 33.5 114.883C35.4542 114.928 37.0752 113.38 37.12 111.426C37.1218 111.372 37.1218 111.317 37.12 111.263V94.1503H39.2448V146.379C39.1998 148.333 40.7476 149.954 42.7019 149.999C44.6561 150.044 46.2771 148.496 46.3218 146.542C46.3237 146.487 46.3237 146.433 46.3218 146.378V117.359H48.4429V146.379C48.3979 148.333 49.9458 149.954 51.9 149.999C53.8542 150.044 55.4752 148.496 55.5199 146.542C55.5218 146.488 55.5218 146.433 55.5199 146.379V94.147H57.6448V111.26C57.5998 113.214 59.1476 114.835 61.1019 114.88C63.0561 114.925 64.677 113.377 64.7218 111.423C64.7237 111.368 64.7237 111.314 64.7218 111.26V92.1813C64.7162 86.8094 60.3617 82.4568 54.9879 82.4512Z" fill="#FCFCFC"/>
<path d="M132.62 79.7268C136.383 79.7268 139.433 76.6766 139.433 72.9139C139.433 69.1513 136.383 66.1011 132.62 66.1011C128.858 66.1011 125.808 69.1513 125.808 72.9139C125.808 76.6766 128.858 79.7268 132.62 79.7268Z" fill="#FCFCFC"/>
<path d="M140.218 82.4512H125.003C119.632 82.4568 115.277 86.8113 115.271 92.1832V111.263C115.226 113.218 116.774 114.839 118.729 114.883C120.683 114.928 122.304 113.38 122.348 111.426C122.35 111.372 122.35 111.317 122.348 111.263V94.1503H124.479V146.379C124.434 148.333 125.982 149.954 127.936 149.999C129.89 150.044 131.511 148.496 131.556 146.542C131.558 146.487 131.558 146.433 131.556 146.378V117.359H133.677V146.379C133.632 148.333 135.18 149.954 137.134 149.999C139.088 150.044 140.709 148.496 140.754 146.542C140.756 146.488 140.756 146.433 140.754 146.379V94.147H142.879V111.26C142.834 113.214 144.382 114.835 146.336 114.88C148.29 114.925 149.911 113.377 149.956 111.423C149.958 111.368 149.958 111.314 149.956 111.26V92.1813C149.95 86.8075 145.592 82.4549 140.218 82.4512Z" fill="#FCFCFC"/>
<path d="M96.3284 80.4539H83.6508C82.8525 80.4539 82.2061 79.8056 82.2061 79.0092C82.2061 78.2127 82.8525 77.5663 83.6508 77.5645H96.3284C97.1267 77.5645 97.7731 78.2127 97.7731 79.0092C97.7729 79.8074 97.1265 80.4539 96.3284 80.4539Z" fill="black"/>
<path d="M96.3284 84.5985H83.6508C82.8525 84.5985 82.2061 83.9502 82.2061 83.1538C82.2061 82.3574 82.8525 81.711 83.6508 81.7091H96.3284C97.1267 81.7091 97.7731 82.3574 97.7731 83.1538C97.7729 83.9521 97.1265 84.5985 96.3284 84.5985Z" fill="black"/>
<path d="M82.9863 86.3374C84.4592 88.7602 87.1629 90.158 89.9902 89.9592C92.8177 90.1577 95.5215 88.7602 96.9941 86.3374H82.9863Z" fill="#FCFCFC"/>
<path d="M89.9917 41.9825C77.6063 41.9938 71.3876 54.5983 77.0818 63.1294C82.4874 71.2276 82.0395 75.8184 82.0395 75.8184H97.9474C97.9474 75.8184 97.4976 71.222 102.901 63.1294C108.596 54.5965 102.37 41.9919 89.9917 41.9825Z" fill="#FCFCFC"/>
<path d="M90.0019 41.9788H89.9971V41.9836H90.0019V41.9788Z" fill="#FCFCFC"/>
<path d="M90.0033 39.6273C89.205 39.6273 88.5586 38.9809 88.5586 38.1826V31.4447C88.5586 30.6483 89.205 30 90.0033 30C90.8016 30 91.448 30.6464 91.448 31.4447V31.4466V38.1919C91.4442 38.9865 90.7997 39.6273 90.0033 39.6273Z" fill="#FCFCFC"/>
<path d="M70.7487 61.769H64.0033C63.205 61.769 62.5586 61.1226 62.5586 60.3243C62.5586 59.526 63.205 58.8796 64.0033 58.8796H64.0052H70.7505C71.5488 58.8796 72.1952 59.526 72.1952 60.3243C72.195 61.1226 71.5486 61.769 70.7487 61.769C70.7505 61.769 70.7505 61.769 70.7487 61.769Z" fill="#FCFCFC"/>
<path d="M115.996 61.769H109.25C108.452 61.769 107.806 61.1226 107.806 60.3243C107.806 59.526 108.452 58.8796 109.25 58.8796H109.252H115.998C116.796 58.8796 117.442 59.526 117.442 60.3243C117.442 61.1226 116.796 61.769 115.996 61.769C115.998 61.769 115.998 61.769 115.996 61.769Z" fill="#FCFCFC"/>
<path d="M74.3461 46.1141C73.962 46.1141 73.5947 45.9623 73.3249 45.6906L68.5601 40.9239C68.0111 40.345 68.0336 39.4304 68.6126 38.8815C69.1708 38.3513 70.0441 38.3513 70.6024 38.8815L75.3673 43.6464C75.9331 44.2103 75.9331 45.1248 75.371 45.6887C75.0994 45.9623 74.7321 46.116 74.3461 46.1141Z" fill="#FCFCFC"/>
<path d="M105.66 46.1142C104.861 46.1142 104.215 45.4659 104.215 44.6695C104.215 44.2872 104.367 43.9199 104.638 43.6483L109.403 38.8815C109.952 38.3026 110.867 38.2801 111.446 38.829C112.025 39.3779 112.047 40.2925 111.498 40.8714C111.481 40.8901 111.464 40.907 111.446 40.9239L106.679 45.6888C106.411 45.9604 106.044 46.1142 105.66 46.1142Z" fill="#FCFCFC"/>
</g>
<defs>
<linearGradient id="paint0_linear_1310_6290" x1="90.5" y1="0" x2="90.5" y2="147" gradientUnits="userSpaceOnUse">
<stop stop-color="#E231A8"/>
<stop offset="0.159288" stop-color="#9F337E"/>
<stop offset="0.410772" stop-color="#882974"/>
<stop offset="0.658558" stop-color="#712C7C"/>
<stop offset="0.873059" stop-color="#281538"/>
<stop offset="1" stop-color="#09030E"/>
</linearGradient>
<clipPath id="clip0_1310_6290">
<rect width="120" height="120" fill="white" transform="translate(30 30)"/>
</clipPath>
</defs>
</svg>
