<svg width="181" height="180" viewBox="0 0 181 180" fill="none" xmlns="http://www.w3.org/2000/svg">
<path d="M35.9825 161.609C20.87 150.103 9.78497 134.112 4.31415 115.923C-1.15668 97.7341 -0.732788 78.2808 5.52512 60.3475C11.783 42.4143 23.5541 26.9206 39.1534 16.0843C54.7527 5.24805 73.3804 -0.37523 92.3701 0.0194306C111.36 0.414091 129.738 6.80646 144.873 18.2815C160.009 29.7565 171.126 45.7259 176.634 63.9037C182.141 82.0814 181.756 101.536 175.534 119.481C169.313 137.427 157.573 152.945 141.995 163.812L133.057 151.001C145.931 142.019 155.633 129.195 160.775 114.364C165.917 99.5334 166.235 83.4558 161.684 68.4331C157.132 53.4104 147.944 40.2128 135.436 30.7295C122.927 21.2461 107.739 15.9633 92.0455 15.6371C76.3518 15.311 60.9573 19.9582 48.0655 28.9137C35.1737 37.8691 25.4457 50.6736 20.274 65.4942C15.1022 80.3149 14.7519 96.3918 19.2732 111.424C23.7945 126.455 32.9555 139.671 45.4449 149.18L35.9825 161.609Z" fill="url(#paint0_linear_1310_6238)"/>
<path d="M134.767 38V78.6243H139.167V38H134.767ZM130.367 41.1983L107.536 49.818L130.367 59.4667V41.1983ZM127.433 83.0561V106.692H103.967V130.328H80.5001V149.557C105.507 149.606 121.518 149.828 146.5 150V83.0561H127.433Z" fill="#FCFCFC"/>
<path d="M72.7841 66.8504C71.2057 74.2859 65.5172 79.5 59.0005 79.5C52.4838 79.5 46.7953 74.2859 45.2169 66.8504L43.8417 60.443C43.1853 57.3035 40.4661 55.3941 37.7781 56.1836C35.0902 56.973 33.4805 60.1492 34.1525 63.307L35.5121 69.7145C37.2312 77.7926 41.7944 84.3285 47.7486 88.0004V144.125C47.7486 147.375 49.9833 150 52.7494 150C55.5155 150 57.7503 147.375 57.7503 144.125V120.625H60.2507V144.125C60.2507 147.375 62.4855 150 65.2516 150C68.0176 150 70.2524 147.375 70.2524 144.125V88.0004C76.2065 84.3285 80.7698 77.7926 82.4889 69.7145L83.8485 63.307C84.5205 60.1676 82.8952 56.973 80.2072 56.1836C77.5193 55.3941 74.8157 57.3035 74.1593 60.443L72.7997 66.8504H72.7841ZM59.0005 73.625C60.99 73.625 62.8979 72.6965 64.3047 71.0439C65.7115 69.3912 66.5018 67.1497 66.5018 64.8125C66.5018 62.4753 65.7115 60.2338 64.3047 58.5811C62.8979 56.9285 60.99 56 59.0005 56C57.011 56 55.1031 56.9285 53.6963 58.5811C52.2895 60.2338 51.4992 62.4753 51.4992 64.8125C51.4992 67.1497 52.2895 69.3912 53.6963 71.0439C55.1031 72.6965 57.011 73.625 59.0005 73.625Z" fill="#FCFCFC"/>
<defs>
<linearGradient id="paint0_linear_1310_6238" x1="90.5" y1="0" x2="90.5" y2="147" gradientUnits="userSpaceOnUse">
<stop stop-color="#E231A8"/>
<stop offset="0.159288" stop-color="#9F337E"/>
<stop offset="0.410772" stop-color="#882974"/>
<stop offset="0.658558" stop-color="#712C7C"/>
<stop offset="0.873059" stop-color="#281538"/>
<stop offset="1" stop-color="#09030E"/>
</linearGradient>
</defs>
</svg>
