<svg width="181" height="180" viewBox="0 0 181 180" fill="none" xmlns="http://www.w3.org/2000/svg">
<path d="M35.9825 161.609C20.87 150.103 9.78497 134.112 4.31415 115.923C-1.15668 97.7341 -0.732788 78.2808 5.52512 60.3475C11.783 42.4143 23.5541 26.9206 39.1534 16.0843C54.7527 5.24805 73.3804 -0.37523 92.3701 0.0194306C111.36 0.414091 129.738 6.80646 144.873 18.2815C160.009 29.7565 171.126 45.7259 176.634 63.9037C182.141 82.0814 181.756 101.536 175.534 119.481C169.313 137.427 157.573 152.945 141.995 163.812L133.057 151.001C145.931 142.019 155.633 129.195 160.775 114.364C165.917 99.5334 166.235 83.4558 161.684 68.4331C157.132 53.4104 147.944 40.2128 135.436 30.7295C122.927 21.2461 107.739 15.9633 92.0455 15.6371C76.3518 15.311 60.9573 19.9582 48.0655 28.9137C35.1737 37.8691 25.4457 50.6736 20.274 65.4942C15.1022 80.3149 14.7519 96.3918 19.2732 111.424C23.7945 126.455 32.9555 139.671 45.4449 149.18L35.9825 161.609Z" fill="url(#paint0_linear_1310_6311)"/>
<g clip-path="url(#clip0_1310_6311)">
<path d="M142 132.119H38V54H142V132.119ZM44.0938 125.893H135.906V60.2256H44.0938V125.893Z" fill="#FCFCFC"/>
<path d="M75.9966 152.913L71.3694 148.86C75.8381 143.529 75.8381 136.363 71.3694 131.032L75.9966 126.981C82.4011 134.613 82.4011 145.278 75.9966 152.913ZM104.003 152.913C97.5989 145.278 97.5989 134.613 104.003 126.973L108.631 131.023C104.162 136.355 104.162 143.52 108.631 148.851L104.003 152.913Z" fill="#FCFCFC"/>
<path d="M117.538 147.774H62.4644V154H117.538V147.774Z" fill="#FCFCFC"/>
<path d="M99.167 107.113H50.2383V66.5031H99.167V107.113ZM56.332 100.887H93.0733V72.7287H56.332V100.887Z" fill="#FCFCFC"/>
<path d="M129.776 113.39H50.2261V119.616H129.776V113.39Z" fill="#FCFCFC"/>
<path d="M75.2267 105.727L65.5234 90.8556L55.8201 105.727L50.7501 102.273L65.5234 79.6329L80.2967 102.273L75.2267 105.727Z" fill="#FCFCFC"/>
<path d="M93.7151 105.913L81.1823 89.4736L75.3323 98.1853L70.307 94.6637L80.8695 78.9315L98.5231 102.087L93.7151 105.913Z" fill="#FCFCFC"/>
<path d="M129.761 94.6094H105.311V66.5028H129.761V94.6094ZM111.404 88.3838H123.667V72.7284H111.404V88.3838Z" fill="#FCFCFC"/>
<path d="M129.774 100.887H105.297V107.113H129.774V100.887Z" fill="#FCFCFC"/>
</g>
<defs>
<linearGradient id="paint0_linear_1310_6311" x1="90.5" y1="0" x2="90.5" y2="147" gradientUnits="userSpaceOnUse">
<stop stop-color="#E231A8"/>
<stop offset="0.159288" stop-color="#9F337E"/>
<stop offset="0.410772" stop-color="#882974"/>
<stop offset="0.658558" stop-color="#712C7C"/>
<stop offset="0.873059" stop-color="#281538"/>
<stop offset="1" stop-color="#09030E"/>
</linearGradient>
<clipPath id="clip0_1310_6311">
<rect width="104" height="100" fill="white" transform="translate(38 54)"/>
</clipPath>
</defs>
</svg>
