<svg width="181" height="180" viewBox="0 0 181 180" fill="none" xmlns="http://www.w3.org/2000/svg">
<path d="M35.9825 161.609C20.87 150.103 9.78497 134.112 4.31415 115.923C-1.15668 97.7341 -0.732788 78.2808 5.52512 60.3475C11.783 42.4143 23.5541 26.9206 39.1534 16.0843C54.7527 5.24805 73.3804 -0.37523 92.3701 0.0194306C111.36 0.414091 129.738 6.80646 144.873 18.2815C160.009 29.7565 171.126 45.7259 176.634 63.9037C182.141 82.0814 181.756 101.536 175.534 119.481C169.313 137.427 157.573 152.945 141.995 163.812L133.057 151.001C145.931 142.019 155.633 129.195 160.775 114.364C165.917 99.5334 166.235 83.4558 161.684 68.4331C157.132 53.4104 147.944 40.2128 135.436 30.7295C122.927 21.2461 107.739 15.9633 92.0455 15.6371C76.3518 15.311 60.9573 19.9582 48.0655 28.9137C35.1737 37.8691 25.4457 50.6736 20.274 65.4942C15.1022 80.3149 14.7519 96.3918 19.2732 111.424C23.7945 126.455 32.9555 139.671 45.4449 149.18L35.9825 161.609Z" fill="url(#paint0_linear_1310_6327)"/>
<g clip-path="url(#clip0_1310_6327)">
<path d="M100.872 104.836C97.6594 104.028 95.0446 102.239 95.0446 102.239L93.0027 108.559L92.6292 109.759V109.735L92.3054 110.739L91.2346 107.751C93.949 104.028 90.5125 104.174 90.5125 104.174C90.5125 104.174 87.076 104.028 89.7903 107.751L88.7196 110.764L88.3958 109.735L85.9803 102.215C85.9803 102.215 83.3656 104.028 80.1533 104.811C78.5596 105.203 77.9619 106.551 77.7876 107.8C80.6762 111.695 85.308 114.12 90.4627 114.12C91.6331 114.12 92.8284 113.997 93.9988 113.728C97.759 112.87 100.996 110.764 103.212 107.726C103.038 106.526 102.441 105.228 100.872 104.836Z" fill="#FCFCFC"/>
<path d="M90.5127 78.6745C91.1453 78.6745 91.6582 78.17 91.6582 77.5477C91.6582 76.9254 91.1453 76.4209 90.5127 76.4209C89.88 76.4209 89.3672 76.9254 89.3672 77.5477C89.3672 78.17 89.88 78.6745 90.5127 78.6745Z" fill="#FCFCFC"/>
<path d="M90.5127 81.9568C91.1453 81.9568 91.6582 81.4524 91.6582 80.83C91.6582 80.2077 91.1453 79.7032 90.5127 79.7032C89.88 79.7032 89.3672 80.2077 89.3672 80.83C89.3672 81.4524 89.88 81.9568 90.5127 81.9568Z" fill="#FCFCFC"/>
<path d="M90.5127 65.5449C91.1352 65.5449 91.6582 65.0304 91.6582 64.4181C91.6582 63.8057 91.1352 63.2913 90.5127 63.2913C89.8901 63.2913 89.3672 63.8057 89.3672 64.4181C89.3672 65.0304 89.8901 65.5449 90.5127 65.5449Z" fill="#FCFCFC"/>
<path d="M90.5127 68.8272C91.1453 68.8272 91.6582 68.3227 91.6582 67.7004C91.6582 67.0781 91.1453 66.5736 90.5127 66.5736C89.88 66.5736 89.3672 67.0781 89.3672 67.7004C89.3672 68.3227 89.88 68.8272 90.5127 68.8272Z" fill="#FCFCFC"/>
<path d="M90.5127 72.1097C91.1453 72.1097 91.6582 71.6052 91.6582 70.9829C91.6582 70.3606 91.1453 69.8561 90.5127 69.8561C89.88 69.8561 89.3672 70.3606 89.3672 70.9829C89.3672 71.6052 89.88 72.1097 90.5127 72.1097Z" fill="#FCFCFC"/>
<path d="M90.5127 75.392C90.6123 75.392 90.7119 75.3675 90.7866 75.343C91.2846 75.2206 91.6582 74.7796 91.6582 74.2652C91.6582 73.6528 91.1352 73.1384 90.5127 73.1384C89.8901 73.1384 89.3672 73.6528 89.3672 74.2652C89.3672 74.8776 89.8901 75.392 90.5127 75.392Z" fill="#FCFCFC"/>
<path d="M90.5127 132.957C91.1453 132.957 91.6582 132.452 91.6582 131.83C91.6582 131.208 91.1453 130.703 90.5127 130.703C89.88 130.703 89.3672 131.208 89.3672 131.83C89.3672 132.452 89.88 132.957 90.5127 132.957Z" fill="#FCFCFC"/>
<path d="M90.5127 136.239C91.1453 136.239 91.6582 135.735 91.6582 135.112C91.6582 134.49 91.1453 133.985 90.5127 133.985C89.88 133.985 89.3672 134.49 89.3672 135.112C89.3672 135.735 89.88 136.239 90.5127 136.239Z" fill="#FCFCFC"/>
<path d="M90.5127 119.802C91.1352 119.802 91.6582 119.288 91.6582 118.676C91.6582 118.063 91.1352 117.549 90.5127 117.549C89.8901 117.549 89.3672 118.063 89.3672 118.676C89.3672 119.312 89.8652 119.802 90.5127 119.802Z" fill="#FCFCFC"/>
<path d="M90.5127 123.11C91.1453 123.11 91.6582 122.605 91.6582 121.983C91.6582 121.36 91.1453 120.856 90.5127 120.856C89.88 120.856 89.3672 121.36 89.3672 121.983C89.3672 122.605 89.88 123.11 90.5127 123.11Z" fill="#FCFCFC"/>
<path d="M90.5127 126.392C91.1453 126.392 91.6582 125.887 91.6582 125.265C91.6582 124.643 91.1453 124.138 90.5127 124.138C89.88 124.138 89.3672 124.643 89.3672 125.265C89.3672 125.887 89.88 126.392 90.5127 126.392Z" fill="#FCFCFC"/>
<path d="M90.2886 129.65C90.3633 129.674 90.438 129.674 90.5127 129.674C90.5874 129.674 90.6621 129.674 90.7368 129.65C91.2597 129.552 91.6582 129.086 91.6582 128.548C91.6582 127.935 91.1352 127.421 90.5127 127.421C89.8901 127.421 89.3672 127.935 89.3672 128.548C89.3672 129.086 89.7656 129.527 90.2886 129.65Z" fill="#FCFCFC"/>
<path d="M116.534 112.821C115.962 112.527 115.289 112.748 114.99 113.311C114.692 113.875 114.916 114.536 115.488 114.83C115.986 115.075 116.559 114.928 116.908 114.536C116.958 114.487 117.007 114.413 117.032 114.34C117.057 114.266 117.107 114.193 117.107 114.119C117.256 113.63 117.007 113.091 116.534 112.821Z" fill="#FCFCFC"/>
<path d="M118.975 116.447C119.608 116.447 120.121 115.942 120.121 115.32C120.121 114.698 119.608 114.193 118.975 114.193C118.342 114.193 117.83 114.698 117.83 115.32C117.83 115.942 118.342 116.447 118.975 116.447Z" fill="#FCFCFC"/>
<path d="M121.963 117.941C122.596 117.941 123.109 117.437 123.109 116.814C123.109 116.192 122.596 115.688 121.963 115.688C121.331 115.688 120.818 116.192 120.818 116.814C120.818 117.437 121.331 117.941 121.963 117.941Z" fill="#FCFCFC"/>
<path d="M107.595 108.363C107.022 108.094 106.349 108.314 106.051 108.853C105.777 109.416 105.976 110.078 106.549 110.372C107.121 110.666 107.794 110.445 108.093 109.882C108.391 109.318 108.167 108.657 107.595 108.363Z" fill="#FCFCFC"/>
<path d="M110.06 111.988C110.693 111.988 111.206 111.484 111.206 110.862C111.206 110.239 110.693 109.735 110.06 109.735C109.427 109.735 108.915 110.239 108.915 110.862C108.915 111.484 109.427 111.988 110.06 111.988Z" fill="#FCFCFC"/>
<path d="M113.023 113.483C113.656 113.483 114.169 112.978 114.169 112.356C114.169 111.733 113.656 111.229 113.023 111.229C112.391 111.229 111.878 111.733 111.878 112.356C111.878 112.978 112.391 113.483 113.023 113.483Z" fill="#FCFCFC"/>
<path d="M64.4894 112.822C63.9166 113.115 63.6925 113.777 63.9913 114.34C64.0162 114.414 64.066 114.463 64.1159 114.536C64.4396 114.953 65.0372 115.075 65.5353 114.83C66.108 114.561 66.3321 113.875 66.0333 113.311C65.7345 112.773 65.0372 112.552 64.4894 112.822Z" fill="#FCFCFC"/>
<path d="M62.0244 116.447C62.657 116.447 63.1699 115.942 63.1699 115.32C63.1699 114.698 62.657 114.193 62.0244 114.193C61.3918 114.193 60.8789 114.698 60.8789 115.32C60.8789 115.942 61.3918 116.447 62.0244 116.447Z" fill="#FCFCFC"/>
<path d="M59.061 117.941C59.6937 117.941 60.2065 117.437 60.2065 116.814C60.2065 116.192 59.6937 115.688 59.061 115.688C58.4284 115.688 57.9155 116.192 57.9155 116.814C57.9155 117.437 58.4284 117.941 59.061 117.941Z" fill="#FCFCFC"/>
<path d="M73.4044 108.363C72.8317 108.657 72.6076 109.318 72.9064 109.882C73.1803 110.445 73.8776 110.666 74.4503 110.372C75.023 110.102 75.2472 109.416 74.9483 108.853C74.6495 108.314 73.9772 108.094 73.4044 108.363Z" fill="#FCFCFC"/>
<path d="M70.9639 111.988C71.5965 111.988 72.1093 111.484 72.1093 110.862C72.1093 110.239 71.5965 109.735 70.9639 109.735C70.3312 109.735 69.8184 110.239 69.8184 110.862C69.8184 111.484 70.3312 111.988 70.9639 111.988Z" fill="#FCFCFC"/>
<path d="M67.9761 113.483C68.6087 113.483 69.1215 112.978 69.1215 112.356C69.1215 111.733 68.6087 111.229 67.9761 111.229C67.3434 111.229 66.8306 111.733 66.8306 112.356C66.8306 112.978 67.3434 113.483 67.9761 113.483Z" fill="#FCFCFC"/>
<path d="M65.5359 84.7004C65.0379 84.4555 64.4651 84.6025 64.1165 84.9944C64.0667 85.0434 64.0169 85.1169 63.992 85.1904C63.9671 85.2638 63.9173 85.3373 63.9173 85.4108C63.7679 85.9252 64.0169 86.4641 64.49 86.7091C65.0628 86.9785 65.7351 86.7581 66.0339 86.2192C66.3079 85.6558 66.0837 84.9944 65.5359 84.7004Z" fill="#FCFCFC"/>
<path d="M62.0488 85.3371C62.6814 85.3371 63.1943 84.8326 63.1943 84.2103C63.1943 83.588 62.6814 83.0835 62.0488 83.0835C61.4162 83.0835 60.9033 83.588 60.9033 84.2103C60.9033 84.8326 61.4162 85.3371 62.0488 85.3371Z" fill="#FCFCFC"/>
<path d="M59.061 83.8674C59.6937 83.8674 60.2065 83.3629 60.2065 82.7406C60.2065 82.1183 59.6937 81.6138 59.061 81.6138C58.4284 81.6138 57.9155 82.1183 57.9155 82.7406C57.9155 83.3629 58.4284 83.8674 59.061 83.8674Z" fill="#FCFCFC"/>
<path d="M74.4505 89.183C73.8778 88.8891 73.2055 89.1095 72.9066 89.6729C72.6327 90.2363 72.8319 90.8977 73.4047 91.1917C73.9774 91.4611 74.6498 91.2407 74.9486 90.7018C75.2474 90.1629 75.0233 89.4525 74.4505 89.183Z" fill="#FCFCFC"/>
<path d="M70.9639 89.8199C71.5965 89.8199 72.1093 89.3154 72.1093 88.6931C72.1093 88.0708 71.5965 87.5663 70.9639 87.5663C70.3312 87.5663 69.8184 88.0708 69.8184 88.6931C69.8184 89.3154 70.3312 89.8199 70.9639 89.8199Z" fill="#FCFCFC"/>
<path d="M67.9761 88.3259C68.6087 88.3259 69.1215 87.8214 69.1215 87.1991C69.1215 86.5768 68.6087 86.0723 67.9761 86.0723C67.3434 86.0723 66.8306 86.5768 66.8306 87.1991C66.8306 87.8214 67.3434 88.3259 67.9761 88.3259Z" fill="#FCFCFC"/>
<path d="M116.908 85.0189C116.584 84.6025 115.986 84.48 115.488 84.725C114.916 84.9944 114.692 85.6803 114.99 86.2437C115.264 86.8071 115.962 87.0275 116.534 86.7336C117.107 86.4641 117.331 85.7783 117.032 85.2149C117.007 85.1414 116.958 85.0679 116.908 85.0189Z" fill="#FCFCFC"/>
<path d="M118.975 85.3371C119.608 85.3371 120.121 84.8326 120.121 84.2103C120.121 83.588 119.608 83.0835 118.975 83.0835C118.342 83.0835 117.83 83.588 117.83 84.2103C117.83 84.8326 118.342 85.3371 118.975 85.3371Z" fill="#FCFCFC"/>
<path d="M121.963 83.8674C122.596 83.8674 123.109 83.3629 123.109 82.7406C123.109 82.1183 122.596 81.6138 121.963 81.6138C121.331 81.6138 120.818 82.1183 120.818 82.7406C120.818 83.3629 121.331 83.8674 121.963 83.8674Z" fill="#FCFCFC"/>
<path d="M106.574 89.183C106.001 89.4525 105.777 90.1384 106.076 90.7018C106.35 91.2652 107.047 91.4856 107.62 91.1917C108.192 90.8977 108.417 90.2363 108.118 89.6729C107.819 89.1095 107.147 88.8891 106.574 89.183Z" fill="#FCFCFC"/>
<path d="M110.06 89.8199C110.693 89.8199 111.206 89.3154 111.206 88.6931C111.206 88.0708 110.693 87.5663 110.06 87.5663C109.427 87.5663 108.915 88.0708 108.915 88.6931C108.915 89.3154 109.427 89.8199 110.06 89.8199Z" fill="#FCFCFC"/>
<path d="M113.048 88.3259C113.681 88.3259 114.194 87.8214 114.194 87.1991C114.194 86.5768 113.681 86.0723 113.048 86.0723C112.416 86.0723 111.903 86.5768 111.903 87.1991C111.903 87.8214 112.416 88.3259 113.048 88.3259Z" fill="#FCFCFC"/>
<path d="M99.6014 57.0693C99.452 56.8734 99.2528 56.7019 99.0536 56.5549C96.7128 54.7667 94.372 53.6154 93.849 53.3705C93.7992 53.346 93.7494 53.2725 93.7494 53.2235C93.7494 53.003 93.7494 52.4396 93.7494 51.8028C94.2475 51.1414 94.5463 50.4065 94.6459 49.7451C94.87 49.7206 95.1938 49.4022 95.5175 48.2509C95.9657 46.6832 95.4926 46.4627 95.0941 46.4872C95.1688 46.2667 95.2187 46.0463 95.2685 45.8503C95.9657 41.784 93.9237 41.6616 93.9237 41.6616C93.9237 41.6616 93.5751 41.0247 92.7036 40.5348C92.1059 40.1918 91.2841 39.9224 90.1885 40.0204C89.8398 40.0449 89.4912 40.0938 89.1924 40.2163C88.794 40.3388 88.4204 40.5348 88.0967 40.7797C87.6983 41.0247 87.2998 41.3431 86.9512 41.7106C86.4034 42.2495 85.9302 42.9598 85.731 43.8172C85.5567 44.4786 85.6065 45.1399 85.731 45.8748C85.7808 46.0953 85.8306 46.2912 85.9053 46.5117C85.5069 46.4627 85.0089 46.7077 85.482 48.2754C85.8057 49.4267 86.1294 49.7451 86.3536 49.7696C86.4532 50.431 86.7769 51.1904 87.25 51.8517V53.199C87.25 53.2725 87.2251 53.3215 87.1504 53.346C86.6524 53.5909 84.2867 54.7667 81.9459 56.5304C81.7467 56.6774 81.5724 56.8489 81.3981 57.0448C83.8634 59.078 87.0259 60.3027 90.4873 60.3027C93.9736 60.3272 97.1361 59.1025 99.6014 57.0693Z" fill="#FCFCFC"/>
<path d="M99.0534 156.203C96.7126 154.415 94.3719 153.264 93.8489 153.019C93.7991 152.994 93.7493 152.921 93.7493 152.872C93.7493 152.651 93.7493 152.088 93.7493 151.451C94.2474 150.79 94.5462 150.055 94.6458 149.394C94.8699 149.369 95.1936 149.051 95.5174 147.899C95.9656 146.332 95.4925 146.111 95.094 146.136C95.1687 145.915 95.2185 145.695 95.2683 145.499C95.9656 141.432 93.9236 141.31 93.9236 141.31C93.9236 141.31 93.575 140.673 92.7034 140.183C92.1058 139.84 91.284 139.571 90.1883 139.669C89.8397 139.693 89.4911 139.742 89.1923 139.865C88.7938 139.987 88.4203 140.183 88.0966 140.428C87.6981 140.673 87.2997 140.992 86.9511 141.359C86.4032 141.898 85.9301 142.608 85.7309 143.466C85.5566 144.127 85.6064 144.788 85.7309 145.523C85.7807 145.744 85.8305 145.94 85.9052 146.16C85.5068 146.111 85.0087 146.356 85.4819 147.924C85.8056 149.075 86.1293 149.394 86.3534 149.418C86.453 150.079 86.7768 150.839 87.2499 151.5V152.896C87.2499 152.97 87.225 153.019 87.1503 153.043C86.6523 153.288 84.2866 154.464 81.9458 156.228C81.7466 156.375 81.5723 156.546 81.3979 156.742C83.8632 158.775 87.0258 160 90.4872 160C93.9485 160 97.1111 158.775 99.5764 156.742C99.4519 156.522 99.2526 156.35 99.0534 156.203Z" fill="#FCFCFC"/>
<path d="M143.977 122.865C141.636 121.076 139.296 119.925 138.773 119.68C138.723 119.656 138.673 119.582 138.673 119.533C138.673 119.313 138.673 118.749 138.673 118.112C139.171 117.451 139.47 116.716 139.57 116.055C139.794 116.03 140.117 115.712 140.441 114.561C140.889 112.993 140.416 112.772 140.018 112.797C140.093 112.576 140.142 112.356 140.192 112.16C140.889 108.094 138.847 107.971 138.847 107.971C138.847 107.971 138.499 107.334 137.627 106.844C137.03 106.502 136.208 106.232 135.112 106.33C134.764 106.355 134.415 106.404 134.116 106.526C133.718 106.648 133.344 106.844 133.02 107.089C132.622 107.334 132.224 107.653 131.875 108.02C131.327 108.559 130.854 109.27 130.655 110.127C130.48 110.788 130.53 111.45 130.655 112.185C130.705 112.405 130.754 112.601 130.829 112.821C130.431 112.772 129.933 113.017 130.406 114.585C130.729 115.736 131.053 116.055 131.277 116.079C131.377 116.741 131.701 117.5 132.174 118.161V119.558C132.174 119.631 132.149 119.68 132.074 119.705C131.576 119.95 129.21 121.125 126.87 122.889C126.67 123.036 126.496 123.208 126.322 123.404C128.787 125.437 131.95 126.661 135.411 126.661C138.872 126.661 142.035 125.437 144.5 123.404C144.351 123.183 144.176 123.012 143.977 122.865Z" fill="#FCFCFC"/>
<path d="M144.5 84.7983C144.351 84.6024 144.152 84.4309 143.952 84.2839C141.612 82.4957 139.271 81.3444 138.748 81.0995C138.698 81.075 138.648 81.0015 138.648 80.9525C138.648 80.732 138.648 80.1686 138.648 79.5318C139.146 78.8704 139.445 78.1355 139.545 77.4741C139.769 77.4496 140.093 77.1312 140.416 75.9799C140.865 74.4122 140.391 74.1917 139.993 74.2162C140.068 73.9957 140.117 73.7753 140.167 73.5793C140.865 69.513 138.823 69.3906 138.823 69.3906C138.823 69.3906 138.474 68.7537 137.602 68.2638C137.005 67.9208 136.183 67.6514 135.087 67.7494C134.739 67.7739 134.39 67.8228 134.091 67.9453C133.693 68.0678 133.319 68.2638 132.996 68.5087C132.597 68.7537 132.199 69.0721 131.85 69.4396C131.302 69.9785 130.829 70.6888 130.63 71.5462C130.456 72.2076 130.505 72.8689 130.63 73.6038C130.68 73.8243 130.729 74.0202 130.804 74.2407C130.406 74.1917 129.908 74.4367 130.381 76.0044C130.705 77.1557 131.028 77.4741 131.252 77.4986C131.352 78.16 131.676 78.9194 132.149 79.5807V80.977C132.149 81.0505 132.124 81.0995 132.049 81.124C131.551 81.3689 129.186 82.5447 126.845 84.3084C126.646 84.4554 126.471 84.6269 126.297 84.8228C128.762 86.856 131.925 88.0807 135.386 88.0807C138.872 88.0562 142.06 86.8315 144.5 84.7983Z" fill="#FCFCFC"/>
<path d="M54.1555 122.865C51.8147 121.076 49.4739 119.925 48.951 119.68C48.9012 119.656 48.8514 119.582 48.8514 119.533C48.8514 119.313 48.8514 118.749 48.8514 118.112C49.3494 117.451 49.6482 116.716 49.7478 116.055C49.972 116.03 50.2957 115.712 50.6194 114.561C51.0676 112.993 50.5945 112.772 50.1961 112.797C50.2708 112.576 50.3206 112.356 50.3704 112.16C51.0676 108.094 49.0257 107.971 49.0257 107.971C49.0257 107.971 48.6771 107.334 47.8055 106.844C47.2078 106.502 46.3861 106.232 45.2904 106.33C44.9418 106.355 44.5931 106.404 44.2943 106.526C43.8959 106.648 43.5223 106.844 43.1986 107.089C42.8002 107.334 42.4018 107.653 42.0531 108.02C41.5053 108.559 41.0322 109.27 40.8329 110.127C40.6586 110.788 40.7084 111.45 40.8329 112.185C40.8827 112.405 40.9325 112.601 41.0073 112.821C40.6088 112.772 40.1108 113.017 40.5839 114.585C40.9076 115.736 41.2314 116.055 41.4555 116.079C41.5551 116.741 41.8788 117.5 42.352 118.161V119.558C42.352 119.631 42.3271 119.68 42.2523 119.705C41.7543 119.95 39.3886 121.125 37.0478 122.889C36.8486 123.036 36.6743 123.208 36.5 123.404C38.9653 125.437 42.1278 126.661 45.5892 126.661C49.0506 126.661 52.2131 125.437 54.6784 123.404C54.529 123.183 54.3547 123.012 54.1555 122.865Z" fill="#FCFCFC"/>
<path d="M54.1555 84.284C51.8147 82.4959 49.4739 81.3446 48.951 81.0996C48.9012 81.0751 48.8514 81.0016 48.8514 80.9526C48.8514 80.7322 48.8514 80.1688 48.8514 79.5319C49.3494 78.8705 49.6482 78.1356 49.7478 77.4742C49.972 77.4498 50.2957 77.1313 50.6194 75.98C51.0676 74.4123 50.5945 74.1918 50.1961 74.2163C50.2708 73.9959 50.3206 73.7754 50.3704 73.5794C51.0676 69.5132 49.0257 69.3907 49.0257 69.3907C49.0257 69.3907 48.6771 68.7538 47.8055 68.2639C47.2078 67.921 46.3861 67.6515 45.2904 67.7495C44.9418 67.774 44.5931 67.823 44.2943 67.9454C43.8959 68.0679 43.5223 68.2639 43.1986 68.5088C42.8002 68.7538 42.4018 69.0722 42.0531 69.4397C41.5053 69.9786 41.0322 70.689 40.8329 71.5463C40.6586 72.2077 40.7084 72.8691 40.8329 73.6039C40.8827 73.8244 40.9325 74.0204 41.0073 74.2408C40.6088 74.1918 40.1108 74.4368 40.5839 76.0045C40.9076 77.1558 41.2314 77.4742 41.4555 77.4987C41.5551 78.1601 41.8788 78.9195 42.352 79.5809V80.9771C42.352 81.0506 42.3271 81.0996 42.2523 81.1241C41.7543 81.3691 39.3886 82.5448 37.0478 84.3085C36.8486 84.4555 36.6743 84.627 36.5 84.8229C38.9653 86.8561 42.1278 88.0809 45.5892 88.0809C49.0506 88.0809 52.2131 86.8561 54.6784 84.8229C54.529 84.6025 54.3547 84.431 54.1555 84.284Z" fill="#FCFCFC"/>
<path d="M83.9625 96.0664C84.3858 97.5606 84.7842 97.9771 85.0831 98.0016C85.357 99.7653 86.7515 102.019 89.0425 102.827C89.9887 103.146 91.0097 103.146 91.9311 102.827C94.1723 102.019 95.6166 99.7898 95.8905 98.0016C96.1893 97.9771 96.5878 97.5606 97.0111 96.0664C97.6087 94.0333 96.9862 93.7148 96.4383 93.7638C96.538 93.4944 96.6127 93.2004 96.6625 92.931C97.5589 87.6399 94.9193 87.4685 94.9193 87.4685C94.9193 87.4685 94.4711 86.6356 93.3256 86.0232C92.5536 85.5823 91.4829 85.2148 90.0634 85.3373C89.6152 85.3618 89.167 85.4353 88.7685 85.5823C88.2456 85.7538 87.7725 85.9987 87.3242 86.2927C86.8013 86.6356 86.3033 87.0275 85.855 87.4929C85.1578 88.2033 84.5352 89.1097 84.2613 90.2365C84.0372 91.0938 84.087 91.9756 84.2613 92.931C84.3111 93.2004 84.3858 93.4944 84.4854 93.7638C84.0123 93.7393 83.3897 94.0333 83.9625 96.0664Z" fill="#FCFCFC"/>
</g>
<defs>
<linearGradient id="paint0_linear_1310_6327" x1="90.5" y1="0" x2="90.5" y2="147" gradientUnits="userSpaceOnUse">
<stop stop-color="#E231A8"/>
<stop offset="0.159288" stop-color="#9F337E"/>
<stop offset="0.410772" stop-color="#882974"/>
<stop offset="0.658558" stop-color="#712C7C"/>
<stop offset="0.873059" stop-color="#281538"/>
<stop offset="1" stop-color="#09030E"/>
</linearGradient>
<clipPath id="clip0_1310_6327">
<rect width="120" height="120" fill="white" transform="translate(30.5 40)"/>
</clipPath>
</defs>
</svg>
