<svg width="181" height="180" viewBox="0 0 181 180" fill="none" xmlns="http://www.w3.org/2000/svg">
<path d="M35.9825 161.609C20.87 150.103 9.78497 134.112 4.31415 115.923C-1.15668 97.7341 -0.732788 78.2808 5.52512 60.3475C11.783 42.4143 23.5541 26.9206 39.1534 16.0843C54.7527 5.24805 73.3804 -0.37523 92.3701 0.0194306C111.36 0.414091 129.738 6.80646 144.873 18.2815C160.009 29.7565 171.126 45.7259 176.634 63.9037C182.141 82.0814 181.756 101.536 175.534 119.481C169.313 137.427 157.573 152.945 141.995 163.812L133.057 151.001C145.931 142.019 155.633 129.195 160.775 114.364C165.917 99.5334 166.235 83.4558 161.684 68.4331C157.132 53.4104 147.944 40.2128 135.436 30.7295C122.927 21.2461 107.739 15.9633 92.0455 15.6371C76.3518 15.311 60.9573 19.9582 48.0655 28.9137C35.1737 37.8691 25.4457 50.6736 20.274 65.4942C15.1022 80.3149 14.7519 96.3918 19.2732 111.424C23.7945 126.455 32.9555 139.671 45.4449 149.18L35.9825 161.609Z" fill="url(#paint0_linear_1310_6201)"/>
<g clip-path="url(#clip0_1310_6201)">
<path d="M83.6063 37.1098C85.5666 35.1521 88.1895 34.0001 90.9574 33.8812C93.7254 33.7623 96.4374 34.685 98.5584 36.4675L99.2672 37.1154L109.789 47.6317H124.664C127.457 47.6322 130.147 48.6882 132.195 50.588C134.242 52.4878 135.497 55.0912 135.706 57.8767L135.739 58.7073V73.5819L146.261 84.1038C148.22 86.0644 149.373 88.6883 149.492 91.4576C149.611 94.2268 148.688 96.94 146.904 99.0614L146.256 99.7647L135.734 110.287V125.161C135.735 127.955 134.679 130.647 132.779 132.696C130.879 134.744 128.275 135.999 125.489 136.209L124.664 136.237H109.795L99.2728 146.759C97.3122 148.718 94.6882 149.871 91.9189 149.99C89.1497 150.109 86.4365 149.185 84.3151 147.401L83.6118 146.759L73.09 136.237H58.2099C55.4156 136.238 52.7243 135.182 50.6754 133.282C48.6265 131.382 47.3715 128.778 47.1619 125.992L47.1342 125.161V110.287L36.6124 99.7647C34.6531 97.8041 33.5001 95.1801 33.3812 92.4109C33.2622 89.6416 34.186 86.9284 35.97 84.8071L36.6124 84.1038L47.1342 73.5819V58.7073C47.1347 55.914 48.1907 53.2241 50.0905 51.1764C51.9903 49.1287 54.5938 47.8744 57.3792 47.6649L58.2099 47.6317H73.0844L83.6063 37.1098ZM91.4368 44.9514L80.9149 55.4732C79.0754 57.3099 76.6485 58.441 74.0591 58.6686L73.0844 58.7073H58.2099V73.5819C58.2105 76.1841 57.2949 78.7034 55.6237 80.698L54.9647 81.4179L44.4428 91.9398L54.9647 102.456C56.8034 104.295 57.9365 106.722 58.1656 109.312L58.2099 110.287V125.161H73.0844C75.6866 125.16 78.2059 126.076 80.2005 127.747L80.9204 128.406L91.4368 138.928L101.959 128.406C103.797 126.568 106.224 125.435 108.814 125.205L109.789 125.161H124.664V110.287C124.663 107.684 125.579 105.165 127.25 103.17L127.909 102.451L138.431 91.9342L127.909 81.4124C126.07 79.5737 124.937 77.1467 124.708 74.5566L124.664 73.5819V58.7073H109.789C107.187 58.708 104.668 57.7924 102.673 56.1212L101.953 55.4622L91.4312 44.9403L91.4368 44.9514ZM108.493 75.2322C109.49 74.239 110.827 73.6623 112.233 73.6194C113.64 73.5765 115.01 74.0704 116.065 75.001C117.12 75.9315 117.782 77.2288 117.915 78.6295C118.049 80.0301 117.644 81.429 116.783 82.5421L116.318 83.0626L89.2936 110.087C88.2385 111.144 86.8321 111.776 85.3416 111.864C83.8511 111.951 82.3802 111.489 81.2084 110.563L80.6768 110.093L67.3639 96.7798C66.3601 95.7855 65.7743 94.4452 65.7264 93.0332C65.6785 91.6212 66.1721 90.2443 67.1062 89.1843C68.0402 88.1242 69.3441 87.4613 70.7509 87.3312C72.1577 87.201 73.5611 87.6135 74.6738 88.4842L75.1943 88.9438L84.9852 98.7347L108.493 75.2322Z" fill="white"/>
</g>
<defs>
<linearGradient id="paint0_linear_1310_6201" x1="90.5" y1="0" x2="90.5" y2="147" gradientUnits="userSpaceOnUse">
<stop stop-color="#E231A8"/>
<stop offset="0.159288" stop-color="#9F337E"/>
<stop offset="0.410772" stop-color="#882974"/>
<stop offset="0.658558" stop-color="#712C7C"/>
<stop offset="0.873059" stop-color="#281538"/>
<stop offset="1" stop-color="#09030E"/>
</linearGradient>
<clipPath id="clip0_1310_6201">
<rect width="120" height="120" fill="white" transform="translate(29.5 30)"/>
</clipPath>
</defs>
</svg>
