<svg width="48" height="49" viewBox="0 0 48 49" xmlns="http://www.w3.org/2000/svg">
<g clip-path="url(#clip0_2137_6151)">
<path d="M48 24.5C48 11.2452 37.2548 0.5 24 0.5C10.7452 0.5 0 11.2452 0 24.5C0 37.7548 10.7452 48.5 24 48.5C37.2548 48.5 48 37.7548 48 24.5Z"/>
<path d="M18.9279 15.0382C18.9279 16.4401 17.7128 17.5765 16.214 17.5765C14.7151 17.5765 13.5 16.4401 13.5 15.0382C13.5 13.6364 14.7151 12.5 16.214 12.5C17.7128 12.5 18.9279 13.6364 18.9279 15.0382Z" fill="#240529"/>
<path d="M13.8711 19.4424H18.5103V33.5002H13.8711V19.4424Z" fill="#240529"/>
<path d="M25.979 19.4422H21.3398V33.5H25.979C25.979 33.5 25.979 29.0744 25.979 26.3074C25.979 24.6464 26.5462 22.9783 28.8089 22.9783C31.3661 22.9783 31.3508 25.1518 31.3388 26.8357C31.3232 29.0366 31.3604 31.2829 31.3604 33.5H35.9996V26.0806C35.9603 21.3431 34.7258 19.1602 30.6646 19.1602C28.2527 19.1602 26.7577 20.2552 25.979 21.2458V19.4422Z" fill="#240529"/>
</g>
<defs>
<clipPath id="clip0_2137_6151">
<rect width="48" height="48" fill="white" transform="translate(0 0.5)"/>
</clipPath>
</defs>
</svg>
