<svg width="121" height="121" viewBox="0 0 121 121" xmlns="http://www.w3.org/2000/svg">
<path fill-rule="evenodd" clip-rule="evenodd" d="M68.1743 100.486C92.5722 96.0955 108.531 71.5477 103.878 45.5709C99.2221 19.5969 75.7054 1.96969 51.2692 6.1387C42.5346 7.63447 34.4781 11.8378 28.1053 18.2232C33.9818 13.4397 40.9598 10.264 48.3927 8.98763C72.8374 4.82081 96.2392 21.7474 100.744 46.851C105.251 71.9546 89.1648 95.7918 64.7572 100.172C61.6691 100.719 58.5291 100.934 55.3891 100.811C59.6601 101.347 63.9641 101.237 68.1743 100.486Z" />
<path fill-rule="evenodd" clip-rule="evenodd" d="M76.7657 100.493C104.477 95.5334 122.905 69.4361 117.992 42.1115C113.076 14.7865 86.6683 -3.48074 58.9167 1.24407C48.9991 2.93864 39.7809 7.65498 32.469 14.4732C39.1981 9.35048 47.177 5.73389 55.6196 4.2868C83.3773 -0.435516 109.665 17.094 114.424 43.5024C119.181 69.9105 100.619 95.2591 72.8981 100.207C69.3908 100.825 65.8301 101.094 62.2733 101.007C67.1043 101.514 71.9841 101.341 76.7657 100.493Z" />
<path fill-rule="evenodd" clip-rule="evenodd" d="M72.9231 100.396C98.6975 95.7687 115.669 70.4844 110.888 43.8364C106.103 17.1892 81.3705 -0.794068 55.5553 3.60681C46.3294 5.18528 37.8039 9.40666 31.0437 15.9946C37.273 11.055 44.653 7.8941 52.5068 6.54718C78.3283 2.1488 102.945 19.4115 107.575 45.1652C112.204 70.9198 95.1023 95.4726 69.3191 100.09C66.0566 100.667 62.7395 100.902 59.425 100.793C63.931 101.321 68.4754 101.189 72.9231 100.396Z" />
<path fill-rule="evenodd" clip-rule="evenodd" d="M94.752 37.4569C78.5471 18.958 48.9807 17.8402 28.6112 34.9569C8.24462 52.0745 4.73817 80.9841 20.7701 99.6281C26.5044 106.288 34.2654 111.003 43.0804 113.18C35.9183 110.611 29.6048 106.294 24.719 100.626C8.68866 81.974 11.638 53.5191 31.317 36.9694C51.001 20.4211 80.0085 22.007 96.207 40.518C98.2495 42.8636 100.03 45.4223 101.515 48.1517C99.8195 44.2533 97.5433 40.6522 94.752 37.4569Z" />
<path fill-rule="evenodd" clip-rule="evenodd" d="M90.4034 30.1562C72.0236 9.1302 39.8501 6.7007 18.433 24.7218C-2.98323 42.7428 -5.58481 74.4331 12.6119 95.6114C19.1206 103.178 27.9059 108.5 37.5761 111.255C29.6853 108.136 22.4883 103.31 16.9444 96.8706C-1.25361 75.6839 0.764232 44.4714 21.4577 27.0477C42.1511 9.6239 73.737 12.5471 92.113 33.5853C94.4318 36.2514 96.4705 39.1406 98.1963 42.2064C96.1921 37.8461 93.5681 33.7878 90.4034 30.1562Z"/>
<path fill-rule="evenodd" clip-rule="evenodd" d="M92.2679 33.4695C75.1547 13.9209 44.4325 12.3168 23.5424 29.8819C2.65096 47.447 -0.549533 77.571 16.3828 97.2694C22.4389 104.307 30.0501 109.203 39.2389 111.606C31.7585 108.819 25.6568 104.358 20.5002 98.3701C3.56534 78.6642 6.197 49.0049 26.3818 32.0224C46.5704 15.04 76.7199 17.1246 93.8255 36.6867C95.9818 39.1649 97.8685 41.8615 99.4509 44.7336C97.6322 40.6388 95.2134 36.8462 92.2679 33.4695Z"/>
<path fill-rule="evenodd" clip-rule="evenodd" d="M26.3533 44.4689C17.3108 67.2235 30.1046 93.5099 54.975 103.272C79.8425 113.034 107.43 102.598 116.684 79.9271C119.985 71.8219 120.595 62.8582 118.437 54.1604C119.471 61.6015 118.545 69.1181 115.735 76.019C106.475 98.6944 79.5568 109.403 55.5178 99.9754C31.4791 90.5464 19.3657 64.5272 28.4221 41.7713C29.5737 38.8956 31.0386 36.1515 32.7967 33.5841C30.0884 36.8805 27.9198 40.5449 26.3533 44.4689Z"/>
<path fill-rule="evenodd" clip-rule="evenodd" d="M21.829 51.6651C11.5329 77.4939 24.3679 106.666 50.5384 116.92C76.709 127.174 106.366 114.653 116.884 88.9103C120.639 79.7078 121.449 69.3581 119.41 59.646C120.289 67.9781 119.186 76.7103 115.994 84.5462C105.469 110.294 76.511 123.101 51.214 113.199C25.9169 103.295 13.801 74.4063 24.1104 48.5746C25.4194 45.3103 27.0625 42.1846 29.0072 39.2492C26.0294 43.0306 23.6106 47.2118 21.829 51.6651Z"/>
<path fill-rule="evenodd" clip-rule="evenodd" d="M23.9348 48.4944C14.371 72.5288 27.2689 100.05 52.7851 110.06C78.3023 120.068 106.835 108.799 116.615 84.8511C120.103 76.2896 120.946 66.9017 118.816 57.7736C119.8 65.5913 118.647 73.4603 115.681 80.7501C105.893 104.702 78.0448 116.251 53.3799 106.585C28.7151 96.9171 16.5178 69.6714 26.0923 45.6355C27.3123 42.5977 28.8525 39.6964 30.6911 36.9766C27.8653 40.4731 25.5887 44.3506 23.9348 48.4944Z"/>
<path fill-rule="evenodd" clip-rule="evenodd" d="M35.1797 39.7916L35.3455 39.6282H42.0201L42.1859 39.7916V40.162C42.1859 41.8559 41.1503 43.2409 39.7768 44.0083C41.4277 44.771 42.4234 46.4076 42.4234 48.0275V48.398L42.2576 48.5613H35.3455L35.1797 48.398V39.7916ZM35.5113 39.9549V48.2346H42.0919V48.0275C42.0919 46.4364 41.0463 44.8155 39.3302 44.1768L39.317 43.8767C40.7558 43.1956 41.8543 41.8319 41.8543 40.162V39.9549H35.5113ZM36.4019 40.8888L36.5677 40.7255H40.6344L40.7993 40.9065C40.6006 42.7105 38.8223 43.7292 37.3646 43.7292H36.5677L36.4019 43.5658V40.8888ZM36.7335 41.0522V43.4025H37.3646C38.6561 43.4025 40.1726 42.5319 40.4432 41.0522H36.7335ZM36.4019 44.6237L36.5677 44.4604H37.5676C39.2501 44.4604 40.7959 45.6676 41.0469 47.281L40.8831 47.4691H36.5677L36.4019 47.3057V44.6237ZM36.7335 44.7871V47.1424H40.6829C40.3722 45.7961 39.0342 44.7871 37.5676 44.7871H36.7335Z"/>
<path d="M39.3874 44.0217C40.8719 43.3208 42.02 41.9065 42.02 40.161V39.7915H35.3441V48.3979H42.2563V48.0284C42.2563 46.3694 41.1715 44.6849 39.3874 44.0217ZM40.6344 40.8863C40.4475 42.583 38.7625 43.5658 37.3658 43.5658H36.5667V40.8863H40.6344ZM36.5667 44.6237H37.565C39.1746 44.6237 40.6467 45.7793 40.8843 47.3032H36.5667V44.6237Z"/>
<path fill-rule="evenodd" clip-rule="evenodd" d="M46.2573 39.8501L46.412 39.6282H47.7831L47.9378 39.7327L51.3065 48.3391L51.1518 48.5613H49.781L49.6265 48.4571L49.2125 47.4073L43.2145 48.6942L43.0142 48.5499C42.9896 48.2922 42.964 48.0117 42.964 47.7591C42.964 45.0031 44.7048 42.7616 47.1497 42.1387L46.2573 39.8501ZM46.6533 39.9549L47.5271 42.1955L47.4081 42.4136C45.0289 42.932 43.2956 45.0748 43.2956 47.7591C43.2956 47.9388 43.3096 48.1364 43.3273 48.3357L49.2805 47.0584L49.4703 47.1588L49.8945 48.2346H50.9102L47.6694 39.9549H46.6533ZM44.6711 46.9001L48.6821 46.0406L47.703 43.5328C45.9804 43.8894 44.8207 45.2055 44.6711 46.9001ZM44.3264 47.0995C44.4021 45.1076 45.7547 43.5403 47.7788 43.1855L47.9626 43.2877L49.061 46.1011L48.9415 46.3194L44.5273 47.2653L44.3264 47.0995Z"/>
<path d="M51.1531 48.3979L47.7841 39.7915H46.412L47.3723 42.2504C44.9139 42.7915 43.1298 45.0041 43.1298 47.7591C43.1298 48.0041 43.1545 48.275 43.1792 48.5334L49.3183 47.218L49.781 48.3979H51.1531ZM44.4895 47.1069C44.5649 45.1895 45.8628 43.6887 47.8091 43.3451L48.9075 46.1597L44.4895 47.1069Z"/>
<path fill-rule="evenodd" clip-rule="evenodd" d="M51.888 39.7915L52.0538 39.6282H59.1639L59.3297 39.7915V40.9715L59.2873 41.0806L53.8444 47.0546H59.2248L59.3905 47.218V48.3979L59.2248 48.5613H51.9252L51.7594 48.3979V47.218L51.8019 47.1088L57.2445 41.1348H52.0538L51.888 40.9715V39.7915ZM52.2196 39.9549V40.8081H57.6161L57.7395 41.0806L52.091 47.2805V48.2346H59.059V47.3813H53.4727L53.3494 47.1088L58.9982 40.9089V39.9549H52.2196Z"/>
<path d="M51.9266 48.398H59.2258V47.218H53.4741L59.1641 40.9715V39.7916H52.0514V40.9715H57.6162L51.9266 47.218V48.398Z"/>
<path fill-rule="evenodd" clip-rule="evenodd" d="M63.1019 39.85L63.2566 39.6282H64.6262L64.7808 39.7327L68.1524 48.3391L67.9977 48.5613H66.6269L66.4724 48.4571L66.0584 47.4073L60.0604 48.6942L59.8601 48.5499C59.8354 48.2922 59.8099 48.0117 59.8099 47.7591C59.8099 45.0032 61.5506 42.7616 63.9929 42.1388L63.1019 39.85ZM63.4978 39.9549L64.3702 42.1956L64.2512 42.4136C61.8748 42.9319 60.1415 45.0747 60.1415 47.7591C60.1415 47.9388 60.1555 48.1364 60.1731 48.3357L66.1264 47.0584L66.3162 47.1588L66.7403 48.2346H67.756L64.5124 39.9549H63.4978ZM61.5158 46.9001L65.5266 46.0406L64.5461 43.5328C62.8263 43.8894 61.6666 45.2054 61.5158 46.9001ZM61.171 47.0994C61.248 45.1076 62.6005 43.5403 64.6218 43.1855L64.8056 43.2876L65.9056 46.101L65.7861 46.3194L61.3719 47.2653L61.171 47.0994Z"/>
<path d="M67.9978 48.398L64.6288 39.7916H63.2567L64.2167 42.2504C61.7586 42.7916 59.9745 45.0042 59.9745 47.7592C59.9745 48.0041 59.9992 48.275 60.0239 48.5334L66.163 47.218L66.6257 48.398H67.9978ZM61.3342 47.1069C61.4096 45.1895 62.7075 43.6888 64.6535 43.3452L65.7522 46.1598L61.3342 47.1069Z"/>
<path fill-rule="evenodd" clip-rule="evenodd" d="M34.2443 55.16L34.4101 54.9966H41.8927L42.0585 55.16V56.3399L41.8927 56.5033H38.9394V63.7664L38.7736 63.9297H37.5279L37.3621 63.7664V56.5033H34.4101L34.2443 56.3399V55.16ZM34.5759 55.3233V56.1766H37.5279L37.6937 56.3399V63.603H38.6078V56.3399L38.7736 56.1766H41.7269V55.3233H34.5759Z"/>
<path d="M41.8951 55.16H34.4088V56.3399H37.5279V63.7651H38.7748V56.3399H41.8951V55.16Z"/>
<path fill-rule="evenodd" clip-rule="evenodd" d="M43.0395 55.16L43.2053 54.9966H49.9394L50.1052 55.16V55.5307C50.1052 57.476 49.1245 58.9635 47.6329 59.8305L50.7336 63.6646L50.6039 63.9297H49.0783L48.9477 63.8671L46.2109 60.4222C45.695 60.5565 45.1577 60.6425 44.5936 60.6672V63.7664L44.4278 63.9297H43.2053L43.0395 63.7664V55.16ZM43.371 55.3233V63.603H44.262V60.5092L44.424 60.3459C45.0576 60.3316 45.6561 60.2362 46.2292 60.0788L46.4042 60.1355L49.159 63.603H50.2598L47.2525 59.8845L47.303 59.6392C48.7909 58.8417 49.7736 57.4221 49.7736 55.5307V55.3233H43.371ZM44.262 56.2329L44.4278 56.0695H48.6428L48.8065 56.2585C48.481 58.2782 46.7897 59.556 44.4278 59.556L44.262 59.3926V56.2329ZM44.5936 56.3962V59.2271C46.6574 59.1715 48.0862 58.076 48.4437 56.3962H44.5936Z"/>
<path d="M49.0821 63.7651H50.6039L47.3847 59.7827C48.9199 58.9585 49.9432 57.4834 49.9432 55.5282V55.16H43.2053V63.7651H44.4278V60.508C45.0761 60.4958 45.6884 60.3969 46.2749 60.2374L49.0821 63.7651ZM44.4278 59.3889V56.2291H48.6453C48.3336 58.1599 46.7241 59.3889 44.4278 59.3889Z"/>
<path fill-rule="evenodd" clip-rule="evenodd" d="M53.98 55.2186L54.1348 54.9966H55.5056L55.6602 55.1011L59.0317 63.7075L58.8771 63.9297H57.5063L57.3518 63.8255L56.9378 62.7757L50.9398 64.0627L50.7395 63.9184C50.7148 63.661 50.6893 63.3805 50.6893 63.1276C50.6893 60.3717 52.43 58.1301 54.8734 57.5072L53.98 55.2186ZM54.3762 55.3233L55.2508 57.5639L55.1319 57.7821C52.7542 58.3004 51.0209 60.4432 51.0209 63.1276C51.0209 63.3074 51.0349 63.5051 51.0525 63.7041L57.0058 62.4268L57.1956 62.5272L57.6198 63.603H58.6354L55.3918 55.3233H54.3762ZM52.3952 62.2688L56.4049 61.409L55.4266 58.9012C53.7057 59.2579 52.546 60.5739 52.3952 62.2688ZM52.0504 62.4682C52.1274 60.476 53.4799 58.9087 55.5025 58.554L55.6863 58.6562L56.7837 61.4696L56.6642 61.6878L52.2513 62.634L52.0504 62.4682Z"/>
<path d="M58.877 63.7651L55.508 55.16H54.1347L55.096 57.6188C52.6379 58.1599 50.8538 60.3726 50.8538 63.1263C50.8538 63.3725 50.8785 63.6434 50.9032 63.9006L57.0422 62.5852L57.5037 63.7651H58.877ZM52.2135 62.4753C52.2888 60.5567 53.5855 59.0572 55.5327 58.7123L56.6302 61.5282L52.2135 62.4753Z"/>
<path fill-rule="evenodd" clip-rule="evenodd" d="M60.0475 55.16L60.2132 54.9966H61.4605L61.6263 55.16V63.7664L61.4605 63.9297H60.2132L60.0475 63.7664V55.16ZM60.379 55.3233V63.603H61.2947V55.3233H60.379Z"/>
<path d="M60.2121 55.16H61.4593V63.7651H60.2121V55.16Z"/>
<path fill-rule="evenodd" clip-rule="evenodd" d="M63.5401 55.16L63.7058 54.9966H64.9531L65.0753 55.0495L69.9043 60.2356V55.16L70.0701 54.9966H71.3158L71.4816 55.16V63.7664L71.3158 63.9297H70.0701L69.9043 63.7664V62.382L65.1189 57.2515V63.7664L64.9531 63.9297H63.7058L63.5401 63.7664V55.16ZM63.8716 55.3233V63.603H64.7873V56.8324L65.0752 56.7218L70.1922 62.2078L70.2359 62.3183V63.603H71.15V55.3233H70.2359V60.6553L69.9479 60.7657L64.8802 55.3233H63.8716Z"/>
<path d="M70.0688 55.16V60.6553L64.9531 55.16H63.7058V63.7651H64.9531V56.8311L70.0688 62.3146V63.7651H71.317V55.16H70.0688Z"/>
<path fill-rule="evenodd" clip-rule="evenodd" d="M73.3981 55.16L73.5639 54.9966H79.4283L79.5941 55.16V56.3156L79.4283 56.4789H74.9769V58.7221H79.0508L79.2166 58.8855V60.0411L79.0508 60.2045H74.9769V62.4474H79.4283L79.5941 62.6108V63.7664L79.4283 63.9297H73.5639L73.3981 63.7664V55.16ZM73.7297 55.3233V63.603H79.2625V62.7741H74.8111L74.6453 62.6108V60.0411L74.8111 59.8778H78.885V59.0489H74.8111L74.6453 58.8855V56.3156L74.8111 56.1522H79.2625V55.3233H73.7297Z"/>
<path d="M79.427 56.3156V55.16H73.5625V63.7651H79.427V62.6095H74.8098V60.0411H79.052V58.8855H74.8098V56.3156H79.427Z"/>
<path fill-rule="evenodd" clip-rule="evenodd" d="M81.1342 55.16L81.3 54.9966H87.1642L87.3299 55.16V56.3156L87.1642 56.4789H82.7115V58.7221H86.7882L86.954 58.8855V60.0411L86.7882 60.2045H82.7115V62.4474H87.1642L87.3299 62.6108V63.7664L87.1642 63.9297H81.3L81.1342 63.7664V55.16ZM81.4658 55.3233V63.603H86.9984V62.7741H82.5457L82.3799 62.6108V60.0411L82.5457 59.8778H86.6224V59.0489H82.5457L82.3799 58.8855V56.3156L82.5457 56.1522H86.9984V55.3233H81.4658Z"/>
<path d="M87.1633 56.3156V55.16H81.2988V63.7651H87.1633V62.6095H82.5458V60.0411H86.7883V58.8855H82.5458V56.3156H87.1633Z"/>
<path fill-rule="evenodd" clip-rule="evenodd" d="M35.0557 70.5271L35.2215 70.3638H36.4688L36.6346 70.5271V73.5262C36.6346 74.9019 37.0564 75.9612 37.8307 76.6777C38.6064 77.3956 39.7583 77.7902 41.2592 77.7902H41.4152V70.5271L41.581 70.3638H42.828L42.9938 70.5271V79.1335L42.828 79.2969H41.2592C39.3147 79.2969 37.7597 78.7795 36.6899 77.7873C35.6186 76.7937 35.0557 75.3445 35.0557 73.5262V70.5271ZM35.3873 70.6905V73.5262C35.3873 75.2771 35.9275 76.6315 36.9171 77.5494C37.9082 78.4685 39.3721 78.9702 41.2592 78.9702H42.6622V70.6905H41.7468V77.9536L41.581 78.1169H41.2592C39.7019 78.1169 38.4586 77.707 37.6037 76.9158C36.7472 76.1232 36.303 74.9688 36.303 73.5262V70.6905H35.3873Z"/>
<path d="M41.5833 70.5271V77.9536H41.258C38.201 77.9536 36.4675 76.3433 36.4675 73.5271V70.5271H35.2193V73.5271C35.2193 77.0929 37.4275 79.1335 41.258 79.1335H42.8305V70.5271H41.5833Z"/>
<path fill-rule="evenodd" clip-rule="evenodd" d="M44.9116 70.5271L45.0774 70.3638H46.2996L46.4654 70.5271V74.1283H47.2498C48.255 74.1283 49.0707 73.815 49.6361 73.2211C50.2026 72.6261 50.5369 71.7294 50.5369 70.5271L50.7027 70.3638H51.9512L52.117 70.5271C52.117 72.3285 51.4034 74.0243 49.9061 74.7662C51.5045 75.5178 52.2902 77.2526 52.2902 79.1335L52.1245 79.2969H50.8759L50.7101 79.1335C50.7101 78.0686 50.4046 77.1714 49.8282 76.5423C49.254 75.9156 48.3951 75.5373 47.2498 75.5373H46.4654V79.1335L46.2996 79.2969H45.0774L44.9116 79.1335V70.5271ZM45.2431 70.6905V78.9702H46.1338V75.374L46.2996 75.2106H47.2498C48.4736 75.2106 49.4277 75.6176 50.0743 76.3233C50.6873 76.9925 51.0095 77.9141 51.0394 78.9702H51.9566C51.9092 77.1006 51.0465 75.4901 49.4262 74.9234L49.4245 74.6162C50.9437 74.066 51.7383 72.4935 51.7834 70.6905H50.8665C50.8373 71.8729 50.4895 72.8023 49.8779 73.4447C49.2374 74.1174 48.3266 74.4551 47.2498 74.4551H46.2996L46.1338 74.2917V70.6905H45.2431Z"/>
<path d="M49.4805 74.7694C51.1408 74.1671 51.9513 72.4339 51.9513 70.5271H50.704C50.704 72.9859 49.3307 74.2892 47.2473 74.2892H46.2996V70.5271H45.0761V79.1335H46.2996V75.3717H47.2473C49.618 75.3717 50.8785 76.9455 50.8785 79.1335H52.1267C52.1267 77.154 51.2399 75.3839 49.4805 74.7694Z"/>
<path fill-rule="evenodd" clip-rule="evenodd" d="M53.6461 70.5271L53.8119 70.3637H60.5457L60.7115 70.5271V70.8978C60.7115 72.8431 59.7323 74.3307 58.238 75.1978L61.3386 79.0317L61.2089 79.2969H59.6861L59.5556 79.2343L56.8161 75.7894C56.3018 75.9237 55.7637 76.0097 55.1986 76.0343V79.1335L55.0328 79.2969H53.8119L53.6461 79.1335V70.5271ZM53.9777 70.6905V78.9701H54.867V75.8764L55.029 75.7131C55.664 75.6987 56.2637 75.6033 56.834 75.446L57.0092 75.5025L59.7669 78.9701H60.8648L57.8576 75.2517L57.9081 75.0063C59.3987 74.2088 60.3799 72.7893 60.3799 70.8978V70.6905H53.9777ZM54.867 71.6L55.0328 71.4366H59.2506L59.4143 71.6259C59.0859 73.6456 57.3947 74.9231 55.0328 74.9231L54.867 74.7598V71.6ZM55.1986 71.7634V74.5942C57.2624 74.5386 58.6913 73.4435 59.0513 71.7634H55.1986Z"/>
<path d="M59.6875 79.1335H61.2103L57.9911 75.1499C59.5253 74.327 60.5483 72.8508 60.5483 70.8966V70.5271H53.8107V79.1335H55.0329V75.8752C55.6825 75.863 56.2938 75.7653 56.8801 75.6058L59.6875 79.1335ZM55.0329 74.7573V71.5976H59.2507C58.9388 73.5271 57.3292 74.7573 55.0329 74.7573Z"/>
<path fill-rule="evenodd" clip-rule="evenodd" d="M64.5867 70.5857L64.7414 70.3638H66.1122L66.2669 70.4684L69.6356 79.0748L69.4809 79.2969H68.1101L67.9555 79.1926L67.5428 78.1429L61.5449 79.4298L61.3446 79.2863C61.3187 79.0282 61.2931 78.7478 61.2931 78.4947C61.2931 75.7387 63.0339 73.4975 65.4789 72.8744L64.5867 70.5857ZM64.9827 70.6905L65.8562 72.9311L65.7373 73.1492C63.358 73.6679 61.6247 75.8104 61.6247 78.4947C61.6247 78.6746 61.6387 78.8725 61.6569 79.0714L67.6109 77.794L67.8007 77.8946L68.2237 78.9702H69.2393L65.9985 70.6905H64.9827ZM63.0003 77.636L67.0115 76.7762L66.0321 74.2684C64.3097 74.6253 63.151 75.941 63.0003 77.636ZM62.6555 77.8353C62.7325 75.8432 64.0837 74.2762 66.1079 73.9212L66.2917 74.0233L67.3904 76.8367L67.2709 77.055L62.8564 78.0012L62.6555 77.8353Z"/>
<path d="M69.4822 79.1335L66.1135 70.5271H64.7414L65.7014 72.986C63.243 73.5271 61.4589 75.7397 61.4589 78.4947C61.4589 78.74 61.4836 79.0106 61.5096 79.269L67.6487 77.9536L68.1101 79.1335H69.4822ZM62.8199 77.8428C62.8943 75.9251 64.1919 74.4243 66.1382 74.0807L67.2366 76.8953L62.8199 77.8428Z"/>
<path fill-rule="evenodd" clip-rule="evenodd" d="M70.6526 70.5271L70.8184 70.3638H72.0657L72.2315 70.5271V79.1335L72.0657 79.2969H70.8184L70.6526 79.1335V70.5271ZM70.9842 70.6905V78.9702H71.8999V70.6905H70.9842Z"/>
<path d="M70.8173 70.5271H72.0655V79.1335H70.8173V70.5271Z"/>
<path fill-rule="evenodd" clip-rule="evenodd" d="M74.145 70.5271L74.3108 70.3637H75.5593L75.6815 70.4167L80.5105 75.603V70.5271L80.6763 70.3637H81.9236L82.0894 70.5271V79.1335L81.9236 79.2969H80.6763L80.5105 79.1335V77.7491L75.7251 72.619V79.1335L75.5593 79.2969H74.3108L74.145 79.1335V70.5271ZM74.4766 70.6905V78.9701H75.3936V72.1998L75.6814 72.0893L80.7984 77.5749L80.8421 77.6855V78.9701H81.7578V70.6905H80.8421V76.0227L80.5542 76.1332L75.4865 70.6905H74.4766Z"/>
<path d="M80.6751 70.5271V76.0227L75.5593 70.5271H74.3108V79.1335H75.5593V72.1998L80.6751 77.683V79.1335H81.9223V70.5271H80.6751Z"/>
<path fill-rule="evenodd" clip-rule="evenodd" d="M84.0031 70.5271L84.1688 70.3637H90.0333L90.1991 70.5271V71.6827L90.0333 71.8461H85.5819V74.0893H89.6573L89.8231 74.2526V75.4083L89.6573 75.5716H85.5819V77.8145H90.0333L90.1991 77.9779V79.1335L90.0333 79.2969H84.1688L84.0031 79.1335V70.5271ZM84.3346 70.6905V78.9701H89.8675V78.1412H85.4161L85.2503 77.9779V75.4083L85.4161 75.2449H89.4916V74.416H85.4161L85.2503 74.2526V71.6827L85.4161 71.5194H89.8675V70.6905H84.3346Z"/>
<path d="M90.0322 71.6828V70.5271H84.1677V79.1335H90.0322V77.9779H85.4162V75.4083H89.6584V74.2527H85.4162V71.6828H90.0322Z"/>
</svg>
