<svg width="20" height="20" viewBox="0 0 20 20" fill="none" xmlns="http://www.w3.org/2000/svg">
  <path d="M5 4.5H5.5V4V1C5.5 0.723862 5.72386 0.5 6 0.5H14C14.2762 0.5 14.5 0.723856 14.5 1V4V4.5H15H19C19.2762 4.5 19.5 4.72386 19.5 5V19C19.5 19.2762 19.2762 19.5 19 19.5H1C0.723856 19.5 0.5 19.2762 0.5 19V5C0.5 4.72386 0.723862 4.5 1 4.5H5ZM2 14.5H1.5V15V18V18.5H2H18H18.5V18V15V14.5H18H2ZM1.5 13V13.5H2H18H18.5V13V6V5.5H18H2H1.5V6V13ZM7 1.5H6.5V2V4V4.5H7H13H13.5V4V2V1.5H13H7ZM9.5 10.5H10.5V11.5H9.5V10.5Z" fill="#FCFCFC" stroke="#FCFCFC" />
</svg>
