<svg width="24" height="24" viewBox="0 0 24 24" fill="none" xmlns="http://www.w3.org/2000/svg">
  <path d="M7 5.5H7.5V5V2C7.5 1.72386 7.72386 1.5 8 1.5H16C16.2762 1.5 16.5 1.72386 16.5 2V5V5.5H17H21C21.2762 5.5 21.5 5.72386 21.5 6V20C21.5 20.2762 21.2762 20.5 21 20.5H3C2.72386 20.5 2.5 20.2762 2.5 20V6C2.5 5.72386 2.72386 5.5 3 5.5H7ZM4 15.5H3.5V16V19V19.5H4H20H20.5V19V16V15.5H20H4ZM3.5 14V14.5H4H20H20.5V14V7V6.5H20H4H3.5V7V14ZM9 2.5H8.5V3V5V5.5H9H15H15.5V5V3V2.5H15H9ZM11.5 11.5H12.5V12.5H11.5V11.5Z" fill="#FCFCFC" stroke="#FCFCFC" />
</svg>
