<svg version="1.0" xmlns="http://www.w3.org/2000/svg"
 width="512.000000pt" height="512.000000pt" viewBox="0 0 512.000000 512.000000"
 preserveAspectRatio="xMidYMid meet">

<g transform="translate(0.000000,512.000000) scale(0.100000,-0.100000)"
fill="#f94949" stroke="none">
<path d="M0 2560 l0 -2560 2560 0 2560 0 0 2560 0 2560 -2560 0 -2560 0 0
-2560z m2459 1619 c28 -12 68 -41 90 -64 150 -163 156 -448 19 -937 l-41 -147
41 -68 c98 -166 342 -473 375 -473 7 0 38 4 70 10 134 22 387 32 508 20 318
-30 472 -135 472 -320 1 -78 -24 -133 -80 -179 -173 -143 -604 -60 -918 178
-49 36 -95 71 -104 78 -27 20 -379 -61 -662 -153 l-107 -34 -32 -58 c-53 -94
-194 -302 -263 -387 -81 -101 -225 -239 -298 -287 -167 -110 -350 -116 -465
-15 -61 53 -84 102 -84 175 0 128 100 257 305 394 72 48 277 154 505 261 49
23 262 488 400 876 l41 114 -30 71 c-129 316 -165 645 -90 816 61 139 203 192
348 129z m886 -2494 c70 -26 146 -104 174 -179 27 -73 37 -192 22 -270 -24
-128 -88 -221 -188 -272 -56 -28 -63 -29 -203 -29 l-145 0 -3 375 c-1 206 0
381 3 389 8 21 273 10 340 -14z m788 18 c3 -5 7 -30 8 -58 l4 -50 -142 -3
-143 -3 0 -109 0 -109 128 -3 127 -3 0 -55 0 -55 -127 -3 -127 -3 -3 -157 -3
-157 -62 -3 -63 -3 0 384 c0 211 3 387 7 390 9 10 391 9 396 0z m-1445 -19
c110 -36 162 -112 162 -235 0 -90 -20 -139 -78 -191 -48 -43 -122 -68 -204
-68 l-57 0 -3 -142 -3 -143 -65 0 -65 0 -3 385 c-1 212 0 391 3 397 7 20 249
17 313 -3z"/>
<path d="M2289 4037 c-56 -43 -77 -229 -45 -402 18 -96 63 -255 76 -268 9 -10
63 207 85 343 28 175 14 304 -36 330 -24 13 -61 12 -80 -3z"/>
<path d="M2383 2638 c-34 -84 -77 -188 -97 -231 -30 -64 -33 -77 -19 -73 10 2
50 14 88 25 39 11 129 34 200 51 72 17 136 33 143 36 10 3 -2 23 -36 62 -55
64 -162 207 -189 253 -9 16 -20 29 -23 29 -4 0 -34 -69 -67 -152z"/>
<path d="M3215 2364 c-11 -2 -51 -6 -90 -10 l-70 -6 32 -27 c117 -98 359 -201
472 -201 86 0 151 51 151 119 0 70 -42 102 -157 120 -64 10 -286 13 -338 5z"/>
<path d="M1574 1896 c-301 -158 -464 -307 -440 -401 8 -33 58 -58 99 -50 75
16 190 114 309 264 87 109 181 251 166 251 -7 0 -68 -29 -134 -64z"/>
<path d="M3132 1318 l3 -273 50 1 c72 0 101 10 145 50 56 51 80 121 80 237 0
176 -69 257 -220 257 l-60 0 2 -272z"/>
<path d="M2510 1445 l0 -135 59 0 c94 0 151 50 151 133 0 92 -51 137 -154 137
l-56 0 0 -135z"/>
</g>
</svg>
