<svg width="32" height="32" viewBox="0 0 32 32" fill="none" xmlns="http://www.w3.org/2000/svg">
<path d="M14.1007 5.3339C12.9541 5.32054 11.8163 5.53483 10.7532 5.96434C9.69006 6.39386 8.72272 7.03007 7.90723 7.83612C7.09173 8.64216 6.44429 9.60202 6.00241 10.6601C5.56054 11.7181 5.33301 12.8534 5.33301 14C5.33301 15.1466 5.56054 16.2818 6.00241 17.3399C6.44429 18.3979 7.09173 19.3578 7.90723 20.1638C8.72272 20.9699 9.69006 21.6061 10.7532 22.0356C11.8163 22.4651 12.9541 22.6794 14.1007 22.6661C16.3816 22.6395 18.56 21.7147 20.1635 20.0924C21.7671 18.4701 22.6663 16.281 22.6663 14C22.6663 11.7189 21.7671 9.52985 20.1635 7.90753C18.56 6.28522 16.3816 5.36048 14.1007 5.3339Z" stroke="#4D4D4D" stroke-width="1.5" stroke-linecap="round"/>
<path d="M20 20L26.6667 26.6667" stroke="#4D4D4D" stroke-width="1.5" stroke-linecap="round"/>
</svg>
