<svg width="20" height="20" viewBox="0 0 20 20" fill="none" xmlns="http://www.w3.org/2000/svg">
  <path d="M8.87536 18.4322L8.7733 18.1214C8.43539 17.0924 7.73016 16.1961 6.74777 15.6289L6.74776 15.6289C5.76543 15.0618 4.63662 14.8992 3.57652 15.1209L3.25548 15.1881L3.06602 14.9203C2.91339 14.7046 2.77009 14.481 2.63656 14.2497M8.87536 18.4322L3.06956 13.9997M8.87536 18.4322L9.201 18.4632C9.73033 18.5135 10.2633 18.5143 10.7931 18.4648L11.1195 18.4344L11.2217 18.1229C11.5595 17.0933 12.2649 16.1964 13.2477 15.6289L13.2478 15.6289C14.2306 15.0614 15.3601 14.899 16.4207 15.1213L16.7416 15.1885L16.9312 14.921C17.2388 14.4869 17.5046 14.0249 17.7257 13.5414L17.8617 13.2439L17.6436 13.0001C16.9214 12.193 16.4977 11.134 16.4977 9.99971C16.4977 8.86538 16.9214 7.80658 17.6436 6.99941L17.8624 6.75486L17.7251 6.45683C17.6146 6.21688 17.4925 5.98096 17.3589 5.74967C17.2254 5.51843 17.0821 5.29477 16.9295 5.0791L16.74 4.81136L16.419 4.87852C15.3589 5.10027 14.2301 4.93771 13.2477 4.37054C12.2654 3.80338 11.5602 2.90705 11.2222 1.87802L11.1201 1.56729L10.7945 1.53631C10.2653 1.48594 9.73216 1.48521 9.20253 1.53459L8.87608 1.56503L8.77387 1.87655C8.43603 2.90616 7.73059 3.8031 6.74776 4.37055M8.87536 18.4322L9.24895 2.03243C8.87364 3.17622 8.08964 4.17315 6.99776 4.80356M2.63656 14.2497L3.06956 13.9997M2.63656 14.2497C2.63656 14.2497 2.63656 14.2497 2.63657 14.2497L3.06956 13.9997M2.63656 14.2497C2.503 14.0184 2.38098 13.7825 2.27047 13.5426L2.13318 13.2446L2.35198 13C3.07415 12.1929 3.49777 11.134 3.49777 9.99971C3.49777 8.86538 3.07412 7.80647 2.35196 6.99926L2.13389 6.75549L2.26986 6.45802C2.4909 5.97445 2.75677 5.51248 3.06439 5.07842L3.25398 4.81092L3.57488 4.87817C4.63543 5.10043 5.7649 4.938 6.74776 4.37055M3.06956 13.9997C2.94368 13.7817 2.82872 13.5594 2.72461 13.3334C3.52688 12.4367 3.99777 11.2599 3.99777 9.99971C3.99777 8.73951 3.52685 7.56262 2.72461 6.66588C2.93268 6.21068 3.18289 5.77592 3.47232 5.36754C4.65049 5.61445 5.90584 5.43398 6.99776 4.80356M6.74776 4.37055L6.99776 4.80356M6.74776 4.37055C6.74776 4.37055 6.74776 4.37055 6.74776 4.37055L6.99776 4.80356M13.7477 3.50453L13.7478 3.50453C14.7961 4.10977 16.0268 4.11065 17.0371 3.61708C17.481 4.10768 17.8803 4.6527 18.225 5.2497C18.5697 5.8467 18.842 6.46507 19.0449 7.09481C18.1123 7.72294 17.4977 8.78924 17.4977 9.99971C17.4977 11.2095 18.1116 12.2752 19.0432 12.9034C18.6345 14.178 17.9576 15.3685 17.0376 16.3826C16.0273 15.8888 14.7963 15.8896 13.7478 16.4949C12.6992 17.1002 12.0831 18.166 12.0056 19.2879C10.6674 19.5775 9.29787 19.5685 7.98974 19.2852C7.91144 18.1642 7.29544 17.0998 6.24777 16.4949L6.24776 16.4949C5.19945 15.8897 3.96874 15.8887 2.95847 16.3823C2.51454 15.8917 2.11518 15.3467 1.77052 14.7497C1.42585 14.1527 1.15352 13.5344 0.950594 12.9046C1.88315 12.2765 2.49777 11.2102 2.49777 9.99971C2.49777 8.79001 1.88392 7.72428 0.952336 7.096C1.36103 5.82148 2.03796 4.63093 2.9579 3.6168C3.96826 4.11065 5.19924 4.10989 6.24777 3.50452C7.29628 2.89916 7.91243 1.83348 7.98993 0.711567C9.32819 0.421942 10.6977 0.430962 12.0058 0.714279C12.0841 1.83519 12.7 2.89965 13.7477 3.50453ZM9.99774 12.4997C8.61708 12.4997 7.49776 11.3805 7.49776 9.99971C7.49776 8.61905 8.61709 7.49972 9.99774 7.49972C11.3785 7.49972 12.4977 8.61904 12.4977 9.99971C12.4977 11.3805 11.3785 12.4997 9.99774 12.4997ZM9.99774 11.4997C10.8262 11.4997 11.4977 10.8282 11.4977 9.99971C11.4977 9.17127 10.8262 8.49971 9.99774 8.49971C9.1693 8.49971 8.49774 9.17127 8.49774 9.99971C8.49774 10.8282 9.1693 11.4997 9.99774 11.4997Z" fill="#FCFCFC" stroke="#FCFCFC" />
</svg>