<svg width="24" height="24" viewBox="0 0 24 24" fill="none" xmlns="http://www.w3.org/2000/svg">
  <path d="M8.17071 3.5H8.5243L8.64213 3.16662C8.98556 2.19496 9.91226 1.5 11 1.5H13C14.0877 1.5 15.0145 2.19497 15.3579 3.16661L15.4757 3.5H15.8293H21C21.2762 3.5 21.5 3.72386 21.5 4V20C21.5 20.2762 21.2762 20.5 21 20.5H3C2.72386 20.5 2.5 20.2762 2.5 20V4C2.5 3.72386 2.72386 3.5 3 3.5H8.17071ZM4 4.5H3.5V5V19V19.5H4H20H20.5V19V5V4.5H20H15.8293H15.4757L15.3579 4.83339C15.0145 5.80503 14.0877 6.5 13 6.5H11C9.91226 6.5 8.98556 5.80504 8.64213 4.83338L8.5243 4.5H8.17071H4ZM11 2.5C10.1716 2.5 9.5 3.17158 9.5 4C9.5 4.82842 10.1716 5.5 11 5.5H13C13.8284 5.5 14.5 4.82842 14.5 4C14.5 3.17158 13.8284 2.5 13 2.5H11ZM10.5 14.1169V9.88309L14.0282 12L10.5 14.1169Z" fill="#FCFCFC" stroke="#FCFCFC" />
</svg>
