<svg width="20" height="20" viewBox="0 0 20 20" fill="none" xmlns="http://www.w3.org/2000/svg">
  <path d="M6.17071 2.5H6.5243L6.64213 2.16662C6.98556 1.19496 7.91226 0.5 9 0.5H11C12.0877 0.5 13.0145 1.19497 13.3579 2.16661L13.4757 2.5H13.8293H19C19.2762 2.5 19.5 2.72386 19.5 3V19C19.5 19.2762 19.2762 19.5 19 19.5H1C0.723856 19.5 0.5 19.2762 0.5 19V3C0.5 2.72386 0.723862 2.5 1 2.5H6.17071ZM2 3.5H1.5V4V18V18.5H2H18H18.5V18V4V3.5H18H13.8293H13.4757L13.3579 3.83339C13.0145 4.80503 12.0877 5.5 11 5.5H9C7.91226 5.5 6.98556 4.80504 6.64213 3.83338L6.5243 3.5H6.17071H2ZM9 1.5C8.17155 1.5 7.5 2.17158 7.5 3C7.5 3.82842 8.17155 4.5 9 4.5H11C11.8284 4.5 12.5 3.82842 12.5 3C12.5 2.17158 11.8284 1.5 11 1.5H9ZM8.5 13.1169V8.88309L12.0282 11L8.5 13.1169Z" fill="#FCFCFC" stroke="#FCFCFC" />
</svg>
