<svg width="24" height="24" viewBox="0 0 24 24" fill="none" xmlns="http://www.w3.org/2000/svg">
<path d="M20.164 0.0998634C19.9389 0.201794 19.9282 0.217889 18.9687 2.13312L18.0039 4.06981V9.46679V14.8638L18.3041 14.5902C18.631 14.2897 19.1402 13.9839 19.494 13.882L19.7191 13.8176V9.45069V5.08912H20.5767H21.4343V9.45069V13.8176L21.6648 13.882C22.0346 13.9947 22.4795 14.2575 22.8279 14.5687L23.1495 14.8638V9.46679V4.06981L22.1901 2.14385C21.2306 0.228618 21.2253 0.217889 20.9894 0.105228C20.7054 -0.0342564 20.4588 -0.0342564 20.164 0.0998634ZM20.7536 3.07732L20.8983 3.37239H20.5767H20.2551L20.3998 3.07732C20.4802 2.91638 20.5606 2.78226 20.5767 2.78226C20.5928 2.78226 20.6732 2.91638 20.7536 3.07732Z" fill="#FCFCFC"/>
<path d="M3.10329 5.20172C2.85136 5.30365 2.69592 5.52361 2.37432 6.21566C2.11168 6.80043 2.03664 6.91309 1.92408 6.93455C1.84904 6.95064 1.51672 7.00429 1.1844 7.05257C0.358957 7.17596 0.0641561 7.38519 0.010556 7.88948C-0.0269642 8.22746 0.0802362 8.4045 0.696638 9.03218L1.22192 9.56866L1.09328 10.3734C0.953919 11.2425 0.964639 11.4356 1.17368 11.7038C1.3184 11.8862 1.70968 12.0311 1.95088 11.9935C2.05808 11.9775 2.42792 11.8004 2.78704 11.6073L3.43025 11.2532L4.08417 11.618C4.67913 11.9506 4.76489 11.9828 5.04361 11.9828C5.37057 11.9828 5.54745 11.8916 5.75113 11.6126C5.89585 11.4249 5.89049 11.0762 5.74041 10.2124L5.62785 9.56866L6.15313 9.03218C6.76954 8.4045 6.87674 8.22746 6.83922 7.88948C6.78562 7.38519 6.48546 7.17596 5.66537 7.05257C5.33305 7.00429 5.00073 6.95064 4.92569 6.93455C4.81313 6.91309 4.73809 6.80043 4.47545 6.21566C4.29857 5.83476 4.09489 5.45923 4.01985 5.38949C3.77329 5.15344 3.40881 5.08369 3.10329 5.20172ZM3.55353 8.22746C3.63393 8.35085 3.81617 8.46351 4.08953 8.54398C4.18065 8.57617 4.18065 8.5869 4.11097 8.67274C3.96625 8.83368 3.85369 9.10192 3.85369 9.28432V9.46136H3.42489H2.99609V9.28432C2.99609 9.10192 2.88352 8.83368 2.7388 8.67274C2.66912 8.5869 2.66912 8.57617 2.76024 8.54398C3.03361 8.46351 3.21585 8.35085 3.29625 8.22746C3.34449 8.15235 3.40345 8.09334 3.42489 8.09334C3.44633 8.09334 3.50529 8.15235 3.55353 8.22746Z" fill="#FCFCFC"/>
<path d="M9.93712 6.93455C9.85136 6.97747 9.32608 7.46566 8.77399 8.01824C7.33215 9.48283 7.33215 9.39162 8.82759 10.8938C9.96392 12.0311 10.0282 12.0687 10.4838 11.9828C10.7465 11.9345 11.0681 11.6126 11.1163 11.3498C11.1967 10.926 11.127 10.7972 10.4302 10.089L9.78168 9.43454L10.4302 8.77467C10.9555 8.24356 11.0895 8.08262 11.1163 7.91631C11.2503 7.20815 10.575 6.64485 9.93712 6.93455Z" fill="#FCFCFC"/>
<path d="M13.3666 6.93455C13.1468 7.03112 12.9217 7.30472 12.8788 7.53004C12.8038 7.94313 12.8788 8.07725 13.5702 8.77467L14.2188 9.43454L13.5702 10.089C12.8734 10.7972 12.8038 10.926 12.8842 11.3498C12.9324 11.6126 13.254 11.9345 13.5166 11.9828C13.9722 12.0687 14.0366 12.0311 15.1729 10.8938C16.6683 9.39162 16.6683 9.48283 15.2265 8.01824C14.6744 7.46566 14.1491 6.97747 14.0526 6.93455C13.8382 6.84335 13.5756 6.84335 13.3666 6.93455Z" fill="#FCFCFC"/>
<path d="M2.7859 14.6706C1.88006 14.912 1.17254 15.6363 0.931336 16.5537C0.588295 17.8788 1.42982 19.2843 2.79662 19.6545L3.07534 19.7296H2.67334C1.62278 19.7404 0.722295 20.2715 0.293494 21.1406C0.0415729 21.6395 -0.0173873 21.9775 0.00405281 22.7929C0.0201329 23.544 0.057653 23.6406 0.389974 23.8873C0.534694 24 0.593655 24 3.42374 24C6.25383 24 6.31279 24 6.45751 23.8873C6.78983 23.6406 6.82735 23.544 6.84343 22.7929C6.86487 21.9775 6.80591 21.6395 6.55399 21.1406C6.12519 20.2715 5.22471 19.7404 4.17415 19.7296H3.77214L4.06159 19.6492C5.41767 19.2843 6.25919 17.8734 5.91615 16.5537C5.55703 15.1642 4.13127 14.3058 2.7859 14.6706ZM3.76142 16.3766C4.31351 16.6073 4.44751 17.3262 4.01871 17.7554C3.6703 18.1041 3.17718 18.1041 2.82878 17.7554C2.16414 17.0955 2.89846 16.0118 3.76142 16.3766ZM4.74231 21.5912C4.95135 21.7414 5.07999 21.9292 5.11751 22.1331L5.15503 22.3101H3.4291C1.97118 22.3101 1.70854 22.2994 1.70854 22.235C1.70854 22.1009 1.8211 21.8594 1.93902 21.7253C2.17486 21.4732 2.29814 21.4517 3.48806 21.4678C4.51183 21.4785 4.60831 21.4893 4.74231 21.5912Z" fill="#FCFCFC"/>
<path d="M11.364 14.6706C10.4582 14.912 9.75066 15.6363 9.50946 16.5537C9.16642 17.8788 10.0079 19.2843 11.3747 19.6545L11.6535 19.7296H11.2515C10.2009 19.7404 9.30042 20.2715 8.87162 21.1406C8.6197 21.6395 8.56074 21.9775 8.58218 22.7929C8.59826 23.544 8.63578 23.6406 8.9681 23.8873C9.11282 24 9.17178 24 12.0019 24C14.832 24 14.8909 24 15.0356 23.8873C15.368 23.6406 15.4055 23.544 15.4216 22.7929C15.443 21.9775 15.384 21.6395 15.1321 21.1406C14.7033 20.2715 13.8028 19.7404 12.7523 19.7296H12.3503L12.6397 19.6492C13.9958 19.2843 14.8373 17.8734 14.4943 16.5537C14.1352 15.1642 12.7094 14.3058 11.364 14.6706ZM12.3395 16.3766C12.8916 16.6073 13.0256 17.3262 12.5968 17.7554C12.2484 18.1041 11.7553 18.1041 11.4069 17.7554C10.7423 17.0955 11.4766 16.0118 12.3395 16.3766ZM13.3204 21.5912C13.5295 21.7414 13.6581 21.9292 13.6956 22.1331L13.7332 22.3101H12.0072C10.5493 22.3101 10.2867 22.2994 10.2867 22.235C10.2867 22.1009 10.3992 21.8594 10.5171 21.7253C10.753 21.4732 10.8763 21.4517 12.0662 21.4678C13.09 21.4785 13.1864 21.4893 13.3204 21.5912Z" fill="#FCFCFC"/>
<path d="M19.9382 14.6706C19.0324 14.912 18.3249 15.6363 18.0837 16.5537C17.7406 17.8788 18.5822 19.2843 19.949 19.6545L20.2277 19.7296H19.8257C18.7751 19.7404 17.8746 20.2715 17.4458 21.1406C17.1939 21.6395 17.135 21.9775 17.1564 22.7929C17.1725 23.544 17.21 23.6406 17.5423 23.8873C17.687 24 17.746 24 20.5761 24C23.4062 24 23.4651 24 23.6099 23.8873C23.9422 23.6406 23.9797 23.544 23.9958 22.7929C24.0172 21.9775 23.9583 21.6395 23.7063 21.1406C23.2775 20.2715 22.3771 19.7404 21.3265 19.7296H20.9245L21.2139 19.6492C22.57 19.2843 23.4115 17.8734 23.0685 16.5537C22.7094 15.1642 21.2836 14.3058 19.9382 14.6706ZM20.9138 16.3766C21.4658 16.6073 21.5999 17.3262 21.171 17.7554C20.8226 18.1041 20.3295 18.1041 19.9811 17.7554C19.3165 17.0955 20.0508 16.0118 20.9138 16.3766ZM21.8947 21.5912C22.1037 21.7414 22.2323 21.9292 22.2699 22.1331L22.3074 22.3101H20.5814C19.1235 22.3101 18.8609 22.2994 18.8609 22.235C18.8609 22.1009 18.9734 21.8594 19.0914 21.7253C19.3272 21.4732 19.4505 21.4517 20.6404 21.4678C21.6642 21.4785 21.7607 21.4893 21.8947 21.5912Z" fill="#FCFCFC"/>
</svg>
