<svg width="48" height="49" viewBox="0 0 48 49" fill="none" xmlns="http://www.w3.org/2000/svg">
<g clip-path="url(#clip0_2137_6159)">
<path d="M24 48.5C37.2548 48.5 48 37.7548 48 24.5C48 11.2452 37.2548 0.5 24 0.5C10.7452 0.5 0 11.2452 0 24.5C0 37.7548 10.7452 48.5 24 48.5Z" fill="#FCFCFC"/>
<path d="M34.4799 15.8132C34.6668 14.605 33.5181 13.6513 32.4438 14.123L11.0472 23.5172C10.2768 23.8554 10.3332 25.0224 11.1322 25.2768L15.5446 26.682C16.3869 26.9502 17.2987 26.8115 18.0342 26.3034L27.9825 19.4304C28.2825 19.2231 28.6095 19.6497 28.3531 19.9139L21.1921 27.2969C20.4975 28.0131 20.6353 29.2268 21.471 29.7507L29.4885 34.7785C30.3877 35.3423 31.5445 34.7759 31.7127 33.6891L34.4799 15.8132Z" fill="#240529"/>
</g>
<defs>
<clipPath id="clip0_2137_6159">
<rect width="48" height="48" fill="white" transform="translate(0 0.5)"/>
</clipPath>
</defs>
</svg>
