<svg width="145" height="324" viewBox="0 0 145 324" fill="none" xmlns="http://www.w3.org/2000/svg">
  <path d="M8.27096 324V276.219L78.0571 160.18C83.571 151.382 87.6204 143.494 90.205 136.517C92.7897 129.539 94.5128 123.169 95.3744 117.404C96.4082 111.64 96.9252 106.331 96.9252 101.478C96.9252 88.736 94.4266 79.0281 89.4296 72.3539C84.6049 65.3764 77.454 61.8876 67.9768 61.8876C60.3951 61.8876 53.3304 64.4663 46.7825 69.6236C40.407 74.7809 34.9792 82.8202 30.4991 93.7416L0 59.1573C6.89245 40.955 16.5419 26.5449 28.9483 15.9269C41.3548 5.30898 55.6566 0 71.8538 0C85.2941 0 97.0113 3.94382 107.005 11.8315C117.172 19.4157 125.012 30.1854 130.526 44.1404C136.212 58.0955 139.055 74.7809 139.055 94.1966C139.055 104.511 138.28 114.826 136.729 125.14C135.351 135.152 132.421 145.77 127.941 156.994C123.633 168.219 117.258 180.809 108.815 194.764L50.918 290.781L42.9055 263.933H145V324H8.27096Z" fill="url(#paint0_linear_3371_20617)" fill-opacity="0.2" />
  <defs>
    <linearGradient id="paint0_linear_3371_20617" x1="-3.01729e-08" y1="37.9687" x2="125.039" y2="35.0375" gradientUnits="userSpaceOnUse">
      <stop stop-color="#6C2276" />
      <stop offset="0.25" stop-color="#682D78" />
      <stop offset="0.5" stop-color="#643579" />
      <stop offset="0.75" stop-color="#613B7A" />
      <stop offset="1" stop-color="#5D447C" />
    </linearGradient>
  </defs>
</svg>