<svg width="145" height="324" viewBox="0 0 145 324" fill="none" xmlns="http://www.w3.org/2000/svg">
  <path d="M69.5062 324C56.8372 324 44.2549 321.118 31.7594 315.354C19.2639 309.287 8.67744 300.792 0 289.871L16.4003 233.444C23.3423 242.242 31.4123 249.219 40.6104 254.376C49.8085 259.534 59.0934 262.112 68.465 262.112C79.0515 262.112 87.3818 258.472 93.456 251.191C99.5302 243.91 102.567 233.899 102.567 221.157C102.567 209.022 99.8773 199.466 94.4973 192.489C89.1173 185.511 80.4399 182.022 68.465 182.022H49.2011V133.331L99.9641 32.7641L104.65 59.1573H9.11131V0H136.67V47.7809L86.167 148.348L64.8204 126.961H77.0557C99.4434 126.961 116.364 135.758 127.819 153.354C139.273 170.949 145 193.551 145 221.157C145 239.056 142.31 255.893 136.93 271.669C131.55 287.14 123.306 299.73 112.199 309.438C101.092 319.146 86.8611 324 69.5062 324Z" fill="url(#paint0_linear_3371_20619)" fill-opacity="0.5" />
  <defs>
    <linearGradient id="paint0_linear_3371_20619" x1="-3.01729e-08" y1="37.9687" x2="125.039" y2="35.0375" gradientUnits="userSpaceOnUse">
      <stop stop-color="#6C2276" />
      <stop offset="0.25" stop-color="#682D78" />
      <stop offset="0.5" stop-color="#643579" />
      <stop offset="0.75" stop-color="#613B7A" />
      <stop offset="1" stop-color="#5D447C" />
    </linearGradient>
  </defs>
</svg>