<svg width="33" height="32" viewBox="0 0 33 32" fill="none" xmlns="http://www.w3.org/2000/svg">
  <g clip-path="url(#clip0_3458_26959)">
    <path d="M21.7547 10.6667C21.8027 10.228 21.8333 9.784 21.8333 9.33333C21.8333 8.88267 21.804 8.43867 21.7547 8H23.8333C24.5453 8 25.212 8.17333 25.8133 8.46267C24.9093 8.804 24.0747 9.32133 23.372 10.024L22.7293 10.6667H21.7547ZM25.8333 29.3333H7.16667V21.0253C6.23067 20.812 5.33867 20.488 4.5 20.0707V32H28.5V24.4373L25.8333 27.104V29.3333ZM31.2573 17.9093L22.4987 26.6667H16.4987V20.6667L25.256 11.9093C26.9093 10.256 29.6013 10.256 31.256 11.9093C32.9093 13.5627 32.9093 16.256 31.256 17.9093H31.2573ZM29.3707 13.7947C28.7573 13.18 27.7573 13.18 27.1427 13.7947L19.1667 21.7707V24H21.3947L29.3707 16.024C29.984 15.4093 29.984 14.4093 29.3707 13.7947ZM9.83333 18.6667C4.68667 18.6667 0.5 14.4787 0.5 9.33333C0.5 4.188 4.68667 0 9.83333 0C14.98 0 19.1667 4.188 19.1667 9.33333C19.1667 14.4787 14.98 18.6667 9.83333 18.6667ZM9.83333 16C13.5093 16 16.5 13.0093 16.5 9.33333C16.5 5.65733 13.5093 2.66667 9.83333 2.66667C6.15733 2.66667 3.16667 5.65733 3.16667 9.33333C3.16667 13.0093 6.15733 16 9.83333 16ZM15.156 8.15733L13.2867 6.256L8.98133 10.4893L6.808 8.38267L4.95067 10.2973L7.412 12.6827C7.832 13.1027 8.38933 13.3333 8.984 13.3333C9.57867 13.3333 10.136 13.1013 10.5467 12.6907L15.156 8.15733Z" fill="url(#paint0_linear_3458_26959)" />
  </g>
  <defs>
    <linearGradient id="paint0_linear_3458_26959" x1="0.5" y1="0" x2="40.5142" y2="2.00916" gradientUnits="userSpaceOnUse">
      <stop stop-color="#E37CC1" />
      <stop offset="0.365" stop-color="#E231A8" />
      <stop offset="0.76" stop-color="#9D2F79" />
      <stop offset="1" stop-color="#851A62" />
    </linearGradient>
    <clipPath id="clip0_3458_26959">
      <rect width="32" height="32" fill="white" transform="translate(0.5)" />
    </clipPath>
  </defs>
</svg>