<svg width="33" height="32" viewBox="0 0 33 32" fill="none" xmlns="http://www.w3.org/2000/svg">
  <g clip-path="url(#clip0_3371_20614)">
    <path d="M7.16667 26.6667H11.0173C10.2227 27.3613 9.63067 28.2787 9.356 29.3333H7.16667C4.95733 29.3333 3.16667 27.5427 3.16667 25.3333V22.6667H5.83333V25.3333C5.83333 26.0693 6.43067 26.6667 7.16667 26.6667ZM7.16667 2.66667C4.95733 2.66667 3.16667 4.45733 3.16667 6.66667V8.396C3.78533 8.14533 4.45867 8 5.16667 8C5.39467 8 5.61333 8.03867 5.83333 8.06667V6.66667C5.83333 5.93067 6.43067 5.33333 7.16667 5.33333H11.052C11.244 5.16533 11.4253 4.984 11.6427 4.84533C11.3427 4.17867 11.1667 3.444 11.1667 2.66667H7.16667ZM27.1667 6.66667V8.06667C27.3867 8.03733 27.6053 8 27.8333 8C28.5413 8 29.2147 8.14533 29.8333 8.396V6.66667C29.8333 4.45733 28.0427 2.66667 25.8333 2.66667H21.8333C21.8333 3.444 21.6573 4.17867 21.3573 4.84533C21.5747 4.984 21.7547 5.16533 21.948 5.33333H25.8333C26.5693 5.33333 27.1667 5.93067 27.1667 6.66667ZM27.1667 25.3333C27.1667 26.0693 26.5693 26.6667 25.8333 26.6667H21.9827C22.7773 27.3613 23.3693 28.2787 23.644 29.3333H25.8333C28.0427 29.3333 29.8333 27.5427 29.8333 25.3333V22.6667H27.1667V25.3333ZM16.5 5.33333C17.9733 5.33333 19.1667 4.14 19.1667 2.66667C19.1667 1.19333 17.9733 0 16.5 0C15.0267 0 13.8333 1.19333 13.8333 2.66667C13.8333 4.14 15.0267 5.33333 16.5 5.33333ZM18.5 6.66667H14.5C13.0293 6.66667 11.8333 7.86267 11.8333 9.33333V10.6667H14.5V9.33333H18.5V10.6667H21.1667V9.33333C21.1667 7.86267 19.9707 6.66667 18.5 6.66667ZM16.5 26.6667C17.9733 26.6667 19.1667 25.4733 19.1667 24C19.1667 22.5267 17.9733 21.3333 16.5 21.3333C15.0267 21.3333 13.8333 22.5267 13.8333 24C13.8333 25.4733 15.0267 26.6667 16.5 26.6667ZM18.5 28H14.5C13.0293 28 11.8333 29.196 11.8333 30.6667V32H14.5V30.6667H18.5V32H21.1667V30.6667C21.1667 29.196 19.9707 28 18.5 28ZM29.8333 17.3333H25.8333C24.3627 17.3333 23.1667 18.5293 23.1667 20V21.3333H25.8333V20H29.8333V21.3333H32.5V20C32.5 18.5293 31.304 17.3333 29.8333 17.3333ZM3.16667 20H7.16667V21.3333H9.83333V20C9.83333 18.5293 8.63733 17.3333 7.16667 17.3333H3.16667C1.696 17.3333 0.5 18.5293 0.5 20V21.3333H3.16667V20ZM27.8333 10.6667C26.36 10.6667 25.1667 11.86 25.1667 13.3333C25.1667 14.8067 26.36 16 27.8333 16C29.3067 16 30.5 14.8067 30.5 13.3333C30.5 11.86 29.3067 10.6667 27.8333 10.6667ZM5.16667 16C6.64 16 7.83333 14.8067 7.83333 13.3333C7.83333 11.86 6.64 10.6667 5.16667 10.6667C3.69333 10.6667 2.5 11.86 2.5 13.3333C2.5 14.8067 3.69333 16 5.16667 16Z" fill="url(#paint0_linear_3371_20614)" />
  </g>
  <defs>
    <linearGradient id="paint0_linear_3371_20614" x1="0.5" y1="0" x2="40.5192" y2="2.00966" gradientUnits="userSpaceOnUse">
      <stop stop-color="#E37CC1" />
      <stop offset="0.365" stop-color="#E231A8" />
      <stop offset="0.76" stop-color="#9D2F79" />
      <stop offset="1" stop-color="#851A62" />
    </linearGradient>
    <clipPath id="clip0_3371_20614">
      <rect width="32" height="32" fill="white" transform="translate(0.5)" />
    </clipPath>
  </defs>
</svg>