<svg width="33" height="32" viewBox="0 0 33 32" fill="none" xmlns="http://www.w3.org/2000/svg">
  <g clip-path="url(#clip0_3371_20610)">
    <path d="M17.2961 14.4227L13.6174 18.0253C13.1907 18.452 12.6254 18.6667 12.0601 18.6667C11.4907 18.6667 10.9201 18.4507 10.4854 18.016L8.55208 16.1587L10.4001 14.236L12.0547 15.8253L15.4321 12.5187L17.2974 14.424L17.2961 14.4227ZM15.1667 25.3333H23.1667V22.6667H15.1667V25.3333ZM9.83342 25.3333H12.5001V22.6667H9.83342V25.3333ZM15.1667 9.33333H23.1667V6.66667H15.1667V9.33333ZM12.5001 6.66667H9.83342V9.33333H12.5001V6.66667ZM29.8334 4V32H3.16675V4C3.16675 1.79467 4.96141 0 7.16675 0H25.8334C28.0387 0 29.8334 1.79467 29.8334 4ZM27.1667 4C27.1667 3.26533 26.5681 2.66667 25.8334 2.66667H7.16675C6.43208 2.66667 5.83341 3.26533 5.83341 4V29.3333H27.1667V4ZM17.8334 17.3333H23.1667V14.6667H20.5561L17.8334 17.3333Z" fill="url(#paint0_linear_3371_20610)" />
  </g>
  <defs>
    <linearGradient id="paint0_linear_3371_20610" x1="3.16675" y1="0" x2="36.5417" y2="1.39667" gradientUnits="userSpaceOnUse">
      <stop stop-color="#E37CC1" />
      <stop offset="0.365" stop-color="#E231A8" />
      <stop offset="0.76" stop-color="#9D2F79" />
      <stop offset="1" stop-color="#851A62" />
    </linearGradient>
    <clipPath id="clip0_3371_20610">
      <rect width="32" height="32" fill="white" transform="translate(0.5)" />
    </clipPath>
  </defs>
</svg>