
<svg width="32" height="32" viewBox="0 0 32 32" fill="none" xmlns="http://www.w3.org/2000/svg">
<path d="M7.83333 9.33333C5.26 9.33333 3.16667 7.24 3.16667 4.66667C3.16667 2.09333 5.26 0 7.83333 0C10.4067 0 12.5 2.09333 12.5 4.66667C12.5 7.24 10.4067 9.33333 7.83333 9.33333ZM19.8333 9.33333C17.26 9.33333 15.1667 7.24 15.1667 4.66667C15.1667 2.09333 17.26 0 19.8333 0C22.4067 0 24.5 2.09333 24.5 4.66667C24.5 7.24 22.4067 9.33333 19.8333 9.33333ZM29.8333 22.6667C29.8333 21.932 29.6853 21.2387 29.4653 20.5773L31.92 19.164L30.5893 16.8533L28.136 18.2667C27.1947 17.2053 25.9413 16.4293 24.5013 16.136V13.3347H21.8347V16.136C20.3947 16.4293 19.14 17.2053 18.2 18.2667L15.7467 16.8533L14.416 19.164L16.8707 20.5773C16.6507 21.2387 16.5027 21.932 16.5027 22.6667C16.5027 23.4013 16.6507 24.0947 16.8707 24.756L14.416 26.1693L15.7467 28.48L18.2 27.0667C19.1413 28.128 20.3947 28.904 21.8347 29.1973V31.9987H24.5013V29.1973C25.9413 28.904 27.196 28.128 28.136 27.0667L30.5893 28.48L31.92 26.1693L29.4653 24.756C29.6853 24.0947 29.8333 23.4013 29.8333 22.6667ZM23.1667 24.6667C22.064 24.6667 21.1667 23.7693 21.1667 22.6667C21.1667 21.564 22.064 20.6667 23.1667 20.6667C24.2693 20.6667 25.1667 21.564 25.1667 22.6667C25.1667 23.7693 24.2693 24.6667 23.1667 24.6667ZM11.624 19.416C11.8707 18.5413 12.2027 17.7027 12.6307 16.9213C13.2253 15.7613 13.9533 14.824 15.1013 13.8C15.7667 13.1947 16.4947 12.66 17.2827 12.2147C16.4293 11.2693 15.204 10.6667 13.8333 10.6667C11.26 10.6667 9.16667 12.76 9.16667 15.3333C9.16667 17.104 10.1653 18.632 11.624 19.416ZM6.5 15.3333C6.5 13.5627 7.132 11.936 8.18133 10.6667H4.5C2.29467 10.6667 0.5 12.4613 0.5 14.6667V18.6667H7.328C6.80267 17.6507 6.5 16.5173 6.5 15.3333ZM10.7733 25.1907L13.8667 23.408C13.844 23.16 13.8333 22.9133 13.8333 22.6667C13.8333 22.42 13.844 22.1733 13.8667 21.9253L12.8387 21.3333H9.83333C7.628 21.3333 5.83333 23.128 5.83333 25.3333V29.3333H13.1587L10.7733 25.1907Z" fill="url(#paint0_linear_3371_20613)"/>
<defs>
<linearGradient id="paint0_linear_3371_20613" x1="0.5" y1="0" x2="39.7974" y2="1.93773" gradientUnits="userSpaceOnUse">
<stop stop-color="#E37CC1"/>
<stop offset="0.365" stop-color="#E231A8"/>
<stop offset="0.76" stop-color="#9D2F79"/>
<stop offset="1" stop-color="#851A62"/>
</linearGradient>
</defs>
</svg>
