<svg width="22" height="22" viewBox="0 0 22 22" fill="none" xmlns="http://www.w3.org/2000/svg">
<path d="M20.9994 15.6818V18.6818C21.0006 18.9603 20.9435 19.236 20.832 19.4912C20.7204 19.7463 20.5567 19.9754 20.3515 20.1637C20.1463 20.352 19.904 20.4953 19.6402 20.5845C19.3764 20.6737 19.0968 20.7069 18.8194 20.6818C15.7423 20.3475 12.7864 19.296 10.1894 17.6118C7.77327 16.0765 5.72478 14.028 4.18945 11.6118C2.49942 9.00302 1.44769 6.03281 1.11944 2.94182C1.09446 2.66528 1.12732 2.38658 1.21595 2.12344C1.30457 1.8603 1.44702 1.6185 1.63421 1.41344C1.82141 1.20837 2.04925 1.04453 2.30324 0.932338C2.55722 0.82015 2.83179 0.762077 3.10945 0.761816H6.10945C6.59475 0.757039 7.06524 0.928894 7.43321 1.24535C7.80118 1.5618 8.04152 2.00126 8.10944 2.48182C8.23607 3.44188 8.47089 4.38454 8.80945 5.29182C8.94399 5.64974 8.97311 6.03873 8.89335 6.4127C8.8136 6.78666 8.62831 7.12993 8.35944 7.40182L7.08945 8.67182C8.513 11.1754 10.5859 13.2483 13.0894 14.6718L14.3594 13.4018C14.6313 13.133 14.9746 12.9477 15.3486 12.8679C15.7225 12.7882 16.1115 12.8173 16.4694 12.9518C17.3767 13.2904 18.3194 13.5252 19.2794 13.6518C19.7652 13.7203 20.2088 13.965 20.526 14.3393C20.8431 14.7136 21.0116 15.1914 20.9994 15.6818Z" stroke="#FCFCFC" stroke-width="1.5" stroke-linecap="round" stroke-linejoin="round"/>
</svg>
