<svg width="296" height="74" viewBox="0 0 296 74" fill="none" xmlns="http://www.w3.org/2000/svg">
<path d="M15.8569 36.7991C18.1545 38.0165 19.5104 40.23 19.5104 42.9968C19.5104 47.1287 15.7816 50.4489 11.1865 50.4489H0V24.6249H10.8851C15.4426 24.6249 18.8324 27.4655 18.8324 31.2653C18.8324 33.4788 17.7025 35.5448 15.8569 36.7991ZM13.2957 32.1138C13.2957 30.4906 12.1281 29.3839 10.3578 29.3839H5.5744V34.8807H10.3578C12.1281 34.8807 13.2957 33.7371 13.2957 32.1138ZM10.6592 45.321C12.5424 45.321 13.7853 44.1036 13.7853 42.4066C13.7853 40.7464 12.5424 39.529 10.6592 39.529H5.5744V45.321H10.6592Z" fill="url(#paint0_linear_4004_268)"/>
<path d="M41.0538 50.412L39.2082 45.5423H28.7374L26.9295 50.412H20.8654L31.2233 24.588H36.6093L47.2685 50.412H41.0538ZM33.9728 31.4129L30.5076 40.6727H37.438L33.9728 31.4129Z" fill="url(#paint1_linear_4004_268)"/>
<path d="M57.1658 45.2472H68.5029V50.412H48.5782V49.6004L59.5764 29.7897H49.1809V24.588H68.051V25.6209L57.1658 45.2472Z" fill="url(#paint2_linear_4004_268)"/>
<path d="M90.0475 50.412L88.202 45.5423H77.7311L75.9232 50.412H69.8592L80.217 24.588H85.6031L96.2622 50.412H90.0475ZM82.9665 31.4129L79.5014 40.6727H86.4317L82.9665 31.4129Z" fill="url(#paint3_linear_4004_268)"/>
<path d="M148.886 0.627727C143.622 1.11853 138.756 2.74975 134.436 5.4925C133.064 6.35863 130.823 8.01872 130.646 8.30743C130.587 8.40847 130.027 8.88485 129.422 9.37566C127.741 10.7037 127.712 10.8625 129.348 9.79428C132.224 7.91766 135.512 6.57516 138.992 5.85339C140.688 5.4925 141.145 5.46363 144.241 5.44919C147.249 5.44919 147.825 5.4925 149.329 5.79565C160.034 7.94654 168.439 15.6695 171.506 26.1786C172.228 28.676 172.154 28.7193 170.857 26.4529C168.675 22.6996 168.07 21.7469 167.185 20.5632C160.255 11.4111 148.547 6.64734 137.105 8.33629C126.311 9.9242 117.066 16.7811 112.686 26.4673C111.02 30.1628 110.15 33.8583 110.002 38.0013C109.604 48.9146 114.854 58.8895 124.232 65.0391C126.694 66.6703 130.956 68.4747 134.878 69.5718C134.996 69.6007 134.303 69.2253 133.33 68.7201C131.265 67.6519 130.631 67.2621 129.127 66.1506C124.94 63.0181 121.681 58.5575 120 53.635C116.8 44.223 118.997 33.9161 125.869 26.1209C126.621 25.2692 127.299 24.533 127.387 24.4897C127.594 24.3597 127.579 24.3742 126.281 26.3085C124.04 29.6287 122.285 33.8727 121.519 37.8425C120.988 40.5564 120.87 44.4829 121.238 47.24C122.698 58.5142 130.336 68.2293 140.924 72.2712C144.64 73.6859 147.839 74.35 151.614 74.4799C162.717 74.8697 173.216 69.5718 179.277 60.5207C181.842 56.6953 183.553 52.2059 184.202 47.6009C184.585 44.8871 184.467 40.6574 183.907 37.4961L183.464 35.042L183.376 37.857C183.287 40.4409 183.096 41.9999 182.653 43.66C179.896 54.1402 171.27 61.7622 160.019 63.6388C157.851 63.9997 154.018 64.0719 151.732 63.7832C149.815 63.5378 147.028 62.9603 146.542 62.7005C146.394 62.6139 147.898 62.5706 150.508 62.585C155.05 62.6139 155.935 62.5417 158.987 61.8199C165.077 60.3908 170.031 57.6192 174.396 53.2164C176.962 50.6324 178.584 48.3516 180.235 45.0025C181.4 42.6495 182.27 40.1089 182.742 37.5827C182.948 36.5 183.169 35.4173 183.243 35.1864C183.464 34.4935 183.317 28.7337 183.037 27.1025C181.68 18.8309 177.537 11.9163 170.975 6.96492C164.782 2.27338 156.554 -0.0940498 148.886 0.627727ZM160.329 4.09225C168.114 6.69065 174.558 12.205 178.097 19.3073C182.181 27.5067 182.152 36.9619 178.008 45.1469C175.516 50.0838 171.904 54.1114 167.171 57.1861C165.902 58.0234 164.045 59.0772 163.853 59.0772C163.794 59.0772 164.531 58.5575 165.49 57.9368C174.219 52.2636 179.321 42.2887 178.923 31.7219C178.731 26.9293 177.773 23.1616 175.649 18.8742C174.012 15.5685 172.449 13.4032 169.854 10.8048C166.89 7.84549 163.558 5.62242 159.872 4.14999C158.618 3.64475 158.323 3.5004 158.5 3.5004C158.544 3.5004 159.37 3.76023 160.329 4.09225ZM151.791 4.16443C151.747 4.20774 151.614 4.22217 151.511 4.17886C151.393 4.13555 151.437 4.09225 151.599 4.09225C151.762 4.07782 151.85 4.12112 151.791 4.16443ZM153.752 4.51088C164.546 7.02267 173.083 15.1643 175.87 25.6012C176.667 28.6038 176.814 29.8452 176.814 33.3098C176.814 36.6732 176.681 37.6982 175.929 40.6719C173.835 48.7991 167.834 56.0024 160.166 59.568C158.338 60.4197 157.851 60.5352 159.282 59.7556C164.797 56.8108 168.822 52.6678 171.535 47.1679C173.629 42.895 174.573 38.7953 174.558 33.8872C174.558 26.6405 172.376 20.3034 167.923 14.5436C166.817 13.1145 163.941 10.3284 162.423 9.18799C159.4 6.96492 155.522 5.11717 152.204 4.32322L151.909 4.25104L152.204 4.2366C152.366 4.2366 153.059 4.35209 153.752 4.51088ZM145.509 9.99638C147.721 10.2274 150.464 10.7903 152.499 11.4544C154.239 12.0174 158.633 14.0528 159.355 14.6158C159.562 14.7745 158.898 14.5147 157.881 14.0528C153.192 11.873 149.063 11.0357 143.74 11.1945C139.995 11.31 136.913 11.9163 133.448 13.2444C126.93 15.7417 121.238 20.4188 117.611 26.2652C115.252 30.0762 113.659 34.71 113.202 39.1417C112.952 41.5813 113.011 43.3713 113.423 46.7348C113.482 47.2689 113.482 47.2834 113.35 46.8792C112.568 44.555 112.229 39.1128 112.671 35.7349C114.146 24.3742 121.784 15.121 132.681 11.4544C136.765 10.0974 141.248 9.57775 145.509 9.99638ZM149.432 13.1C153.959 13.6774 158.235 15.2509 161.877 17.6472C163.971 19.0186 164.811 19.7692 162.939 18.5855C160.107 16.7955 156.952 15.5541 153.457 14.8323C151.201 14.3703 146.881 14.1827 144.522 14.457C135.601 15.4819 127.564 20.1157 122.167 27.319C116.844 34.4357 115.001 43.6312 117.257 51.8594C117.626 53.2452 117.36 52.7977 116.83 51.1665C111.507 34.6956 121.799 17.3296 139.154 13.5331C142.162 12.8691 146.291 12.7103 149.432 13.1ZM151.216 16.0593C159.518 16.9254 166.625 21.0107 171.167 27.4922C172.331 29.1668 172.464 29.6864 172.582 33.3098C172.641 35.4318 172.612 36.4856 172.42 37.958C171.447 45.4067 167.672 52.0759 161.847 56.6809C158.176 59.568 153.384 61.5601 148.65 62.1808C145.716 62.5706 145.288 62.4984 142.236 61.0693C134.273 57.3594 128.361 50.4014 126.267 42.2598C125.588 39.6325 125.397 37.7703 125.485 34.8977C125.603 30.9712 126.281 28.0119 127.8 24.7928C128.405 23.4936 128.98 22.9162 131.236 21.3571C137.06 17.3152 144.433 15.352 151.216 16.0593ZM124.512 32.9777C124.468 33.0932 124.424 33.0499 124.424 32.8911C124.409 32.7323 124.453 32.6457 124.497 32.7035C124.541 32.7468 124.556 32.8767 124.512 32.9777ZM124.291 36.2402C124.217 39.5459 124.424 41.2782 125.205 44.0931C128.302 55.1507 138.181 63.6099 150.479 65.7464C152.956 66.165 158.146 66.2083 160.461 65.8186C166.374 64.8081 171.668 62.354 175.398 58.8751C175.9 58.4131 176.313 58.0811 176.313 58.1677C176.313 58.3698 173.319 61.1992 172.258 61.9787C167.982 65.169 162.835 67.2188 157.439 67.8829C155.64 68.0994 151.968 68.0561 150.036 67.8107C143.357 66.9445 137.223 63.9708 132.489 59.2648C129.938 56.7531 128.405 54.631 126.827 51.4985C124.659 47.1823 123.701 42.7939 123.863 37.9291C123.922 36.0958 124.188 33.3819 124.32 33.3819C124.335 33.3819 124.32 34.6667 124.291 36.2402ZM122.595 38.3911C122.551 38.5354 122.521 38.4488 122.521 38.2178C122.521 37.9724 122.551 37.8714 122.595 37.958C122.625 38.059 122.625 38.2611 122.595 38.3911ZM122.639 42.3608C123.362 51.2964 128.228 59.4525 135.984 64.7359C139.361 67.0312 143.799 68.8789 147.883 69.6729C150.656 70.2214 152.632 70.3802 155.374 70.2936C161.464 70.077 166.743 68.4025 171.815 65.0535C173.393 63.9997 173.423 63.9997 172.626 64.707C171.565 65.6598 169.574 67.0456 167.878 67.9983C164.31 70.0337 160.107 71.4196 155.964 71.9104C154.165 72.1413 150.493 72.098 148.547 71.8526C137.134 70.3946 127.609 62.585 123.966 51.7439C122.743 48.0917 122.33 45.45 122.374 41.538C122.389 40.1811 122.418 39.3727 122.448 39.7336C122.462 40.0945 122.551 41.2782 122.639 42.3608Z" fill="url(#paint4_linear_4004_268)"/>
<path d="M209.47 50.9285C203.406 50.9285 199.225 47.6083 199.225 42.0745H204.988C204.988 44.5463 207.097 45.7637 209.432 45.7637C211.579 45.7637 213.688 44.6569 213.688 42.7386C213.688 40.7096 211.278 40.1562 208.415 39.529C204.423 38.5698 199.602 37.4262 199.602 31.8556C199.602 26.9121 203.33 24.1084 209.168 24.1084C215.232 24.1084 218.66 27.281 218.66 32.4459H213.048C213.048 30.1955 211.165 29.1625 209.018 29.1625C207.172 29.1625 205.327 29.9372 205.327 31.6342C205.327 33.4419 207.586 33.9953 210.411 34.6594C214.404 35.6554 219.451 36.8728 219.451 42.6648C219.451 48.2354 214.931 50.9285 209.47 50.9285Z" fill="url(#paint5_linear_4004_268)"/>
<path d="M246.01 50.412H239.042L229.739 37.832V50.412H224.051V24.588H229.739V36.5408L238.402 24.588H245.031L236.066 36.9835L246.01 50.412Z" fill="url(#paint6_linear_4004_268)"/>
<path d="M248.769 50.412V24.588H254.456V50.412H248.769Z" fill="url(#paint7_linear_4004_268)"/>
<path d="M266.19 45.2472H276.322V50.412H260.502V24.588H266.19V45.2472Z" fill="url(#paint8_linear_4004_268)"/>
<path d="M285.868 45.2472H296V50.412H280.181V24.588H285.868V45.2472Z" fill="url(#paint9_linear_4004_268)"/>
<defs>
<linearGradient id="paint0_linear_4004_268" x1="-1.04424e-07" y1="25.475" x2="295.968" y2="50.8261" gradientUnits="userSpaceOnUse">
<stop stop-color="#5BFF75"/>
<stop offset="0.98809" stop-color="#FFF854"/>
</linearGradient>
<linearGradient id="paint1_linear_4004_268" x1="-1.04424e-07" y1="25.475" x2="295.968" y2="50.8261" gradientUnits="userSpaceOnUse">
<stop stop-color="#5BFF75"/>
<stop offset="0.98809" stop-color="#FFF854"/>
</linearGradient>
<linearGradient id="paint2_linear_4004_268" x1="-1.04424e-07" y1="25.475" x2="295.968" y2="50.8261" gradientUnits="userSpaceOnUse">
<stop stop-color="#5BFF75"/>
<stop offset="0.98809" stop-color="#FFF854"/>
</linearGradient>
<linearGradient id="paint3_linear_4004_268" x1="-1.04424e-07" y1="25.475" x2="295.968" y2="50.8261" gradientUnits="userSpaceOnUse">
<stop stop-color="#5BFF75"/>
<stop offset="0.98809" stop-color="#FFF854"/>
</linearGradient>
<linearGradient id="paint4_linear_4004_268" x1="-1.04424e-07" y1="25.475" x2="295.968" y2="50.8261" gradientUnits="userSpaceOnUse">
<stop stop-color="#5BFF75"/>
<stop offset="0.98809" stop-color="#FFF854"/>
</linearGradient>
<linearGradient id="paint5_linear_4004_268" x1="-1.04424e-07" y1="25.475" x2="295.968" y2="50.8261" gradientUnits="userSpaceOnUse">
<stop stop-color="#5BFF75"/>
<stop offset="0.98809" stop-color="#FFF854"/>
</linearGradient>
<linearGradient id="paint6_linear_4004_268" x1="-1.04424e-07" y1="25.475" x2="295.968" y2="50.8261" gradientUnits="userSpaceOnUse">
<stop stop-color="#5BFF75"/>
<stop offset="0.98809" stop-color="#FFF854"/>
</linearGradient>
<linearGradient id="paint7_linear_4004_268" x1="-1.04424e-07" y1="25.475" x2="295.968" y2="50.8261" gradientUnits="userSpaceOnUse">
<stop stop-color="#5BFF75"/>
<stop offset="0.98809" stop-color="#FFF854"/>
</linearGradient>
<linearGradient id="paint8_linear_4004_268" x1="-1.04424e-07" y1="25.475" x2="295.968" y2="50.8261" gradientUnits="userSpaceOnUse">
<stop stop-color="#5BFF75"/>
<stop offset="0.98809" stop-color="#FFF854"/>
</linearGradient>
<linearGradient id="paint9_linear_4004_268" x1="-1.04424e-07" y1="25.475" x2="295.968" y2="50.8261" gradientUnits="userSpaceOnUse">
<stop stop-color="#5BFF75"/>
<stop offset="0.98809" stop-color="#FFF854"/>
</linearGradient>
</defs>
</svg>
